<?xml version="1.0" standalone="no"?>
<!DOCTYPE svg PUBLIC "-//W3C//DTD SVG 1.1//EN" "http://www.w3.org/Graphics/SVG/1.1/DTD/svg11.dtd" >
<svg xmlns="http://www.w3.org/2000/svg">
<metadata></metadata>
<defs>
<font id="permianseriftypefaceregular" horiz-adv-x="500" >
<font-face units-per-em="1000" ascent="750" descent="-250" />
<missing-glyph horiz-adv-x="235" />
<glyph unicode="ff" horiz-adv-x="747" d="M34 0v21l80 22v412l-66 3v42h66v39q0 94 45 152.5t142 58.5q36 0 87 -11t54 -11l-20 -84q-36 5 -80.5 29.5t-64.5 24.5q-70 0 -70 -101v-97h266v49q0 94 45 152.5t142 58.5q36 0 87 -11t54 -11l-20 -84q-36 5 -80.5 29.5t-64.5 24.5q-70 0 -70 -101v-107h161v-52l-161 5 v-410l100 -22v-21h-273v21l80 22v412l-266 1v-413l100 -22v-21h-273z" />
<glyph unicode="fi" horiz-adv-x="666" d="M34 0v21l80 22v412l-66 3v42h66v49q0 94 45 152.5t142 58.5q24 0 44 -3t45.5 -9t39.5 -8l-19 -81q-33 6 -73 27.5t-61 21.5q-70 0 -70 -101v-107l331 5l20 -5v-457l80 -22v-21h-253v21l80 22v409l-258 1v-410l100 -22v-21h-273zM450 684q0 26 18 41t46 15 q27 0 42.5 -14.5t15.5 -39.5q0 -27 -17 -43t-46 -16q-26 0 -42.5 16t-16.5 41z" />
<glyph unicode="fl" horiz-adv-x="670" d="M34 0v21l80 22v412l-66 3v42h66v49q0 93 43 152t133 59q29 0 77.5 -11t81.5 -11q45 0 93 23l20 -5v-714l80 -21v-21h-253v21l80 21v497q0 39 2.5 72.5t4.5 48.5l3 14q-24 -20 -70 -20q-30 0 -69.5 27t-62.5 27q-70 0 -70 -101v-107h161v-52l-161 5v-410l100 -22v-21h-273 z" />
<glyph unicode="ffi" horiz-adv-x="1025" d="M34 0v21l80 22v412l-66 3v42h66v39q0 94 45 152.5t142 58.5q36 0 87 -11t54 -11l-20 -84q-36 5 -80.5 29.5t-64.5 24.5q-70 0 -70 -101v-97h266v49q0 94 45 152.5t142 58.5q24 0 44 -3t45.5 -9t39.5 -8l-19 -81q-33 6 -73 27.5t-61 21.5q-70 0 -70 -101v-107l331 5l20 -5 v-457l80 -22v-21h-253v21l80 22v409l-258 1v-410l100 -22v-21h-273v21l80 22v412l-266 1v-413l100 -22v-21h-273zM809 684q0 26 18 41t46 15q27 0 42.5 -14.5t15.5 -39.5q0 -27 -17 -43t-46 -16q-26 0 -42.5 16t-16.5 41z" />
<glyph unicode="ffl" horiz-adv-x="1029" d="M34 0v21l80 22v412l-66 3v42h66v39q0 94 45 152.5t142 58.5q36 0 87 -11t54 -11l-20 -84q-36 5 -80.5 29.5t-64.5 24.5q-70 0 -70 -101v-97h266v49q0 93 43 152t133 59q29 0 77.5 -11t81.5 -11q45 0 93 23l20 -5v-714l80 -21v-21h-253v21l80 21v497q0 39 2.5 72.5 t5.5 48.5l2 14q-24 -20 -70 -20q-30 0 -69.5 27t-62.5 27q-70 0 -70 -101v-107h161v-52l-161 5v-410l100 -22v-21h-273v21l80 22v409l-266 4v-413l100 -22v-21h-273z" />
<glyph unicode="fb" horiz-adv-x="958" d="M34 0v21l80 22v412l-66 3v42h66v49q0 93 43 152t133 59q29 0 77.5 -11t81.5 -11q45 0 93 23l20 -5l-2 -315q71 69 159 69q92 0 140 -69t48 -164q0 -135 -65.5 -211t-193.5 -76q-111 0 -179 40v509q0 39 2.5 72.5t4.5 48.5l3 14q-24 -20 -70 -20q-30 0 -69.5 27t-62.5 27 q-70 0 -70 -101v-107h161v-52l-161 5v-410l100 -22v-21h-273zM558 401q4 -51 4 -100v-236q37 -25 90 -25q79 0 118.5 58t39.5 142q0 96 -31 146t-102 50q-63 0 -119 -35z" />
<glyph unicode="fh" horiz-adv-x="982" d="M34 0v21l80 22v412l-66 3v42h66v49q0 93 43 152t133 59q29 0 77.5 -11t81.5 -11q45 0 93 23l20 -5l-4 -315q89 69 162 69q77 0 119 -49t42 -130v-288l80 -22v-21h-243v21l70 22v265q0 128 -103 128q-32 0 -63.5 -8.5t-47.5 -17.5l-16 -8q4 -41 4 -95v-264l70 -22v-21 h-243v21l80 22v496q0 39 2.5 72.5t4.5 48.5l3 14q-24 -20 -70 -20q-30 0 -69.5 27t-62.5 27q-70 0 -70 -101v-107h161v-52l-161 5v-410l100 -22v-21h-273z" />
<glyph unicode="fk" horiz-adv-x="945" d="M34 0v21l80 22v412l-66 3v42h66v49q0 93 43 152t133 59q29 0 77.5 -11t81.5 -11q45 0 93 23l20 -5v-472h74l126 175l-58 20v21h205v-21q-66 -13 -89 -40l-130 -151l197 -236q22 -26 52 -31v-21h-62q-41 0 -64 12.5t-45 40.5l-150 185h-56v-195l70 -22v-21h-243v21l80 22 v496q0 39 2.5 72.5t4.5 48.5l3 14q-24 -20 -70 -20q-30 0 -69.5 27t-62.5 27q-70 0 -70 -101v-107h161v-52l-161 5v-410l100 -22v-21h-273z" />
<glyph unicode="ffb" horiz-adv-x="1317" d="M34 0v21l80 22v412l-66 3v42h66v39q0 94 45 152.5t142 58.5q36 0 87 -11t54 -11l-20 -84q-36 5 -80.5 29.5t-64.5 24.5q-70 0 -70 -101v-97h266v49q0 93 43 152t133 59q29 0 77.5 -11t81.5 -11q45 0 93 23l20 -5l-2 -315q71 69 159 69q92 0 140 -69t48 -164 q0 -135 -65.5 -211t-193.5 -76q-111 0 -179 40v509q0 39 2.5 72.5t5.5 48.5l2 14q-24 -20 -70 -20q-30 0 -69.5 27t-62.5 27q-70 0 -70 -101v-107h161v-52l-161 5v-410l100 -22v-21h-273v21l80 22v410l-266 3v-413l100 -22v-21h-273zM917 401q4 -51 4 -100v-236 q37 -25 90 -25q79 0 118.5 58t39.5 142q0 96 -31 146t-102 50q-63 0 -119 -35z" />
<glyph unicode="ffh" horiz-adv-x="1341" d="M34 0v21l80 22v412l-66 3v42h66v39q0 94 45 152.5t142 58.5q36 0 87 -11t54 -11l-20 -84q-36 5 -80.5 29.5t-64.5 24.5q-70 0 -70 -101v-97h266v49q0 93 43 152t133 59q29 0 77.5 -11t81.5 -11q45 0 93 23l20 -5l-4 -315q89 69 162 69q77 0 119 -49t42 -130v-288l80 -22 v-21h-243v21l70 22v265q0 128 -103 128q-32 0 -64 -8.5t-48 -17.5l-15 -8q4 -41 4 -95v-264l70 -22v-21h-243v21l80 22v496q0 39 2.5 72.5t5.5 48.5l2 14q-24 -20 -70 -20q-30 0 -69.5 27t-62.5 27q-70 0 -70 -101v-107h161v-52l-161 5v-410l100 -22v-21h-273v21l80 22v409 l-266 4v-413l100 -22v-21h-273z" />
<glyph unicode="ffj" horiz-adv-x="1007" d="M34 0v21l80 22v412l-66 3v42h66v39q0 94 45 152.5t142 58.5q36 0 87 -11t54 -11l-20 -84q-36 5 -80.5 29.5t-64.5 24.5q-70 0 -70 -101v-97h266v49q0 94 45 152.5t142 58.5q24 0 44 -3t45.5 -9t39.5 -8l-19 -81q-33 6 -73 27.5t-61 21.5q-70 0 -70 -101v-107l331 5l20 -5 v-483q0 -151 -156 -274l-20 20q83 86 83 242v451h-258v-413l100 -22v-21h-273v21l80 22v412l-22 1h-244v-413l100 -22v-21h-273zM809 684q0 26 18 41t46 15q27 0 42.5 -14.5t15.5 -39.5q0 -27 -17 -43t-46 -16q-26 0 -42.5 16t-16.5 41z" />
<glyph unicode="ffk" horiz-adv-x="1304" d="M34 0v21l80 22v412l-66 3v42h66v39q0 94 45 152.5t142 58.5q36 0 87 -11t54 -11l-20 -84q-36 5 -80.5 29.5t-64.5 24.5q-70 0 -70 -101v-97h266v49q0 93 43 152t133 59q29 0 77.5 -11t81.5 -11q45 0 93 23l20 -5v-472h74l126 175l-58 20v21h205v-21q-66 -13 -89 -40 l-130 -151l197 -236q22 -26 52 -31v-21h-62q-41 0 -64 12.5t-45 40.5l-150 185h-56v-195l70 -22v-21h-243v21l80 22v496q0 39 2.5 72.5t5.5 48.5l2 14q-24 -20 -70 -20q-30 0 -69.5 27t-62.5 27q-70 0 -70 -101v-107h161v-52l-161 5v-410l100 -22v-21h-273v21l80 22v409 l-266 4v-413l100 -22v-21h-273z" />
<glyph unicode="fj" horiz-adv-x="648" d="M34 0v21l80 22v412l-66 3v42h66v49q0 94 45 152.5t142 58.5q36 0 80.5 -9.5t48.5 -10.5l-19 -81q-32 5 -72.5 27t-61.5 22q-70 0 -70 -101v-107l331 5l20 -5v-483q0 -151 -156 -274l-20 20q83 86 83 242v447l-258 1v-410l100 -22v-21h-273zM450 684q0 26 18 41t46 15 q27 0 42.5 -14.5t15.5 -39.5q0 -27 -17 -43t-46 -16q-26 0 -42.5 16t-16.5 41z" />
<glyph unicode=" "  horiz-adv-x="235" />
<glyph unicode="&#x09;" horiz-adv-x="235" />
<glyph unicode="&#xa0;" horiz-adv-x="235" />
<glyph unicode="!" horiz-adv-x="282" d="M81 48q0 29 17.5 45.5t46.5 16.5q27 0 42 -16t15 -44q0 -30 -17 -47.5t-46 -17.5q-26 0 -42 17.5t-16 45.5zM89 701l104 5l-25 -506h-53z" />
<glyph unicode="&#x22;" horiz-adv-x="368" d="M52 701l104 5l-25 -243h-53zM212 701l104 5l-25 -243h-53z" />
<glyph unicode="#" horiz-adv-x="725" d="M47 143v74h121l64 166h-145v74h173l52 135h82l-52 -135h159l52 135h82l-52 -135h92v-74h-120l-63 -166h143v-74h-172l-54 -143h-83l55 143h-159l-54 -143h-83l55 143h-93zM251 217h158l64 166h-159z" />
<glyph unicode="$" horiz-adv-x="512" d="M50 190h37l20 -136q54 -16 117 -16q66 0 108.5 28t42.5 80q0 31 -11 55.5t-36 44t-44.5 31t-56.5 29.5q-35 18 -51 26.5t-44.5 28t-41.5 37t-24 45t-11 59.5q0 68 49 113t132 55l-6 135q38 14 78 0l-8 -134q40 -2 76.5 -11.5t53.5 -17.5l16 -9l-7 -159h-38l-15 124 q-52 22 -117 22q-58 0 -90 -25.5t-32 -75.5q0 -25 10.5 -46.5t32 -39.5t41.5 -30t53 -29q90 -45 119 -70q63 -55 64 -135q0 -71 -47.5 -118t-131.5 -60l9 -144q-37 -14 -78 0l6 139q-50 0 -93.5 9.5t-61.5 18.5l-19 10z" />
<glyph unicode="%" horiz-adv-x="920" d="M42 517q0 91 50 144t146 53q82 0 130 -53t48 -123q0 -91 -50 -144t-146 -53q-82 0 -130 53t-48 123zM134 540q0 -146 98 -146q44 0 67.5 31t23.5 90q0 146 -99 146q-90 0 -90 -121zM172 0q286 400 478 700h97q-267 -373 -477 -700h-98zM504 166q0 91 50 144t146 53 q82 0 130 -53t48 -123q0 -91 -50 -144t-146 -53q-82 0 -130 53t-48 123zM596 189q0 -146 98 -146q44 0 67.5 31t23.5 90q0 146 -99 146q-90 0 -90 -121z" />
<glyph unicode="&#x26;" horiz-adv-x="707" d="M50 159q0 110 136 192q-92 105 -95 180q-5 84 46.5 133.5t133.5 49.5q85 0 131 -40.5t46 -103.5q0 -60 -39 -106.5t-117 -100.5l57 -65q64 -76 120 -136q59 83 87 211l-100 14v31h218v-31l-70 -14q-30 -142 -103 -244q97 -97 145 -97h13v-32h-35q-88 0 -176 69 q-84 -79 -195 -79q-90 0 -146.5 46.5t-56.5 122.5zM145 189q0 -66 36.5 -104t92.5 -38q78 0 139 53q-32 31 -144 159l-59 65q-65 -56 -65 -135zM179 557q1 -13 3 -24t6.5 -23t7 -19.5t10 -19.5t10 -16.5t12.5 -17t12 -14.5t14 -16t13 -15q49 40 70 77t21 89q0 48 -24.5 75 t-67.5 27q-42 0 -66 -29t-21 -74z" />
<glyph unicode="'" horiz-adv-x="208" d="M52 701l104 5l-25 -243h-53z" />
<glyph unicode="(" horiz-adv-x="324" d="M40 289q0 166 76 307t214 206l13 -26q-106 -63 -160.5 -194t-54.5 -283t54.5 -283t160.5 -194l-13 -26q-92 44 -159 123.5t-99 174t-32 195.5z" />
<glyph unicode=")" horiz-adv-x="324" d="M-19 -178q106 63 160.5 194t54.5 283t-54.5 283t-160.5 194l13 26q138 -65 214 -206t76 -307q0 -101 -32 -195.5t-99 -174t-159 -123.5z" />
<glyph unicode="*" horiz-adv-x="537" d="M73 649q-35 6 -34 42q2 33 27 46q18 10 37 0l124 -76l25 19l-30 144q-3 21 11.5 34.5t34.5 13.5q21 0 36 -13.5t11 -35.5l-31 -141l26 -20l124 75q32 16 53 -15q20 -29 6 -54q-9 -16 -29 -19l-140 -17l-11 -34l104 -89q26 -27 1 -57q-21 -26 -49 -20q-17 3 -26 21 l-56 124h-38l-55 -124q-17 -33 -52 -18q-30 12 -34 40q-3 19 12 34l104 90l-10 33z" />
<glyph unicode="+" horiz-adv-x="499" d="M44 253v64h170v174h70v-174h171v-64h-171v-173h-70v173h-170z" />
<glyph unicode="," horiz-adv-x="250" d="M60 50q0 27 18 43.5t46 16.5t46.5 -18.5t18.5 -53.5q0 -126 -108 -209l-20 22q69 60 74 143q-34 -8 -54.5 10t-20.5 46z" />
<glyph unicode="-" horiz-adv-x="436" d="M73 252v69l291 10v-69z" />
<glyph unicode="." horiz-adv-x="244" d="M61 48q0 29 17.5 45.5t46.5 16.5q27 0 42 -16t15 -44q0 -30 -17 -47.5t-46 -17.5q-26 0 -42 17.5t-16 45.5z" />
<glyph unicode="/" horiz-adv-x="467" d="M-56 -174l431 874h82l-430 -874h-83z" />
<glyph unicode="0" horiz-adv-x="611" d="M58 329q0 176 66 278.5t193 102.5q74 0 129 -50t81 -125.5t26 -163.5q0 -176 -66 -278.5t-193 -102.5q-74 0 -129 50t-81 125.5t-26 163.5zM160 380q0 -340 150 -340q66 0 103.5 77t37.5 203q0 154 -38 247t-115 93q-67 0 -102.5 -76t-35.5 -204z" />
<glyph unicode="1" horiz-adv-x="377" d="M13 618l238 88h20v-706h-98v618l-151 -31z" />
<glyph unicode="2" horiz-adv-x="485" d="M21 0v30l85 99q120 139 164 223t44 159q0 62 -33 97t-99 35q-40 0 -74 -8.5t-48 -17.5l-15 -9v37q7 7 21.5 18t61 29t97.5 18q83 0 135 -46t52 -135q0 -47 -13.5 -89.5t-51.5 -97.5t-74 -98.5t-113 -129.5l-44 -49l246 14l80 10l-8 -89h-413z" />
<glyph unicode="3" horiz-adv-x="507" d="M43 56l7 32q70 -33 140 -33q83 0 123 40.5t40 108.5q0 61 -44.5 102.5t-137.5 41.5h-26l5 44h25q71 0 111.5 38.5t40.5 97.5q0 53 -32.5 84t-95.5 31q-42 0 -77 -8.5t-49 -17.5l-14 -9v37q8 7 22 18t59.5 29t92.5 18q87 0 138.5 -42.5t51.5 -118.5q0 -66 -39.5 -112 t-115.5 -63q85 -11 135 -57.5t50 -120.5q0 -88 -61 -147t-164 -59q-52 0 -98 16.5t-66 33.5z" />
<glyph unicode="4" horiz-adv-x="550" d="M10 195l352 509h50v-489l114 1l-8 -67h-106v-86l5 -93h-97v179h-282zM93 209l227 5v257l3 85h-3q-10 -27 -40 -72z" />
<glyph unicode="5" horiz-adv-x="504" d="M43 56l7 28q60 -30 144 -30q78 0 118.5 37t40.5 106q0 88 -74.5 131t-198.5 43l18 329h337l-5 -89q-36 8 -85 10l-185 8l-12 -189q152 -4 228.5 -69t76.5 -166q0 -93 -60 -154t-166 -61q-113 0 -184 66z" />
<glyph unicode="6" horiz-adv-x="547" d="M53 268q0 405 396 453l7 -36q-124 -17 -205.5 -102t-98.5 -237q60 75 163 75q88 0 139 -51.5t51 -145.5q0 -99 -59 -166.5t-159 -67.5q-106 0 -170 76.5t-64 201.5zM152 256q0 -93 35.5 -155.5t104.5 -62.5q58 0 88.5 47t30.5 120q0 72 -32 113t-96 41q-86 0 -131 -74 v-29z" />
<glyph unicode="7" horiz-adv-x="437" d="M23 616l6 84h402v-17q-146 -313 -240 -700l-94 24q128 381 258 632l-234 -12z" />
<glyph unicode="8" horiz-adv-x="554" d="M56 174q0 124 154 188q-63 37 -97.5 77.5t-34.5 103.5q0 75 58.5 121t147.5 46q87 0 142 -43.5t54 -116.5q-2 -100 -136 -169q73 -41 113 -85t40 -116q0 -82 -64 -136.5t-154 -54.5q-101 0 -162 48.5t-61 136.5zM151 165q0 -52 32.5 -87.5t92.5 -35.5q56 0 93 32t37 90 q0 30 -12 55.5t-38.5 48t-47.5 36.5t-60 36q-97 -63 -97 -175zM170 562q0 -52 35 -87.5t101 -72.5q78 55 79 152q1 48 -27 78t-78 30q-53 0 -81.5 -28.5t-28.5 -71.5z" />
<glyph unicode="9" horiz-adv-x="547" d="M42 476q0 99 59 166.5t159 67.5q106 0 170 -76.5t64 -201.5q0 -405 -396 -453l-7 36q121 17 202 98t100 227q-58 -72 -161 -72q-87 0 -138.5 56t-51.5 152zM136 495q0 -74 32.5 -119.5t95.5 -45.5q85 0 130 72q1 13 1 42q0 93 -35.5 155.5t-104.5 62.5q-58 0 -88.5 -47 t-30.5 -120z" />
<glyph unicode=":" horiz-adv-x="265" d="M72 48q0 29 17.5 45.5t46.5 16.5q27 0 42 -16t15 -44q0 -30 -17 -47.5t-46 -17.5q-26 0 -42 17.5t-16 45.5zM72 402q0 29 17.5 45.5t46.5 16.5q27 0 42 -16t15 -44q0 -30 -17 -47.5t-46 -17.5q-26 0 -42 17.5t-16 45.5z" />
<glyph unicode=";" horiz-adv-x="278" d="M74 402q0 29 17.5 45.5t46.5 16.5q27 0 42 -16t15 -44q0 -30 -17 -47.5t-46 -17.5q-26 0 -42 17.5t-16 45.5zM77 50q0 27 18 43.5t46 16.5t46.5 -18.5t18.5 -53.5q0 -126 -108 -209l-20 22q69 60 74 143q-34 -8 -54.5 10t-20.5 46z" />
<glyph unicode="&#x3c;" horiz-adv-x="460" d="M38 273v23l348 213v-87l-244 -137l244 -139v-86z" />
<glyph unicode="=" horiz-adv-x="561" d="M75 152v69h411v-69h-411zM75 342v69h411v-69h-411z" />
<glyph unicode="&#x3e;" horiz-adv-x="461" d="M74 60v86l244 139l-244 137v87l348 -213v-23z" />
<glyph unicode="?" horiz-adv-x="405" d="M47 607v45q2 3 5.5 7t16 14.5t27 19t38.5 15t51 6.5q75 0 120.5 -38t45.5 -103q0 -52 -25.5 -98.5t-56 -74t-56 -59.5t-25.5 -60q0 -38 51 -40l-4 -44q-55 1 -86 25.5t-31 69.5t25.5 86t55.5 66.5t55.5 58.5t25.5 64q0 35 -28 54t-79 19q-32 0 -63.5 -8t-47.5 -16z M132 48q0 29 17.5 45.5t46.5 16.5q27 0 42 -16t15 -44q0 -30 -17 -47.5t-46 -17.5q-26 0 -42 17.5t-16 45.5z" />
<glyph unicode="@" horiz-adv-x="917" d="M46 199q0 186 112.5 304t326.5 118q159 0 266 -94t107 -264q0 -105 -54 -189t-132 -84q-75 0 -106 63q-6 -7 -16.5 -17.5t-46 -28t-73.5 -17.5q-83 0 -134.5 59t-51.5 150q0 102 58 166.5t147 64.5q33 0 61.5 -9t41.5 -19l12 -9l72 42h11v-348q0 -43 33 -43 q38 0 58.5 55.5t20.5 126.5q0 163 -79.5 252t-222.5 89q-153 0 -232.5 -97.5t-79.5 -248.5q0 -77 21.5 -143t64.5 -117t114.5 -76t163.5 -17l5 -39q-208 -31 -338 73t-130 297zM341 214q0 -70 29.5 -115.5t83.5 -45.5q28 0 53.5 11.5t36.5 23.5l11 12l-1 237q-31 32 -83 32 q-62 0 -96 -41.5t-34 -113.5z" />
<glyph unicode="A" horiz-adv-x="684" d="M-13 0v31l75 13l241 657l74 6l247 -663l63 -13v-31h-243v31l78 13l-57 159h-282l-16 -48q-21 -59 -30 -111l84 -13v-31h-234zM200 253h246l-97 266q-8 22 -15 48t-10 41l-2 15h-4q-11 -54 -27 -101z" />
<glyph unicode="B" horiz-adv-x="632" d="M47 0v31l80 13v612l-80 13v31h258q120 0 182.5 -47t62.5 -124q0 -55 -33 -98t-85 -60v-3q64 -13 108.5 -60t44.5 -109q0 -94 -70 -146.5t-188 -52.5h-280zM225 50h100q76 0 118 41t42 108q0 61 -40.5 101t-113.5 40h-106v-290zM225 390h146q37 12 58 46t21 79 q0 58 -36 96.5t-116 38.5h-73v-260z" />
<glyph unicode="C" horiz-adv-x="664" d="M52 338q0 103 39.5 187.5t120 136.5t190.5 52q58 0 109 -10t73 -20l22 -10l-8 -170h-39l-15 134q-60 24 -135 24q-122 0 -188.5 -82t-66.5 -221q0 -140 75 -230.5t208 -90.5q50 0 107 15l21 150h38v-178q-78 -39 -177 -39q-174 0 -274 93t-100 259z" />
<glyph unicode="D" horiz-adv-x="740" d="M47 0v31l80 13v612l-80 13v31h287q165 0 260 -94.5t95 -242.5q0 -175 -104.5 -269t-267.5 -94h-270zM225 50h100q125 0 193 80t68 214q0 135 -73.5 220.5t-215.5 85.5h-72v-600z" />
<glyph unicode="E" horiz-adv-x="600" d="M47 0v31l80 13v612l-80 13v31h492l-6 -170h-41l-13 114l-254 6v-267l234 6v-61l-234 5v-283l264 4l27 119h37l-4 -173h-502z" />
<glyph unicode="F" horiz-adv-x="566" d="M47 0v31l80 13v612l-80 13v31h492l-6 -170h-41l-13 114l-254 6v-287l234 6v-61l-234 4v-268l91 -13v-31h-269z" />
<glyph unicode="G" horiz-adv-x="722" d="M51 338q0 168 99.5 272t277.5 104q58 0 108.5 -10t71.5 -20l22 -10l-8 -170h-39l-15 133q-66 25 -140 25q-126 0 -200.5 -78.5t-74.5 -212.5q0 -151 75 -242t205 -91q26 0 49.5 3t33.5 6l11 3v210l-100 14v31h268v-31l-70 -14v-242q-74 -32 -200 -32q-78 0 -144 20.5 t-118.5 62t-82 110.5t-29.5 159z" />
<glyph unicode="H" horiz-adv-x="804" d="M47 0v31l80 13v612l-80 13v31h258v-31l-80 -13v-271h354v271l-80 13v31h258v-31l-80 -13v-612l80 -13v-31h-258v31l80 13v291h-354v-291l80 -13v-31h-258z" />
<glyph unicode="I" horiz-adv-x="352" d="M47 0v31l80 13v612l-80 13v31h258v-31l-80 -13v-612l80 -13v-31h-258z" />
<glyph unicode="J" horiz-adv-x="339" d="M36 -145l42 58q27 37 35 72t8 94v577l-80 13v31h258v-31l-80 -13v-525q0 -72 -17 -118q-12 -31 -33.5 -63.5t-37 -50t-50.5 -55.5q-8 -9 -12 -13z" />
<glyph unicode="K" horiz-adv-x="673" d="M47 0v31l80 13v612l-80 13v31h258v-31l-80 -13v-274h90l183 274l-68 13v31h219v-31l-74 -13l-207 -278l233 -307q18 -23 30.5 -29.5t41.5 -10.5v-31h-80q-40 0 -58.5 9t-41.5 42l-202 281h-66v-288l80 -13v-31h-258z" />
<glyph unicode="L" horiz-adv-x="581" d="M47 0v31l80 13v612l-80 13v31h258v-31l-80 -13v-606l264 4l29 149h37l-6 -203h-502z" />
<glyph unicode="M" horiz-adv-x="926" d="M48 0v31l80 17v608l-80 13v31h198l185 -396l28 -67h2q13 32 30 66l200 397h187v-31l-80 -13v-610l80 -15v-31h-252v31l80 15v495l4 73h-3q-20 -48 -31 -70l-225 -444h-19l-220 461l-26 62h-3q3 -33 3 -68v-507l80 -17v-31h-218z" />
<glyph unicode="N" horiz-adv-x="766" d="M45 0v31l80 16v563l-46 53v37l110 4l349 -480q11 -15 23.5 -34.5t18.5 -31.5l7 -12l4 1q-4 46 -4 87v417l-80 18v31h218v-31l-80 -18v-651l-54 -4l-358 488l-52 79l-3 -1q5 -44 5 -90v-425l80 -16v-31h-218z" />
<glyph unicode="O" horiz-adv-x="769" d="M53 347q0 69 20.5 133t60.5 117t108 85t154 32q142 0 231 -101.5t89 -259.5q0 -69 -20.5 -133t-60.5 -117t-108 -85t-154 -32q-142 0 -231 101.5t-89 259.5zM155 364q0 -82 27.5 -156t84.5 -124.5t132 -50.5q103 0 159 83.5t56 212.5q0 86 -27.5 161.5t-85 126 t-133.5 50.5q-102 0 -157.5 -85t-55.5 -218z" />
<glyph unicode="P" horiz-adv-x="595" d="M47 0v31l80 13v612l-80 13v31h250q263 0 263 -207q0 -97 -70.5 -156.5t-182.5 -59.5h-82v-233l101 -13v-31h-279zM225 327h82q72 0 112.5 43.5t40.5 117.5q0 73 -43.5 117.5t-133.5 44.5h-58v-323z" />
<glyph unicode="Q" horiz-adv-x="770" d="M53 347q0 69 20.5 133t61 117t108.5 85t154 32q142 0 231 -101.5t89 -259.5q0 -109 -50.5 -202.5t-146.5 -135.5q33 -22 55 -48l91 -109q16 -19 26.5 -25t30.5 -8v-31h-57q-45 0 -63 9t-46 44l-116 145q-31 -6 -67 -6q-142 0 -231.5 101.5t-89.5 259.5zM155 380 q0 -90 27.5 -167.5t85 -128.5t132.5 -51q103 0 159 82.5t56 204.5q0 140 -66.5 243.5t-179.5 103.5q-101 0 -157.5 -82.5t-56.5 -204.5z" />
<glyph unicode="R" horiz-adv-x="656" d="M47 0v31l80 13v612l-80 13v31h270q128 0 195.5 -53t67.5 -149q0 -71 -42.5 -122.5t-118.5 -72.5l168 -230q18 -25 30.5 -32t41.5 -12v-29q-29 -9 -65 -9q-44 0 -64 13t-53 61l-147 222h-105v-243l101 -13v-31h-279zM225 337h102q72 0 112.5 43.5t40.5 116.5q0 67 -44 110 t-133 43h-78v-313z" />
<glyph unicode="S" horiz-adv-x="540" d="M61 203h38l22 -149q49 -16 118 -16q67 0 111 31t44 87q0 33 -11 58.5t-37 47t-45.5 33t-58.5 31.5q-35 18 -52.5 27.5t-45.5 30t-42 39t-25 48t-11 63.5q0 81 62 130.5t164 49.5q48 0 92 -10t64 -20l19 -11l-8 -169h-39l-15 134q-54 24 -120 24q-60 0 -92.5 -28.5 t-32.5 -81.5q0 -51 35.5 -84t105.5 -70q91 -48 121 -74q66 -57 66 -144q0 -89 -67 -141.5t-181 -52.5q-51 0 -95.5 10t-63.5 20l-19 10z" />
<glyph unicode="T" horiz-adv-x="622" d="M24 516l9 184h573l-21 -184h-37l-7 126l-176 9v-607l80 -13v-31h-258v31l80 13v607l-169 -9l-37 -126h-37z" />
<glyph unicode="U" horiz-adv-x="742" d="M29 669v31h258v-31l-80 -14v-404q0 -97 45 -154.5t126 -57.5q90 0 136.5 59.5t46.5 162.5v394l-80 14v31h233v-31l-80 -14v-371q0 -56 -12.5 -105.5t-40.5 -94.5t-81 -71.5t-126 -26.5q-127 0 -196 73.5t-69 203.5v393z" />
<glyph unicode="V" horiz-adv-x="682" d="M-4 670v31h243v-31l-78 -13l173 -475q8 -22 15 -48t9 -41l3 -15h4q11 54 27 101l124 367q21 59 30 111l-84 13v31h234v-31l-75 -13l-241 -657l-74 -6l-247 663z" />
<glyph unicode="W" horiz-adv-x="983" d="M-11 669v31h259v-31l-84 -13l128 -438q8 -29 15 -58.5t9 -43.5l3 -15h4q10 52 25 117l118 482l79 5l128 -492q8 -29 14 -59t8 -45l2 -15h4q9 53 28 118l87 335q21 80 25 109l-84 13v31h228v-31l-66 -13q-22 -54 -65 -201l-126 -455l-90 -6l-124 461q-7 26 -12.5 53.5 t-7.5 42.5l-2 15h-4q-7 -59 -20 -109l-115 -457l-88 -6l-200 662z" />
<glyph unicode="X" horiz-adv-x="676" d="M6 0v31l68 16l217 296l-211 312l-65 14v31h259v-31l-87 -13l166 -250q16 27 44 67l75 108q29 42 31 70l-77 18v31h234v-31l-68 -16l-207 -288l228 -321l58 -13v-31h-259v31l88 13l-179 258q-13 -28 -42 -67l-85 -116q-25 -34 -34 -72l80 -16v-31h-234z" />
<glyph unicode="Y" horiz-adv-x="632" d="M-17 669v31h239v-31l-77 -13l143 -234l43 -83h4q17 38 45 89l93 159q23 42 23 65l-68 17v31h205v-31l-59 -15l-205 -355v-255l80 -13v-31h-258v31l80 13v255l-230 357z" />
<glyph unicode="Z" horiz-adv-x="591" d="M37 0v25l375 626l-277 -8l-37 -127h-37l9 184h463v-25l-375 -626l319 8l30 123h37l-6 -180h-501z" />
<glyph unicode="[" horiz-adv-x="304" d="M92 -199v984h178v-46h-100v-892h100v-46h-178z" />
<glyph unicode="\" horiz-adv-x="467" d="M10 700h82l431 -874h-83z" />
<glyph unicode="]" horiz-adv-x="304" d="M34 -153h100v892h-100v46h178v-984h-178v46z" />
<glyph unicode="^" horiz-adv-x="467" d="M20 533l205 227h17l205 -227h-94l-120 139l-120 -139h-93z" />
<glyph unicode="_" horiz-adv-x="496" d="M18 -110h460v-63h-460v63z" />
<glyph unicode="`" horiz-adv-x="312" d="M48 744l62 64l149 -177l-28 -30z" />
<glyph unicode="a" horiz-adv-x="519" d="M42 116q0 125 150 152q53 9 136 9v54q0 60 -21.5 87.5t-85.5 27.5q-31 0 -68 -6t-59 -12l-22 -5v34q9 6 24.5 15t63.5 23.5t94 14.5q87 0 126 -47t39 -140v-240q0 -43 37 -43h31v-27q-31 -23 -76 -23q-71 0 -82 69q-69 -64 -159 -64q-60 0 -94 34.5t-34 86.5zM133 130 q0 -33 21 -53t60 -20q51 0 115 38q-3 28 -3 71v71q-53 1 -111 -14q-82 -21 -82 -93z" />
<glyph unicode="b" horiz-adv-x="575" d="M5 715v31l154 15l20 -5l-2 -315q71 69 159 69q92 0 140 -69t48 -164q0 -135 -65.5 -211t-193.5 -76q-111 0 -179 40v677zM175 401q4 -51 4 -100v-236q37 -25 90 -25q79 0 118.5 58t39.5 142q0 96 -31 146t-102 50q-63 0 -119 -35z" />
<glyph unicode="c" horiz-adv-x="475" d="M50 241q0 117 69.5 193t180.5 76q36 0 79.5 -10t58.5 -12l-20 -81q-27 4 -73 27.5t-74 23.5q-59 0 -92.5 -59t-33.5 -132q0 -96 42.5 -155.5t119.5 -59.5q32 0 63.5 6t46.5 12l15 6v-34q-7 -6 -19 -14.5t-53.5 -23t-85.5 -14.5q-106 0 -165 69.5t-59 181.5z" />
<glyph unicode="d" horiz-adv-x="595" d="M50 223q0 134 65.5 210.5t178.5 76.5q29 0 54 -7t36 -13l11 -7v224l-81 8v31l154 15l20 -5v-673q0 -43 37 -43h31v-27q-31 -23 -76 -23q-71 0 -82 69q-24 -22 -40.5 -34t-48.5 -23.5t-69 -11.5q-84 0 -137 68.5t-53 164.5zM147 260q0 -89 36.5 -142.5t104.5 -53.5 q58 0 111 35q-4 36 -4 100v232q-36 24 -90 24q-75 0 -116.5 -52t-41.5 -143z" />
<glyph unicode="e" horiz-adv-x="521" d="M50 241q0 121 67 195t164 74q104 0 153 -65.5t38 -187.5h-327q2 -91 50.5 -148t128.5 -57q30 0 62 6t49 12l17 6v-34q-7 -6 -20.5 -14.5t-57.5 -23t-90 -14.5q-107 0 -170.5 70t-63.5 181zM147 304l234 6q-1 69 -23 109t-81 40q-54 0 -88.5 -41.5t-41.5 -113.5z" />
<glyph unicode="f" horiz-adv-x="394" d="M39 0v31l80 12v412l-80 3v42h80v49q0 94 45 152.5t142 58.5q36 0 87 -11t54 -11l-20 -84q-36 5 -80.5 29.5t-64.5 24.5q-70 0 -70 -101v-107h161v-52l-161 5v-410l100 -12v-31h-273z" />
<glyph unicode="g" horiz-adv-x="555" d="M42 -117q0 83 88 128q-25 22 -25 61q0 24 16.5 49.5t40.5 38.5q-53 20 -81 62t-28 98q0 90 57 140t159 50q60 0 103 -23l165 15l-3 -59l-100 -2q38 -45 38 -105q0 -81 -59 -135.5t-162 -54.5q-20 0 -50 4q-28 -24 -17.5 -51.5t50.5 -29.5l118 -7q74 -5 116 -42t42 -101 q0 -78 -68.5 -129.5t-167.5 -53.5q-102 -2 -167 35.5t-65 111.5zM126 -86q0 -49 43.5 -83.5t115.5 -34.5q76 0 116 25t40 71q0 40 -28 62t-75 24l-109 6q-44 4 -69 12q-34 -37 -34 -82zM148 339q0 -66 30 -103t90 -37q49 0 79 34.5t30 88.5q0 135 -120 135 q-52 0 -80.5 -33.5t-28.5 -84.5z" />
<glyph unicode="h" horiz-adv-x="623" d="M28 715v31l154 15l20 -5l-4 -315q89 69 162 69q77 0 119 -49t42 -130v-288l80 -12v-31h-243v31l70 12v265q0 128 -103 128q-32 0 -64 -8.5t-47 -17.5l-16 -8q4 -41 4 -95v-264l70 -12v-31h-243v31l80 12v664z" />
<glyph unicode="i" horiz-adv-x="320" d="M37 460v31l154 14l20 -5v-457l80 -12v-31h-253v31l80 12v409zM103 684q0 26 18 41t46 15q27 0 42.5 -14.5t15.5 -39.5q0 -27 -17 -43t-46 -16q-26 0 -42.5 16t-16.5 41z" />
<glyph unicode="j" horiz-adv-x="291" d="M25 -237q83 86 83 242v447l-81 8v31l154 14l20 -5v-483q0 -151 -156 -274zM93 684q0 26 18 41t46 15q27 0 42.5 -14.5t15.5 -39.5q0 -27 -17 -43t-46 -16q-26 0 -42.5 16t-16.5 41z" />
<glyph unicode="k" horiz-adv-x="589" d="M28 715v31l154 15l20 -5v-472h74l126 175l-58 10v31h205v-31l-71 -10l-148 -171l188 -225q16 -19 25 -23.5t36 -8.5v-31h-62q-46 0 -63.5 9t-45.5 44l-150 185h-56v-195l70 -12v-31h-243v31l80 12v662z" />
<glyph unicode="l" horiz-adv-x="311" d="M28 715v31l154 15l20 -5v-714l80 -11v-31h-253v31l80 11v663z" />
<glyph unicode="m" horiz-adv-x="921" d="M37 459v31l154 15l20 -5l-4 -59q85 69 168 69q88 0 122 -76q78 76 169 76q73 0 112.5 -47t39.5 -128v-292l80 -12v-31h-243v31l70 12v277q0 55 -26 85t-75 30t-115 -33q5 -28 5 -60v-299l70 -12v-31h-233v31l70 12v271q0 121 -103 121q-47 0 -111 -33q4 -54 4 -101v-258 l70 -12v-31h-243v31l80 12v408z" />
<glyph unicode="n" horiz-adv-x="632" d="M37 459v31l154 15l20 -5l-4 -59q89 69 162 69q77 0 119 -49t42 -130v-289l80 -11v-31h-243v31l70 11v266q0 128 -103 128q-32 0 -64 -8.5t-48 -17.5l-15 -8q4 -41 4 -95v-265l70 -11v-31h-243v31l80 11v409z" />
<glyph unicode="o" horiz-adv-x="574" d="M50 239q0 120 65 195.5t185 75.5q104 0 164 -68.5t60 -180.5q0 -120 -65 -195.5t-185 -75.5q-104 0 -164 68.5t-60 180.5zM145 251q0 -97 37.5 -154.5t103.5 -57.5q143 0 143 210q0 97 -37.5 154.5t-103.5 57.5q-143 0 -143 -210z" />
<glyph unicode="p" horiz-adv-x="597" d="M27 460v31l154 14l20 -5l-3 -59q77 69 158 69q91 0 140.5 -67.5t49.5 -165.5q0 -134 -65.5 -210.5t-178.5 -76.5q-29 0 -54 7t-36 13l-11 7v-226l80 -11v-31h-253v31l80 11v661zM197 401q4 -36 4 -100v-232q36 -24 90 -24q75 0 116.5 52t41.5 143q0 98 -31.5 147 t-101.5 49q-66 0 -119 -35z" />
<glyph unicode="q" horiz-adv-x="579" d="M51 223q0 134 65.5 210.5t178.5 76.5q29 0 55.5 -7t38.5 -14l12 -7l78 33h10v-724l80 -11v-31h-273v31l100 11v176l3 92q-73 -69 -152 -69q-90 0 -143 68t-53 165zM148 260q0 -92 36.5 -144t106.5 -52q56 0 109 35q-4 36 -4 100v232q-36 24 -90 24q-75 0 -116.5 -52 t-41.5 -143z" />
<glyph unicode="r" horiz-adv-x="463" d="M37 460v31l154 14l20 -5l-4 -67q77 77 133 77q23 0 40.5 -8.5t36.5 -22t34 -19.5l-39 -73q-16 7 -35 19.5t-35 20t-35 7.5q-46 0 -100 -37q4 -46 4 -100v-254l100 -12v-31h-273v31l80 12v409z" />
<glyph unicode="s" horiz-adv-x="436" d="M44 12l20 84q32 -4 83 -29t85 -25q39 0 62.5 18t23.5 47q0 27 -19.5 47t-49 32.5t-63.5 28.5t-63.5 33t-49 49t-19.5 74q0 63 49 101t124 38q28 0 55.5 -4t55.5 -10t41 -8l-20 -84q-33 4 -81.5 29t-79.5 25q-33 0 -50.5 -16.5t-17.5 -42.5q0 -35 27 -58.5t65 -39t76 -34 t65 -53t27 -84.5q0 -67 -51 -103.5t-123 -36.5q-36 0 -67.5 4t-62.5 10t-42 8z" />
<glyph unicode="t" horiz-adv-x="384" d="M34 455v22l64 23l73 116h21l-1 -116h170v-55l-170 8v-305q0 -96 77 -96q23 0 46.5 5t35.5 9l12 5v-37q-6 -5 -17 -12.5t-45 -19.5t-69 -12q-132 0 -132 157v226q0 57 4 81z" />
<glyph unicode="u" horiz-adv-x="620" d="M21 459v31l158 15l20 -5l-4 -29v-291q0 -50 24.5 -83t78.5 -33q59 0 127 34q-4 52 -4 101v252l-81 8v31l158 15l20 -5l-4 -59v-358q0 -43 37 -43h31v-27q-31 -23 -76 -23q-71 0 -82 69q-84 -69 -167 -69q-71 0 -113 49.5t-42 129.5v282z" />
<glyph unicode="v" horiz-adv-x="564" d="M3 469v31h230v-31l-66 -13l98 -260q10 -27 19 -56.5t13 -45.5l4 -16h4q12 54 32 114l88 263l-75 14v31h211v-31l-69 -13l-169 -456l-74 -5l-181 461z" />
<glyph unicode="w" horiz-adv-x="831" d="M5 469v31h220v-31l-69 -13l86 -270q8 -26 15 -55.5t11 -46.5l3 -16h4q9 55 25 116l81 316l78 7l91 -315q8 -28 14 -58.5t8 -47.5l3 -16h5q13 62 31 122l81 264l-70 13v31h205v-31l-69 -13l-160 -456l-77 -5l-92 339l-19 83h-4q-7 -48 -16 -85l-83 -332l-85 -5l-157 461z " />
<glyph unicode="x" horiz-adv-x="599" d="M19 0v31l65 12l169 199l-169 214l-59 13v31h238v-31l-72 -13l124 -163l119 163l-84 13v31h222v-31l-65 -13l-165 -192l181 -220l59 -13v-31h-238v31l74 12l-137 171l-122 -171l82 -12v-31h-222z" />
<glyph unicode="y" horiz-adv-x="574" d="M4 469v31h233v-31l-65 -13l97 -263l36 -116h4q14 53 34 113l90 266l-75 13v31h212v-31l-69 -13l-172 -457q-24 -63 -41.5 -126.5t-23.5 -95.5l-6 -32l-94 5q32 119 98 232l-193 474z" />
<glyph unicode="z" horiz-adv-x="472" d="M40 0v10l270 443l-205 -9l-16 -84h-35l6 140h362v-10l-271 -443l221 7l16 86h38l-9 -140h-377z" />
<glyph unicode="{" horiz-adv-x="327" d="M13 305q54 12 80.5 45t26.5 102v185q0 74 29.5 111t94.5 37h54v-31h-23q-77 0 -77 -117v-175q0 -100 -79 -152q33 -14 56 -53.5t23 -91.5v-216q0 -117 77 -117h23v-31h-54q-65 0 -94.5 37t-29.5 111v209q0 105 -30 137q-35 -13 -71 -16z" />
<glyph unicode="|" horiz-adv-x="262" d="M92 -259v1024h78v-1024h-78z" />
<glyph unicode="}" horiz-adv-x="327" d="M29 -168h23q77 0 77 117v175q0 102 79 151q-33 14 -56 54t-23 92v216q0 117 -77 117h-23v31h54q65 0 94.5 -37t29.5 -111v-209q0 -105 30 -137q35 13 71 16l6 -26q-54 -12 -80.5 -45t-26.5 -102v-185q0 -74 -29.5 -111t-94.5 -37h-54v31z" />
<glyph unicode="~" horiz-adv-x="549" d="M66 240q-1 56 32 94t85 38q43 0 92.5 -32.5t82.5 -32.5q72 0 98 67l30 -11q1 -56 -32 -94t-85 -38q-36 0 -88.5 32.5t-86.5 32.5q-72 0 -98 -67z" />
<glyph unicode="&#xa1;" horiz-adv-x="266" d="M73 401q0 30 17 47.5t46 17.5q26 0 42 -17.5t16 -45.5q0 -29 -17.5 -45.5t-46.5 -16.5q-27 0 -42 16t-15 44zM82 -255l25 506h53l26 -501z" />
<glyph unicode="&#xa2;" horiz-adv-x="484" d="M44 241q0 102 53.5 174t143.5 90v105h58v-100q33 -1 75 -10.5t58 -11.5l-20 -81q-27 4 -73 27.5t-74 23.5q-59 0 -92.5 -59t-33.5 -132q0 -96 42.5 -155.5t119.5 -59.5q32 0 63.5 6t46.5 12l15 6v-34q-47 -42 -127 -50v-106h-58v105q-93 9 -145 77t-52 173z" />
<glyph unicode="&#xa3;" horiz-adv-x="563" d="M46 0v57q6 1 15 4t31 16t37.5 30.5t25 51.5t2.5 75l-11 62h-91v50h82l-12 72q-24 135 42.5 216t197.5 81q24 0 55.5 -5t50.5 -10l19 -5l-10 -180h-39l-14 129q-33 7 -69 7q-89 0 -123 -53.5t-14 -163.5l16 -88h175v-50h-166l3 -17q9 -39 4.5 -70.5t-10 -54t-19.5 -39.5 t-24.5 -27.5t-25 -17.5t-20.5 -9.5t-11 -3.5l300 15l23 108h42l-10 -180h-452z" />
<glyph unicode="&#xa5;" horiz-adv-x="718" d="M33 669v31h239v-31l-77 -13l143 -234l43 -83h4q17 38 45 89l93 159q23 42 23 65l-68 17v31h205v-31l-59 -15l-191 -330h121v-60h-135v-81h135v-60h-135v-79l80 -13v-31h-258v31l80 13v79h-138v60h138v81h-138v60h122l-214 332z" />
<glyph unicode="&#xa6;" horiz-adv-x="232" d="M77 143h78v-402h-78v402zM77 373v392h78v-392h-78z" />
<glyph unicode="&#xa7;" horiz-adv-x="494" d="M50 361q0 26 11.5 48t30 35t30 19t21.5 9q-49 41 -49 104q0 65 50 102t132 37q42 0 79.5 -5t54.5 -10l16 -5l-8 -71q-72 26 -156 26q-41 0 -64 -16.5t-23 -43.5q0 -29 28 -52.5t68 -40.5t80 -36.5t68 -52.5t28 -76q0 -81 -80 -118q36 -34 36 -89q0 -64 -52 -99.5 t-136 -35.5q-39 0 -77.5 5t-57.5 10l-19 5l8 66q79 -22 151 -22q98 0 98 67q0 27 -27.5 45.5t-67 32t-79 30.5t-67 50t-27.5 82zM135 382q0 -32 21.5 -55t48.5 -34t68 -26.5t64 -29.5q25 25 25 62q0 33 -20.5 57.5t-46 37t-66.5 30.5t-62 31l2 -2q-34 -34 -34 -71z" />
<glyph unicode="&#xa8;" horiz-adv-x="502" d="M95 684q0 24 16 40t41 16q26 0 40.5 -15t14.5 -39q0 -25 -16 -42t-42 -17q-23 0 -38.5 17t-15.5 40zM294 684q0 24 16 40t41 16q26 0 40.5 -15t14.5 -39q0 -25 -16 -42t-42 -17q-23 0 -38.5 17t-15.5 40z" />
<glyph unicode="&#xa9;" horiz-adv-x="809" d="M47 354q0 152 103 257.5t255 105.5q151 0 254 -105.5t103 -257.5q0 -150 -104 -256t-253 -106q-152 0 -255 104.5t-103 257.5zM135 354q0 -141 76 -228.5t194 -87.5q115 0 192.5 88.5t77.5 227.5q0 141 -76.5 229t-193.5 88t-193.5 -88t-76.5 -229zM226 348q0 93 55 153 t135 60q29 0 57 -4t41 -8l14 -4l-3 -150h-36l-18 114q-22 4 -35 4q-65 0 -96.5 -42t-31.5 -115q0 -65 31 -107t90 -42q24 0 48.5 5t36.5 10l13 5v-43q-42 -25 -117 -25q-86 0 -135 52.5t-49 136.5z" />
<glyph unicode="&#xab;" horiz-adv-x="513" d="M28 231v29q147 135 210 215l24 -18q-45 -98 -143 -212q92 -104 143 -214l-24 -15q-63 80 -210 215zM238 231v29q117 107 194 205l24 -18q-54 -117 -127 -202q99 -112 137 -194l-24 -15q-18 22 -38.5 43t-38 37t-55.5 50t-72 65z" />
<glyph unicode="&#xac;" horiz-adv-x="649" d="M75 269v64h497v-235h-62v171h-435z" />
<glyph unicode="&#xad;" horiz-adv-x="436" d="M73 252v69l291 10v-69z" />
<glyph unicode="&#xae;" horiz-adv-x="474" d="M47 526q0 79 55 134t135 55t135 -55t55 -134t-55.5 -133.5t-134.5 -54.5q-80 0 -135 54.5t-55 133.5zM100 526q0 -74 38.5 -115t98.5 -41t98 41t38 115q0 76 -37.5 117t-98.5 41t-99 -41t-38 -117zM143 438v19l24 4v148l-24 2v17h100q38 0 58.5 -16.5t20.5 -45.5 q0 -36 -36 -50l21 -44q5 -11 9.5 -14t17.5 -5v-15q-57 -18 -75 23l-17 41h-27v-64h-72zM215 527h20q36 0 36 38q0 16 -10.5 26.5t-27.5 10.5h-18v-75z" />
<glyph unicode="&#xaf;" horiz-adv-x="364" d="M25 554v59h234v-59h-234z" />
<glyph unicode="&#xb0;" horiz-adv-x="403" d="M47 597q0 75 41 119t121 44q68 0 107.5 -43.5t39.5 -101.5q0 -75 -41 -119t-121 -44q-68 0 -107.5 43.5t-39.5 101.5zM113 616q0 -48 22 -79.5t70 -31.5q38 0 60.5 26.5t22.5 64.5q0 46 -23 79t-68 33q-39 0 -61.5 -26.5t-22.5 -65.5z" />
<glyph unicode="&#xb1;" horiz-adv-x="554" d="M71 65v63h411v-63h-411zM71 313v64h170v144h70v-144h171v-64h-171v-143h-70v143h-170z" />
<glyph unicode="&#xb4;" horiz-adv-x="294" d="M43 620l149 177l62 -64l-183 -143z" />
<glyph unicode="&#xb5;" horiz-adv-x="609" d="M85 500h98v-294q0 -136 109 -136q56 0 117 33v314l-5 83h98v-417q0 -43 38 -43h31v-27q-31 -23 -76 -23q-71 0 -82 69q-67 -69 -149 -69q-30 0 -59 15t-47 39l-3 -2q29 -103 29 -205v-39h-94v619z" />
<glyph unicode="&#xb6;" horiz-adv-x="695" d="M40 439q0 118 80 189.5t224 71.5h241v-951h-78v895h-88v-895h-78v431h-26q-131 0 -203 71.5t-72 187.5zM137 450q0 -95 51.5 -150.5t152.5 -55.5v399q-101 0 -152.5 -55.5t-51.5 -137.5z" />
<glyph unicode="&#xb7;" horiz-adv-x="255" d="M68 277q0 24 18.5 41.5t42.5 17.5t41 -17t17 -42q0 -24 -18 -41.5t-42 -17.5t-41.5 17t-17.5 42z" />
<glyph unicode="&#xb8;" horiz-adv-x="240" d="M0 -166l13 28q45 -15 92 -15q59 0 59 36q0 21 -30 30t-63 -3l-15 13l42 98l19 -2l9 -71q48 7 78 -11.5t30 -54.5q0 -34 -31 -58t-78 -24q-68 0 -125 34z" />
<glyph unicode="&#xbb;" horiz-adv-x="513" d="M47 51q38 82 137 194q-73 85 -127 202l24 18q77 -98 194 -205v-29q-34 -31 -72 -65t-55.5 -50t-38 -37t-38.5 -43zM251 31q51 110 143 214q-98 114 -143 212l24 18q63 -80 210 -215v-29q-147 -135 -210 -215z" />
<glyph unicode="&#xbc;" horiz-adv-x="718" d="M41 656l150 55h12v-387h-71v320l-85 -8zM70 35q252 348 480 677l53 -33q-269 -370 -480 -679zM371 116l183 287l59 -8v-256h63l-4 -42h-59v-55l2 -52h-74v107h-157zM433 138l107 1v136l4 49h-2q-6 -21 -24 -50z" />
<glyph unicode="&#xbd;" horiz-adv-x="728" d="M41 656l150 55h12v-387h-71v320l-85 -8zM70 35q252 348 480 677l53 -33q-269 -370 -480 -679zM412 0v32q179 153 179 241q0 71 -71 71q-20 0 -42 -5t-34 -9l-12 -5v23q4 5 12.5 11.5t38.5 18t63 11.5q52 0 85 -29t33 -80q0 -91 -169 -231l186 12l-5 -61h-264z" />
<glyph unicode="&#xbe;" horiz-adv-x="758" d="M48 355l5 21q37 -16 78 -16q42 0 64.5 20t22.5 55q0 78 -111 78l3 28q45 0 69.5 18t24.5 49q0 59 -68 59q-24 0 -43 -3.5t-26 -7.5l-7 -3v25q34 32 107 32q48 0 78 -23t30 -64q0 -75 -83 -94q46 -6 72.5 -31t26.5 -67q0 -47 -39.5 -79.5t-99.5 -32.5q-30 0 -56 9t-37 18z M118 35q252 348 480 677l53 -33q-269 -370 -480 -679zM411 116l183 287l59 -8v-256h63l-4 -42h-59v-55l2 -52h-74v107h-157zM473 138l107 1v136l4 49h-2q-6 -21 -24 -50z" />
<glyph unicode="&#xbf;" horiz-adv-x="400" d="M57 -79q0 52 25.5 98.5t56 74t56 59.5t25.5 60q0 38 -51 40l4 44q55 -1 86 -25.5t31 -69.5t-25.5 -86t-55.5 -66.5t-55.5 -58.5t-25.5 -64q0 -35 28 -54t79 -19q32 0 63.5 8t47.5 16l15 9v-45q-2 -3 -5.5 -7t-16 -14.5t-27 -19t-38.5 -15t-51 -6.5q-75 0 -120.5 38 t-45.5 103zM155 444q0 30 17 47.5t46 17.5q26 0 42 -17.5t16 -45.5q0 -29 -17.5 -45.5t-46.5 -16.5q-27 0 -42 16t-15 44z" />
<glyph unicode="&#xc0;" horiz-adv-x="684" d="M-13 0v31l75 13l241 657l74 6l247 -663l63 -13v-31h-243v31l78 13l-57 159h-282l-16 -48q-21 -59 -30 -111l84 -13v-31h-234zM169 894l62 64l149 -177l-28 -30zM200 253h246l-97 266q-8 22 -15 48t-10 41l-2 15h-4q-11 -54 -27 -101z" />
<glyph unicode="&#xc1;" horiz-adv-x="684" d="M-13 0v31l75 13l241 657l74 6l247 -663l63 -13v-31h-243v31l78 13l-57 159h-282l-16 -48q-21 -59 -30 -111l84 -13v-31h-234zM200 253h246l-97 266q-8 22 -15 48t-10 41l-2 15h-4q-11 -54 -27 -101zM286 780l149 177l62 -64l-183 -143z" />
<glyph unicode="&#xc2;" horiz-adv-x="684" d="M-13 0v31l75 13l241 657l74 6l247 -663l63 -13v-31h-243v31l78 13l-57 159h-282l-16 -48q-21 -59 -30 -111l84 -13v-31h-234zM183 789l143 122h29l141 -120l-20 -28l-136 74l-140 -75zM200 253h246l-97 266q-8 22 -15 48t-10 41l-2 15h-4q-11 -54 -27 -101z" />
<glyph unicode="&#xc3;" horiz-adv-x="684" d="M-13 0v31l75 13l241 657l74 6l247 -663l63 -13v-31h-243v31l78 13l-57 159h-282l-16 -48q-21 -59 -30 -111l84 -13v-31h-234zM177 794q8 47 34.5 79t72.5 32q30 0 73 -27.5t60 -27.5q37 0 66 51l27 -6q-20 -111 -106 -111q-28 0 -73 27.5t-63 27.5q-38 0 -64 -52z M200 253h246l-97 266q-8 22 -15 48t-10 41l-2 15h-4q-11 -54 -27 -101z" />
<glyph unicode="&#xc4;" horiz-adv-x="684" d="M-13 0v31l75 13l241 657l74 6l247 -663l63 -13v-31h-243v31l78 13l-57 159h-282l-16 -48q-21 -59 -30 -111l84 -13v-31h-234zM187 838q0 24 16 40t41 16q26 0 40.5 -15t14.5 -39q0 -25 -16 -42t-42 -17q-23 0 -38.5 17t-15.5 40zM200 253h246l-97 266q-8 22 -15 48 t-10 41l-2 15h-4q-11 -54 -27 -101zM386 838q0 24 16 40t41 16q26 0 40.5 -15t14.5 -39q0 -25 -16 -42t-42 -17q-23 0 -38.5 17t-15.5 40z" />
<glyph unicode="&#xc5;" horiz-adv-x="684" d="M-13 0v31l75 13l241 657l74 6l247 -663l63 -13v-31h-243v31l78 13l-57 159h-282l-16 -48q-21 -59 -30 -111l84 -13v-31h-234zM200 253h246l-97 266q-8 22 -15 48t-10 41l-2 15h-4q-11 -54 -27 -101zM240 850q0 45 29.5 72t73.5 27t73.5 -27t29.5 -72t-29.5 -72t-73.5 -27 t-73.5 27t-29.5 72zM289 850q0 -58 54 -58t54 58t-54 58t-54 -58z" />
<glyph unicode="&#xc6;" horiz-adv-x="918" d="M-21 0v31l75 13l344 613l-70 12v31h529l-6 -170h-41l-13 114l-254 6v-267l234 6v-61l-234 5v-283l264 4l27 119h37l-4 -173h-502v31l80 13v159h-239l-25 -48l-52 -111l84 -13v-31h-234zM234 253h211v395q-20 -47 -48 -99z" />
<glyph unicode="&#xc7;" horiz-adv-x="666" d="M54 338q0 103 39.5 187.5t120 136.5t190.5 52q58 0 109 -10t73 -20l22 -10l-8 -170h-39l-15 134q-60 24 -135 24q-122 0 -188.5 -82t-66.5 -221q0 -140 75 -230.5t208 -90.5q49 0 107 15l21 150h38v-178q-78 -39 -177 -39q-5 0 -15 0.5t-15 0.5l5 -39q48 7 78 -11.5 t30 -54.5q0 -34 -31 -58t-78 -24q-68 0 -125 34l13 28q45 -15 92 -15q59 0 59 36q0 21 -30 30t-63 -3l-15 13l28 67q-145 17 -226 108t-81 240z" />
<glyph unicode="&#xc8;" horiz-adv-x="600" d="M47 0v31l80 13v612l-80 13v31h492l-6 -170h-41l-13 114l-254 6v-267l234 6v-61l-234 5v-283l264 4l27 119h37l-4 -173h-502zM191 893l62 64l149 -177l-28 -30z" />
<glyph unicode="&#xc9;" horiz-adv-x="600" d="M47 0v31l80 13v612l-80 13v31h492l-6 -170h-41l-13 114l-254 6v-267l234 6v-61l-234 5v-283l264 4l27 119h37l-4 -173h-502zM254 780l149 177l62 -64l-183 -143z" />
<glyph unicode="&#xca;" horiz-adv-x="600" d="M47 0v31l80 13v612l-80 13v31h492l-6 -170h-41l-13 114l-254 6v-267l234 6v-61l-234 5v-283l264 4l27 119h37l-4 -173h-502zM171 789l143 122h29l141 -120l-20 -28l-136 74l-140 -75z" />
<glyph unicode="&#xcb;" horiz-adv-x="600" d="M47 0v31l80 13v612l-80 13v31h492l-6 -170h-41l-13 114l-254 6v-267l234 6v-61l-234 5v-283l264 4l27 119h37l-4 -173h-502zM167 842q0 24 16 40t41 16q26 0 40.5 -15t14.5 -39q0 -25 -16 -42t-42 -17q-23 0 -38.5 17t-15.5 40zM366 842q0 24 16 40t41 16q26 0 40.5 -15 t14.5 -39q0 -25 -16 -42t-42 -17q-23 0 -38.5 17t-15.5 40z" />
<glyph unicode="&#xcc;" horiz-adv-x="352" d="M47 0v31l80 13v612l-80 13v31h258v-31l-80 -13v-612l80 -13v-31h-258zM48 893l62 64l149 -177l-28 -30z" />
<glyph unicode="&#xcd;" horiz-adv-x="352" d="M47 0v31l80 13v612l-80 13v31h258v-31l-80 -13v-612l80 -13v-31h-258zM106 781l149 177l62 -64l-183 -143z" />
<glyph unicode="&#xce;" horiz-adv-x="352" d="M18 789l143 122h29l141 -120l-20 -28l-136 74l-140 -75zM47 0v31l80 13v612l-80 13v31h258v-31l-80 -13v-612l80 -13v-31h-258z" />
<glyph unicode="&#xcf;" horiz-adv-x="352" d="M22 840q0 24 16 40t41 16q26 0 40.5 -15t14.5 -39q0 -25 -16 -42t-42 -17q-23 0 -38.5 17t-15.5 40zM47 0v31l80 13v612l-80 13v31h258v-31l-80 -13v-612l80 -13v-31h-258zM221 840q0 24 16 40t41 16q26 0 40.5 -15t14.5 -39q0 -25 -16 -42t-42 -17q-23 0 -38.5 17 t-15.5 40z" />
<glyph unicode="&#xd0;" horiz-adv-x="747" d="M22 331v54h112v271l-80 13v31h287q165 0 260 -94.5t95 -242.5q0 -175 -104.5 -269t-267.5 -94h-270v31l80 13v287h-112zM232 50h100q125 0 193 80t68 214q0 135 -73.5 220.5t-215.5 85.5h-72v-265h124v-54h-124v-281z" />
<glyph unicode="&#xd1;" horiz-adv-x="766" d="M45 0v31l80 16v563l-46 53v37l110 4l349 -480q11 -15 23.5 -34.5t18.5 -31.5l7 -12l4 1q-4 46 -4 87v417l-80 18v31h218v-31l-80 -18v-651l-54 -4l-358 488l-52 79l-3 -1q5 -44 5 -90v-425l80 -16v-31h-218zM225 770q8 47 34.5 79t72.5 32q30 0 73 -27.5t60 -27.5 q37 0 66 51l27 -6q-20 -111 -106 -111q-28 0 -73 27.5t-63 27.5q-38 0 -64 -52z" />
<glyph unicode="&#xd2;" horiz-adv-x="769" d="M53 347q0 69 20.5 133t60.5 117t108 85t154 32q142 0 231 -101.5t89 -259.5q0 -69 -20.5 -133t-60.5 -117t-108 -85t-154 -32q-142 0 -231 101.5t-89 259.5zM155 364q0 -82 27.5 -156t84.5 -124.5t132 -50.5q103 0 159 83.5t56 212.5q0 86 -27.5 161.5t-85 126 t-133.5 50.5q-102 0 -157.5 -85t-55.5 -218zM244 893l62 64l149 -177l-28 -30z" />
<glyph unicode="&#xd3;" horiz-adv-x="769" d="M53 347q0 69 20.5 133t60.5 117t108 85t154 32q142 0 231 -101.5t89 -259.5q0 -69 -20.5 -133t-60.5 -117t-108 -85t-154 -32q-142 0 -231 101.5t-89 259.5zM155 364q0 -82 27.5 -156t84.5 -124.5t132 -50.5q103 0 159 83.5t56 212.5q0 86 -27.5 161.5t-85 126 t-133.5 50.5q-102 0 -157.5 -85t-55.5 -218zM336 780l149 177l62 -64l-183 -143z" />
<glyph unicode="&#xd4;" horiz-adv-x="769" d="M53 347q0 69 20.5 133t60.5 117t108 85t154 32q142 0 231 -101.5t89 -259.5q0 -69 -20.5 -133t-60.5 -117t-108 -85t-154 -32q-142 0 -231 101.5t-89 259.5zM155 364q0 -82 27.5 -156t84.5 -124.5t132 -50.5q103 0 159 83.5t56 212.5q0 86 -27.5 161.5t-85 126 t-133.5 50.5q-102 0 -157.5 -85t-55.5 -218zM226 778l143 122h29l141 -120l-20 -28l-136 74l-140 -75z" />
<glyph unicode="&#xd5;" horiz-adv-x="769" d="M53 347q0 69 20.5 133t60.5 117t108 85t154 32q142 0 231 -101.5t89 -259.5q0 -69 -20.5 -133t-60.5 -117t-108 -85t-154 -32q-142 0 -231 101.5t-89 259.5zM155 364q0 -82 27.5 -156t84.5 -124.5t132 -50.5q103 0 159 83.5t56 212.5q0 86 -27.5 161.5t-85 126 t-133.5 50.5q-102 0 -157.5 -85t-55.5 -218zM208 799q8 47 34.5 79t72.5 32q30 0 73 -27.5t60 -27.5q37 0 66 51l27 -6q-20 -111 -106 -111q-28 0 -73 27.5t-63 27.5q-38 0 -64 -52z" />
<glyph unicode="&#xd6;" horiz-adv-x="769" d="M53 347q0 69 20.5 133t60.5 117t108 85t154 32q142 0 231 -101.5t89 -259.5q0 -69 -20.5 -133t-60.5 -117t-108 -85t-154 -32q-142 0 -231 101.5t-89 259.5zM155 364q0 -82 27.5 -156t84.5 -124.5t132 -50.5q103 0 159 83.5t56 212.5q0 86 -27.5 161.5t-85 126 t-133.5 50.5q-102 0 -157.5 -85t-55.5 -218zM235 838q0 24 16 40t41 16q26 0 40.5 -15t14.5 -39q0 -25 -16 -42t-42 -17q-23 0 -38.5 17t-15.5 40zM434 838q0 24 16 40t41 16q26 0 40.5 -15t14.5 -39q0 -25 -16 -42t-42 -17q-23 0 -38.5 17t-15.5 40z" />
<glyph unicode="&#xd7;" d="M60 136l142 150l-142 149l49 50l141 -149l141 149l49 -50l-143 -149l143 -150l-47 -48l-143 149l-143 -149z" />
<glyph unicode="&#xd8;" horiz-adv-x="769" d="M53 347q0 69 20.5 133t60.5 117t108 85t154 32q105 0 186 -60l56 80l50 -33l-62 -88q90 -101 90 -260q0 -69 -20.5 -133t-60.5 -117t-108 -85t-154 -32q-88 0 -157 40l-63 -90l-50 32l65 93q-115 101 -115 286zM155 364q0 -133 65 -228l313 448q-68 83 -165 83 q-102 0 -157.5 -85t-55.5 -218zM260 89q59 -56 139 -56q103 0 159 83.5t56 212.5q0 110 -46 200z" />
<glyph unicode="&#xd9;" horiz-adv-x="742" d="M29 669v31h258v-31l-80 -14v-404q0 -97 45 -154.5t126 -57.5q90 0 136.5 59.5t46.5 162.5v394l-80 14v31h233v-31l-80 -14v-371q0 -56 -12.5 -105.5t-40.5 -94.5t-81 -71.5t-126 -26.5q-127 0 -196 73.5t-69 203.5v393zM223 894l62 64l149 -177l-28 -30z" />
<glyph unicode="&#xda;" horiz-adv-x="742" d="M29 669v31h258v-31l-80 -14v-404q0 -97 45 -154.5t126 -57.5q90 0 136.5 59.5t46.5 162.5v394l-80 14v31h233v-31l-80 -14v-371q0 -56 -12.5 -105.5t-40.5 -94.5t-81 -71.5t-126 -26.5q-127 0 -196 73.5t-69 203.5v393zM340 780l149 177l62 -64l-183 -143z" />
<glyph unicode="&#xdb;" horiz-adv-x="742" d="M29 669v31h258v-31l-80 -14v-404q0 -97 45 -154.5t126 -57.5q90 0 136.5 59.5t46.5 162.5v394l-80 14v31h233v-31l-80 -14v-371q0 -56 -12.5 -105.5t-40.5 -94.5t-81 -71.5t-126 -26.5q-127 0 -196 73.5t-69 203.5v393zM229 778l143 122h29l141 -120l-20 -28l-136 74 l-140 -75z" />
<glyph unicode="&#xdc;" horiz-adv-x="742" d="M29 669v31h258v-31l-80 -14v-404q0 -97 45 -154.5t126 -57.5q90 0 136.5 59.5t46.5 162.5v394l-80 14v31h233v-31l-80 -14v-371q0 -56 -12.5 -105.5t-40.5 -94.5t-81 -71.5t-126 -26.5q-127 0 -196 73.5t-69 203.5v393zM224 839q0 24 16 40t41 16q26 0 40.5 -15t14.5 -39 q0 -25 -16 -42t-42 -17q-23 0 -38.5 17t-15.5 40zM423 839q0 24 16 40t41 16q26 0 40.5 -15t14.5 -39q0 -25 -16 -42t-42 -17q-23 0 -38.5 17t-15.5 40z" />
<glyph unicode="&#xdd;" horiz-adv-x="632" d="M-17 669v31h239v-31l-77 -13l143 -234l43 -83h4q17 38 45 89l93 159q23 42 23 65l-68 17v31h205v-31l-59 -15l-205 -355v-255l80 -13v-31h-258v31l80 13v255l-230 357zM297 780l149 177l62 -64l-183 -143z" />
<glyph unicode="&#xde;" horiz-adv-x="616" d="M46 0v21l80 21v616l-80 21v21h278v-21l-100 -21v-68h92q125 0 194 -55.5t69 -159.5q0 -103 -69.5 -160.5t-183.5 -57.5h-102v-115l100 -21v-21h-278zM224 207h102q74 0 113.5 48t39.5 117q0 74 -43 121t-134 47h-78v-333z" />
<glyph unicode="&#xdf;" horiz-adv-x="658" d="M48 0v31l66 11v408h-66v50h67v47q0 101 57.5 157t162.5 56q88 0 152.5 -46t64.5 -115q0 -45 -23 -78t-50 -49.5t-50 -44.5t-23 -64q0 -24 23 -42.5t55.5 -33.5t65 -32.5t55.5 -47.5t23 -71q0 -67 -42 -106.5t-110 -39.5q-35 0 -88.5 9.5t-73.5 11.5l8 72q21 -2 72.5 -13 t78.5 -11q70 0 70 70q0 25 -23 43.5t-55.5 31.5t-65 29t-55.5 46.5t-23 73.5q0 40 21 73.5t45.5 53.5t45.5 52t21 70q0 45 -32.5 74.5t-85.5 29.5q-71 0 -100 -34.5t-29 -100.5v-571h-159z" />
<glyph unicode="&#xe0;" horiz-adv-x="519" d="M42 116q0 125 150 152q53 9 136 9v54q0 60 -21.5 87.5t-85.5 27.5q-31 0 -68 -6t-59 -12l-22 -5v34q9 6 24.5 15t63.5 23.5t94 14.5q87 0 126 -47t39 -140v-240q0 -43 37 -43h31v-27q-31 -23 -76 -23q-71 0 -82 69q-69 -64 -159 -64q-60 0 -94 34.5t-34 86.5zM128 733 l62 64l149 -177l-28 -30zM133 130q0 -33 21 -53t60 -20q51 0 115 38q-3 28 -3 71v71q-53 1 -111 -14q-82 -21 -82 -93z" />
<glyph unicode="&#xe1;" horiz-adv-x="519" d="M42 116q0 125 150 152q53 9 136 9v54q0 60 -21.5 87.5t-85.5 27.5q-31 0 -68 -6t-59 -12l-22 -5v34q9 6 24.5 15t63.5 23.5t94 14.5q87 0 126 -47t39 -140v-240q0 -43 37 -43h31v-27q-31 -23 -76 -23q-71 0 -82 69q-69 -64 -159 -64q-60 0 -94 34.5t-34 86.5zM133 130 q0 -33 21 -53t60 -20q51 0 115 38q-3 28 -3 71v71q-53 1 -111 -14q-82 -21 -82 -93zM178 620l149 177l62 -64l-183 -143z" />
<glyph unicode="&#xe2;" horiz-adv-x="519" d="M42 116q0 125 150 152q53 9 136 9v54q0 60 -21.5 87.5t-85.5 27.5q-31 0 -68 -6t-59 -12l-22 -5v34q9 6 24.5 15t63.5 23.5t94 14.5q87 0 126 -47t39 -140v-240q0 -43 37 -43h31v-27q-31 -23 -76 -23q-71 0 -82 69q-69 -64 -159 -64q-60 0 -94 34.5t-34 86.5zM87 617 l143 122h29l141 -120l-20 -28l-136 74l-140 -75zM133 130q0 -33 21 -53t60 -20q51 0 115 38q-3 28 -3 71v71q-53 1 -111 -14q-82 -21 -82 -93z" />
<glyph unicode="&#xe3;" horiz-adv-x="519" d="M42 116q0 125 150 152q53 9 136 9v54q0 60 -21.5 87.5t-85.5 27.5q-31 0 -68 -6t-59 -12l-22 -5v34q9 6 24.5 15t63.5 23.5t94 14.5q87 0 126 -47t39 -140v-240q0 -43 37 -43h31v-27q-31 -23 -76 -23q-71 0 -82 69q-69 -64 -159 -64q-60 0 -94 34.5t-34 86.5zM89 600 q8 47 34.5 79t72.5 32q30 0 73 -27.5t60 -27.5q37 0 66 51l27 -6q-20 -111 -106 -111q-28 0 -73 27.5t-63 27.5q-38 0 -64 -52zM133 130q0 -33 21 -53t60 -20q51 0 115 38q-3 28 -3 71v71q-53 1 -111 -14q-82 -21 -82 -93z" />
<glyph unicode="&#xe4;" horiz-adv-x="519" d="M42 116q0 125 150 152q53 9 136 9v54q0 60 -21.5 87.5t-85.5 27.5q-31 0 -68 -6t-59 -12l-22 -5v34q9 6 24.5 15t63.5 23.5t94 14.5q87 0 126 -47t39 -140v-240q0 -43 37 -43h31v-27q-31 -23 -76 -23q-71 0 -82 69q-69 -64 -159 -64q-60 0 -94 34.5t-34 86.5zM95 647 q0 24 16 40t41 16q26 0 40.5 -15t14.5 -39q0 -25 -16 -42t-42 -17q-23 0 -38.5 17t-15.5 40zM133 130q0 -33 21 -53t60 -20q51 0 115 38q-3 28 -3 71v71q-53 1 -111 -14q-82 -21 -82 -93zM294 647q0 24 16 40t41 16q26 0 40.5 -15t14.5 -39q0 -25 -16 -42t-42 -17 q-23 0 -38.5 17t-15.5 40z" />
<glyph unicode="&#xe5;" horiz-adv-x="519" d="M42 116q0 125 150 152q53 9 136 9v54q0 60 -21.5 87.5t-85.5 27.5q-31 0 -68 -6t-59 -12l-22 -5v34q9 6 24.5 15t63.5 23.5t94 14.5q87 0 126 -47t39 -140v-240q0 -43 37 -43h31v-27q-31 -23 -76 -23q-71 0 -82 69q-69 -64 -159 -64q-60 0 -94 34.5t-34 86.5zM133 130 q0 -33 21 -53t60 -20q51 0 115 38q-3 28 -3 71v71q-53 1 -111 -14q-82 -21 -82 -93zM150 689q0 45 29.5 72t73.5 27t73.5 -27t29.5 -72t-29.5 -72t-73.5 -27t-73.5 27t-29.5 72zM199 689q0 -58 54 -58t54 58t-54 58t-54 -58z" />
<glyph unicode="&#xe6;" horiz-adv-x="797" d="M42 116q0 125 150 152q53 9 135 9v1q1 8 1 53q0 60 -21.5 87.5t-85.5 27.5q-31 0 -68 -6t-59 -12l-22 -5v34q9 6 24.5 15t63.5 23.5t94 14.5q103 0 136 -78q66 78 167 78q104 0 153 -65.5t38 -187.5h-327q2 -91 50.5 -148t128.5 -57q30 0 62 6t49 12l17 6v-34 q-7 -6 -20.5 -14.5t-57.5 -23t-90 -14.5q-139 0 -200 111q-70 -106 -190 -106q-60 0 -94 34.5t-34 86.5zM133 130q0 -33 21 -53t60 -20q44 0 78.5 28t46.5 65q-13 44 -13 87q-53 1 -111 -14q-82 -21 -82 -93zM423 304l234 6q-1 69 -23 109t-81 40q-54 0 -88.5 -41.5 t-41.5 -113.5z" />
<glyph unicode="&#xe7;" horiz-adv-x="476" d="M50 241q0 117 69.5 193t180.5 76q36 0 79.5 -10t58.5 -12l-20 -81q-27 4 -73 27.5t-74 23.5q-59 0 -92.5 -59t-33.5 -132q0 -96 42.5 -155.5t119.5 -59.5q32 0 63.5 6t46.5 12l15 6v-34q-7 -6 -19 -14.5t-53.5 -23t-85.5 -14.5h-11l6 -42q48 7 78 -11.5t30 -54.5 q0 -34 -31 -58t-78 -24q-68 0 -125 34l13 28q45 -15 92 -15q59 0 59 36q0 21 -30 30t-63 -3l-15 13l30 71q-86 14 -132.5 80.5t-46.5 166.5z" />
<glyph unicode="&#xe8;" horiz-adv-x="521" d="M50 241q0 121 67 195t164 74q104 0 153 -65.5t38 -187.5h-327q2 -91 50.5 -148t128.5 -57q30 0 62 6t49 12l17 6v-34q-7 -6 -20.5 -14.5t-57.5 -23t-90 -14.5q-107 0 -170.5 70t-63.5 181zM134 733l62 64l149 -177l-28 -30zM147 304l234 6q-1 69 -23 109t-81 40 q-54 0 -88.5 -41.5t-41.5 -113.5z" />
<glyph unicode="&#xe9;" horiz-adv-x="521" d="M50 241q0 121 67 195t164 74q104 0 153 -65.5t38 -187.5h-327q2 -91 50.5 -148t128.5 -57q30 0 62 6t49 12l17 6v-34q-7 -6 -20.5 -14.5t-57.5 -23t-90 -14.5q-107 0 -170.5 70t-63.5 181zM147 304l234 6q-1 69 -23 109t-81 40q-54 0 -88.5 -41.5t-41.5 -113.5zM215 619 l149 177l62 -64l-183 -143z" />
<glyph unicode="&#xea;" horiz-adv-x="521" d="M50 241q0 121 67 195t164 74q104 0 153 -65.5t38 -187.5h-327q2 -91 50.5 -148t128.5 -57q30 0 62 6t49 12l17 6v-34q-7 -6 -20.5 -14.5t-57.5 -23t-90 -14.5q-107 0 -170.5 70t-63.5 181zM122 617l143 122h29l141 -120l-20 -28l-136 74l-140 -75zM147 304l234 6 q-1 69 -23 109t-81 40q-54 0 -88.5 -41.5t-41.5 -113.5z" />
<glyph unicode="&#xeb;" horiz-adv-x="521" d="M50 241q0 121 67 195t164 74q104 0 153 -65.5t38 -187.5h-327q2 -91 50.5 -148t128.5 -57q30 0 62 6t49 12l17 6v-34q-7 -6 -20.5 -14.5t-57.5 -23t-90 -14.5q-107 0 -170.5 70t-63.5 181zM121 647q0 24 16 40t41 16q26 0 40.5 -15t14.5 -39q0 -25 -16 -42t-42 -17 q-23 0 -38.5 17t-15.5 40zM147 304l234 6q-1 69 -23 109t-81 40q-54 0 -88.5 -41.5t-41.5 -113.5zM320 647q0 24 16 40t41 16q26 0 40.5 -15t14.5 -39q0 -25 -16 -42t-42 -17q-23 0 -38.5 17t-15.5 40z" />
<glyph unicode="&#xec;" horiz-adv-x="320" d="M23 732l62 64l149 -177l-28 -30zM37 460v31l154 14l20 -5v-457l80 -12v-31h-253v31l80 12v409z" />
<glyph unicode="&#xed;" horiz-adv-x="320" d="M37 460v31l154 14l20 -5v-457l80 -12v-31h-253v31l80 12v409zM64 620l149 177l62 -64l-183 -143z" />
<glyph unicode="&#xee;" horiz-adv-x="320" d="M-7 616l143 122h29l141 -120l-20 -28l-136 74l-140 -75zM37 460v31l154 14l20 -5v-457l80 -12v-31h-253v31l80 12v409z" />
<glyph unicode="&#xef;" horiz-adv-x="320" d="M-5 646q0 24 16 40t41 16q26 0 40.5 -15t14.5 -39q0 -25 -16 -42t-42 -17q-23 0 -38.5 17t-15.5 40zM37 460v31l154 14l20 -5v-457l80 -12v-31h-253v31l80 12v409zM194 646q0 24 16 40t41 16q26 0 40.5 -15t14.5 -39q0 -25 -16 -42t-42 -17q-23 0 -38.5 17t-15.5 40z" />
<glyph unicode="&#xf0;" horiz-adv-x="589" d="M51 230q0 100 59 165.5t161 65.5q98 0 147 -45q-22 160 -124 235l-143 -94l-29 40l125 82q-67 32 -151 42l8 37q117 -16 191 -47l144 95l27 -41l-120 -79q177 -104 177 -379q0 -133 -64 -225t-180 -92q-107 0 -167.5 68.5t-60.5 171.5zM148 228q0 -85 36 -137t105 -52 q37 0 64.5 23t42.5 63t21.5 87t6.5 103q0 19 -2 55q-62 37 -118 37q-77 0 -116.5 -49.5t-39.5 -129.5z" />
<glyph unicode="&#xf1;" horiz-adv-x="632" d="M37 459v31l154 15l20 -5l-4 -59q89 69 162 69q77 0 119 -49t42 -130v-289l80 -11v-31h-243v31l70 11v266q0 128 -103 128q-32 0 -64 -8.5t-48 -17.5l-15 -8q4 -41 4 -95v-265l70 -11v-31h-243v31l80 11v409zM146 600q8 47 34.5 79t72.5 32q30 0 73 -27.5t60 -27.5 q37 0 66 51l27 -6q-20 -111 -106 -111q-28 0 -73 27.5t-63 27.5q-38 0 -64 -52z" />
<glyph unicode="&#xf2;" horiz-adv-x="574" d="M50 239q0 120 65 195.5t185 75.5q104 0 164 -68.5t60 -180.5q0 -120 -65 -195.5t-185 -75.5q-104 0 -164 68.5t-60 180.5zM145 251q0 -97 37.5 -154.5t103.5 -57.5q143 0 143 210q0 97 -37.5 154.5t-103.5 57.5q-143 0 -143 -210zM155 733l62 64l149 -177l-28 -30z" />
<glyph unicode="&#xf3;" horiz-adv-x="574" d="M50 239q0 120 65 195.5t185 75.5q104 0 164 -68.5t60 -180.5q0 -120 -65 -195.5t-185 -75.5q-104 0 -164 68.5t-60 180.5zM145 251q0 -97 37.5 -154.5t103.5 -57.5q143 0 143 210q0 97 -37.5 154.5t-103.5 57.5q-143 0 -143 -210zM219 620l149 177l62 -64l-183 -143z" />
<glyph unicode="&#xf4;" horiz-adv-x="574" d="M50 239q0 120 65 195.5t185 75.5q104 0 164 -68.5t60 -180.5q0 -120 -65 -195.5t-185 -75.5q-104 0 -164 68.5t-60 180.5zM138 616l143 122h29l141 -120l-20 -28l-136 74l-140 -75zM145 251q0 -97 37.5 -154.5t103.5 -57.5q143 0 143 210q0 97 -37.5 154.5t-103.5 57.5 q-143 0 -143 -210z" />
<glyph unicode="&#xf5;" horiz-adv-x="574" d="M50 239q0 120 65 195.5t185 75.5q104 0 164 -68.5t60 -180.5q0 -120 -65 -195.5t-185 -75.5q-104 0 -164 68.5t-60 180.5zM129 600q8 47 34.5 79t72.5 32q30 0 73 -27.5t60 -27.5q37 0 66 51l27 -6q-20 -111 -106 -111q-28 0 -73 27.5t-63 27.5q-38 0 -64 -52zM145 251 q0 -97 37.5 -154.5t103.5 -57.5q143 0 143 210q0 97 -37.5 154.5t-103.5 57.5q-143 0 -143 -210z" />
<glyph unicode="&#xf6;" horiz-adv-x="574" d="M50 239q0 120 65 195.5t185 75.5q104 0 164 -68.5t60 -180.5q0 -120 -65 -195.5t-185 -75.5q-104 0 -164 68.5t-60 180.5zM129 647q0 24 16 40t41 16q26 0 40.5 -15t14.5 -39q0 -25 -16 -42t-42 -17q-23 0 -38.5 17t-15.5 40zM145 251q0 -97 37.5 -154.5t103.5 -57.5 q143 0 143 210q0 97 -37.5 154.5t-103.5 57.5q-143 0 -143 -210zM328 647q0 24 16 40t41 16q26 0 40.5 -15t14.5 -39q0 -25 -16 -42t-42 -17q-23 0 -38.5 17t-15.5 40z" />
<glyph unicode="&#xf7;" horiz-adv-x="544" d="M61 253v64h421v-64h-421zM207 111q0 29 17.5 45.5t46.5 16.5q27 0 42 -16t15 -44q0 -30 -17 -47.5t-46 -17.5q-26 0 -42 17.5t-16 45.5zM207 465q0 29 17.5 45.5t46.5 16.5q27 0 42 -16t15 -44q0 -30 -17 -47.5t-46 -17.5q-26 0 -42 17.5t-16 45.5z" />
<glyph unicode="&#xf8;" horiz-adv-x="574" d="M50 -28l61 85q-61 69 -61 182q0 120 65 195.5t185 75.5q66 0 118 -30l56 77l50 -33l-60 -83q60 -68 60 -180q0 -120 -65 -195.5t-185 -75.5q-67 0 -117 29l-57 -79zM145 251q0 -70 20 -121l211 292q-36 39 -88 39q-143 0 -143 -210zM199 76q35 -37 87 -37q143 0 143 210 q0 66 -19 118z" />
<glyph unicode="&#xf9;" horiz-adv-x="620" d="M21 459v31l158 15l20 -5l-4 -29v-291q0 -50 24.5 -83t78.5 -33q59 0 127 34q-4 52 -4 101v252l-81 8v31l158 15l20 -5l-4 -59v-358q0 -43 37 -43h31v-27q-31 -23 -76 -23q-71 0 -82 69q-84 -69 -167 -69q-71 0 -113 49.5t-42 129.5v282zM146 733l62 64l149 -177l-28 -30z " />
<glyph unicode="&#xfa;" horiz-adv-x="620" d="M21 459v31l158 15l20 -5l-4 -29v-291q0 -50 24.5 -83t78.5 -33q59 0 127 34q-4 52 -4 101v252l-81 8v31l158 15l20 -5l-4 -59v-358q0 -43 37 -43h31v-27q-31 -23 -76 -23q-71 0 -82 69q-84 -69 -167 -69q-71 0 -113 49.5t-42 129.5v282zM247 619l149 177l62 -64 l-183 -143z" />
<glyph unicode="&#xfb;" horiz-adv-x="620" d="M21 459v31l158 15l20 -5l-4 -29v-291q0 -50 24.5 -83t78.5 -33q59 0 127 34q-4 52 -4 101v252l-81 8v31l158 15l20 -5l-4 -59v-358q0 -43 37 -43h31v-27q-31 -23 -76 -23q-71 0 -82 69q-84 -69 -167 -69q-71 0 -113 49.5t-42 129.5v282zM150 616l143 122h29l141 -120 l-20 -28l-136 74l-140 -75z" />
<glyph unicode="&#xfc;" horiz-adv-x="620" d="M21 459v31l158 15l20 -5l-4 -29v-291q0 -50 24.5 -83t78.5 -33q59 0 127 34q-4 52 -4 101v252l-81 8v31l158 15l20 -5l-4 -59v-358q0 -43 37 -43h31v-27q-31 -23 -76 -23q-71 0 -82 69q-84 -69 -167 -69q-71 0 -113 49.5t-42 129.5v282zM151 647q0 24 16 40t41 16 q26 0 40.5 -15t14.5 -39q0 -25 -16 -42t-42 -17q-23 0 -38.5 17t-15.5 40zM350 647q0 24 16 40t41 16q26 0 40.5 -15t14.5 -39q0 -25 -16 -42t-42 -17q-23 0 -38.5 17t-15.5 40z" />
<glyph unicode="&#xfd;" horiz-adv-x="574" d="M4 469v31h233v-31l-65 -13l97 -263l36 -116h4q14 53 34 113l90 266l-75 13v31h212v-31l-69 -13l-172 -457q-24 -63 -41.5 -126.5t-23.5 -95.5l-6 -32l-94 5q32 119 98 232l-193 474zM247 620l149 177l62 -64l-183 -143z" />
<glyph unicode="&#xfe;" horiz-adv-x="588" d="M9 715v34l154 5l20 -5l-2 -307q72 68 154 68q100 0 151 -68.5t51 -171.5q0 -125 -65 -202.5t-167 -77.5q-73 0 -122 33v-231l80 -11v-32h-253v32l80 11v913zM181 401q0 -2 0.5 -16t1 -36t0.5 -44v-220q48 -40 112 -40q76 0 110.5 57.5t34.5 145.5q0 192 -135 192 q-65 0 -124 -39z" />
<glyph unicode="&#xff;" horiz-adv-x="574" d="M4 469v31h233v-31l-65 -13l97 -263l36 -116h4q14 53 34 113l90 266l-75 13v31h212v-31l-69 -13l-172 -457q-24 -63 -41.5 -126.5t-23.5 -95.5l-6 -32l-94 5q32 119 98 232l-193 474zM141 647q0 24 16 40t41 16q26 0 40.5 -15t14.5 -39q0 -25 -16 -42t-42 -17 q-23 0 -38.5 17t-15.5 40zM340 647q0 24 16 40t41 16q26 0 40.5 -15t14.5 -39q0 -25 -16 -42t-42 -17q-23 0 -38.5 17t-15.5 40z" />
<glyph unicode="&#x100;" horiz-adv-x="684" d="M-13 0v31l75 13l241 657l74 6l247 -663l63 -13v-31h-243v31l78 13l-57 159h-282l-16 -48q-21 -59 -30 -111l84 -13v-31h-234zM200 253h246l-97 266q-8 22 -15 48t-10 41l-2 15h-4q-11 -54 -27 -101zM220 801v59h234v-59h-234z" />
<glyph unicode="&#x101;" horiz-adv-x="519" d="M42 116q0 125 150 152q53 9 136 9v54q0 60 -21.5 87.5t-85.5 27.5q-31 0 -68 -6t-59 -12l-22 -5v34q9 6 24.5 15t63.5 23.5t94 14.5q87 0 126 -47t39 -140v-240q0 -43 37 -43h31v-27q-31 -23 -76 -23q-71 0 -82 69q-69 -64 -159 -64q-60 0 -94 34.5t-34 86.5zM133 130 q0 -33 21 -53t60 -20q51 0 115 38q-3 28 -3 71v71q-53 1 -111 -14q-82 -21 -82 -93zM138 615v59h234v-59h-234z" />
<glyph unicode="&#x102;" horiz-adv-x="684" d="M-13 0v31l75 13l241 657l74 6l247 -663l63 -13v-31h-243v31l78 13l-57 159h-282l-16 -48q-21 -59 -30 -111l84 -13v-31h-234zM198 929l24 6q14 -39 44.5 -61t70.5 -22q38 0 69.5 22.5t45.5 60.5l24 -6q-6 -68 -42 -107t-97 -39q-57 0 -95.5 37.5t-43.5 108.5zM200 253 h246l-97 266q-8 22 -15 48t-10 41l-2 15h-4q-11 -54 -27 -101z" />
<glyph unicode="&#x103;" horiz-adv-x="519" d="M42 116q0 125 150 152q53 9 136 9v54q0 60 -21.5 87.5t-85.5 27.5q-31 0 -68 -6t-59 -12l-22 -5v34q9 6 24.5 15t63.5 23.5t94 14.5q87 0 126 -47t39 -140v-240q0 -43 37 -43h31v-27q-31 -23 -76 -23q-71 0 -82 69q-69 -64 -159 -64q-60 0 -94 34.5t-34 86.5zM108 736 l24 6q14 -39 44.5 -61t70.5 -22q38 0 69.5 22.5t45.5 60.5l24 -6q-6 -68 -42 -107t-97 -39q-57 0 -95.5 37.5t-43.5 108.5zM133 130q0 -33 21 -53t60 -20q51 0 115 38q-3 28 -3 71v71q-53 1 -111 -14q-82 -21 -82 -93z" />
<glyph unicode="&#x104;" horiz-adv-x="684" d="M-13 0v31l75 13l241 657l74 6l247 -663l63 -13v-31h-56q-84 -32 -84 -93q0 -27 19 -42t48 -15q16 0 34 4t28 8l9 4v-28q-37 -32 -97 -32q-41 0 -72.5 19.5t-31.5 60.5q0 79 104 114h-144v31l78 13l-57 159h-282l-16 -48q-21 -59 -30 -111l84 -13v-31h-234zM200 253h246 l-97 266q-8 22 -15 48t-10 41l-2 15h-4q-11 -54 -27 -101z" />
<glyph unicode="&#x105;" horiz-adv-x="518" d="M42 116q0 125 150 152q53 9 136 9v54q0 60 -21.5 87.5t-85.5 27.5q-31 0 -68 -6t-59 -12l-22 -5v34q9 6 24.5 15t63.5 23.5t94 14.5q87 0 126 -47t39 -140v-240q0 -43 37 -43h31v-27q-17 -12 -41 -18q-80 -32 -80 -92q0 -27 19 -42t48 -15q16 0 34 4t27 8l10 4v-28 q-37 -32 -97 -32q-41 0 -72.5 19.5t-31.5 60.5q0 74 90 110q-54 8 -64 67q-69 -64 -159 -64q-60 0 -94 34.5t-34 86.5zM133 130q0 -33 21 -53t60 -20q51 0 115 38q-3 28 -3 71v71q-53 1 -111 -14q-82 -21 -82 -93z" />
<glyph unicode="&#x106;" horiz-adv-x="664" d="M52 338q0 103 39.5 187.5t120 136.5t190.5 52q58 0 109 -10t73 -20l22 -10l-8 -170h-39l-15 134q-60 24 -135 24q-122 0 -188.5 -82t-66.5 -221q0 -140 75 -230.5t208 -90.5q50 0 107 15l21 150h38v-178q-78 -39 -177 -39q-174 0 -274 93t-100 259zM305 778l149 177 l62 -64l-183 -143z" />
<glyph unicode="&#x107;" horiz-adv-x="475" d="M50 241q0 117 69.5 193t180.5 76q36 0 79.5 -10t58.5 -12l-20 -81q-27 4 -73 27.5t-74 23.5q-59 0 -92.5 -59t-33.5 -132q0 -96 42.5 -155.5t119.5 -59.5q32 0 63.5 6t46.5 12l15 6v-34q-7 -6 -19 -14.5t-53.5 -23t-85.5 -14.5q-106 0 -165 69.5t-59 181.5zM191 621 l149 177l62 -64l-183 -143z" />
<glyph unicode="&#x108;" horiz-adv-x="664" d="M52 338q0 103 39.5 187.5t120 136.5t190.5 52q58 0 109 -10t73 -20l22 -10l-8 -170h-39l-15 134q-60 24 -135 24q-122 0 -188.5 -82t-66.5 -221q0 -140 75 -230.5t208 -90.5q50 0 107 15l21 150h38v-178q-78 -39 -177 -39q-174 0 -274 93t-100 259zM239 777l143 122h29 l141 -120l-20 -28l-136 74l-140 -75z" />
<glyph unicode="&#x109;" horiz-adv-x="475" d="M50 241q0 117 69.5 193t180.5 76q36 0 79.5 -10t58.5 -12l-20 -81q-27 4 -73 27.5t-74 23.5q-59 0 -92.5 -59t-33.5 -132q0 -96 42.5 -155.5t119.5 -59.5q32 0 63.5 6t46.5 12l15 6v-34q-7 -6 -19 -14.5t-53.5 -23t-85.5 -14.5q-106 0 -165 69.5t-59 181.5zM111 617 l143 122h29l141 -120l-20 -28l-136 74l-140 -75z" />
<glyph unicode="&#x10a;" horiz-adv-x="664" d="M52 338q0 103 39.5 187.5t120 136.5t190.5 52q58 0 109 -10t73 -20l22 -10l-8 -170h-39l-15 134q-60 24 -135 24q-122 0 -188.5 -82t-66.5 -221q0 -140 75 -230.5t208 -90.5q50 0 107 15l21 150h38v-178q-78 -39 -177 -39q-174 0 -274 93t-100 259zM340 841 q0 24 18.5 41.5t42.5 17.5t41 -17t17 -42q0 -24 -18 -41.5t-42 -17.5t-41.5 17t-17.5 42z" />
<glyph unicode="&#x10b;" horiz-adv-x="475" d="M50 241q0 117 69.5 193t180.5 76q36 0 79.5 -10t58.5 -12l-20 -81q-27 4 -73 27.5t-74 23.5q-59 0 -92.5 -59t-33.5 -132q0 -96 42.5 -155.5t119.5 -59.5q32 0 63.5 6t46.5 12l15 6v-34q-7 -6 -19 -14.5t-53.5 -23t-85.5 -14.5q-106 0 -165 69.5t-59 181.5zM221 650 q0 24 18.5 41.5t42.5 17.5t41 -17t17 -42q0 -24 -18 -41.5t-42 -17.5t-41.5 17t-17.5 42z" />
<glyph unicode="&#x10c;" horiz-adv-x="664" d="M52 338q0 103 39.5 187.5t120 136.5t190.5 52q58 0 109 -10t73 -20l22 -10l-8 -170h-39l-15 134q-60 24 -135 24q-122 0 -188.5 -82t-66.5 -221q0 -140 75 -230.5t208 -90.5q50 0 107 15l21 150h38v-178q-78 -39 -177 -39q-174 0 -274 93t-100 259zM250 890l20 28 l136 -74l140 75l17 -27l-143 -122h-29z" />
<glyph unicode="&#x10d;" horiz-adv-x="475" d="M50 241q0 117 69.5 193t180.5 76q36 0 79.5 -10t58.5 -12l-20 -81q-27 4 -73 27.5t-74 23.5q-59 0 -92.5 -59t-33.5 -132q0 -96 42.5 -155.5t119.5 -59.5q32 0 63.5 6t46.5 12l15 6v-34q-7 -6 -19 -14.5t-53.5 -23t-85.5 -14.5q-106 0 -165 69.5t-59 181.5zM116 711 l20 28l136 -74l140 75l17 -27l-143 -122h-29z" />
<glyph unicode="&#x10e;" horiz-adv-x="740" d="M47 0v31l80 13v612l-80 13v31h287q165 0 260 -94.5t95 -242.5q0 -175 -104.5 -269t-267.5 -94h-270zM207 889l20 28l136 -74l140 75l17 -27l-143 -122h-29zM225 50h100q125 0 193 80t68 214q0 135 -73.5 220.5t-215.5 85.5h-72v-600z" />
<glyph unicode="&#x10f;" horiz-adv-x="615" d="M50 223q0 134 65.5 210.5t178.5 76.5q29 0 54 -7t36 -13l11 -7v224l-81 8v31l154 15l20 -5v-673q0 -43 37 -43h31v-27q-31 -23 -76 -23q-71 0 -82 69q-24 -22 -40.5 -34t-48.5 -23.5t-69 -11.5q-84 0 -137 68.5t-53 164.5zM147 260q0 -89 36.5 -142.5t104.5 -53.5 q58 0 111 35q-4 36 -4 100v232q-36 24 -90 24q-75 0 -116.5 -52t-41.5 -143zM551 524q37 22 63.5 56.5t30.5 70.5q-34 -8 -54.5 10t-20.5 46q0 27 18 43.5t46 16.5t46.5 -18.5t18.5 -53.5q0 -59 -36.5 -112t-93.5 -83z" />
<glyph unicode="&#x110;" horiz-adv-x="736" d="M21 331v54h112v271l-80 23v21h277q165 0 260 -94.5t95 -242.5q0 -175 -104.5 -269t-267.5 -94h-260v21l80 23v287h-112zM231 50h90q125 0 193 80t68 214q0 135 -73.5 220.5t-215.5 85.5h-62v-265h124v-54h-124v-281z" />
<glyph unicode="&#x111;" horiz-adv-x="595" d="M50 223q0 134 65.5 210.5t178.5 76.5q29 0 54 -7t36 -13l11 -7v96h-165v54h165v74l-81 8v31l154 15l20 -5v-123h76v-54h-76v-496q0 -43 37 -43h31v-27q-31 -23 -76 -23q-71 0 -82 69q-24 -22 -40.5 -34t-48.5 -23.5t-69 -11.5q-84 0 -137 68.5t-53 164.5zM147 260 q0 -89 36.5 -142.5t104.5 -53.5q58 0 111 35q-4 36 -4 100v232q-36 24 -90 24q-75 0 -116.5 -52t-41.5 -143z" />
<glyph unicode="&#x112;" horiz-adv-x="600" d="M47 0v31l80 13v612l-80 13v31h492l-6 -170h-41l-13 114l-254 6v-267l234 6v-61l-234 5v-283l264 4l27 119h37l-4 -173h-502zM206 800v59h234v-59h-234z" />
<glyph unicode="&#x113;" horiz-adv-x="521" d="M50 241q0 121 67 195t164 74q104 0 153 -65.5t38 -187.5h-327q2 -91 50.5 -148t128.5 -57q30 0 62 6t49 12l17 6v-34q-7 -6 -20.5 -14.5t-57.5 -23t-90 -14.5q-107 0 -170.5 70t-63.5 181zM147 304l234 6q-1 69 -23 109t-81 40q-54 0 -88.5 -41.5t-41.5 -113.5zM166 615 v59h234v-59h-234z" />
<glyph unicode="&#x114;" horiz-adv-x="600" d="M47 0v31l80 13v612l-80 13v31h492l-6 -170h-41l-13 114l-254 6v-267l234 6v-61l-234 5v-283l264 4l27 119h37l-4 -173h-502zM189 906l24 6q14 -39 44.5 -61t70.5 -22q38 0 69.5 22.5t45.5 60.5l24 -6q-6 -68 -42 -107t-97 -39q-57 0 -95.5 37.5t-43.5 108.5z" />
<glyph unicode="&#x115;" horiz-adv-x="521" d="M50 241q0 121 67 195t164 74q104 0 153 -65.5t38 -187.5h-327q2 -91 50.5 -148t128.5 -57q30 0 62 6t49 12l17 6v-34q-7 -6 -20.5 -14.5t-57.5 -23t-90 -14.5q-107 0 -170.5 70t-63.5 181zM147 304l234 6q-1 69 -23 109t-81 40q-54 0 -88.5 -41.5t-41.5 -113.5zM147 736 l24 6q14 -39 44.5 -61t70.5 -22q38 0 69.5 22.5t45.5 60.5l24 -6q-6 -68 -42 -107t-97 -39q-57 0 -95.5 37.5t-43.5 108.5z" />
<glyph unicode="&#x116;" horiz-adv-x="600" d="M47 0v31l80 13v612l-80 13v31h492l-6 -170h-41l-13 114l-254 6v-267l234 6v-61l-234 5v-283l264 4l27 119h37l-4 -173h-502zM269 841q0 24 18.5 41.5t42.5 17.5t41 -17t17 -42q0 -24 -18 -41.5t-42 -17.5t-41.5 17t-17.5 42z" />
<glyph unicode="&#x117;" horiz-adv-x="521" d="M50 241q0 121 67 195t164 74q104 0 153 -65.5t38 -187.5h-327q2 -91 50.5 -148t128.5 -57q30 0 62 6t49 12l17 6v-34q-7 -6 -20.5 -14.5t-57.5 -23t-90 -14.5q-107 0 -170.5 70t-63.5 181zM147 304l234 6q-1 69 -23 109t-81 40q-54 0 -88.5 -41.5t-41.5 -113.5zM227 650 q0 24 18.5 41.5t42.5 17.5t41 -17t17 -42q0 -24 -18 -41.5t-42 -17.5t-41.5 17t-17.5 42z" />
<glyph unicode="&#x118;" horiz-adv-x="600" d="M47 0v31l80 13v612l-80 13v31h492l-6 -170h-41l-13 114l-254 6v-267l234 6v-61l-234 5v-283l264 4l27 119h37l-4 -173h-38q-81 -32 -81 -92q0 -27 19 -42t48 -15q16 0 34 4t27 8l10 4v-28q-37 -32 -97 -32q-41 0 -72.5 19.5t-31.5 60.5q0 79 101 113h-421z" />
<glyph unicode="&#x119;" horiz-adv-x="522" d="M50 241q0 121 67 195t164 74q104 0 153 -65.5t38 -187.5h-327q2 -91 50.5 -148t128.5 -57q30 0 62 6t49 12l17 6v-34q-35 -28 -93 -43q-92 -36 -92 -92q0 -28 15.5 -42.5t41.5 -14.5q16 0 31.5 4t22.5 8l7 4v-28q-32 -32 -94 -32q-36 0 -61.5 22t-25.5 58q0 70 86 104h-6 q-107 0 -170.5 70t-63.5 181zM147 304l234 6q-1 69 -23 109t-81 40q-54 0 -88.5 -41.5t-41.5 -113.5z" />
<glyph unicode="&#x11a;" horiz-adv-x="600" d="M47 0v31l80 13v612l-80 13v31h492l-6 -170h-41l-13 114l-254 6v-267l234 6v-61l-234 5v-283l264 4l27 119h37l-4 -173h-502zM176 890l20 28l136 -74l140 75l17 -27l-143 -122h-29z" />
<glyph unicode="&#x11b;" horiz-adv-x="521" d="M50 241q0 121 67 195t164 74q104 0 153 -65.5t38 -187.5h-327q2 -91 50.5 -148t128.5 -57q30 0 62 6t49 12l17 6v-34q-7 -6 -20.5 -14.5t-57.5 -23t-90 -14.5q-107 0 -170.5 70t-63.5 181zM135 711l20 28l136 -74l140 75l17 -27l-143 -122h-29zM147 304l234 6 q-1 69 -23 109t-81 40q-54 0 -88.5 -41.5t-41.5 -113.5z" />
<glyph unicode="&#x11c;" horiz-adv-x="722" d="M51 338q0 168 99.5 272t277.5 104q58 0 108.5 -10t71.5 -20l22 -10l-8 -170h-39l-15 133q-66 25 -140 25q-126 0 -200.5 -78.5t-74.5 -212.5q0 -151 75 -242t205 -91q26 0 49.5 3t33.5 6l11 3v210l-100 14v31h268v-31l-70 -14v-242q-74 -32 -200 -32q-78 0 -144 20.5 t-118.5 62t-82 110.5t-29.5 159zM255 796l143 122h29l141 -120l-20 -28l-136 74l-140 -75z" />
<glyph unicode="&#x11d;" horiz-adv-x="555" d="M42 -117q0 83 88 128q-25 22 -25 61q0 24 16.5 49.5t40.5 38.5q-53 20 -81 62t-28 98q0 90 57 140t159 50q60 0 103 -23l165 15l-3 -59l-100 -2q38 -45 38 -105q0 -81 -59 -135.5t-162 -54.5q-20 0 -50 4q-28 -24 -17.5 -51.5t50.5 -29.5l118 -7q74 -5 116 -42t42 -101 q0 -78 -68.5 -129.5t-167.5 -53.5q-102 -2 -167 35.5t-65 111.5zM103 618l143 122h29l141 -120l-20 -28l-136 74l-140 -75zM126 -86q0 -49 43.5 -83.5t115.5 -34.5q76 0 116 25t40 71q0 40 -28 62t-75 24l-109 6q-44 4 -69 12q-34 -37 -34 -82zM148 339q0 -66 30 -103 t90 -37q49 0 79 34.5t30 88.5q0 135 -120 135q-52 0 -80.5 -33.5t-28.5 -84.5z" />
<glyph unicode="&#x11e;" horiz-adv-x="722" d="M51 338q0 168 99.5 272t277.5 104q58 0 108.5 -10t71.5 -20l22 -10l-8 -170h-39l-15 133q-66 25 -140 25q-126 0 -200.5 -78.5t-74.5 -212.5q0 -151 75 -242t205 -91q26 0 49.5 3t33.5 6l11 3v210l-100 14v31h268v-31l-70 -14v-242q-74 -32 -200 -32q-78 0 -144 20.5 t-118.5 62t-82 110.5t-29.5 159zM280 916l24 6q14 -39 44.5 -61t70.5 -22q38 0 69.5 22.5t45.5 60.5l24 -6q-6 -68 -42 -107t-97 -39q-57 0 -95.5 37.5t-43.5 108.5z" />
<glyph unicode="&#x11f;" horiz-adv-x="555" d="M42 -117q0 83 88 128q-25 22 -25 61q0 24 16.5 49.5t40.5 38.5q-53 20 -81 62t-28 98q0 90 57 140t159 50q60 0 103 -23l165 15l-3 -59l-100 -2q38 -45 38 -105q0 -81 -59 -135.5t-162 -54.5q-20 0 -50 4q-28 -24 -17.5 -51.5t50.5 -29.5l118 -7q74 -5 116 -42t42 -101 q0 -78 -68.5 -129.5t-167.5 -53.5q-102 -2 -167 35.5t-65 111.5zM116 736l24 6q14 -39 44.5 -61t70.5 -22q38 0 69.5 22.5t45.5 60.5l24 -6q-6 -68 -42 -107t-97 -39q-57 0 -95.5 37.5t-43.5 108.5zM126 -86q0 -49 43.5 -83.5t115.5 -34.5q76 0 116 25t40 71q0 40 -28 62 t-75 24l-109 6q-44 4 -69 12q-34 -37 -34 -82zM148 339q0 -66 30 -103t90 -37q49 0 79 34.5t30 88.5q0 135 -120 135q-52 0 -80.5 -33.5t-28.5 -84.5z" />
<glyph unicode="&#x120;" horiz-adv-x="722" d="M51 338q0 168 99.5 272t277.5 104q58 0 108.5 -10t71.5 -20l22 -10l-8 -170h-39l-15 133q-66 25 -140 25q-126 0 -200.5 -78.5t-74.5 -212.5q0 -151 75 -242t205 -91q26 0 49.5 3t33.5 6l11 3v210l-100 14v31h268v-31l-70 -14v-242q-74 -32 -200 -32q-78 0 -144 20.5 t-118.5 62t-82 110.5t-29.5 159zM361 842q0 24 18.5 41.5t42.5 17.5t41 -17t17 -42q0 -24 -18 -41.5t-42 -17.5t-41.5 17t-17.5 42z" />
<glyph unicode="&#x121;" horiz-adv-x="555" d="M42 -117q0 83 88 128q-25 22 -25 61q0 24 16.5 49.5t40.5 38.5q-53 20 -81 62t-28 98q0 90 57 140t159 50q60 0 103 -23l165 15l-3 -59l-100 -2q38 -45 38 -105q0 -81 -59 -135.5t-162 -54.5q-20 0 -50 4q-28 -24 -17.5 -51.5t50.5 -29.5l118 -7q74 -5 116 -42t42 -101 q0 -78 -68.5 -129.5t-167.5 -53.5q-102 -2 -167 35.5t-65 111.5zM126 -86q0 -49 43.5 -83.5t115.5 -34.5q76 0 116 25t40 71q0 40 -28 62t-75 24l-109 6q-44 4 -69 12q-34 -37 -34 -82zM148 339q0 -66 30 -103t90 -37q49 0 79 34.5t30 88.5q0 135 -120 135 q-52 0 -80.5 -33.5t-28.5 -84.5zM207 649q0 24 18.5 41.5t42.5 17.5t41 -17t17 -42q0 -24 -18 -41.5t-42 -17.5t-41.5 17t-17.5 42z" />
<glyph unicode="&#x122;" horiz-adv-x="722" d="M51 338q0 168 99.5 272t277.5 104q58 0 108.5 -10t71.5 -20l22 -10l-8 -170h-39l-15 133q-66 25 -140 25q-126 0 -200.5 -78.5t-74.5 -212.5q0 -151 75 -242t205 -91q26 0 49.5 3t33.5 6l11 3v210l-100 14v31h268v-31l-70 -14v-242q-74 -32 -200 -32q-78 0 -144 20.5 t-118.5 62t-82 110.5t-29.5 159zM328 -296q37 22 63.5 56.5t30.5 70.5q-34 -8 -54.5 10t-20.5 46q0 27 18 43.5t46 16.5t46.5 -18.5t18.5 -53.5q0 -59 -36.5 -112t-93.5 -83z" />
<glyph unicode="&#x123;" horiz-adv-x="555" d="M42 -117q0 83 88 128q-25 22 -25 61q0 24 16.5 49.5t40.5 38.5q-53 20 -81 62t-28 98q0 90 57 140t159 50q60 0 103 -23l165 15l-3 -59l-100 -2q38 -45 38 -105q0 -81 -59 -135.5t-162 -54.5q-20 0 -50 4q-28 -24 -17.5 -51.5t50.5 -29.5l118 -7q74 -5 116 -42t42 -101 q0 -78 -68.5 -129.5t-167.5 -53.5q-102 -2 -167 35.5t-65 111.5zM126 -86q0 -49 43.5 -83.5t115.5 -34.5q76 0 116 25t40 71q0 40 -28 62t-75 24l-109 6q-44 4 -69 12q-34 -37 -34 -82zM148 339q0 -66 30 -103t90 -37q49 0 79 34.5t30 88.5q0 135 -120 135 q-52 0 -80.5 -33.5t-28.5 -84.5zM207 663q0 59 36.5 112t93.5 83l18 -24q-37 -22 -63.5 -56.5t-30.5 -70.5q34 8 54.5 -10t20.5 -46q0 -27 -18 -43.5t-46 -16.5t-46.5 18.5t-18.5 53.5z" />
<glyph unicode="&#x124;" horiz-adv-x="804" d="M47 0v31l80 13v612l-80 13v31h258v-31l-80 -13v-271h354v271l-80 13v31h258v-31l-80 -13v-612l80 -13v-31h-258v31l80 13v291h-354v-291l80 -13v-31h-258zM243 811l143 122h29l141 -120l-20 -28l-136 74l-140 -75z" />
<glyph unicode="&#x125;" horiz-adv-x="623" d="M-14 851l143 122h29l141 -120l-20 -28l-136 74l-140 -75zM28 715v31l154 15l20 -5l-4 -315q89 69 162 69q77 0 119 -49t42 -130v-288l80 -12v-31h-243v31l70 12v265q0 128 -103 128q-32 0 -64 -8.5t-47 -17.5l-16 -8q4 -41 4 -95v-264l70 -12v-31h-243v31l80 12v664z" />
<glyph unicode="&#x126;" horiz-adv-x="806" d="M36 496v51h92v109l-80 13v31h258v-31l-80 -13v-109h354v109l-80 13v31h258v-31l-80 -13v-109h92v-51h-92v-452l80 -13v-31h-258v31l80 13v291h-354v-291l80 -13v-31h-258v31l80 13v452h-92zM226 385h354v111h-354v-111z" />
<glyph unicode="&#x127;" horiz-adv-x="623" d="M27 579v54h82v74l-81 8v31l154 15l20 -5l-2 -123h161v-54h-161l-2 -138q89 69 162 69q77 0 119 -49t42 -130v-288l80 -12v-31h-243v31l70 12v265q0 128 -103 128q-32 0 -64 -8.5t-47 -17.5l-16 -8q4 -41 4 -95v-264l70 -12v-31h-243v31l80 12v536h-82z" />
<glyph unicode="&#x128;" horiz-adv-x="352" d="M6 804q8 47 34.5 79t72.5 32q30 0 73 -27.5t60 -27.5q37 0 66 51l27 -6q-20 -111 -106 -111q-28 0 -73 27.5t-63 27.5q-38 0 -64 -52zM47 0v31l80 13v612l-80 13v31h258v-31l-80 -13v-612l80 -13v-31h-258z" />
<glyph unicode="&#x129;" horiz-adv-x="320" d="M-19 600q8 47 34.5 79t72.5 32q30 0 73 -27.5t60 -27.5q37 0 66 51l27 -6q-20 -111 -106 -111q-28 0 -73 27.5t-63 27.5q-38 0 -64 -52zM37 460v31l154 14l20 -5v-457l80 -12v-31h-253v31l80 12v409z" />
<glyph unicode="&#x12a;" horiz-adv-x="352" d="M47 0v31l80 13v612l-80 13v31h258v-31l-80 -13v-612l80 -13v-31h-258zM58 797v59h234v-59h-234z" />
<glyph unicode="&#x12b;" horiz-adv-x="320" d="M25 620v59h234v-59h-234zM37 460v31l154 14l20 -5v-457l80 -12v-31h-253v31l80 12v409z" />
<glyph unicode="&#x12c;" horiz-adv-x="352" d="M37 925l24 6q14 -39 44.5 -61t70.5 -22q38 0 69.5 22.5t45.5 60.5l24 -6q-6 -68 -42 -107t-97 -39q-57 0 -95.5 37.5t-43.5 108.5zM47 0v31l80 13v612l-80 13v31h258v-31l-80 -13v-612l80 -13v-31h-258z" />
<glyph unicode="&#x12d;" horiz-adv-x="320" d="M10 737l24 6q14 -39 44.5 -61t70.5 -22q38 0 69.5 22.5t45.5 60.5l24 -6q-6 -68 -42 -107t-97 -39q-57 0 -95.5 37.5t-43.5 108.5zM37 460v31l154 14l20 -5v-457l80 -12v-31h-253v31l80 12v409z" />
<glyph unicode="&#x12e;" horiz-adv-x="352" d="M47 0v31l80 13v612l-80 13v31h258v-31l-80 -13v-612l80 -13v-31h-93q-84 -32 -84 -93q0 -27 19 -42t48 -15q16 0 34 4t27 8l10 4v-28q-37 -32 -97 -32q-41 0 -72.5 19.5t-31.5 60.5q0 79 104 114h-122z" />
<glyph unicode="&#x12f;" horiz-adv-x="320" d="M37 460v31l154 14l20 -5v-457l80 -12v-31h-93q-78 -32 -78 -91q0 -27 19 -42t48 -15q16 0 34 4t27 8l10 4v-28q-37 -32 -97 -32q-41 0 -72.5 19.5t-31.5 60.5q0 78 98 112h-117v31l80 12v409zM103 684q0 26 18 41t46 15q27 0 42.5 -14.5t15.5 -39.5q0 -27 -17 -43 t-46 -16q-26 0 -42.5 16t-16.5 41z" />
<glyph unicode="&#x130;" horiz-adv-x="352" d="M47 0v31l80 13v612l-80 13v31h258v-31l-80 -13v-612l80 -13v-31h-258zM116 855q0 24 18.5 41.5t42.5 17.5t41 -17t17 -42q0 -24 -18 -41.5t-42 -17.5t-41.5 17t-17.5 42z" />
<glyph unicode="&#x131;" horiz-adv-x="320" d="M37 460v31l154 14l20 -5v-457l80 -12v-31h-253v31l80 12v409z" />
<glyph unicode="&#x132;" horiz-adv-x="683" d="M47 0v31l80 13v612l-80 13v31h258v-31l-80 -13v-612l80 -13v-31h-258zM380 -145l42 58q27 37 35 72t8 94v577l-80 13v31h258v-31l-80 -13v-525q0 -72 -17 -118q-12 -31 -33.5 -63.5t-37 -50t-50.5 -55.5q-4 -4 -6.5 -7t-5.5 -6z" />
<glyph unicode="&#x133;" horiz-adv-x="603" d="M37 460v31l154 14l20 -5v-457l80 -12v-31h-253v31l80 12v409zM103 684q0 26 18 41t46 15q27 0 42.5 -14.5t15.5 -39.5q0 -27 -17 -43t-46 -16q-26 0 -42.5 16t-16.5 41zM337 -237q83 86 83 242v447l-81 8v31l154 14l20 -5v-483q0 -151 -156 -274zM405 684q0 26 18 41 t46 15q27 0 42.5 -14.5t15.5 -39.5q0 -27 -17 -43t-46 -16q-26 0 -42.5 16t-16.5 41z" />
<glyph unicode="&#x134;" horiz-adv-x="339" d="M1 812l143 122h29l141 -120l-20 -28l-136 74l-140 -75zM36 -145l42 58q27 37 35 72t8 94v577l-80 13v31h258v-31l-80 -13v-525q0 -72 -17 -118q-12 -31 -33.5 -63.5t-37 -50t-50.5 -55.5q-8 -9 -12 -13z" />
<glyph unicode="&#x135;" horiz-adv-x="291" d="M-24 618l143 122h29l141 -120l-20 -28l-136 74l-140 -75zM25 -237q83 86 83 242v447l-81 8v31l154 14l20 -5v-483q0 -151 -156 -274z" />
<glyph unicode="&#x136;" horiz-adv-x="673" d="M47 0v31l80 13v612l-80 13v31h258v-31l-80 -13v-274h90l183 274l-68 13v31h219v-31l-74 -13l-207 -278l233 -307q18 -23 30.5 -29.5t41.5 -10.5v-31h-80q-40 0 -58.5 9t-41.5 42l-202 281h-66v-288l80 -13v-31h-258zM290 -288q37 22 63.5 56.5t30.5 70.5q-34 -8 -54.5 10 t-20.5 46q0 27 18 43.5t46 16.5t46.5 -18.5t18.5 -53.5q0 -59 -36.5 -112t-93.5 -83z" />
<glyph unicode="&#x137;" horiz-adv-x="588" d="M27 715v31l154 15l20 -5v-472h74l126 175l-58 10v31h205v-31l-71 -10l-148 -171l188 -225q16 -19 25 -23.5t36 -8.5v-31h-62q-46 0 -63.5 9t-45.5 44l-150 185h-56v-195l70 -12v-31h-243v31l80 12v662zM223 -288q37 22 63.5 56.5t30.5 70.5q-34 -8 -54.5 10t-20.5 46 q0 27 18 43.5t46 16.5t46.5 -18.5t18.5 -53.5q0 -59 -36.5 -112t-93.5 -83z" />
<glyph unicode="&#x139;" horiz-adv-x="581" d="M47 0v31l80 13v612l-80 13v31h258v-31l-80 -13v-606l264 4l29 149h37l-6 -203h-502zM130 778l149 177l62 -64l-183 -143z" />
<glyph unicode="&#x13a;" horiz-adv-x="311" d="M28 715v31l154 15l20 -5v-714l80 -11v-31h-253v31l80 11v663zM89 828l149 177l62 -64l-183 -143z" />
<glyph unicode="&#x13b;" horiz-adv-x="580" d="M47 0v31l80 13v612l-80 13v31h258v-31l-80 -13v-606l264 4l29 149h37l-6 -203h-502zM239 -288q37 22 63.5 56.5t30.5 70.5q-34 -8 -54.5 10t-20.5 46q0 27 18 43.5t46 16.5t46.5 -18.5t18.5 -53.5q0 -59 -36.5 -112t-93.5 -83z" />
<glyph unicode="&#x13c;" horiz-adv-x="309" d="M27 715v31l154 15l20 -5v-714l80 -11v-31h-253v31l80 11v663zM64 -295q37 22 63.5 56.5t30.5 70.5q-34 -8 -54.5 10t-20.5 46q0 27 18 43.5t46 16.5t46.5 -18.5t18.5 -53.5q0 -59 -36.5 -112t-93.5 -83z" />
<glyph unicode="&#x13d;" horiz-adv-x="581" d="M47 0v31l80 13v612l-80 13v31h258v-31l-80 -13v-606l264 4l29 149h37l-6 -203h-502zM380 466q37 22 63.5 56.5t30.5 70.5q-34 -8 -54.5 10t-20.5 46q0 27 18 43.5t46 16.5t46.5 -18.5t18.5 -53.5q0 -59 -36.5 -112t-93.5 -83z" />
<glyph unicode="&#x13e;" horiz-adv-x="332" d="M28 715v31l154 15l20 -5v-714l80 -11v-31h-253v31l80 11v663zM255 520q37 22 63.5 56.5t30.5 70.5q-34 -8 -54.5 10t-20.5 46q0 27 18 43.5t46 16.5t46.5 -18.5t18.5 -53.5q0 -59 -36.5 -112t-93.5 -83z" />
<glyph unicode="&#x13f;" horiz-adv-x="588" d="M47 0v31l80 13v612l-80 13v31h258v-31l-80 -13v-606l264 4l29 149h37l-6 -203h-502zM442 369q0 24 18.5 41.5t42.5 17.5t41 -17t17 -42q0 -24 -18 -41.5t-42 -17.5t-41.5 17t-17.5 42z" />
<glyph unicode="&#x140;" horiz-adv-x="402" d="M28 715v31l154 15l20 -5v-714l80 -11v-31h-253v31l80 11v663zM293 379q0 24 18.5 41.5t42.5 17.5t41 -17t17 -42q0 -24 -18 -41.5t-42 -17.5t-41.5 17t-17.5 42z" />
<glyph unicode="&#x141;" horiz-adv-x="590" d="M5 273l131 73v310l-80 13v31h258v-31l-80 -13v-255l109 61l27 -45l-136 -77v-290l264 4l29 149h37l-6 -203h-502v31l80 13v241l-104 -58z" />
<glyph unicode="&#x142;" horiz-adv-x="399" d="M14 263l135 76v366l-81 10v31l154 15l20 -5v-364l110 62l26 -46l-136 -77v-289l80 -11v-31h-253v31l80 11v236l-109 -62z" />
<glyph unicode="&#x143;" horiz-adv-x="766" d="M45 0v31l80 16v563l-46 53v37l110 4l349 -480q11 -15 23.5 -34.5t18.5 -31.5l7 -12l4 1q-4 46 -4 87v417l-80 18v31h218v-31l-80 -18v-651l-54 -4l-358 488l-52 79l-3 -1q5 -44 5 -90v-425l80 -16v-31h-218zM349 780l149 177l62 -64l-183 -143z" />
<glyph unicode="&#x144;" horiz-adv-x="632" d="M37 459v31l154 15l20 -5l-4 -59q89 69 162 69q77 0 119 -49t42 -130v-289l80 -11v-31h-243v31l70 11v266q0 128 -103 128q-32 0 -64 -8.5t-48 -17.5l-15 -8q4 -41 4 -95v-265l70 -11v-31h-243v31l80 11v409zM257 620l149 177l62 -64l-183 -143z" />
<glyph unicode="&#x145;" horiz-adv-x="766" d="M45 0v31l80 16v563l-46 53v37l110 4l349 -480q11 -15 23.5 -34.5t18.5 -31.5l7 -12l4 1q-4 46 -4 87v417l-80 18v31h218v-31l-80 -18v-651l-54 -4l-358 488l-52 79l-3 -1q5 -44 5 -90v-425l80 -16v-31h-218zM321 -295q37 22 63.5 56.5t30.5 70.5q-34 -8 -54.5 10 t-20.5 46q0 27 18 43.5t46 16.5t46.5 -18.5t18.5 -53.5q0 -59 -36.5 -112t-93.5 -83z" />
<glyph unicode="&#x146;" horiz-adv-x="633" d="M38 459v31l154 15l20 -5l-4 -59q89 69 162 69q77 0 119 -49t42 -130v-289l80 -11v-31h-243v31l70 11v266q0 128 -103 128q-32 0 -64 -8.5t-47 -17.5l-16 -8q4 -41 4 -95v-265l70 -11v-31h-243v31l80 11v409zM239 -295q37 22 63.5 56.5t30.5 70.5q-34 -8 -54.5 10 t-20.5 46q0 27 18 43.5t46 16.5t46.5 -18.5t18.5 -53.5q0 -59 -36.5 -112t-93.5 -83z" />
<glyph unicode="&#x147;" horiz-adv-x="766" d="M45 0v31l80 16v563l-46 53v37l110 4l349 -480q11 -15 23.5 -34.5t18.5 -31.5l7 -12l4 1q-4 46 -4 87v417l-80 18v31h218v-31l-80 -18v-651l-54 -4l-358 488l-52 79l-3 -1q5 -44 5 -90v-425l80 -16v-31h-218zM233 905l20 28l136 -74l140 75l17 -27l-143 -122h-29z" />
<glyph unicode="&#x148;" horiz-adv-x="632" d="M37 459v31l154 15l20 -5l-4 -59q89 69 162 69q77 0 119 -49t42 -130v-289l80 -11v-31h-243v31l70 11v266q0 128 -103 128q-32 0 -64 -8.5t-48 -17.5l-15 -8q4 -41 4 -95v-265l70 -11v-31h-243v31l80 11v409zM151 711l20 28l136 -74l140 75l17 -27l-143 -122h-29z" />
<glyph unicode="&#x14a;" horiz-adv-x="759" d="M44 0v21l80 26v577l-49 55v21h113l346 -476q21 -30 49 -78l4 1q-4 44 -4 87v417l-80 28v21h215v-21l-80 -28v-540q0 -58 -1 -80.5t-8.5 -50.5t-24.5 -52q-38 -52 -94 -115l-30 23q51 74 74 117q12 23 21 57l-346 474q-32 42 -52 79l-3 -1q5 -40 5 -90v-425l80 -26v-21 h-215z" />
<glyph unicode="&#x14b;" horiz-adv-x="610" d="M37 459v31l154 15l20 -5l-4 -59q89 69 162 69q77 0 119 -49t42 -130v-242q0 -69 -21 -119q-21 -49 -121 -164l-51 44q7 9 22.5 27.5t21.5 26t15.5 21t15.5 25.5t11 27q14 42 14 108v223q0 128 -103 128q-32 0 -64 -8.5t-48 -17.5l-15 -8q4 -41 4 -95v-265l70 -11v-31 h-243v31l80 11v409z" />
<glyph unicode="&#x14c;" horiz-adv-x="769" d="M53 347q0 69 20.5 133t60.5 117t108 85t154 32q142 0 231 -101.5t89 -259.5q0 -69 -20.5 -133t-60.5 -117t-108 -85t-154 -32q-142 0 -231 101.5t-89 259.5zM155 364q0 -82 27.5 -156t84.5 -124.5t132 -50.5q103 0 159 83.5t56 212.5q0 86 -27.5 161.5t-85 126 t-133.5 50.5q-102 0 -157.5 -85t-55.5 -218zM263 783v59h234v-59h-234z" />
<glyph unicode="&#x14d;" horiz-adv-x="574" d="M50 239q0 120 65 195.5t185 75.5q104 0 164 -68.5t60 -180.5q0 -120 -65 -195.5t-185 -75.5q-104 0 -164 68.5t-60 180.5zM145 251q0 -97 37.5 -154.5t103.5 -57.5q143 0 143 210q0 97 -37.5 154.5t-103.5 57.5q-143 0 -143 -210zM168 622v59h234v-59h-234z" />
<glyph unicode="&#x14e;" horiz-adv-x="769" d="M53 347q0 69 20.5 133t60.5 117t108 85t154 32q142 0 231 -101.5t89 -259.5q0 -69 -20.5 -133t-60.5 -117t-108 -85t-154 -32q-142 0 -231 101.5t-89 259.5zM155 364q0 -82 27.5 -156t84.5 -124.5t132 -50.5q103 0 159 83.5t56 212.5q0 86 -27.5 161.5t-85 126 t-133.5 50.5q-102 0 -157.5 -85t-55.5 -218zM246 909l24 6q14 -39 44.5 -61t70.5 -22q38 0 69.5 22.5t45.5 60.5l24 -6q-6 -68 -42 -107t-97 -39q-57 0 -95.5 37.5t-43.5 108.5z" />
<glyph unicode="&#x14f;" horiz-adv-x="574" d="M50 239q0 120 65 195.5t185 75.5q104 0 164 -68.5t60 -180.5q0 -120 -65 -195.5t-185 -75.5q-104 0 -164 68.5t-60 180.5zM145 251q0 -97 37.5 -154.5t103.5 -57.5q143 0 143 210q0 97 -37.5 154.5t-103.5 57.5q-143 0 -143 -210zM149 736l24 6q14 -39 44.5 -61t70.5 -22 q38 0 69.5 22.5t45.5 60.5l24 -6q-6 -68 -42 -107t-97 -39q-57 0 -95.5 37.5t-43.5 108.5z" />
<glyph unicode="&#x150;" horiz-adv-x="769" d="M53 347q0 69 20.5 133t60.5 117t108 85t154 32q142 0 231 -101.5t89 -259.5q0 -69 -20.5 -133t-60.5 -117t-108 -85t-154 -32q-142 0 -231 101.5t-89 259.5zM155 364q0 -82 27.5 -156t84.5 -124.5t132 -50.5q103 0 159 83.5t56 212.5q0 86 -27.5 161.5t-85 126 t-133.5 50.5q-102 0 -157.5 -85t-55.5 -218zM263 787l149 177l62 -64l-183 -143zM451 787l149 177l62 -64l-183 -143z" />
<glyph unicode="&#x151;" horiz-adv-x="574" d="M50 239q0 120 65 195.5t185 75.5q104 0 164 -68.5t60 -180.5q0 -120 -65 -195.5t-185 -75.5q-104 0 -164 68.5t-60 180.5zM140 621l149 177l62 -64l-183 -143zM145 251q0 -97 37.5 -154.5t103.5 -57.5q143 0 143 210q0 97 -37.5 154.5t-103.5 57.5q-143 0 -143 -210z M328 621l149 177l62 -64l-183 -143z" />
<glyph unicode="&#x152;" horiz-adv-x="1016" d="M53 347q0 69 20.5 133t60.5 117t106.5 85t151.5 32q79 0 151 -39v25h412l-6 -170h-41l-13 114l-254 6v-267l234 6v-61l-234 5v-283l264 4l27 119h37l-4 -173h-422v29q-74 -43 -170 -43q-142 0 -231 101.5t-89 259.5zM155 380q0 -90 27.5 -167.5t84.5 -128.5t132 -51 t144 52v510q-69 72 -159 72q-112 0 -170.5 -81.5t-58.5 -205.5z" />
<glyph unicode="&#x153;" horiz-adv-x="876" d="M50 238q0 126 68.5 199t186.5 73q106 0 161 -81q65 81 170 81q104 0 153 -65.5t38 -187.5h-327q2 -91 50.5 -148t128.5 -57q30 0 62 6t49 12l17 6v-34q-7 -6 -20.5 -14.5t-57.5 -23t-90 -14.5q-117 0 -181 82q-57 -82 -179 -82q-107 0 -168 67t-61 181zM145 262 q0 -107 37.5 -165t111.5 -58q31 0 55.5 13t38 33.5t20.5 35.5t10 28q-13 45 -13 92q0 51 14 98q-16 57 -49 89.5t-82 32.5q-70 0 -106.5 -53.5t-36.5 -145.5zM502 304l234 6q-1 69 -23 109t-81 40q-54 0 -88.5 -41.5t-41.5 -113.5z" />
<glyph unicode="&#x154;" horiz-adv-x="656" d="M47 0v31l80 13v612l-80 13v31h270q128 0 195.5 -53t67.5 -149q0 -71 -42.5 -122.5t-118.5 -72.5l168 -230q18 -25 30.5 -32t41.5 -12v-29q-29 -9 -65 -9q-44 0 -64 13t-53 61l-147 222h-105v-243l101 -13v-31h-279zM225 337h102q72 0 112.5 43.5t40.5 116.5q0 67 -44 110 t-133 43h-78v-313zM270 779l149 177l62 -64l-183 -143z" />
<glyph unicode="&#x155;" horiz-adv-x="463" d="M37 460v31l154 14l20 -5l-4 -67q77 77 133 77q23 0 40.5 -8.5t36.5 -22t34 -19.5l-39 -73q-16 7 -35 19.5t-35 20t-35 7.5q-46 0 -100 -37q4 -46 4 -100v-254l100 -12v-31h-273v31l80 12v409zM180 620l149 177l62 -64l-183 -143z" />
<glyph unicode="&#x156;" horiz-adv-x="656" d="M47 0v31l80 13v612l-80 13v31h270q128 0 195.5 -53t67.5 -149q0 -71 -42.5 -122.5t-118.5 -72.5l168 -230q18 -25 30.5 -32t41.5 -12v-29q-29 -9 -65 -9q-44 0 -64 13t-53 61l-147 222h-105v-243l101 -13v-31h-279zM225 337h102q72 0 112.5 43.5t40.5 116.5q0 67 -44 110 t-133 43h-78v-313zM273 -296q37 22 63.5 56.5t30.5 70.5q-34 -8 -54.5 10t-20.5 46q0 27 18 43.5t46 16.5t46.5 -18.5t18.5 -53.5q0 -59 -36.5 -112t-93.5 -83z" />
<glyph unicode="&#x157;" horiz-adv-x="465" d="M38 460v31l154 14l20 -5l-4 -67q77 77 133 77q23 0 40.5 -8.5t36.5 -22t34 -19.5l-39 -73q-16 7 -35 19.5t-35 20t-35 7.5q-46 0 -100 -37q4 -46 4 -100v-254l100 -12v-31h-273v31l80 12v409zM76 -296q37 22 63.5 56.5t30.5 70.5q-34 -8 -54.5 10t-20.5 46q0 27 18 43.5 t46 16.5t46.5 -18.5t18.5 -53.5q0 -59 -36.5 -112t-93.5 -83z" />
<glyph unicode="&#x158;" horiz-adv-x="656" d="M47 0v31l80 13v612l-80 13v31h270q128 0 195.5 -53t67.5 -149q0 -71 -42.5 -122.5t-118.5 -72.5l168 -230q18 -25 30.5 -32t41.5 -12v-29q-29 -9 -65 -9q-44 0 -64 13t-53 61l-147 222h-105v-243l101 -13v-31h-279zM166 902l20 28l136 -74l140 75l17 -27l-143 -122h-29z M225 337h102q72 0 112.5 43.5t40.5 116.5q0 67 -44 110t-133 43h-78v-313z" />
<glyph unicode="&#x159;" horiz-adv-x="463" d="M37 460v31l154 14l20 -5l-4 -67q77 77 133 77q23 0 40.5 -8.5t36.5 -22t34 -19.5l-39 -73q-16 7 -35 19.5t-35 20t-35 7.5q-46 0 -100 -37q4 -46 4 -100v-254l100 -12v-31h-273v31l80 12v409zM108 711l20 28l136 -74l140 75l17 -27l-143 -122h-29z" />
<glyph unicode="&#x15a;" horiz-adv-x="540" d="M61 203h38l22 -149q49 -16 118 -16q67 0 111 31t44 87q0 33 -11 58.5t-37 47t-45.5 33t-58.5 31.5q-35 18 -52.5 27.5t-45.5 30t-42 39t-25 48t-11 63.5q0 81 62 130.5t164 49.5q48 0 92 -10t64 -20l19 -11l-8 -169h-39l-15 134q-54 24 -120 24q-60 0 -92.5 -28.5 t-32.5 -81.5q0 -51 35.5 -84t105.5 -70q91 -48 121 -74q66 -57 66 -144q0 -89 -67 -141.5t-181 -52.5q-51 0 -95.5 10t-63.5 20l-19 10zM224 779l149 177l62 -64l-183 -143z" />
<glyph unicode="&#x15b;" horiz-adv-x="436" d="M44 12l20 84q32 -4 83 -29t85 -25q39 0 62.5 18t23.5 47q0 27 -19.5 47t-49 32.5t-63.5 28.5t-63.5 33t-49 49t-19.5 74q0 63 49 101t124 38q28 0 55.5 -4t55.5 -10t41 -8l-20 -84q-33 4 -81.5 29t-79.5 25q-33 0 -50.5 -16.5t-17.5 -42.5q0 -35 27 -58.5t65 -39t76 -34 t65 -53t27 -84.5q0 -67 -51 -103.5t-123 -36.5q-36 0 -67.5 4t-62.5 10t-42 8zM151 620l149 177l62 -64l-183 -143z" />
<glyph unicode="&#x15c;" horiz-adv-x="540" d="M61 203h38l22 -149q49 -16 118 -16q67 0 111 31t44 87q0 33 -11 58.5t-37 47t-45.5 33t-58.5 31.5q-35 18 -52.5 27.5t-45.5 30t-42 39t-25 48t-11 63.5q0 81 62 130.5t164 49.5q48 0 92 -10t64 -20l19 -11l-8 -169h-39l-15 134q-54 24 -120 24q-60 0 -92.5 -28.5 t-32.5 -81.5q0 -51 35.5 -84t105.5 -70q91 -48 121 -74q66 -57 66 -144q0 -89 -67 -141.5t-181 -52.5q-51 0 -95.5 10t-63.5 20l-19 10zM124 809l143 122h29l141 -120l-20 -28l-136 74l-140 -75z" />
<glyph unicode="&#x15d;" horiz-adv-x="436" d="M44 12l20 84q32 -4 83 -29t85 -25q39 0 62.5 18t23.5 47q0 27 -19.5 47t-49 32.5t-63.5 28.5t-63.5 33t-49 49t-19.5 74q0 63 49 101t124 38q28 0 55.5 -4t55.5 -10t41 -8l-20 -84q-33 4 -81.5 29t-79.5 25q-33 0 -50.5 -16.5t-17.5 -42.5q0 -35 27 -58.5t65 -39t76 -34 t65 -53t27 -84.5q0 -67 -51 -103.5t-123 -36.5q-36 0 -67.5 4t-62.5 10t-42 8zM68 618l143 122h29l141 -120l-20 -28l-136 74l-140 -75z" />
<glyph unicode="&#x15e;" horiz-adv-x="543" d="M62 203h38l22 -149q49 -16 118 -16q67 0 111 31t44 87q0 33 -11 58.5t-37 47t-45.5 33t-58.5 31.5q-35 18 -52.5 27.5t-45.5 30t-42 39t-25 48t-11 63.5q0 81 62 130.5t164 49.5q48 0 92 -10t63 -20l20 -11l-8 -169h-39l-15 134q-54 24 -120 24q-60 0 -92.5 -28.5 t-32.5 -81.5q0 -51 35.5 -84t105.5 -70q91 -48 121 -74q66 -57 66 -144q0 -84 -59 -135t-162 -58l5 -39q48 7 78 -11.5t30 -54.5q0 -34 -31 -58t-78 -24q-68 0 -125 34l13 28q45 -15 92 -15q59 0 59 36q0 21 -30 30t-63 -3l-15 13l27 63q-48 1 -89.5 11t-59.5 19l-18 10z " />
<glyph unicode="&#x15f;" horiz-adv-x="437" d="M45 12l20 84q32 -4 83 -29t85 -25q39 0 62.5 18t23.5 47q0 27 -19.5 47t-49 32.5t-63.5 28.5t-63.5 33t-49 49t-19.5 74q0 63 49 101t124 38q28 0 55.5 -4t55.5 -10t41 -8l-20 -84q-33 4 -81.5 29t-79.5 25q-33 0 -50.5 -16.5t-17.5 -42.5q0 -35 27 -58.5t65 -39t76 -34 t65 -53t27 -84.5q0 -67 -50.5 -103t-122.5 -37l6 -42q48 7 78 -11.5t30 -54.5q0 -34 -31 -58t-78 -24q-68 0 -125 34l13 28q45 -15 92 -15q59 0 59 36q0 21 -30 30t-63 -3l-15 13l29 68q-27 2 -53 6t-50 8.5t-35 6.5z" />
<glyph unicode="&#x160;" horiz-adv-x="540" d="M61 203h38l22 -149q49 -16 118 -16q67 0 111 31t44 87q0 33 -11 58.5t-37 47t-45.5 33t-58.5 31.5q-35 18 -52.5 27.5t-45.5 30t-42 39t-25 48t-11 63.5q0 81 62 130.5t164 49.5q48 0 92 -10t64 -20l19 -11l-8 -169h-39l-15 134q-54 24 -120 24q-60 0 -92.5 -28.5 t-32.5 -81.5q0 -51 35.5 -84t105.5 -70q91 -48 121 -74q66 -57 66 -144q0 -89 -67 -141.5t-181 -52.5q-51 0 -95.5 10t-63.5 20l-19 10zM133 906l20 28l136 -74l140 75l17 -27l-143 -122h-29z" />
<glyph unicode="&#x161;" horiz-adv-x="436" d="M44 12l20 84q32 -4 83 -29t85 -25q39 0 62.5 18t23.5 47q0 27 -19.5 47t-49 32.5t-63.5 28.5t-63.5 33t-49 49t-19.5 74q0 63 49 101t124 38q28 0 55.5 -4t55.5 -10t41 -8l-20 -84q-33 4 -81.5 29t-79.5 25q-33 0 -50.5 -16.5t-17.5 -42.5q0 -35 27 -58.5t65 -39t76 -34 t65 -53t27 -84.5q0 -67 -51 -103.5t-123 -36.5q-36 0 -67.5 4t-62.5 10t-42 8zM78 710l20 28l136 -74l140 75l17 -27l-143 -122h-29z" />
<glyph unicode="&#x162;" horiz-adv-x="624" d="M25 516l9 184h573l-21 -184h-37l-7 126l-176 9v-607l80 -13v-31h-258v31l80 13v607l-169 -9l-37 -126h-37zM248 -296q37 22 63.5 56.5t30.5 70.5q-34 -8 -54.5 10t-20.5 46q0 27 18 43.5t46 16.5t46.5 -18.5t18.5 -53.5q0 -59 -36.5 -112t-93.5 -83z" />
<glyph unicode="&#x163;" horiz-adv-x="384" d="M34 455v22l64 23l73 116h21l-1 -116h170v-55l-170 8v-305q0 -96 77 -96q23 0 46.5 5t35.5 9l12 5v-37q-6 -5 -17 -12.5t-45 -19.5t-69 -12q-132 0 -132 157v226q0 57 4 81zM141 -295q37 22 63.5 56.5t30.5 70.5q-34 -8 -54.5 10t-20.5 46q0 27 18 43.5t46 16.5 t46.5 -18.5t18.5 -53.5q0 -59 -36.5 -112t-93.5 -83z" />
<glyph unicode="&#x164;" horiz-adv-x="622" d="M24 516l9 184h573l-21 -184h-37l-7 126l-176 9v-607l80 -13v-31h-258v31l80 13v607l-169 -9l-37 -126h-37zM161 903l20 28l136 -74l140 75l17 -27l-143 -122h-29z" />
<glyph unicode="&#x165;" horiz-adv-x="384" d="M34 455v22l64 23l73 116h21l-1 -116h170v-55l-170 8v-305q0 -96 77 -96q23 0 46.5 5t35.5 9l12 5v-37q-6 -5 -17 -12.5t-45 -19.5t-69 -12q-132 0 -132 157v226q0 57 4 81zM255 547q82 47 91 113q-33 -8 -52.5 8t-19.5 42q0 24 17 38.5t44 14.5t44.5 -16.5t17.5 -47.5 q0 -53 -34.5 -100t-89.5 -74z" />
<glyph unicode="&#x166;" horiz-adv-x="622" d="M24 516l9 184h573l-21 -184h-37l-7 126l-176 9v-272h148v-52h-148v-283l80 -13v-31h-258v31l80 13v283h-148v52h148v272l-169 -9l-37 -126h-37z" />
<glyph unicode="&#x167;" horiz-adv-x="387" d="M34 455v22l64 23l73 116h21l-1 -116h170v-55l-170 8v-139h159v-59h-159v-107q0 -96 77 -96q23 0 46.5 5t35.5 9l12 5v-37q-6 -5 -17 -12.5t-45 -19.5t-69 -12q-132 0 -132 157v108h-53v59h53v59q0 57 4 81z" />
<glyph unicode="&#x168;" horiz-adv-x="742" d="M29 669v31h258v-31l-80 -14v-404q0 -97 45 -154.5t126 -57.5q90 0 136.5 59.5t46.5 162.5v394l-80 14v31h233v-31l-80 -14v-371q0 -56 -12.5 -105.5t-40.5 -94.5t-81 -71.5t-126 -26.5q-127 0 -196 73.5t-69 203.5v393zM215 793q8 47 34.5 79t72.5 32q30 0 73 -27.5 t60 -27.5q37 0 66 51l27 -6q-20 -111 -106 -111q-28 0 -73 27.5t-63 27.5q-38 0 -64 -52z" />
<glyph unicode="&#x169;" horiz-adv-x="620" d="M21 459v31l158 15l20 -5l-4 -29v-291q0 -50 24.5 -83t78.5 -33q59 0 127 34q-4 52 -4 101v252l-81 8v31l158 15l20 -5l-4 -59v-358q0 -43 37 -43h31v-27q-31 -23 -76 -23q-71 0 -82 69q-84 -69 -167 -69q-71 0 -113 49.5t-42 129.5v282zM146 600q8 47 34.5 79t72.5 32 q30 0 73 -27.5t60 -27.5q37 0 66 51l27 -6q-20 -111 -106 -111q-28 0 -73 27.5t-63 27.5q-38 0 -64 -52z" />
<glyph unicode="&#x16a;" horiz-adv-x="742" d="M29 669v31h258v-31l-80 -14v-404q0 -97 45 -154.5t126 -57.5q90 0 136.5 59.5t46.5 162.5v394l-80 14v31h233v-31l-80 -14v-371q0 -56 -12.5 -105.5t-40.5 -94.5t-81 -71.5t-126 -26.5q-127 0 -196 73.5t-69 203.5v393zM274 783v59h234v-59h-234z" />
<glyph unicode="&#x16b;" horiz-adv-x="620" d="M21 459v31l158 15l20 -5l-4 -29v-291q0 -50 24.5 -83t78.5 -33q59 0 127 34q-4 52 -4 101v252l-81 8v31l158 15l20 -5l-4 -59v-358q0 -43 37 -43h31v-27q-31 -23 -76 -23q-71 0 -82 69q-84 -69 -167 -69q-71 0 -113 49.5t-42 129.5v282zM181 624v59h234v-59h-234z" />
<glyph unicode="&#x16c;" horiz-adv-x="742" d="M29 669v31h258v-31l-80 -14v-404q0 -97 45 -154.5t126 -57.5q90 0 136.5 59.5t46.5 162.5v394l-80 14v31h233v-31l-80 -14v-371q0 -56 -12.5 -105.5t-40.5 -94.5t-81 -71.5t-126 -26.5q-127 0 -196 73.5t-69 203.5v393zM246 909l24 6q14 -39 44.5 -61t70.5 -22 q38 0 69.5 22.5t45.5 60.5l24 -6q-6 -68 -42 -107t-97 -39q-57 0 -95.5 37.5t-43.5 108.5z" />
<glyph unicode="&#x16d;" horiz-adv-x="620" d="M21 459v31l158 15l20 -5l-4 -29v-291q0 -50 24.5 -83t78.5 -33q59 0 127 34q-4 52 -4 101v252l-81 8v31l158 15l20 -5l-4 -59v-358q0 -43 37 -43h31v-27q-31 -23 -76 -23q-71 0 -82 69q-84 -69 -167 -69q-71 0 -113 49.5t-42 129.5v282zM165 736l24 6q14 -39 44.5 -61 t70.5 -22q38 0 69.5 22.5t45.5 60.5l24 -6q-6 -68 -42 -107t-97 -39q-57 0 -95.5 37.5t-43.5 108.5z" />
<glyph unicode="&#x16e;" horiz-adv-x="742" d="M29 669v31h258v-31l-80 -14v-404q0 -97 45 -154.5t126 -57.5q90 0 136.5 59.5t46.5 162.5v394l-80 14v31h233v-31l-80 -14v-371q0 -56 -12.5 -105.5t-40.5 -94.5t-81 -71.5t-126 -26.5q-127 0 -196 73.5t-69 203.5v393zM280 862q0 45 29.5 72t73.5 27t73.5 -27t29.5 -72 t-29.5 -72t-73.5 -27t-73.5 27t-29.5 72zM329 862q0 -58 54 -58t54 58t-54 58t-54 -58z" />
<glyph unicode="&#x16f;" horiz-adv-x="620" d="M21 459v31l158 15l20 -5l-4 -29v-291q0 -50 24.5 -83t78.5 -33q59 0 127 34q-4 52 -4 101v252l-81 8v31l158 15l20 -5l-4 -59v-358q0 -43 37 -43h31v-27q-31 -23 -76 -23q-71 0 -82 69q-84 -69 -167 -69q-71 0 -113 49.5t-42 129.5v282zM204 689q0 45 29.5 72t73.5 27 t73.5 -27t29.5 -72t-29.5 -72t-73.5 -27t-73.5 27t-29.5 72zM253 689q0 -58 54 -58t54 58t-54 58t-54 -58z" />
<glyph unicode="&#x170;" horiz-adv-x="742" d="M29 669v31h258v-31l-80 -14v-404q0 -97 45 -154.5t126 -57.5q90 0 136.5 59.5t46.5 162.5v394l-80 14v31h233v-31l-80 -14v-371q0 -56 -12.5 -105.5t-40.5 -94.5t-81 -71.5t-126 -26.5q-127 0 -196 73.5t-69 203.5v393zM280 780l149 177l62 -64l-183 -143zM468 780 l149 177l62 -64l-183 -143z" />
<glyph unicode="&#x171;" horiz-adv-x="620" d="M21 459v31l158 15l20 -5l-4 -29v-291q0 -50 24.5 -83t78.5 -33q59 0 127 34q-4 52 -4 101v252l-81 8v31l158 15l20 -5l-4 -59v-358q0 -43 37 -43h31v-27q-31 -23 -76 -23q-71 0 -82 69q-84 -69 -167 -69q-71 0 -113 49.5t-42 129.5v282zM163 621l149 177l62 -64 l-183 -143zM351 621l149 177l62 -64l-183 -143z" />
<glyph unicode="&#x172;" horiz-adv-x="748" d="M32 669v31h258v-31l-80 -14v-404q0 -97 45 -154.5t126 -57.5q90 0 136.5 59.5t46.5 162.5v394l-80 14v31h233v-31l-80 -14v-371q0 -50 -10 -95t-32 -87t-62.5 -71.5t-95.5 -39.5q-79 -32 -79 -91q0 -27 19 -42t48 -15q16 0 34 4t27 8l10 4v-28q-37 -32 -97 -32 q-41 0 -72.5 19.5t-31.5 60.5q0 73 85 107h-3q-127 0 -196 73.5t-69 203.5v393z" />
<glyph unicode="&#x173;" horiz-adv-x="620" d="M21 459v31l158 15l20 -5l-4 -29v-291q0 -50 24.5 -83t78.5 -33q59 0 127 34q-4 52 -4 101v252l-81 8v31l158 15l20 -5l-4 -59v-358q0 -43 37 -43h31v-27q-15 -11 -37 -17q-80 -32 -80 -92q0 -27 19 -42t48 -15q16 0 34 4t28 8l9 4v-28q-37 -32 -97 -32q-41 0 -72.5 19.5 t-31.5 60.5q0 74 88 108q-56 8 -66 68q-84 -69 -167 -69q-71 0 -113 49.5t-42 129.5v282z" />
<glyph unicode="&#x174;" horiz-adv-x="983" d="M-11 669v31h259v-31l-84 -13l128 -438q8 -29 15 -58.5t9 -43.5l3 -15h4q10 52 25 117l118 482l79 5l128 -492q8 -29 14 -59t8 -45l2 -15h4q9 53 28 118l87 335q21 80 25 109l-84 13v31h228v-31l-66 -13q-22 -54 -65 -201l-126 -455l-90 -6l-124 461q-7 26 -12.5 53.5 t-7.5 42.5l-2 15h-4q-7 -59 -20 -109l-115 -457l-88 -6l-200 662zM338 810l143 122h29l141 -120l-20 -28l-136 74l-140 -75z" />
<glyph unicode="&#x175;" horiz-adv-x="831" d="M5 469v31h220v-31l-69 -13l86 -270q8 -26 15 -55.5t11 -46.5l3 -16h4q9 55 25 116l81 316l78 7l91 -315q8 -28 14 -58.5t8 -47.5l3 -16h5q13 62 31 122l81 264l-70 13v31h205v-31l-69 -13l-160 -456l-77 -5l-92 339l-19 83h-4q-7 -48 -16 -85l-83 -332l-85 -5l-157 461z M258 618l143 122h29l141 -120l-20 -28l-136 74l-140 -75z" />
<glyph unicode="&#x176;" horiz-adv-x="632" d="M-17 669v31h239v-31l-77 -13l143 -234l43 -83h4q17 38 45 89l93 159q23 42 23 65l-68 17v31h205v-31l-59 -15l-205 -355v-255l80 -13v-31h-258v31l80 13v255l-230 357zM171 787l143 122h29l141 -120l-20 -28l-136 74l-140 -75z" />
<glyph unicode="&#x177;" horiz-adv-x="574" d="M4 469v31h233v-31l-65 -13l97 -263l36 -116h4q14 53 34 113l90 266l-75 13v31h212v-31l-69 -13l-172 -457q-24 -63 -41.5 -126.5t-23.5 -95.5l-6 -32l-94 5q32 119 98 232l-193 474zM145 618l143 122h29l141 -120l-20 -28l-136 74l-140 -75z" />
<glyph unicode="&#x178;" horiz-adv-x="632" d="M-17 669v31h239v-31l-77 -13l143 -234l43 -83h4q17 38 45 89l93 159q23 42 23 65l-68 17v31h205v-31l-59 -15l-205 -355v-255l80 -13v-31h-258v31l80 13v255l-230 357zM170 852q0 24 16 40t41 16q26 0 40.5 -15t14.5 -39q0 -25 -16 -42t-42 -17q-23 0 -38.5 17t-15.5 40z M369 852q0 24 16 40t41 16q26 0 40.5 -15t14.5 -39q0 -25 -16 -42t-42 -17q-23 0 -38.5 17t-15.5 40z" />
<glyph unicode="&#x179;" horiz-adv-x="591" d="M37 0v25l375 626l-277 -8l-37 -127h-37l9 184h463v-25l-375 -626l319 8l30 123h37l-6 -180h-501zM248 779l149 177l62 -64l-183 -143z" />
<glyph unicode="&#x17a;" horiz-adv-x="472" d="M40 0v10l270 443l-205 -9l-16 -84h-35l6 140h362v-10l-271 -443l221 7l16 86h38l-9 -140h-377zM170 621l149 177l62 -64l-183 -143z" />
<glyph unicode="&#x17b;" horiz-adv-x="591" d="M37 0v25l375 626l-277 -8l-37 -127h-37l9 184h463v-25l-375 -626l319 8l30 123h37l-6 -180h-501zM239 842q0 24 18.5 41.5t42.5 17.5t41 -17t17 -42q0 -24 -18 -41.5t-42 -17.5t-41.5 17t-17.5 42z" />
<glyph unicode="&#x17c;" horiz-adv-x="472" d="M40 0v10l270 443l-205 -9l-16 -84h-35l6 140h362v-10l-271 -443l221 7l16 86h38l-9 -140h-377zM188 649q0 24 18.5 41.5t42.5 17.5t41 -17t17 -42q0 -24 -18 -41.5t-42 -17.5t-41.5 17t-17.5 42z" />
<glyph unicode="&#x17d;" horiz-adv-x="591" d="M37 0v25l375 626l-277 -8l-37 -127h-37l9 184h463v-25l-375 -626l319 8l30 123h37l-6 -180h-501zM142 897l20 28l136 -74l140 75l17 -27l-143 -122h-29z" />
<glyph unicode="&#x17e;" horiz-adv-x="472" d="M40 0v10l270 443l-205 -9l-16 -84h-35l6 140h362v-10l-271 -443l221 7l16 86h38l-9 -140h-377zM82 710l20 28l136 -74l140 75l17 -27l-143 -122h-29z" />
<glyph unicode="&#x192;" horiz-adv-x="392" d="M-113 -229l8 72q27 -2 70.5 -12.5t66.5 -10.5q49 0 67 29.5t18 80.5v511l-96 1v58h97v47q0 102 47 157.5t134 55.5q30 0 75 -9t67 -11l-8 -72q-27 2 -70.5 12.5t-66.5 10.5q-49 0 -67.5 -29.5t-18.5 -80.5v-81h171l-5 -63l-166 2v-475q0 -102 -47 -157.5t-134 -55.5 q-30 0 -75 9t-67 11z" />
<glyph unicode="&#x1fa;" horiz-adv-x="684" d="M-13 0v31l75 13l241 657l74 6l247 -663l63 -13v-31h-243v31l78 13l-57 159h-282l-16 -48q-21 -59 -30 -111l84 -13v-31h-234zM200 253h246l-97 266q-8 22 -15 48t-10 41l-2 15h-4q-11 -54 -27 -101zM240 837q0 38 27 61t67 23t67 -23t27 -61t-27 -61.5t-67 -23.5 t-67 23.5t-27 61.5zM284 837q0 -50 50 -50q49 0 49 50q0 49 -49 49q-50 0 -50 -49zM285 976l137 158l57 -58l-168 -127z" />
<glyph unicode="&#x1fb;" horiz-adv-x="519" d="M42 116q0 125 150 152q53 9 136 9v54q0 60 -21.5 87.5t-85.5 27.5q-31 0 -68 -6t-59 -12l-22 -5v34q9 6 24.5 15t63.5 23.5t94 14.5q87 0 126 -47t39 -140v-240q0 -43 37 -43h31v-27q-31 -23 -76 -23q-71 0 -82 69q-69 -64 -159 -64q-60 0 -94 34.5t-34 86.5zM133 130 q0 -33 21 -53t60 -20q51 0 115 38q-3 28 -3 71v71q-53 1 -111 -14q-82 -21 -82 -93zM154 675q0 45 29.5 72t73.5 27t73.5 -27t29.5 -72t-29.5 -72t-73.5 -27t-73.5 27t-29.5 72zM177 836l137 160l58 -58l-169 -129zM203 675q0 -58 54 -58t54 58t-54 58t-54 -58z" />
<glyph unicode="&#x1fc;" horiz-adv-x="918" d="M-21 0v31l75 13l344 613l-70 12v31h529l-6 -170h-41l-13 114l-254 6v-267l234 6v-61l-234 5v-283l264 4l27 119h37l-4 -173h-502v31l80 13v159h-239l-25 -48l-52 -111l84 -13v-31h-234zM234 253h211v395q-20 -47 -48 -99zM567 780l149 177l62 -64l-183 -143z" />
<glyph unicode="&#x1fd;" horiz-adv-x="797" d="M42 116q0 125 150 152q53 9 135 9v1q1 8 1 53q0 60 -21.5 87.5t-85.5 27.5q-31 0 -68 -6t-59 -12l-22 -5v34q9 6 24.5 15t63.5 23.5t94 14.5q103 0 136 -78q66 78 167 78q104 0 153 -65.5t38 -187.5h-327q2 -91 50.5 -148t128.5 -57q30 0 62 6t49 12l17 6v-34 q-7 -6 -20.5 -14.5t-57.5 -23t-90 -14.5q-139 0 -200 111q-70 -106 -190 -106q-60 0 -94 34.5t-34 86.5zM133 130q0 -33 21 -53t60 -20q44 0 78.5 28t46.5 65q-13 44 -13 87q-53 1 -111 -14q-82 -21 -82 -93zM380 620l149 177l62 -64l-183 -143zM423 304l234 6 q-1 69 -23 109t-81 40q-54 0 -88.5 -41.5t-41.5 -113.5z" />
<glyph unicode="&#x1fe;" horiz-adv-x="769" d="M53 347q0 69 20.5 133t60.5 117t108 85t154 32q142 0 231 -101.5t89 -259.5q0 -69 -20.5 -133t-60.5 -117t-108 -85t-154 -32q-142 0 -231 101.5t-89 259.5zM155 364q0 -82 27.5 -156t84.5 -124.5t132 -50.5q103 0 159 83.5t56 212.5q0 86 -27.5 161.5t-85 126 t-133.5 50.5q-102 0 -157.5 -85t-55.5 -218zM321 780l149 177l62 -64l-183 -143z" />
<glyph unicode="&#x1ff;" horiz-adv-x="574" d="M50 239q0 120 65 195.5t185 75.5q104 0 164 -68.5t60 -180.5q0 -120 -65 -195.5t-185 -75.5q-104 0 -164 68.5t-60 180.5zM145 251q0 -97 37.5 -154.5t103.5 -57.5q143 0 143 210q0 97 -37.5 154.5t-103.5 57.5q-143 0 -143 -210zM236 620l149 177l62 -64l-183 -143z" />
<glyph unicode="&#x218;" horiz-adv-x="540" d="M61 203h38l22 -149q49 -16 118 -16q67 0 111 31t44 87q0 33 -11 58.5t-37 47t-45.5 33t-58.5 31.5q-35 18 -52.5 27.5t-45.5 30t-42 39t-25 48t-11 63.5q0 81 62 130.5t164 49.5q48 0 92 -10t64 -20l19 -11l-8 -169h-39l-15 134q-54 24 -120 24q-60 0 -92.5 -28.5 t-32.5 -81.5q0 -51 35.5 -84t105.5 -70q91 -48 121 -74q66 -57 66 -144q0 -89 -67 -141.5t-181 -52.5q-51 0 -95.5 10t-63.5 20l-19 10zM183 -296q37 22 63.5 56.5t30.5 70.5q-34 -8 -54.5 10t-20.5 46q0 27 18 43.5t46 16.5t46.5 -18.5t18.5 -53.5q0 -59 -36.5 -112 t-93.5 -83z" />
<glyph unicode="&#x219;" horiz-adv-x="436" d="M44 12l20 84q32 -4 83 -29t85 -25q39 0 62.5 18t23.5 47q0 27 -19.5 47t-49 32.5t-63.5 28.5t-63.5 33t-49 49t-19.5 74q0 63 49 101t124 38q28 0 55.5 -4t55.5 -10t41 -8l-20 -84q-33 4 -81.5 29t-79.5 25q-33 0 -50.5 -16.5t-17.5 -42.5q0 -35 27 -58.5t65 -39t76 -34 t65 -53t27 -84.5q0 -67 -51 -103.5t-123 -36.5q-36 0 -67.5 4t-62.5 10t-42 8zM130 -296q37 22 63.5 56.5t30.5 70.5q-34 -8 -54.5 10t-20.5 46q0 27 18 43.5t46 16.5t46.5 -18.5t18.5 -53.5q0 -59 -36.5 -112t-93.5 -83z" />
<glyph unicode="&#x21a;" horiz-adv-x="624" d="M25 516l9 184h573l-21 -184h-37l-7 126l-176 9v-607l80 -13v-31h-258v31l80 13v607l-169 -9l-37 -126h-37zM248 -296q37 22 63.5 56.5t30.5 70.5q-34 -8 -54.5 10t-20.5 46q0 27 18 43.5t46 16.5t46.5 -18.5t18.5 -53.5q0 -59 -36.5 -112t-93.5 -83z" />
<glyph unicode="&#x21b;" horiz-adv-x="384" d="M34 455v22l64 23l73 116h21l-1 -116h170v-55l-170 8v-305q0 -96 77 -96q23 0 46.5 5t35.5 9l12 5v-37q-6 -5 -17 -12.5t-45 -19.5t-69 -12q-132 0 -132 157v226q0 57 4 81zM141 -295q37 22 63.5 56.5t30.5 70.5q-34 -8 -54.5 10t-20.5 46q0 27 18 43.5t46 16.5 t46.5 -18.5t18.5 -53.5q0 -59 -36.5 -112t-93.5 -83z" />
<glyph unicode="&#x2c6;" horiz-adv-x="384" d="M33 589l143 122h29l141 -120l-20 -28l-136 74l-140 -75z" />
<glyph unicode="&#x2c7;" horiz-adv-x="384" d="M34 683l20 28l136 -74l140 75l17 -27l-143 -122h-29z" />
<glyph unicode="&#x2d8;" horiz-adv-x="398" d="M60 662l24 6q14 -39 44.5 -61t70.5 -22q38 0 69.5 22.5t45.5 60.5l24 -6q-6 -68 -42 -107t-97 -39q-57 0 -95.5 37.5t-43.5 108.5z" />
<glyph unicode="&#x2d9;" horiz-adv-x="186" d="M33 567q0 24 18.5 41.5t42.5 17.5t41 -17t17 -42q0 -24 -18 -41.5t-42 -17.5t-41.5 17t-17.5 42z" />
<glyph unicode="&#x2da;" horiz-adv-x="308" d="M42 624q0 45 29.5 72t73.5 27t73.5 -27t29.5 -72t-29.5 -72t-73.5 -27t-73.5 27t-29.5 72zM91 624q0 -58 54 -58t54 58t-54 58t-54 -58z" />
<glyph unicode="&#x2db;" horiz-adv-x="213" d="M14 -114q0 79 104 114h43q-84 -32 -84 -93q0 -27 19 -42t48 -15q16 0 34 4t28 8l9 4v-28q-37 -32 -97 -32q-41 0 -72.5 19.5t-31.5 60.5z" />
<glyph unicode="&#x2dc;" horiz-adv-x="424" d="M45 551q8 47 34.5 79t72.5 32q30 0 73 -27.5t60 -27.5q37 0 66 51l27 -6q-20 -111 -106 -111q-28 0 -73 27.5t-63 27.5q-38 0 -64 -52z" />
<glyph unicode="&#x2dd;" horiz-adv-x="507" d="M62 530l149 177l62 -64l-183 -143zM250 530l149 177l62 -64l-183 -143z" />
<glyph unicode="&#x401;" horiz-adv-x="600" d="M47 0v31l80 13v612l-80 13v31h492l-6 -170h-41l-13 114l-254 6v-267l234 6v-61l-234 5v-283l264 4l27 119h37l-4 -173h-502zM173 839q0 24 16 40t41 16q26 0 40.5 -15t14.5 -39q0 -25 -16 -42t-42 -17q-23 0 -38.5 17t-15.5 40zM372 839q0 24 16 40t41 16q26 0 40.5 -15 t14.5 -39q0 -25 -16 -42t-42 -17q-23 0 -38.5 17t-15.5 40z" />
<glyph unicode="&#x402;" horiz-adv-x="758" d="M27 700h584l-11 -184h-37l-17 126l-178 9v-242q66 26 159 26q100 0 145.5 -48.5t45.5 -150.5q0 -134 -48.5 -203t-154.5 -109l-16 33q73 36 97 92t24 172q0 80 -32 115.5t-96 35.5q-25 0 -56 -2t-50 -4l-18 -3v-319l80 -13v-31h-258v31l80 13v607l-178 -9l-27 -126h-37z " />
<glyph unicode="&#x403;" horiz-adv-x="558" d="M47 0v31l80 13v612l-80 13v31h492l-6 -170h-41l-13 114l-254 6v-606l90 -13v-31h-268zM255 780l149 177l62 -64l-183 -143z" />
<glyph unicode="&#x404;" horiz-adv-x="662" d="M52 338q0 103 39.5 187.5t120 136.5t190.5 52q58 0 109 -10t73 -20l22 -10l-8 -170h-39l-15 134q-60 24 -135 24q-119 0 -185 -77.5t-70 -209.5l318 10v-78l-316 8q12 -123 85.5 -200t195.5 -77q50 0 107 15l21 150h38v-178q-78 -39 -177 -39q-174 0 -274 93t-100 259z " />
<glyph unicode="&#x405;" horiz-adv-x="540" d="M61 203h38l22 -149q49 -16 118 -16q67 0 111 31t44 87q0 33 -11 58.5t-37 47t-45.5 33t-58.5 31.5q-35 18 -52.5 27.5t-45.5 30t-42 39t-25 48t-11 63.5q0 81 62 130.5t164 49.5q48 0 92 -10t64 -20l19 -11l-8 -169h-39l-15 134q-54 24 -120 24q-60 0 -92.5 -28.5 t-32.5 -81.5q0 -51 35.5 -84t105.5 -70q91 -48 121 -74q66 -57 66 -144q0 -89 -67 -141.5t-181 -52.5q-51 0 -95.5 10t-63.5 20l-19 10z" />
<glyph unicode="&#x406;" horiz-adv-x="350" d="M46 0v21l80 23v612l-80 23v21h258v-21l-80 -23v-612l80 -23v-21h-258z" />
<glyph unicode="&#x407;" horiz-adv-x="352" d="M22 820q0 24 16 40t41 16q26 0 40.5 -15t14.5 -39q0 -25 -16 -42t-42 -17q-23 0 -38.5 17t-15.5 40zM47 0v31l80 13v612l-80 13v31h258v-31l-80 -13v-612l80 -13v-31h-258zM221 820q0 24 16 40t41 16q26 0 40.5 -15t14.5 -39q0 -25 -16 -42t-42 -17q-23 0 -38.5 17 t-15.5 40z" />
<glyph unicode="&#x408;" horiz-adv-x="339" d="M36 -145l42 58q27 37 35 72t8 94v577l-80 13v31h258v-31l-80 -13v-525q0 -72 -17 -118q-12 -31 -33.5 -63.5t-37 -50t-50.5 -55.5q-8 -9 -12 -13z" />
<glyph unicode="&#x409;" horiz-adv-x="941" d="M10 0v82q43 -8 71.5 12.5t48.5 76.5q25 68 37.5 221.5t12.5 263.5l-80 13v31h531v-31l-80 -13v-231h122q113 0 173 -57.5t60 -153.5t-70.5 -155t-181.5 -59h-281v31l80 13v602h-213q-6 -186 -18.5 -317.5t-43.5 -225.5q-26 -77 -72 -100t-96 -3zM551 50h110 q67 0 106 43.5t39 120.5q0 73 -41 117t-113 44h-101v-325z" />
<glyph unicode="&#x40a;" horiz-adv-x="1067" d="M47 0v31l80 13v612l-80 13v31h258v-31l-80 -13v-271h354v271l-80 13v31h258v-31l-80 -13v-231h122q113 0 173 -57.5t60 -153.5t-70.5 -155t-181.5 -59h-281v31l80 13v291h-354v-291l80 -13v-31h-258zM677 50h110q67 0 106 43.5t39 120.5q0 73 -41 117t-113 44h-101v-325z " />
<glyph unicode="&#x40b;" horiz-adv-x="802" d="M27 700h584l-11 -184h-37l-17 126l-178 9v-246q71 30 174 30q81 0 128 -43t47 -120v-228l80 -13v-31h-247v31l70 13v203q0 125 -121 125q-30 0 -62.5 -3t-50.5 -7l-18 -3v-315l80 -13v-31h-258v31l80 13v607l-178 -9l-27 -126h-37z" />
<glyph unicode="&#x40c;" horiz-adv-x="673" d="M47 0v31l80 13v612l-80 13v31h258v-31l-80 -13v-274h90l183 274l-68 13v31h219v-31l-74 -13l-207 -278l233 -307q18 -23 30.5 -29.5t41.5 -10.5v-31h-80q-40 0 -58.5 9t-41.5 42l-202 281h-66v-288l80 -13v-31h-258zM346 779l149 177l62 -64l-183 -143z" />
<glyph unicode="&#x40e;" horiz-adv-x="632" d="M-4 669v31h243v-31l-82 -19l165 -336l32 -73h4q7 38 21 75l121 334l-83 19v31h225v-31l-68 -20l-196 -481q-39 -95 -76 -136.5t-93 -41.5q-20 0 -36.5 5t-23.5 11l-7 5v74q32 -11 62 -11q70 0 106 67l-255 509zM153 853l54 61q8 -7 34.5 -36.5t47.5 -42.5t48 -13t48 13 t47.5 42.5t34.5 36.5l54 -61q-28 -27 -77 -48.5t-107 -21.5q-112 0 -184 70z" />
<glyph unicode="&#x40f;" horiz-adv-x="805" d="M47 0v31l80 13v612l-80 13v31h258v-31l-80 -13v-606h355v606l-80 13v31h258v-31l-80 -13v-612l80 -13v-31h-313l-22 -184h-43l-22 184h-311z" />
<glyph unicode="&#x410;" horiz-adv-x="684" d="M-13 0v31l75 13l241 657l74 6l247 -663l63 -13v-31h-243v31l78 13l-57 159h-282l-16 -48q-21 -59 -30 -111l84 -13v-31h-234zM200 253h246l-97 266q-8 22 -15 48t-10 41l-2 15h-4q-11 -54 -27 -101z" />
<glyph unicode="&#x411;" horiz-adv-x="622" d="M47 0v31l80 13v612l-80 13v31h492l-6 -170h-41l-13 114l-254 6v-235h107q121 0 182 -56t61 -145q0 -95 -74 -154.5t-196 -59.5h-258zM225 50h90q82 0 121 47.5t39 116.5q0 67 -42.5 109t-126.5 42h-81v-315z" />
<glyph unicode="&#x412;" horiz-adv-x="632" d="M47 0v31l80 13v612l-80 13v31h258q120 0 182.5 -47t62.5 -124q0 -55 -33 -98t-85 -60v-3q64 -13 108.5 -60t44.5 -109q0 -94 -70 -146.5t-188 -52.5h-280zM225 50h100q76 0 118 41t42 108q0 61 -40.5 101t-113.5 40h-106v-290zM225 390h146q37 12 58 46t21 79 q0 58 -36 96.5t-116 38.5h-73v-260z" />
<glyph unicode="&#x413;" horiz-adv-x="558" d="M47 0v31l80 13v612l-80 13v31h492l-6 -170h-41l-13 114l-254 6v-606l90 -13v-31h-268z" />
<glyph unicode="&#x414;" horiz-adv-x="708" d="M-6 50h64q63 65 105 226t41 380l-80 13v31h531v-31l-80 -13v-606h103l-2 -234h-41l-28 184h-543l-27 -184h-41zM128 50h349v599h-214q-6 -224 -42.5 -375.5t-92.5 -223.5z" />
<glyph unicode="&#x415;" horiz-adv-x="600" d="M47 0v31l80 13v612l-80 13v31h492l-6 -170h-41l-13 114l-254 6v-267l234 6v-61l-234 5v-283l264 4l27 119h37l-4 -173h-502z" />
<glyph unicode="&#x416;" horiz-adv-x="991" d="M0 0v31q29 4 41.5 10.5t30.5 29.5l233 307l-207 278l-74 13v31h214v-31l-63 -13l183 -274h90v274l-75 13v31h245v-31l-75 -13v-274h90l183 274l-63 13v31h214v-31l-74 -13l-207 -278l233 -307q18 -23 30.5 -29.5t41.5 -10.5v-31h-80q-40 0 -57 9t-40 42l-203 281h-68 v-288l80 -13v-31h-255v31l80 13v288h-68l-202 -281q-23 -33 -40.5 -42t-57.5 -9h-80z" />
<glyph unicode="&#x417;" horiz-adv-x="531" d="M51 25v178h38l20 -150q58 -15 108 -15q74 0 117 42t43 114q0 71 -42 109.5t-118 38.5h-54v50h52q73 0 112 38.5t39 103.5q0 62 -29 95t-97 33q-59 0 -119 -24l-15 -134h-39l-8 170q7 4 20.5 11t62.5 18t105 11q111 0 165 -49t54 -125q0 -69 -42.5 -110.5t-106.5 -55.5v-2 q75 -6 117.5 -54.5t42.5 -120.5q0 -88 -68.5 -149.5t-178.5 -61.5q-44 0 -89 9.5t-67 19.5z" />
<glyph unicode="&#x418;" horiz-adv-x="804" d="M47 0v31l80 13v612l-80 13v31h258v-31l-80 -13v-478l-4 -85h6q20 48 34 71l318 536h178v-31l-80 -13v-612l80 -13v-31h-258v31l80 13v503l3 56h-5q-13 -31 -25 -51l-327 -552h-178z" />
<glyph unicode="&#x419;" horiz-adv-x="804" d="M47 0v31l80 13v612l-80 13v31h258v-31l-80 -13v-478l-4 -85h6q20 48 34 71l318 536h178v-31l-80 -13v-612l80 -13v-31h-258v31l80 13v503l3 56h-5q-13 -31 -25 -51l-327 -552h-178zM225 853l54 61q8 -7 34.5 -36.5t47.5 -42.5t48 -13t48 13t47.5 42.5t34.5 36.5l54 -61 q-28 -27 -77 -48.5t-107 -21.5q-112 0 -184 70z" />
<glyph unicode="&#x41a;" horiz-adv-x="673" d="M47 0v31l80 13v612l-80 13v31h258v-31l-80 -13v-274h90l183 274l-68 13v31h219v-31l-74 -13l-207 -278l233 -307q18 -23 30.5 -29.5t41.5 -10.5v-31h-80q-40 0 -58.5 9t-41.5 42l-202 281h-66v-288l80 -13v-31h-258z" />
<glyph unicode="&#x41b;" horiz-adv-x="684" d="M6 0v78q12 -2 23 -2q71 0 102 91q25 69 40 227.5t15 261.5l-80 13v31h531v-31l-80 -13v-612l80 -13v-31h-258v31l80 13v602h-213q-11 -374 -67 -543q-38 -113 -119 -113q-16 0 -29.5 2.5t-18.5 5.5z" />
<glyph unicode="&#x41c;" horiz-adv-x="926" d="M48 0v31l80 17v608l-80 13v31h198l185 -396l28 -67h2q13 32 30 66l200 397h187v-31l-80 -13v-610l80 -15v-31h-252v31l80 15v495l4 73h-3q-20 -48 -31 -70l-225 -444h-19l-220 461l-26 62h-3q3 -33 3 -68v-507l80 -17v-31h-218z" />
<glyph unicode="&#x41d;" horiz-adv-x="804" d="M47 0v31l80 13v612l-80 13v31h258v-31l-80 -13v-271h354v271l-80 13v31h258v-31l-80 -13v-612l80 -13v-31h-258v31l80 13v291h-354v-291l80 -13v-31h-258z" />
<glyph unicode="&#x41e;" horiz-adv-x="769" d="M53 347q0 69 20.5 133t60.5 117t108 85t154 32q142 0 231 -101.5t89 -259.5q0 -69 -20.5 -133t-60.5 -117t-108 -85t-154 -32q-142 0 -231 101.5t-89 259.5zM155 364q0 -82 27.5 -156t84.5 -124.5t132 -50.5q103 0 159 83.5t56 212.5q0 86 -27.5 161.5t-85 126 t-133.5 50.5q-102 0 -157.5 -85t-55.5 -218z" />
<glyph unicode="&#x41f;" horiz-adv-x="794" d="M47 0v31l80 13v612l-80 13v31h700v-31l-80 -13v-612l80 -13v-31h-258v31l80 13v606h-344v-606l80 -13v-31h-258z" />
<glyph unicode="&#x420;" horiz-adv-x="595" d="M47 0v31l80 13v612l-80 13v31h250q263 0 263 -207q0 -97 -70.5 -156.5t-182.5 -59.5h-82v-233l101 -13v-31h-279zM225 327h82q72 0 112.5 43.5t40.5 117.5q0 73 -43.5 117.5t-133.5 44.5h-58v-323z" />
<glyph unicode="&#x421;" horiz-adv-x="664" d="M52 338q0 103 39.5 187.5t120 136.5t190.5 52q58 0 109 -10t73 -20l22 -10l-8 -170h-39l-15 134q-60 24 -135 24q-122 0 -188.5 -82t-66.5 -221q0 -140 75 -230.5t208 -90.5q50 0 107 15l21 150h38v-178q-78 -39 -177 -39q-174 0 -274 93t-100 259z" />
<glyph unicode="&#x422;" horiz-adv-x="622" d="M24 516l9 184h573l-21 -184h-37l-7 126l-176 9v-607l80 -13v-31h-258v31l80 13v607l-169 -9l-37 -126h-37z" />
<glyph unicode="&#x423;" horiz-adv-x="632" d="M-4 669v31h243v-31l-82 -19l165 -336l32 -73h4q7 38 21 75l121 334l-83 19v31h225v-31l-68 -20l-196 -481q-39 -95 -76 -136.5t-93 -41.5q-20 0 -36.5 5t-23.5 11l-7 5v74q32 -11 62 -11q70 0 106 67l-255 509z" />
<glyph unicode="&#x424;" horiz-adv-x="866" d="M34 372q0 126 87 203t261 77v65l-70 8v30h236v-30l-70 -8v-65q178 0 263 -73.5t85 -204.5q0 -126 -87 -203t-261 -77v-61l70 -12v-30h-238v30l72 12v61q-178 0 -263 73.5t-85 204.5zM132 372q0 -111 69.5 -170t180.5 -59v460q-119 0 -184.5 -57.5t-65.5 -173.5zM478 143 q119 0 185 57.5t66 173.5q0 111 -69.5 170t-181.5 59v-460z" />
<glyph unicode="&#x425;" horiz-adv-x="676" d="M6 0v31l68 16l217 296l-211 312l-65 14v31h259v-31l-87 -13l166 -250q16 27 44 67l75 108q29 42 31 70l-77 18v31h234v-31l-68 -16l-207 -288l228 -321l58 -13v-31h-259v31l88 13l-179 258q-13 -28 -42 -67l-85 -116q-25 -34 -34 -72l80 -16v-31h-234z" />
<glyph unicode="&#x426;" horiz-adv-x="800" d="M47 0v31l80 13v612l-80 13v31h258v-31l-80 -13v-606h344v606l-80 13v31h258v-31l-80 -13v-606h103l-2 -234h-41l-28 184h-652z" />
<glyph unicode="&#x427;" horiz-adv-x="720" d="M10 669v31h258v-31l-80 -13v-140q0 -93 37 -143t126 -50q38 0 74 3.5t53 7.5l17 3v319l-80 13v31h258v-31l-80 -13v-612l80 -13v-31h-278v31l100 13v248q-75 -24 -169 -24q-236 0 -236 238v150z" />
<glyph unicode="&#x428;" horiz-adv-x="1084" d="M47 0v31l80 13v612l-80 13v31h258v-31l-80 -13v-606h268v606l-80 13v31h258v-31l-80 -13v-606h268v606l-80 13v31h258v-31l-80 -13v-612l80 -13v-31h-990z" />
<glyph unicode="&#x429;" horiz-adv-x="1090" d="M47 0v31l80 13v612l-80 13v31h258v-31l-80 -13v-606h268v606l-80 13v31h258v-31l-80 -13v-606h268v606l-80 13v31h258v-31l-80 -13v-606h103l-2 -234h-41l-28 184h-942z" />
<glyph unicode="&#x42a;" horiz-adv-x="745" d="M26 516l4 184h427v-31l-102 -13v-231h122q113 0 173 -57.5t60 -153.5t-70.5 -155t-181.5 -59h-281v31l80 13v608l-162 -9l-32 -127h-37zM355 50h110q67 0 106 43.5t39 120.5q0 73 -41 117t-113 44h-101v-325z" />
<glyph unicode="&#x42b;" horiz-adv-x="933" d="M47 0v31l80 13v612l-80 13v31h258v-31l-80 -13v-231h122q113 0 173 -57.5t60 -153.5t-70.5 -155t-181.5 -59h-281zM225 50h110q67 0 106 43.5t39 120.5q0 73 -41 117t-113 44h-101v-325zM628 0v31l80 13v612l-80 13v31h258v-31l-80 -13v-612l80 -13v-31h-258z" />
<glyph unicode="&#x42c;" horiz-adv-x="615" d="M47 0v31l80 13v612l-80 13v31h268v-31l-90 -13v-231h122q113 0 173 -57.5t60 -153.5t-70.5 -155t-181.5 -59h-281zM225 50h110q67 0 106 43.5t39 120.5q0 73 -41 117t-113 44h-101v-325z" />
<glyph unicode="&#x42d;" horiz-adv-x="663" d="M57 26l8 170h39l15 -134q57 -24 135 -24q118 0 184 76.5t71 209.5l-321 -13v71l320 -7q-9 127 -83.5 207t-198.5 80q-48 0 -108 -15l-20 -150h-38v178q78 39 177 39q174 0 274 -93t100 -259q0 -103 -39.5 -187.5t-120 -136.5t-190.5 -52q-58 0 -109 10t-73 20z" />
<glyph unicode="&#x42e;" horiz-adv-x="1068" d="M47 0v31l80 13v612l-80 13v31h253v-31l-75 -13v-269h129q5 64 28.5 121.5t63.5 104t104.5 74t144.5 27.5q142 0 231 -101.5t89 -259.5q0 -69 -20.5 -133t-60.5 -117t-108 -85t-154 -32q-139 0 -227.5 97t-92.5 250h-127v-289l75 -13v-31h-253zM454 380q0 -90 27.5 -167.5 t84.5 -128.5t132 -51q103 0 159 82.5t56 204.5q0 140 -66.5 243.5t-179.5 103.5q-101 0 -157 -82.5t-56 -204.5z" />
<glyph unicode="&#x42f;" horiz-adv-x="658" d="M-9 0v24q29 5 41.5 12t30.5 32l168 235q-68 19 -110 68t-42 126q0 93 73.5 148t189.5 55h270v-21l-80 -23v-612l80 -23v-21h-279v21l101 23v247h-114l-150 -226q-32 -48 -52.5 -61t-64.5 -13q-16 0 -31.5 2t-23.5 5zM179 496q0 -72 40.5 -113.5t112.5 -41.5h102v309h-78 q-85 0 -131 -44t-46 -110z" />
<glyph unicode="&#x430;" horiz-adv-x="524" d="M42 116q0 125 150 152q53 9 136 9v54q0 60 -21.5 87.5t-85.5 27.5q-31 0 -68 -6t-59 -12l-22 -5v34q9 6 24.5 15t63.5 23.5t94 14.5q87 0 126 -47t39 -140v-240q0 -43 37 -43h31v-27q-31 -23 -76 -23q-71 0 -82 69q-69 -64 -159 -64q-60 0 -94 34.5t-34 86.5zM133 130 q0 -33 21 -53t60 -20q51 0 115 38q-3 28 -3 71v71q-53 1 -111 -14q-82 -21 -82 -93z" />
<glyph unicode="&#x431;" horiz-adv-x="600" d="M76 287q0 181 58 282.5t190 130.5q15 3 43.5 7.5t51.5 9t38 10.5q17 6 24 15t17 33h29q0 -64 -19 -98t-72 -48q-24 -6 -116 -24q-101 -20 -143 -77.5t-50 -181.5l6 -1q21 66 72.5 102t119.5 36q105 0 164 -61.5t59 -163.5q0 -125 -63.5 -196.5t-171.5 -71.5 q-119 0 -178 72.5t-59 224.5zM173 249q0 -88 37.5 -149t102.5 -61q64 0 101 54t37 124q0 99 -36 155.5t-102 56.5t-103 -51.5t-37 -128.5z" />
<glyph unicode="&#x432;" horiz-adv-x="563" d="M45 0v31l79 12v413l-79 13v31h279q83 0 124.5 -32.5t41.5 -90.5q0 -43 -25.5 -72.5t-70.5 -41.5v-4q52 -7 87.5 -36.5t35.5 -78.5q0 -70 -54.5 -107t-135.5 -37h-282zM218 48h102q49 0 76 28.5t27 70.5q0 38 -24.5 63t-73.5 25h-107v-187zM218 281h130q49 26 49 83 q0 39 -24 63.5t-72 24.5h-83v-171z" />
<glyph unicode="&#x433;" horiz-adv-x="470" d="M45 0v31l79 12v413l-79 13v31h390l1 -160h-42l-16 111l-160 3v-411l99 -12v-31h-272z" />
<glyph unicode="&#x434;" horiz-adv-x="614" d="M5 50h54q119 102 119 406l-78 13v31h469v-31l-80 -13l-1 -406h94l-10 -214h-41l-20 164h-433l-30 -164h-41zM129 50h267v400h-162q0 -147 -28.5 -249.5t-76.5 -150.5z" />
<glyph unicode="&#x435;" horiz-adv-x="521" d="M50 241q0 121 67 195t164 74q104 0 153 -65.5t38 -187.5h-327q2 -91 50.5 -148t128.5 -57q30 0 62 6t49 12l17 6v-34q-7 -6 -20.5 -14.5t-57.5 -23t-90 -14.5q-107 0 -170.5 70t-63.5 181zM147 304l234 6q-1 69 -23 109t-81 40q-54 0 -88.5 -41.5t-41.5 -113.5z" />
<glyph unicode="&#x436;" horiz-adv-x="866" d="M10 0v31q3 0 7 1q23 3 32 7.5t23 21.5l187 225l-149 173l-70 10v31h200v-31l-53 -10l126 -175h73v171l-64 13v32h213v-32l-56 -12v-172h74l126 175l-53 10v31h200v-31l-71 -10l-148 -171l188 -225q16 -19 25 -23.5t36 -8.5v-31h-62q-46 0 -63.5 9t-45.5 44l-150 185h-56 v-194l61 -13v-31h-223v31l69 13v194h-56l-150 -185q-28 -35 -45 -44t-63 -9h-62z" />
<glyph unicode="&#x437;" horiz-adv-x="451" d="M34 42v34q59 -25 149 -25q57 0 91.5 26.5t34.5 72.5q0 42 -31 64t-84 22h-63v50h65q49 0 73.5 23t24.5 62q0 41 -22 64t-61 23q-26 0 -74 -21.5t-78 -26.5l-15 72q1 0 61 14t107 14q76 0 125 -33.5t49 -94.5q0 -43 -25.5 -75t-75.5 -43v-4q53 -5 85.5 -35.5t32.5 -81.5 q0 -67 -57 -110t-141 -43q-50 0 -92.5 13t-60.5 26z" />
<glyph unicode="&#x438;" horiz-adv-x="689" d="M45 0v31l79 19v405l-79 14v31h243v-31l-71 -13v-280l-5 -96h4q18 46 50 96l208 324h170v-31l-80 -13v-406l80 -19v-31h-243v31l70 19v297l5 70h-4q-18 -39 -46 -83l-212 -334h-169z" />
<glyph unicode="&#x439;" horiz-adv-x="689" d="M45 0v31l79 19v405l-79 14v31h243v-31l-71 -13v-280l-5 -96h4q18 46 50 96l208 324h170v-31l-80 -13v-406l80 -19v-31h-243v31l70 19v297l5 70h-4q-18 -39 -46 -83l-212 -334h-169zM172 671l54 61q8 -7 34.5 -36.5t47.5 -42.5t48 -13t48 13t47.5 42.5t34.5 36.5l54 -61 q-28 -27 -77 -48.5t-107 -21.5q-112 0 -184 70z" />
<glyph unicode="&#x43a;" horiz-adv-x="604" d="M44 0v31l80 12v413l-79 13v31h238v-31l-66 -13v-172h74l126 175l-53 10v31h200v-31l-71 -10l-148 -171l188 -225q16 -19 25 -23.5t36 -8.5v-31h-62q-46 0 -63.5 9t-45.5 44l-150 185h-56v-195l70 -12v-31h-243z" />
<glyph unicode="&#x43b;" horiz-adv-x="605" d="M17 0v76q14 -2 24 -2q36 0 63 33t42 89t22 121t7 139l-79 13v31h465v-31l-80 -13v-412l80 -13v-31h-253v31l80 13v408h-160q-4 -241 -45 -351.5t-122 -110.5q-12 0 -23 2.5t-16 5.5z" />
<glyph unicode="&#x43c;" horiz-adv-x="817" d="M36 0v31l79 16l17 409l-80 13v31h187l134 -285l30 -69h3q15 39 31 71l138 283h188v-31l-81 -13l25 -412l77 -13v-31h-240v31l75 13l-19 307l-2 81h-3q-12 -31 -36 -80l-160 -322h-23l-159 323l-33 79h-3q2 -48 0 -90l-12 -295l72 -16v-31h-205z" />
<glyph unicode="&#x43d;" horiz-adv-x="678" d="M45 0v31l79 13v412l-79 13v31h243v-31l-71 -13v-178h244v178l-70 13v31h243v-31l-80 -13v-412l80 -13v-31h-243v31l70 13v184h-244v-184l71 -13v-31h-243z" />
<glyph unicode="&#x43e;" horiz-adv-x="574" d="M50 239q0 120 65 195.5t185 75.5q104 0 164 -68.5t60 -180.5q0 -120 -65 -195.5t-185 -75.5q-104 0 -164 68.5t-60 180.5zM145 251q0 -97 37.5 -154.5t103.5 -57.5q143 0 143 210q0 97 -37.5 154.5t-103.5 57.5q-143 0 -143 -210z" />
<glyph unicode="&#x43f;" horiz-adv-x="665" d="M45 0v31l79 13v412l-79 13v31h576v-31l-80 -13v-412l80 -13v-31h-243v31l70 13v406h-231v-407l71 -12v-31h-243z" />
<glyph unicode="&#x440;" horiz-adv-x="604" d="M34 460v31l154 14l20 -5l-3 -59q77 69 158 69q91 0 140.5 -67.5t49.5 -165.5q0 -134 -65.5 -210.5t-178.5 -76.5q-29 0 -54 7t-36 13l-11 7v-226l80 -11v-31h-253v31l80 11v661zM204 401q4 -36 4 -100v-232q36 -24 90 -24q75 0 116.5 52t41.5 143q0 98 -31.5 147 t-101.5 49q-66 0 -119 -35z" />
<glyph unicode="&#x441;" horiz-adv-x="475" d="M50 241q0 117 69.5 193t180.5 76q36 0 79.5 -10t58.5 -12l-20 -81q-27 4 -73 27.5t-74 23.5q-59 0 -92.5 -59t-33.5 -132q0 -96 42.5 -155.5t119.5 -59.5q32 0 63.5 6t46.5 12l15 6v-34q-7 -6 -19 -14.5t-53.5 -23t-85.5 -14.5q-106 0 -165 69.5t-59 181.5z" />
<glyph unicode="&#x442;" horiz-adv-x="536" d="M34 338l4 162h463l-1 -162h-30l-20 109l-135 5v-408l81 -13v-31h-253v31l79 13v408l-134 -5l-24 -109h-30z" />
<glyph unicode="&#x443;" horiz-adv-x="574" d="M4 469v31h233v-31l-65 -13l97 -263l36 -116h4q14 53 34 113l90 266l-75 13v31h212v-31l-69 -13l-172 -457q-24 -63 -41.5 -126.5t-23.5 -95.5l-6 -32l-94 5q32 119 98 232l-193 474z" />
<glyph unicode="&#x444;" horiz-adv-x="823" d="M51 223q0 125 60 206t162 81q61 0 94 -27v182l-83 10v31l152 15l20 -5v-248q51 42 119 42q98 0 147.5 -66.5t49.5 -166.5q0 -132 -62.5 -209.5t-159.5 -77.5q-26 0 -49.5 7t-34.5 13l-10 7v-225l82 -11v-31h-253v31l82 11v240q-59 -43 -119 -43q-97 0 -147 66t-50 168z M147 253q0 -94 33.5 -145.5t98.5 -51.5q51 0 88 13v366q-32 20 -74 20q-71 0 -108.5 -58t-37.5 -144zM456 65q31 -20 74 -20q72 0 109 57.5t37 143.5q0 198 -139 198q-45 0 -81 -14v-365z" />
<glyph unicode="&#x445;" horiz-adv-x="599" d="M19 0v31l65 12l169 199l-169 214l-59 13v31h238v-31l-72 -13l124 -163l119 163l-84 13v31h222v-31l-65 -13l-165 -192l181 -220l59 -13v-31h-238v31l74 12l-137 171l-122 -171l82 -12v-31h-222z" />
<glyph unicode="&#x446;" horiz-adv-x="666" d="M45 0v31l79 13v412l-79 13v31h243v-31l-71 -12v-407h231v406l-70 13v31h243v-31l-80 -13v-406h94l-10 -214h-41l-20 164h-519z" />
<glyph unicode="&#x447;" horiz-adv-x="615" d="M8 469v31h243v-31l-70 -13v-104q0 -58 30 -88.5t87 -30.5q26 0 51 3.5t37 6.5l12 3v210l-70 13v31h243v-31l-80 -13v-412l80 -13v-31h-263v31l90 13v165q-53 -31 -136 -31q-77 0 -125.5 37t-48.5 123v118z" />
<glyph unicode="&#x448;" horiz-adv-x="925" d="M45 0v31l79 13v412l-79 13v31h243v-31l-71 -12v-407h199v406l-70 13v31h233v-31l-70 -13v-406h199v407l-71 12v31h243v-31l-79 -13v-412l79 -13v-31h-835z" />
<glyph unicode="&#x449;" horiz-adv-x="925" d="M45 0v31l79 13v412l-79 13v31h243v-31l-71 -12v-407h199v406l-70 13v31h233v-31l-70 -13v-406h199v407l-71 12v31h243v-31l-79 -13v-406h87l-10 -217h-31l-37 167h-765z" />
<glyph unicode="&#x44a;" horiz-adv-x="637" d="M32 360l4 140h345v-31l-81 -13v-133h107q91 0 142.5 -38t51.5 -113q0 -82 -58 -127t-157 -45h-259v31l80 13v410l-124 -5l-20 -89h-31zM300 48h96q49 0 77 32t28 83q0 53 -28.5 82.5t-85.5 29.5h-87v-227z" />
<glyph unicode="&#x44b;" horiz-adv-x="829" d="M44 0v31l80 13v411l-79 14v31h253v-31l-81 -13v-133h107q91 0 142.5 -38t51.5 -113q0 -82 -58 -127t-157 -45h-259zM217 48h96q49 0 77 32t28 83q0 53 -28.5 82.5t-85.5 29.5h-87v-227zM542 0v31l70 13v412l-70 13v31h243v-31l-80 -13v-412l80 -13v-31h-243z" />
<glyph unicode="&#x44c;" horiz-adv-x="554" d="M44 0v31l80 13v411l-79 14v31h253v-31l-81 -13v-133h107q91 0 142.5 -38t51.5 -113q0 -82 -58 -127t-157 -45h-259zM217 48h96q49 0 77 32t28 83q0 53 -28.5 82.5t-85.5 29.5h-87v-227z" />
<glyph unicode="&#x44d;" horiz-adv-x="480" d="M36 42v34q56 -27 119 -27q82 0 128 48t51 130l-206 -12v71l206 -12q-7 87 -41.5 135.5t-85.5 48.5q-26 0 -68 -24.5t-77 -29.5l-20 84q12 2 42 8t60 10t62 4q104 0 164 -68.5t60 -180.5q0 -111 -65.5 -191t-167.5 -80q-44 0 -84.5 13t-58.5 26z" />
<glyph unicode="&#x44e;" horiz-adv-x="867" d="M45 0v31l79 14v411l-79 13v31h243v-31l-71 -12v-179h118q11 104 76.5 168t176.5 64q104 0 166.5 -68.5t62.5 -180.5q0 -120 -67 -195.5t-188 -75.5q-102 0 -164 65.5t-65 172.5h-116v-184l71 -13v-31h-243zM428 251q0 -97 40 -154.5t106 -57.5q75 0 111.5 56.5 t36.5 153.5t-40 154.5t-106 57.5q-75 0 -111.5 -56.5t-36.5 -153.5z" />
<glyph unicode="&#x44f;" horiz-adv-x="598" d="M21 0v26q30 6 41 13.5t31 34.5l98 131q-51 16 -81 52t-30 89q0 72 55 113t149 41h270v-31l-80 -13v-413l80 -12v-31h-243v31l70 12v150h-107l-91 -138q-23 -37 -46 -51t-63 -14q-14 0 -27.5 2.5t-19.5 5.5zM179 347q0 -43 29.5 -73.5t78.5 -30.5h94v207h-91 q-50 0 -80.5 -30.5t-30.5 -72.5z" />
<glyph unicode="&#x451;" horiz-adv-x="521" d="M50 241q0 121 67 195t164 74q104 0 153 -65.5t38 -187.5h-327q2 -91 50.5 -148t128.5 -57q30 0 62 6t49 12l17 6v-34q-7 -6 -20.5 -14.5t-57.5 -23t-90 -14.5q-107 0 -170.5 70t-63.5 181zM124 651q0 24 16 40t41 16q26 0 40.5 -15t14.5 -39q0 -25 -16 -42t-42 -17 q-23 0 -38.5 17t-15.5 40zM147 304l234 6q-1 69 -23 109t-81 40q-54 0 -88.5 -41.5t-41.5 -113.5zM323 651q0 24 16 40t41 16q26 0 40.5 -15t14.5 -39q0 -25 -16 -42t-42 -17q-23 0 -38.5 17t-15.5 40z" />
<glyph unicode="&#x452;" horiz-adv-x="611" d="M31 540v54h84v103l-81 8v31l154 25l20 -5l-2 -162h190v-54h-191l-1 -126q8 6 21.5 15.5t56 25t84.5 15.5q77 0 119 -49t42 -130v-193q0 -87 -20 -133q-20 -47 -48 -82.5t-77 -84.5l-29 23l30 45q29 44 40 97.5t11 133.5v168q0 64 -27 96t-89 32q-31 0 -59.5 -4.5 t-41.5 -8.5l-13 -5q4 -41 4 -95v-236l70 -13v-31h-243v31l80 13v496h-84z" />
<glyph unicode="&#x453;" horiz-adv-x="470" d="M45 0v31l79 12v413l-79 13v31h390l1 -160h-42l-16 111l-160 3v-411l99 -12v-31h-272zM191 620l149 177l62 -64l-183 -143z" />
<glyph unicode="&#x454;" horiz-adv-x="475" d="M50 241q0 117 69.5 193t180.5 76q36 0 79.5 -10t58.5 -12l-20 -81q-27 4 -73 27.5t-74 23.5q-57 0 -90 -54.5t-36 -124.5l225 7v-73l-223 10q9 -78 51 -124.5t109 -46.5q32 0 63.5 6t46.5 12l15 6v-34q-7 -6 -19 -14.5t-53.5 -23t-85.5 -14.5q-106 0 -165 69.5t-59 181.5 z" />
<glyph unicode="&#x455;" horiz-adv-x="437" d="M44 12l20 84q32 -4 83 -29t85 -25q39 0 62.5 18t23.5 47q0 27 -19.5 47t-49 32.5t-63.5 28.5t-63.5 33t-49 49t-19.5 74q0 63 49 101t124 38q28 0 55.5 -4t55.5 -10t41 -8l-20 -84q-33 4 -81.5 29t-79.5 25q-33 0 -50.5 -16.5t-17.5 -42.5q0 -35 27 -58.5t65 -39t76 -34 t65 -53t27 -84.5q0 -67 -51 -103.5t-123 -36.5q-36 0 -67.5 4t-62.5 10t-42 8z" />
<glyph unicode="&#x456;" horiz-adv-x="331" d="M42 460v31l154 14l20 -5v-457l80 -12v-31h-253v31l80 12v409zM108 684q0 26 18 41t46 15q27 0 42.5 -14.5t15.5 -39.5q0 -27 -17 -43t-46 -16q-26 0 -42.5 16t-16.5 41z" />
<glyph unicode="&#x457;" horiz-adv-x="331" d="M-3 647q0 24 16 40t41 16q26 0 40.5 -15t14.5 -39q0 -25 -16 -42t-42 -17q-23 0 -38.5 17t-15.5 40zM42 460v31l154 14l20 -5v-457l80 -12v-31h-253v31l80 12v409zM196 647q0 24 16 40t41 16q26 0 40.5 -15t14.5 -39q0 -25 -16 -42t-42 -17q-23 0 -38.5 17t-15.5 40z" />
<glyph unicode="&#x458;" horiz-adv-x="302" d="M32 -237q83 86 83 242v447l-81 8v31l154 14l20 -5v-483q0 -151 -156 -274zM100 684q0 26 18 41t46 15q27 0 42.5 -14.5t15.5 -39.5q0 -27 -17 -43t-46 -16q-26 0 -42.5 16t-16.5 41z" />
<glyph unicode="&#x459;" horiz-adv-x="805" d="M18 0v76q14 -2 24 -2q64 0 97 105t33 277l-79 13v31h461v-31l-81 -13v-133h102q91 0 142.5 -38t51.5 -113q0 -82 -58 -127t-157 -45h-254v31l80 13v406h-156q-4 -241 -43 -350.5t-119 -109.5q-12 0 -23 2.5t-16 5.5zM473 50h91q49 0 75 30.5t26 82.5q0 110 -110 110h-82 v-223z" />
<glyph unicode="&#x45a;" horiz-adv-x="885" d="M45 0v31l79 13v412l-79 13v31h243v-31l-71 -12v-179h243v178l-79 13v31h253v-31l-81 -12v-134h102q91 0 142.5 -38t51.5 -113q0 -82 -58 -127t-157 -45h-254v31l80 13v184h-243v-185l71 -12v-31h-243zM553 50h91q49 0 75 30.5t26 82.5q0 110 -110 110h-82v-223z" />
<glyph unicode="&#x45b;" horiz-adv-x="639" d="M31 540v54h84v113l-81 8v31l154 15l20 -5l-2 -162h190v-54h-191l-1 -139q89 69 162 69q77 0 119 -49t42 -130v-247l80 -13v-31h-243v31l70 13v221q0 128 -103 128q-32 0 -64 -7.5t-47 -15.5l-16 -8q4 -41 4 -95v-223l70 -13v-31h-243v31l80 13v496h-84z" />
<glyph unicode="&#x45c;" horiz-adv-x="604" d="M44 0v31l80 12v413l-79 13v31h243v-31l-71 -13v-172h74l126 175l-58 10v31h205v-31l-71 -10l-148 -171l188 -225q16 -19 25 -23.5t36 -8.5v-31h-62q-46 0 -63.5 9t-45.5 44l-150 185h-56v-195l70 -12v-31h-243zM266 620l149 177l62 -64l-183 -143z" />
<glyph unicode="&#x45e;" horiz-adv-x="574" d="M4 469v31h233v-31l-65 -13l97 -263l36 -116h4q14 53 34 113l90 266l-75 13v31h212v-31l-69 -13l-172 -457q-24 -63 -41.5 -126.5t-23.5 -95.5l-6 -32l-94 5q32 119 98 232l-193 474zM117 686l54 61q8 -7 34.5 -36.5t47.5 -42.5t48 -13t48 13t47.5 42.5t34.5 36.5l54 -61 q-28 -27 -77 -48.5t-107 -21.5q-112 0 -184 70z" />
<glyph unicode="&#x45f;" horiz-adv-x="667" d="M45 0v31l79 14v410l-79 14v31h243v-31l-71 -13l1 -406h231v406l-70 13v31h243v-31l-79 -14v-410l79 -14v-31h-244l-21 -164h-47l-19 164h-246z" />
<glyph unicode="&#x490;" horiz-adv-x="551" d="M47 0v31l80 13v612l-80 13v31h414l35 170h40l-9 -236l-302 10v-600l90 -13v-31h-268z" />
<glyph unicode="&#x491;" horiz-adv-x="461" d="M45 0v31l79 13v412l-79 13v31h329l29 135h36l-6 -190l-215 7v-408l99 -13v-31h-272z" />
<glyph unicode="&#x1e80;" horiz-adv-x="983" d="M-11 669v31h259v-31l-84 -13l128 -438q8 -29 15 -58.5t9 -43.5l3 -15h4q10 52 25 117l118 482l79 5l128 -492q8 -29 14 -59t8 -45l2 -15h4q9 53 28 118l87 335q21 80 25 109l-84 13v31h228v-31l-66 -13q-22 -54 -65 -201l-126 -455l-90 -6l-124 461q-7 26 -12.5 53.5 t-7.5 42.5l-2 15h-4q-7 -59 -20 -109l-115 -457l-88 -6l-200 662zM366 893l62 64l149 -177l-28 -30z" />
<glyph unicode="&#x1e81;" horiz-adv-x="831" d="M5 469v31h220v-31l-69 -13l86 -270q8 -26 15 -55.5t11 -46.5l3 -16h4q9 55 25 116l81 316l78 7l91 -315q8 -28 14 -58.5t8 -47.5l3 -16h5q13 62 31 122l81 264l-70 13v31h205v-31l-69 -13l-160 -456l-77 -5l-92 339l-19 83h-4q-7 -48 -16 -85l-83 -332l-85 -5l-157 461z M273 733l62 64l149 -177l-28 -30z" />
<glyph unicode="&#x1e82;" horiz-adv-x="983" d="M-11 669v31h259v-31l-84 -13l128 -438q8 -29 15 -58.5t9 -43.5l3 -15h4q10 52 25 117l118 482l79 5l128 -492q8 -29 14 -59t8 -45l2 -15h4q9 53 28 118l87 335q21 80 25 109l-84 13v31h228v-31l-66 -13q-22 -54 -65 -201l-126 -455l-90 -6l-124 461q-7 26 -12.5 53.5 t-7.5 42.5l-2 15h-4q-7 -59 -20 -109l-115 -457l-88 -6l-200 662zM443 778l149 177l62 -64l-183 -143z" />
<glyph unicode="&#x1e83;" horiz-adv-x="831" d="M5 469v31h220v-31l-69 -13l86 -270q8 -26 15 -55.5t11 -46.5l3 -16h4q9 55 25 116l81 316l78 7l91 -315q8 -28 14 -58.5t8 -47.5l3 -16h5q13 62 31 122l81 264l-70 13v31h205v-31l-69 -13l-160 -456l-77 -5l-92 339l-19 83h-4q-7 -48 -16 -85l-83 -332l-85 -5l-157 461z M379 620l149 177l62 -64l-183 -143z" />
<glyph unicode="&#x1e84;" horiz-adv-x="983" d="M-11 669v31h259v-31l-84 -13l128 -438q8 -29 15 -58.5t9 -43.5l3 -15h4q10 52 25 117l118 482l79 5l128 -492q8 -29 14 -59t8 -45l2 -15h4q9 53 28 118l87 335q21 80 25 109l-84 13v31h228v-31l-66 -13q-22 -54 -65 -201l-126 -455l-90 -6l-124 461q-7 26 -12.5 53.5 t-7.5 42.5l-2 15h-4q-7 -59 -20 -109l-115 -457l-88 -6l-200 662zM346 839q0 24 16 40t41 16q26 0 40.5 -15t14.5 -39q0 -25 -16 -42t-42 -17q-23 0 -38.5 17t-15.5 40zM545 839q0 24 16 40t41 16q26 0 40.5 -15t14.5 -39q0 -25 -16 -42t-42 -17q-23 0 -38.5 17t-15.5 40z " />
<glyph unicode="&#x1e85;" horiz-adv-x="831" d="M5 469v31h220v-31l-69 -13l86 -270q8 -26 15 -55.5t11 -46.5l3 -16h4q9 55 25 116l81 316l78 7l91 -315q8 -28 14 -58.5t8 -47.5l3 -16h5q13 62 31 122l81 264l-70 13v31h205v-31l-69 -13l-160 -456l-77 -5l-92 339l-19 83h-4q-7 -48 -16 -85l-83 -332l-85 -5l-157 461z M257 647q0 24 16 40t41 16q26 0 40.5 -15t14.5 -39q0 -25 -16 -42t-42 -17q-23 0 -38.5 17t-15.5 40zM456 647q0 24 16 40t41 16q26 0 40.5 -15t14.5 -39q0 -25 -16 -42t-42 -17q-23 0 -38.5 17t-15.5 40z" />
<glyph unicode="&#x1ef2;" horiz-adv-x="632" d="M-17 669v31h239v-31l-77 -13l143 -234l43 -83h4q17 38 45 89l93 159q23 42 23 65l-68 17v31h205v-31l-59 -15l-205 -355v-255l80 -13v-31h-258v31l80 13v255l-230 357zM192 893l62 64l149 -177l-28 -30z" />
<glyph unicode="&#x1ef3;" horiz-adv-x="574" d="M4 469v31h233v-31l-65 -13l97 -263l36 -116h4q14 53 34 113l90 266l-75 13v31h212v-31l-69 -13l-172 -457q-24 -63 -41.5 -126.5t-23.5 -95.5l-6 -32l-94 5q32 119 98 232l-193 474zM148 733l62 64l149 -177l-28 -30z" />
<glyph unicode="&#x2000;" horiz-adv-x="567" />
<glyph unicode="&#x2001;" horiz-adv-x="1134" />
<glyph unicode="&#x2002;" horiz-adv-x="567" />
<glyph unicode="&#x2003;" horiz-adv-x="1134" />
<glyph unicode="&#x2004;" horiz-adv-x="378" />
<glyph unicode="&#x2005;" horiz-adv-x="283" />
<glyph unicode="&#x2006;" horiz-adv-x="189" />
<glyph unicode="&#x2007;" horiz-adv-x="189" />
<glyph unicode="&#x2008;" horiz-adv-x="141" />
<glyph unicode="&#x2009;" horiz-adv-x="40" />
<glyph unicode="&#x200a;" horiz-adv-x="63" />
<glyph unicode="&#x2010;" horiz-adv-x="436" d="M73 252v69l291 10v-69z" />
<glyph unicode="&#x2011;" horiz-adv-x="436" d="M73 252v69l291 10v-69z" />
<glyph unicode="&#x2012;" horiz-adv-x="436" d="M73 252v69l291 10v-69z" />
<glyph unicode="&#x2013;" horiz-adv-x="585" d="M77 259v64h431v-64h-431z" />
<glyph unicode="&#x2014;" horiz-adv-x="815" d="M77 262v64h661v-64h-661z" />
<glyph unicode="&#x2018;" horiz-adv-x="238" d="M49 518q0 59 36.5 112t93.5 83l18 -24q-37 -22 -63.5 -56.5t-30.5 -70.5q34 8 54.5 -10t20.5 -46q0 -27 -18 -43.5t-46 -16.5t-46.5 18.5t-18.5 53.5z" />
<glyph unicode="&#x2019;" horiz-adv-x="229" d="M56 654q0 27 18 43.5t46 16.5t46.5 -18.5t18.5 -53.5q0 -126 -108 -209l-20 22q69 60 74 143q-34 -8 -54.5 10t-20.5 46z" />
<glyph unicode="&#x201a;" horiz-adv-x="250" d="M60 50q0 27 18 43.5t46 16.5t46.5 -18.5t18.5 -53.5q0 -126 -108 -209l-20 22q69 60 74 143q-34 -8 -54.5 10t-20.5 46z" />
<glyph unicode="&#x201b;" horiz-adv-x="236" d="M42 642q0 35 18.5 53.5t46.5 18.5t46 -16.5t18 -43.5q0 -28 -20.5 -46t-54.5 -10q4 -38 30.5 -77t61.5 -60l-18 -24q-56 29 -92 87t-36 118z" />
<glyph unicode="&#x201c;" horiz-adv-x="442" d="M49 518q0 59 36.5 112t93.5 83l18 -24q-37 -22 -63.5 -56.5t-30.5 -70.5q34 8 54.5 -10t20.5 -46q0 -27 -18 -43.5t-46 -16.5t-46.5 18.5t-18.5 53.5zM253 518q0 59 36.5 112t93.5 83l18 -24q-37 -22 -63.5 -56.5t-30.5 -70.5q34 8 54.5 -10t20.5 -46q0 -27 -18 -43.5 t-46 -16.5t-46.5 18.5t-18.5 53.5z" />
<glyph unicode="&#x201d;" horiz-adv-x="433" d="M56 654q0 27 18 43.5t46 16.5t46.5 -18.5t18.5 -53.5q0 -126 -108 -209l-20 22q69 60 74 143q-34 -8 -54.5 10t-20.5 46zM260 654q0 27 18 43.5t46 16.5t46.5 -18.5t18.5 -53.5q0 -126 -108 -209l-20 22q69 60 74 143q-34 -8 -54.5 10t-20.5 46z" />
<glyph unicode="&#x201e;" horiz-adv-x="442" d="M60 50q0 27 18 43.5t46 16.5t46.5 -18.5t18.5 -53.5q0 -126 -108 -209l-20 22q69 60 74 143q-34 -8 -54.5 10t-20.5 46zM252 50q0 27 18 43.5t46 16.5t46.5 -18.5t18.5 -53.5q0 -126 -108 -209l-20 22q69 60 74 143q-34 -8 -54.5 10t-20.5 46z" />
<glyph unicode="&#x201f;" horiz-adv-x="440" d="M42 642q0 35 18.5 53.5t46.5 18.5t46 -16.5t18 -43.5q0 -28 -20.5 -46t-54.5 -10q4 -38 30.5 -77t61.5 -60l-18 -24q-56 29 -92 87t-36 118zM246 642q0 35 18.5 53.5t46.5 18.5t46 -16.5t18 -43.5q0 -28 -20.5 -46t-54.5 -10q4 -38 30.5 -77t61.5 -60l-18 -24 q-56 29 -92 87t-36 118z" />
<glyph unicode="&#x2020;" horiz-adv-x="552" d="M37 426v74l216 -16l-16 231h78l-17 -231l217 16v-74l-217 16l17 -655l-38 -37l-40 37l16 655z" />
<glyph unicode="&#x2021;" horiz-adv-x="578" d="M50 -35v74l214 -14l-19 200l19 214l-214 -13v74l214 -13l-14 228h78l-14 -228l214 13v-74l-214 13l19 -214l-20 -200l215 14v-74l-215 14l15 -229h-78l14 229z" />
<glyph unicode="&#x2022;" horiz-adv-x="278" d="M66 302q0 31 18.5 50t55.5 19q35 0 54 -22t19 -49q0 -33 -20.5 -52.5t-58.5 -19.5q-34 0 -51 22t-17 52z" />
<glyph unicode="&#x2024;" horiz-adv-x="256" d="M60 48q0 29 19.5 45.5t51.5 16.5q30 0 47 -16t17 -44q0 -30 -19 -47.5t-51 -17.5q-29 0 -47 17.5t-18 45.5z" />
<glyph unicode="&#x2025;" horiz-adv-x="511" d="M60 48q0 29 19.5 45.5t51.5 16.5q30 0 47 -16t17 -44q0 -30 -19 -47.5t-51 -17.5q-29 0 -47 17.5t-18 45.5zM315 48q0 29 19.5 45.5t51.5 16.5q30 0 47 -16t17 -44q0 -30 -19 -47.5t-51 -17.5q-29 0 -47 17.5t-18 45.5z" />
<glyph unicode="&#x2026;" horiz-adv-x="765" d="M60 48q0 29 19.5 45.5t51.5 16.5q30 0 47 -16t17 -44q0 -30 -19 -47.5t-51 -17.5q-29 0 -47 17.5t-18 45.5zM314 48q0 29 19.5 45.5t51.5 16.5q30 0 47 -16t17 -44q0 -30 -19 -47.5t-51 -17.5q-29 0 -47 17.5t-18 45.5zM569 48q0 29 19.5 45.5t51.5 16.5q30 0 47 -16 t17 -44q0 -30 -19 -47.5t-51 -17.5q-29 0 -47 17.5t-18 45.5z" />
<glyph unicode="&#x202f;" horiz-adv-x="226" />
<glyph unicode="&#x2030;" horiz-adv-x="1340" d="M43 517q0 91 50 144t146 53q82 0 130 -53t48 -123q0 -91 -50 -144t-146 -53q-82 0 -130 53t-48 123zM135 540q0 -146 98 -146q44 0 67.5 31t23.5 90q0 146 -99 146q-90 0 -90 -121zM173 0q286 400 478 700h97q-267 -373 -477 -700h-98zM505 166q0 91 50 144t146 53 q82 0 130 -53t48 -123q0 -91 -50 -144t-146 -53q-82 0 -130 53t-48 123zM597 189q0 -146 98 -146q44 0 67.5 31t23.5 90q0 146 -99 146q-90 0 -90 -121zM925 166q0 91 50 144t146 53q82 0 130 -53t48 -123q0 -91 -50 -144t-146 -53q-82 0 -130 53t-48 123zM1017 189 q0 -146 98 -146q44 0 67.5 31t23.5 90q0 146 -99 146q-90 0 -90 -121z" />
<glyph unicode="&#x2039;" horiz-adv-x="348" d="M26 240v29l228 240l52 -50l-209 -205l206 -201l-49 -53z" />
<glyph unicode="&#x203a;" horiz-adv-x="348" d="M42 459l52 50l228 -240v-29l-228 -240l-49 53l206 201z" />
<glyph unicode="&#x2044;" horiz-adv-x="473" d="M-1 0l396 701h82l-395 -701h-83z" />
<glyph unicode="&#x205f;" horiz-adv-x="283" />
<glyph unicode="&#x20ac;" horiz-adv-x="761" d="M33 231l21 65h94q-2 26 -2 42q0 29 2 43h-114l20 65h104q28 120 116 194t222 74q58 0 109 -10t73 -20l22 -10l-8 -170h-39l-15 134q-60 24 -135 24q-101 0 -165 -57.5t-83 -158.5h310l-21 -65h-296v-22q0 -36 4 -63h268l-21 -65h-232q29 -89 97 -141t167 -52q49 0 107 15 l21 150h38v-178q-78 -39 -177 -39q-143 0 -237.5 63.5t-124.5 181.5h-125z" />
<glyph unicode="&#x2116;" horiz-adv-x="1133" d="M46 0v31l80 16v563l-46 53v37l110 4l349 -480q11 -15 23.5 -34.5t19.5 -31.5l6 -12l4 1q-4 46 -4 87v417l-80 18v31h218v-31l-80 -18v-651l-54 -4l-358 488l-52 79l-3 -1q5 -44 5 -90v-425l80 -16v-31h-218zM761 446q0 68 44.5 114.5t119.5 46.5t118.5 -45.5t43.5 -108.5 q0 -69 -46.5 -115.5t-124.5 -46.5q-70 0 -112.5 46t-42.5 109zM781 180v64h286v-64h-286zM851 459q0 -55 20 -88.5t55 -33.5q29 0 49.5 28t20.5 75q0 54 -20.5 87.5t-54.5 33.5q-30 0 -50 -28t-20 -74z" />
<glyph unicode="&#x2122;" horiz-adv-x="1034" d="M46 571v130h362v-130h-30l-15 79h-91v-260l60 -15v-29h-205v29l60 15v260h-96l-15 -79h-30zM438 346v29l68 15v265l-67 20v27h137l99 -158l30 -56h3q14 29 30 54l98 161h138v-28l-60 -20v-265l60 -15v-29h-205v29l61 15v121l2 79l-3 1q-12 -30 -39 -70l-91 -135h-12 l-89 134q-11 16 -20 34t-12 28l-4 9l-3 -1q3 -36 3 -78v-122l55 -15v-29h-179z" />
<glyph unicode="&#x212e;" horiz-adv-x="815" d="M50 272q0 134 105.5 229.5t255.5 95.5q149 0 255 -95.5t106 -229.5v-9h-585q-5 0 -5 -4v-177q0 -12 8 -20q91 -96 222 -96q138 0 232 107h53q-51 -58 -126 -92t-160 -34q-150 0 -255.5 95t-105.5 230zM182 286q0 -5 5 -5h448q5 0 5 5v178q0 11 -10 21q-90 92 -218 92 q-129 0 -221 -95q-9 -9 -9 -22v-174z" />
<glyph unicode="&#x2139;" horiz-adv-x="400" d="M55 -1v27q35 0 54 13.5t19 36.5v232q0 45 -72 54v35l228 26l-1 -343q0 -46 71 -52v-28zM128 550q0 37 22 60.5t56 23.5q33 0 56 -23t23 -56t-22.5 -57t-54.5 -24q-33 0 -56.5 21t-23.5 55z" />
<glyph unicode="&#x2150;" horiz-adv-x="698" d="M30 656l150 55h12v-387h-71v320l-85 -8zM59 35q252 348 480 677l53 -33q-269 -370 -480 -679zM423 318l3 61h244v-25q-74 -156 -145 -378l-72 24q51 125 167 330z" />
<glyph unicode="&#x2151;" horiz-adv-x="739" d="M29 656l150 55h12v-387h-71v320l-85 -8zM58 35q252 348 480 677l53 -33q-269 -370 -480 -679zM431 256q0 56 36.5 92.5t92.5 36.5q67 0 106 -42.5t39 -114.5q0 -114 -62 -173t-165 -71l-6 25q136 22 160 163q-30 -32 -81 -32q-53 0 -86.5 32t-33.5 84zM498 267 q0 -82 70 -82q44 0 68 34q1 6 1 20q0 111 -73 111q-66 0 -66 -83z" />
<glyph unicode="&#x2152;" horiz-adv-x="983" d="M29 656l150 55h12v-387h-71v320l-85 -8zM58 35q252 348 480 677l53 -33q-269 -370 -480 -679zM416 333l150 55h12v-387h-71v320l-85 -8zM657 176q0 97 38 153t117 56q66 0 102 -55t36 -132q0 -97 -37.5 -152.5t-116.5 -55.5q-68 0 -103.5 54.5t-35.5 131.5zM730 202 q0 -172 76 -172q33 0 52.5 40.5t19.5 101.5q0 78 -19.5 124.5t-58.5 46.5q-34 0 -52 -39.5t-18 -101.5z" />
<glyph unicode="&#x2153;" horiz-adv-x="706" d="M41 656l150 55h12v-387h-71v320l-85 -8zM70 35q252 348 480 677l53 -33q-269 -370 -480 -679zM412 26l5 21q37 -16 78 -16q42 0 64.5 20t22.5 55q0 78 -111 78l3 28q45 0 69.5 18t24.5 49q0 59 -68 59q-24 0 -43 -3.5t-26 -6.5l-7 -4v25q34 32 107 32q48 0 78 -23.5 t30 -63.5q0 -75 -83 -94q46 -6 72.5 -31t26.5 -67q0 -47 -39.5 -79.5t-99.5 -32.5q-30 0 -56 9t-37 18z" />
<glyph unicode="&#x2154;" horiz-adv-x="791" d="M44 324v32q179 153 179 241q0 71 -71 71q-20 0 -42 -5t-34 -9l-12 -5v23q4 5 12.5 11.5t38.5 18t63 11.5q52 0 85 -29t33 -80q0 -91 -169 -231l186 12l-5 -61h-264zM151 35q252 348 480 677l53 -33q-269 -370 -480 -679zM500 26l5 21q37 -16 78 -16q42 0 64.5 20t22.5 55 q0 78 -111 78l3 28q45 0 69.5 18t24.5 49q0 59 -68 59q-24 0 -43 -3.5t-26 -6.5l-7 -4v25q34 32 107 32q48 0 78 -23.5t30 -63.5q0 -75 -83 -94q46 -6 72.5 -31t26.5 -67q0 -47 -39.5 -79.5t-99.5 -32.5q-30 0 -56 9t-37 18z" />
<glyph unicode="&#x2155;" horiz-adv-x="716" d="M29 656l150 55h12v-387h-71v320l-85 -8zM58 35q252 348 480 677l53 -33q-269 -370 -480 -679zM428 27l4 23q45 -14 83 -14q84 0 84 72q0 91 -150 91l11 182h201l-2 -56l-162 8l-6 -92q180 -8 180 -133q0 -51 -36.5 -84.5t-99.5 -33.5q-30 0 -57 9t-38 19z" />
<glyph unicode="&#x2156;" horiz-adv-x="784" d="M35 324v32q179 153 179 241q0 71 -71 71q-20 0 -42 -5t-34 -9l-12 -5v23q4 5 12.5 11.5t38.5 18t63 11.5q52 0 85 -29t33 -80q0 -91 -169 -231l186 12l-5 -61h-264zM132 35q252 348 480 677l53 -33q-269 -370 -480 -679zM496 27l4 23q45 -14 83 -14q84 0 84 72 q0 91 -150 91l11 182h201l-2 -56l-162 8l-6 -92q180 -8 180 -133q0 -51 -36.5 -84.5t-99.5 -33.5q-30 0 -57 9t-38 19z" />
<glyph unicode="&#x2157;" horiz-adv-x="766" d="M38 355l5 21q37 -16 78 -16q42 0 64.5 20t22.5 55q0 78 -111 78l3 28q45 0 69.5 18t24.5 49q0 59 -68 59q-24 0 -43 -3.5t-26 -7.5l-7 -3v25q34 32 107 32q48 0 78 -23t30 -64q0 -75 -83 -94q46 -6 72.5 -31t26.5 -67q0 -47 -39.5 -79.5t-99.5 -32.5q-30 0 -56 9t-37 18z M108 35q252 348 480 677l53 -33q-269 -370 -480 -679zM478 27l4 23q45 -14 83 -14q84 0 84 72q0 91 -150 91l11 182h201l-2 -56l-162 8l-6 -92q180 -8 180 -133q0 -51 -36.5 -84.5t-99.5 -33.5q-30 0 -57 9t-38 19z" />
<glyph unicode="&#x2158;" horiz-adv-x="844" d="M25 442l183 287l59 -8v-256h63l-4 -42h-59v-55l2 -52h-74v107h-157zM87 464l107 1v136l4 49h-2q-6 -21 -24 -50zM179 35q252 348 480 677l53 -33q-269 -370 -480 -679zM551 27l4 23q45 -14 83 -14q84 0 84 72q0 91 -150 91l11 182h201l-2 -56l-162 8l-6 -92 q180 -8 180 -133q0 -51 -36.5 -84.5t-99.5 -33.5q-30 0 -57 9t-39 19z" />
<glyph unicode="&#x2159;" horiz-adv-x="700" d="M29 656l150 55h12v-387h-71v320l-85 -8zM58 35q252 348 480 677l53 -33q-269 -370 -480 -679zM390 149q0 114 62 173t165 71l6 -25q-137 -23 -160 -163q30 32 81 32q53 0 86.5 -32t33.5 -84q0 -56 -36.5 -92.5t-92.5 -36.5q-67 0 -106 42.5t-39 114.5zM458 138 q0 -111 73 -111q66 0 66 83q0 82 -70 82q-40 0 -69 -34v-20z" />
<glyph unicode="&#x215a;" horiz-adv-x="773" d="M39 346l4 23q45 -14 83 -14q84 0 84 72q0 91 -150 91l11 182h201l-2 -56l-162 8l-6 -92q180 -8 180 -133q0 -51 -36.5 -84.5t-99.5 -33.5q-30 0 -57 9.5t-39 18.5zM127 35q252 348 480 677l53 -33q-269 -370 -480 -679zM464 149q0 114 62 173t165 71l6 -25 q-137 -23 -160 -163q30 32 81 32q53 0 86.5 -32t33.5 -84q0 -56 -36.5 -92.5t-92.5 -36.5q-67 0 -106 42.5t-39 114.5zM532 138q0 -111 73 -111q66 0 66 83q0 82 -70 82q-40 0 -69 -34v-20z" />
<glyph unicode="&#x215b;" horiz-adv-x="734" d="M41 656l150 55h12v-387h-71v320l-85 -8zM70 35q252 348 480 677l53 -33q-269 -370 -480 -679zM431 90q0 66 83 101q-73 43 -73 97q0 44 34.5 70t85.5 26q48 0 80.5 -24t31.5 -63q-2 -56 -73 -92q40 -22 62 -46.5t22 -61.5q0 -47 -38 -77.5t-88 -30.5q-56 0 -91.5 27 t-35.5 74zM490 89q0 -26 18 -43.5t48 -17.5q29 0 47 15.5t18 44.5q0 21 -14 38.5t-28.5 27t-43.5 25.5q-45 -34 -45 -90zM504 300q0 -26 18.5 -44t54.5 -37q35 26 36 76q1 24 -13.5 38t-41.5 14q-25 0 -39.5 -13t-14.5 -34z" />
<glyph unicode="&#x215c;" horiz-adv-x="782" d="M45 355l5 21q37 -16 78 -16q42 0 64.5 20t22.5 55q0 78 -111 78l3 28q45 0 69.5 18t24.5 49q0 59 -68 59q-24 0 -43 -3.5t-26 -7.5l-7 -3v25q34 32 107 32q48 0 78 -23t30 -64q0 -75 -83 -94q46 -6 72.5 -31t26.5 -67q0 -47 -39.5 -79.5t-99.5 -32.5q-30 0 -56 9t-37 18z M115 35q252 348 480 677l53 -33q-269 -370 -480 -679zM484 90q0 66 83 101q-73 43 -73 97q0 44 34.5 70t85.5 26q48 0 80.5 -24t31.5 -63q-2 -56 -73 -92q40 -22 62 -46.5t22 -61.5q0 -47 -38 -77.5t-88 -30.5q-56 0 -91.5 27t-35.5 74zM543 89q0 -26 18 -43.5t48 -17.5 q29 0 47 15.5t18 44.5q0 21 -14 38.5t-28.5 27t-43.5 25.5q-45 -34 -45 -90zM557 300q0 -26 18.5 -44t54.5 -37q35 26 36 76q1 24 -13.5 38t-41.5 14q-25 0 -39.5 -13t-14.5 -34z" />
<glyph unicode="&#x215d;" horiz-adv-x="796" d="M45 346l4 23q45 -14 83 -14q84 0 84 72q0 91 -150 91l11 182h201l-2 -56l-162 8l-6 -92q180 -8 180 -133q0 -51 -36.5 -84.5t-99.5 -33.5q-30 0 -57 9.5t-39 18.5zM133 35q252 348 480 677l53 -33q-269 -370 -480 -679zM498 90q0 66 83 101q-73 43 -73 97q0 44 34.5 70 t85.5 26q48 0 80.5 -24t31.5 -63q-2 -56 -73 -92q40 -22 62 -46.5t22 -61.5q0 -47 -38 -77.5t-88 -30.5q-56 0 -91.5 27t-35.5 74zM557 89q0 -26 18 -43.5t48 -17.5t47.5 15.5t17.5 44.5q0 21 -14 38.5t-28.5 27t-43.5 25.5q-45 -34 -45 -90zM571 300q0 -26 18.5 -44 t54.5 -37q35 26 36 76q1 24 -13.5 38t-41.5 14q-25 0 -39.5 -13t-14.5 -34z" />
<glyph unicode="&#x215e;" horiz-adv-x="760" d="M43 633l4 67h254v-20q-67 -141 -145 -385l-71 21q51 142 152 326zM95 35l480 677l53 -33l-480 -679zM460 90q0 66 83 101q-73 43 -73 97q0 44 34.5 70t85.5 26q48 0 80.5 -24t31.5 -63q-2 -56 -73 -92q40 -22 62 -46.5t22 -61.5q0 -47 -38 -77.5t-88 -30.5 q-56 0 -91.5 27t-35.5 74zM519 89q0 -26 18 -43.5t48 -17.5q29 0 47 15.5t18 44.5q0 21 -14 38.5t-28.5 27t-43.5 25.5q-45 -34 -45 -90zM533 300q0 -26 18.5 -44t54.5 -37q35 26 36 76q1 24 -13.5 38t-41.5 14q-25 0 -39.5 -13t-14.5 -34z" />
<glyph unicode="&#x215f;" horiz-adv-x="621" d="M39 656l150 55h12v-387h-71v320l-85 -8zM68 35q252 348 480 677l53 -33q-269 -370 -480 -679z" />
<glyph unicode="&#x2192;" horiz-adv-x="779" d="M66 206v74h535l-4 3q-39 35 -74 83.5t-50 81.5l64 34q49 -90 143 -176l50 -46v-29l-50 -46q-94 -86 -143 -176l-64 34q15 33 49.5 80.5t72.5 82.5h-529z" />
<glyph unicode="&#x2194;" horiz-adv-x="961" d="M49 231v29l50 46q94 86 143 176l64 -34q-15 -33 -50 -81.5t-74 -83.5l-4 -3h605l-4 3q-39 35 -74 83.5t-50 81.5l64 34q49 -90 143 -176l50 -46v-29l-50 -46q-94 -86 -143 -176l-64 34q15 33 49.5 80.5t72.5 82.5h-593q38 -35 72.5 -82.5t49.5 -80.5l-64 -34 q-49 90 -143 176z" />
<glyph unicode="&#x2195;" horiz-adv-x="577" d="M52 7l34 59q31 -15 79.5 -50.5t85.5 -76.5v613q-38 -41 -86.5 -77.5t-78.5 -49.5l-34 59q84 46 173 143l46 50h29l46 -50q83 -90 179 -143l-34 -59q-29 13 -80 51t-87 77v-615q36 38 86.5 76t80.5 52l34 -59q-96 -53 -179 -143l-46 -50h-29l-46 50q-89 97 -173 143z" />
<glyph unicode="&#x2206;" horiz-adv-x="653" d="M34 29l285 671h52l245 -673l-15 -27h-549zM138 62h367l-140 417q-8 23 -14.5 48.5t-9.5 39.5l-3 14h-4q-13 -55 -31 -101z" />
<glyph unicode="&#x2212;" horiz-adv-x="521" d="M75 253v64h371v-64h-371z" />
<glyph unicode="&#x221a;" horiz-adv-x="628" d="M24 439v61h175l106 -312q10 -28 17.5 -57.5t10.5 -45.5l3 -16h4q12 56 32 117l171 515h79l-253 -701l-86 -5l-156 444h-103z" />
<glyph unicode="&#x221e;" horiz-adv-x="728" d="M59 286q0 69 43 106.5t107 37.5q80 0 154 -106q78 106 168 106q55 0 96 -38t41 -106q0 -67 -42 -104.5t-100 -37.5q-84 0 -163 106q-78 -106 -163 -106q-57 0 -99 39t-42 103zM126 287q0 -32 20.5 -52t55.5 -20q40 0 75.5 23t58.5 49q-63 72 -128 72q-39 0 -60.5 -20 t-21.5 -52zM390 287q22 -26 58.5 -49t76.5 -23q35 0 55.5 20t20.5 52q0 31 -20.5 51.5t-54.5 20.5q-73 0 -136 -72z" />
<glyph unicode="&#x2248;" horiz-adv-x="555" d="M68 302q-1 56 32 94t85 38q43 0 92.5 -32.5t82.5 -32.5q72 0 98 67l30 -11q1 -56 -32 -94t-85 -38q-36 0 -88.5 32.5t-86.5 32.5q-72 0 -98 -67zM69 132q-1 56 32 94t85 38q43 0 92.5 -32.5t82.5 -32.5q72 0 98 67l30 -11q1 -56 -32 -94t-85 -38q-36 0 -88.5 32.5 t-86.5 32.5q-72 0 -98 -67z" />
<glyph unicode="&#x2260;" horiz-adv-x="533" d="M61 30q45 64 83 122h-83v69h130q7 10 35.5 53.5t43.5 67.5h-209v69h254l99 155l58 -40l-80 -115h80v-69h-127l-80 -121h207v-69h-252q-89 -141 -101 -161z" />
<glyph unicode="&#x2264;" d="M63 64v65h365v-65h-365zM63 323v20l365 184v-78l-251 -116l251 -116v-79z" />
<glyph unicode="&#x2265;" horiz-adv-x="501" d="M73 64v65h365v-65h-365zM73 138v79l251 116l-251 116v78l365 -184v-20z" />
<glyph unicode="&#x25a0;" horiz-adv-x="635" d="M50 597l23 23q279 -31 489 -1l22 -22q-30 -210 1 -490l-22 -22q-280 31 -490 1l-22 22q30 210 -1 489z" />
<glyph unicode="&#x25b2;" horiz-adv-x="723" d="M50 92v25l300 486h24l299 -486v-25h-623z" />
<glyph unicode="&#x25bc;" horiz-adv-x="723" d="M50 578v25h623v-25l-299 -486h-24z" />
<glyph unicode="&#x25c6;" horiz-adv-x="534" d="M50 343v19q104 77 207 208h20q103 -131 207 -208v-19q-105 -78 -207 -209h-20q-102 131 -207 209z" />
<glyph unicode="&#x25ca;" horiz-adv-x="622" d="M20 328v31l265 341h52l265 -343v-31l-265 -341h-52zM118 352l199 -281l185 265l-198 275z" />
<glyph unicode="&#x25cf;" horiz-adv-x="637" d="M50 351q0 111 78.5 190t189.5 79t190 -79t79 -190t-79 -189.5t-190 -78.5t-189.5 78.5t-78.5 189.5z" />
<glyph unicode="&#x2715;" horiz-adv-x="845" d="M59 106l126 126l29 -29l146 144l-149 148l-29 -29l-116 116l126 126l116 -116l-29 -29l148 -149l144 145l-29 30l126 126l116 -116l-126 -126l-25 25l-145 -146l147 -146l29 29l115 -114l-127 -128l-114 116l29 29l-145 148l-146 -146l25 -24l-126 -126z" />
<glyph unicode="&#x271a;" horiz-adv-x="799" d="M50 256v186h251v257h196v-257h252v-186h-252v-256h-196v256h-251z" />
<glyph unicode="&#x271b;" horiz-adv-x="799" d="M50 286v126h281v287h136v-287h282v-126h-282v-286h-136v286h-281zM341 296h116v106h-116v-106z" />
<glyph unicode="&#x271c;" horiz-adv-x="799" d="M50 256v186h251v257h196v-257h252v-186h-252v-256h-196v256h-251zM311 266h176v166h-176v-166z" />
<glyph unicode="&#x2722;" horiz-adv-x="795" d="M50 273v151h145v-36h170v168h-44v145h154v-145h-39v-168h162v36h147l-1 -151h-146v39l-162 1v-168h39v-145h-154v145h44v167h-170v-39h-145z" />
<glyph unicode="&#x2723;" horiz-adv-x="921" d="M50 348q0 56 39.5 96t95.5 40q45 0 81 -27t49 -69h111v110q-45 11 -74 47t-29 84q0 56 39.5 96t95.5 40t96 -40t40 -96q0 -46 -27 -81.5t-70 -47.5v-112h109q13 42 48.5 69t80.5 27q56 0 96 -40t40 -96t-40 -95.5t-96 -39.5q-47 0 -83 27.5t-47 71.5l-108 1v-109 q43 -13 70 -49t27 -81q0 -56 -40 -95.5t-96 -39.5t-95.5 39.5t-39.5 95.5q0 48 29 84.5t74 47.5v106h-110q-12 -44 -48.5 -71.5t-82.5 -27.5q-56 0 -95.5 39.5t-39.5 95.5zM127 348q0 -24 17 -41t41 -17t41.5 17t17.5 41t-17.5 41.5t-41.5 17.5t-41 -17.5t-17 -41.5zM400 74 q0 -24 17 -41t41 -17t41.5 17t17.5 41t-17.5 41.5t-41.5 17.5t-41 -17.5t-17 -41.5zM400 629q0 -24 17 -41t41 -17t41.5 17t17.5 41t-17.5 41.5t-41.5 17.5t-41 -17.5t-17 -41.5zM677 348q0 -24 17 -41t41 -17t41.5 17t17.5 41t-17.5 41.5t-41.5 17.5t-41 -17.5t-17 -41.5z " />
<glyph unicode="&#x2724;" horiz-adv-x="865" d="M50 348q0 44 31 75.5t75 31.5q33 0 60 -18.5t39 -48.5h143v140q-33 10 -53.5 37.5t-20.5 63.5q0 44 31 75.5t75 31.5t75.5 -31.5t31.5 -75.5q0 -33 -19 -60.5t-49 -38.5v-142h140q12 30 39 48.5t60 18.5q44 0 75.5 -31.5t31.5 -75.5t-31.5 -75t-75.5 -31q-35 0 -62 19.5 t-38 50.5l-139 1v-141q30 -11 49 -38.5t19 -60.5q0 -44 -31.5 -75t-75.5 -31t-75 31t-31 75q0 35 20.5 63t53.5 39v137h-142q-11 -31 -38.5 -50.5t-61.5 -19.5q-44 0 -75 31t-31 75z" />
<glyph unicode="&#x2725;" horiz-adv-x="865" d="M50 348q0 22 42 64.5t64 42.5q14 0 40 -21t46 -46l163 -10l-10 157q-25 20 -46.5 46.5t-21.5 40.5q0 22 42 64.5t64 42.5t64.5 -42.5t42.5 -64.5q0 -14 -21.5 -40.5t-46.5 -46.5l-10 -157l160 10q20 25 46 46t40 21q22 0 64.5 -42.5t42.5 -64.5t-42.5 -64t-64.5 -42 q-15 0 -42.5 22.5t-46.5 48.5l-157 10l10 -162q25 -20 46.5 -46.5t21.5 -40.5q0 -22 -42.5 -64t-64.5 -42t-64 42t-42 64q0 14 21.5 40.5t46.5 46.5l10 162l-159 -10q-20 -26 -48 -48.5t-42 -22.5q-22 0 -64 42t-42 64z" />
<glyph unicode="&#x2726;" horiz-adv-x="825" d="M50 351q0 47 69 135.5t157 158.5t135 70t135.5 -70t158.5 -158.5t70 -135.5t-70 -135t-158.5 -157t-135.5 -69t-135 69t-157 157t-69 135z" />
<glyph unicode="&#x2727;" horiz-adv-x="822" d="M50 337v31q172 129 345 347h32q173 -218 345 -347v-31q-172 -129 -345 -347h-32q-173 218 -345 347z" />
<glyph unicode="&#x2756;" horiz-adv-x="826" d="M50 345v15q84 64 163 164h16q79 -100 163 -164v-15q-82 -60 -163 -164h-16q-81 104 -163 164zM242 155v15q80 58 163 164h16q81 -104 163 -164v-15q-86 -65 -163 -165h-16q-79 103 -163 165zM243 536v15q82 61 163 164h16q79 -100 163 -164v-15q-86 -65 -163 -165h-16 q-79 103 -163 165zM434 345v15q84 64 163 164h16q81 -103 163 -164v-15q-80 -58 -163 -164h-16q-81 104 -163 164z" />
<glyph unicode="&#x2766;" horiz-adv-x="885" d="M51 543q0 102 60 157t146 55q63 0 120 -32t92 -92q16 6 63 24t73 25.5t68 17t82 7.5t81 -13l-10 -50q-19 5 -38 7.5t-39.5 2t-36 -1.5t-39 -6.5t-35.5 -8t-38.5 -11t-35.5 -11.5t-38.5 -13.5t-36.5 -13.5q17 -47 20 -101q30 21 69.5 23t74 -13t58.5 -51t24 -85 q0 -55 -23.5 -98.5t-57.5 -68.5t-68 -43t-57.5 -32t-23.5 -26q0 -27 39 -27q98 0 169 73l36 -33q-100 -116 -267 -113q-117 2 -196.5 81t-79.5 213q0 63 17.5 110t45.5 71.5t62 35t67 6t61 -20.5q-3 47 -18 84q-52 -15 -89 -15q-128 0 -166 138q-85 -36 -85 -151h-50z" />
<glyph unicode="&#x2776;" horiz-adv-x="815" d="M50 354q0 152 103 257.5t255 105.5q151 0 254 -105.5t103 -257.5q0 -150 -104 -256t-253 -106q-152 0 -255 104.5t-103 257.5zM280 555l4 -40l105 10v-404h65v471h-10z" />
<glyph unicode="&#x2777;" horiz-adv-x="815" d="M50 354q0 152 103 257.5t255 105.5q151 0 254 -105.5t103 -257.5q0 -150 -104 -256t-253 -106q-152 0 -255 104.5t-103 257.5zM275 121h272l6 54l-201 -5q181 167 181 295q0 64 -35.5 95t-96.5 31q-30 0 -57.5 -5.5t-40.5 -11.5l-13 -6v-54q49 23 101 23q77 0 77 -75 q0 -124 -193 -308v-33z" />
<glyph unicode="&#x2778;" horiz-adv-x="815" d="M50 354q0 152 103 257.5t255 105.5q151 0 254 -105.5t103 -257.5q0 -150 -104 -256t-253 -106q-152 0 -255 104.5t-103 257.5zM272 132q54 -20 118 -20q78 0 121 39t43 98q0 49 -32.5 81.5t-86.5 40.5q49 12 74 42.5t25 70.5q0 51 -35 79t-98 28q-28 0 -55.5 -5.5 t-40.5 -11.5l-13 -6v-54q46 23 103 23q36 0 55.5 -16.5t19.5 -44.5q0 -80 -117 -86l-6 -49q73 -1 107 -27t34 -65q0 -38 -26 -60t-72 -22q-25 0 -51 4.5t-39 8.5l-14 5z" />
<glyph unicode="&#x2779;" horiz-adv-x="815" d="M50 354q0 152 103 257.5t255 105.5q151 0 254 -105.5t103 -257.5q0 -150 -104 -256t-253 -106q-152 0 -255 104.5t-103 257.5zM219 279l18 -30h193v-128h64q-3 30 -3 60v68h69l5 50l-74 -1v291l-53 11zM288 294l112 168l33 59h1q-4 -32 -4 -61v-163z" />
<glyph unicode="&#x277a;" horiz-adv-x="815" d="M50 354q0 152 103 257.5t255 105.5q151 0 254 -105.5t103 -257.5q0 -150 -104 -256t-253 -106q-152 0 -255 104.5t-103 257.5zM267 134q56 -20 122 -20q78 0 120 41t42 104q0 138 -201 164l6 113l180 -5l3 60h-230l-12 -221q187 -17 187 -111q0 -42 -24.5 -66t-73.5 -24 q-40 0 -105 18z" />
<glyph unicode="&#x277b;" horiz-adv-x="815" d="M50 354q0 152 103 257.5t255 105.5q151 0 254 -105.5t103 -257.5q0 -150 -104 -256t-253 -106q-152 0 -255 104.5t-103 257.5zM247 324q0 -102 44 -160q39 -52 107 -52q74 0 113 45t39 112q0 66 -36.5 102t-104.5 36q-51 0 -91 -26q24 145 201 169l-6 51 q-266 -31 -266 -277zM314 325q35 29 81 29q90 0 90 -93q0 -99 -78 -99q-93 0 -93 163z" />
<glyph unicode="&#x277c;" horiz-adv-x="815" d="M50 354q0 150 104 256t253 106q152 0 255 -104.5t103 -257.5q0 -152 -103 -257.5t-255 -105.5q-151 0 -254 105.5t-103 257.5zM272 530l222 7q-121 -249 -182 -415l69 -20q89 283 179 477v12h-282z" />
<glyph unicode="&#x277d;" horiz-adv-x="815" d="M50 354q0 150 104 256t253 106q152 0 255 -104.5t103 -257.5q0 -152 -103 -257.5t-255 -105.5q-151 0 -254 105.5t-103 257.5zM257 238q0 -59 41.5 -91.5t109.5 -32.5q60 0 104 37t44 95q0 46 -27 75t-74 55q35 17 61 46t27 69q1 49 -36.5 78.5t-95.5 29.5 q-61 0 -101 -32t-40 -86q0 -66 83 -114q-39 -17 -67.5 -50.5t-28.5 -78.5zM321 242q0 61 68 105q27 -15 39.5 -22.5t31 -22t26 -29.5t7.5 -33q0 -35 -24.5 -55t-62.5 -20q-41 0 -63 21.5t-22 55.5zM334 488q0 27 20.5 43t53.5 16q35 0 53.5 -17t17.5 -45q-1 -47 -60 -90 q-42 23 -63.5 43t-21.5 50z" />
<glyph unicode="&#x277e;" horiz-adv-x="815" d="M50 354q0 150 104 256t253 106q152 0 255 -104.5t103 -257.5q0 -152 -103 -257.5t-255 -105.5q-151 0 -254 105.5t-103 257.5zM265 446q0 -66 40.5 -102.5t113.5 -36.5q32 0 76 11q-18 -81 -71.5 -115t-133.5 -43l11 -48q267 24 267 288q0 199 -153 199q-73 0 -111.5 -43 t-38.5 -110zM330 453q0 46 20.5 72t60.5 26q91 0 91 -160q0 -15 -1 -23q-33 -11 -70 -11q-49 0 -75 26.5t-26 69.5z" />
<glyph unicode="&#x277f;" horiz-adv-x="815" d="M50 354q0 150 104 256t253 106q152 0 255 -104.5t103 -257.5q0 -152 -103 -257.5t-255 -105.5q-151 0 -254 105.5t-103 257.5zM156 557l4 -40l72 8v-404h65v471h-10zM339 337q0 -105 43 -166t109 -61q70 0 116.5 63.5t46.5 192.5q0 106 -43 171.5t-109 65.5 q-75 0 -119 -66.5t-44 -199.5zM419 371q0 170 75 170q42 0 61 -59.5t19 -149.5q0 -160 -77 -160q-78 0 -78 199z" />
<glyph unicode="&#x2780;" horiz-adv-x="815" d="M50 354q0 152 103 257.5t255 105.5q151 0 254 -105.5t103 -257.5q0 -150 -104 -256t-253 -106q-152 0 -255 104.5t-103 257.5zM83 354q0 -138 93.5 -233t231.5 -95q135 0 229 96t94 232q0 138 -93 233.5t-230 95.5t-231 -95.5t-94 -233.5zM280 555l164 37h10v-471h-65 v404l-105 -10z" />
<glyph unicode="&#x2781;" horiz-adv-x="815" d="M50 354q0 152 103 257.5t255 105.5q151 0 254 -105.5t103 -257.5q0 -150 -104 -256t-253 -106q-152 0 -255 104.5t-103 257.5zM83 354q0 -138 93.5 -233t231.5 -95q135 0 229 96t94 232q0 138 -93 233.5t-230 95.5t-231 -95.5t-94 -233.5zM275 121v33q193 184 193 308 q0 75 -77 75q-23 0 -48.5 -5.5t-38.5 -11.5l-14 -6v54q44 23 111 23q61 0 96.5 -31t35.5 -95q0 -128 -181 -295l201 5l-6 -54h-272z" />
<glyph unicode="&#x2782;" horiz-adv-x="815" d="M50 354q0 152 103 257.5t255 105.5q151 0 254 -105.5t103 -257.5q0 -150 -104 -256t-253 -106q-152 0 -255 104.5t-103 257.5zM83 354q0 -138 93.5 -233t231.5 -95q135 0 229 96t94 232q0 138 -93 233.5t-230 95.5t-231 -95.5t-94 -233.5zM272 132l14 53q48 -18 104 -18 q46 0 72 22t26 60q0 39 -34 65t-107 27l6 49q117 6 117 86q0 28 -19.5 44.5t-55.5 16.5q-25 0 -51 -5.5t-39 -11.5l-13 -6v54q45 23 109 23q63 0 98 -28t35 -79q0 -40 -25 -70.5t-74 -42.5q54 -8 86.5 -40.5t32.5 -81.5q0 -59 -43 -98t-121 -39q-28 0 -57.5 5t-44.5 10z" />
<glyph unicode="&#x2783;" horiz-adv-x="815" d="M50 354q0 152 103 257.5t255 105.5q151 0 254 -105.5t103 -257.5q0 -150 -104 -256t-253 -106q-152 0 -255 104.5t-103 257.5zM83 354q0 -138 93.5 -233t231.5 -95q135 0 229 96t94 232q0 138 -93 233.5t-230 95.5t-231 -95.5t-94 -233.5zM219 279l219 321l53 -11v-291 l74 1l-5 -50h-69v-68l3 -60h-64v128h-193zM288 294l142 3v163l4 61h-1q-11 -23 -33 -59z" />
<glyph unicode="&#x2784;" horiz-adv-x="815" d="M50 354q0 152 103 257.5t255 105.5q151 0 254 -105.5t103 -257.5q0 -150 -104 -256t-253 -106q-152 0 -255 104.5t-103 257.5zM83 354q0 -138 93.5 -233t231.5 -95q135 0 229 96t94 232q0 138 -93 233.5t-230 95.5t-231 -95.5t-94 -233.5zM267 134l14 53q65 -18 105 -18 q49 0 73.5 24t24.5 66q0 94 -187 111l12 221h230l-3 -60l-180 5l-6 -113q201 -26 201 -164q0 -63 -42 -104t-120 -41q-66 0 -122 20z" />
<glyph unicode="&#x2785;" horiz-adv-x="815" d="M50 354q0 152 103 257.5t255 105.5q151 0 254 -105.5t103 -257.5q0 -150 -104 -256t-253 -106q-152 0 -255 104.5t-103 257.5zM83 354q0 -138 93.5 -233t231.5 -95q135 0 229 96t94 232q0 138 -93 233.5t-230 95.5t-231 -95.5t-94 -233.5zM247 324q0 246 266 277l6 -51 q-177 -24 -201 -169q40 26 91 26q68 0 104.5 -36t36.5 -102q0 -67 -39 -112t-113 -45q-68 0 -107 52q-44 58 -44 160zM314 325q0 -163 93 -163q78 0 78 99q0 93 -90 93q-46 0 -81 -29z" />
<glyph unicode="&#x2786;" horiz-adv-x="815" d="M50 354q0 152 103 257.5t255 105.5q151 0 254 -105.5t103 -257.5q0 -150 -104 -256t-253 -106q-152 0 -255 104.5t-103 257.5zM83 354q0 -138 93.5 -233t231.5 -95q135 0 229 96t94 232q0 138 -93 233.5t-230 95.5t-231 -95.5t-94 -233.5zM272 530l6 61h282v-12 q-90 -194 -179 -477l-69 20q61 166 182 415z" />
<glyph unicode="&#x2787;" horiz-adv-x="815" d="M50 354q0 152 103 257.5t255 105.5q151 0 254 -105.5t103 -257.5q0 -150 -104 -256t-253 -106q-152 0 -255 104.5t-103 257.5zM83 354q0 -138 93.5 -233t231.5 -95q135 0 229 96t94 232q0 138 -93 233.5t-230 95.5t-231 -95.5t-94 -233.5zM257 238q0 45 28.5 78.5 t67.5 50.5q-83 48 -83 114q0 54 40 86t101 32q58 0 95.5 -29.5t36.5 -78.5q-1 -40 -27 -69t-61 -46q47 -26 74 -55t27 -75q0 -58 -44 -95t-104 -37q-68 0 -109.5 32.5t-41.5 91.5zM321 242q0 -34 22 -55.5t63 -21.5q38 0 62.5 20t24.5 55q0 18 -7.5 33t-26 29.5t-31 22 t-39.5 22.5q-68 -44 -68 -105zM334 488q0 -30 21.5 -50t63.5 -43q59 43 60 90q1 28 -17.5 45t-53.5 17q-33 0 -53.5 -16t-20.5 -43z" />
<glyph unicode="&#x2788;" horiz-adv-x="815" d="M50 354q0 152 103 257.5t255 105.5q151 0 254 -105.5t103 -257.5q0 -150 -104 -256t-253 -106q-152 0 -255 104.5t-103 257.5zM83 354q0 -138 93.5 -233t231.5 -95q135 0 229 96t94 232q0 138 -93 233.5t-230 95.5t-231 -95.5t-94 -233.5zM265 446q0 67 38.5 110 t111.5 43q153 0 153 -199q0 -264 -267 -288l-11 48q80 9 133.5 43t71.5 115q-44 -11 -76 -11q-73 0 -113.5 36.5t-40.5 102.5zM330 453q0 -43 26 -69.5t75 -26.5q37 0 70 11q1 8 1 23q0 160 -91 160q-40 0 -60.5 -26t-20.5 -72z" />
<glyph unicode="&#x2789;" horiz-adv-x="815" d="M50 354q0 152 103 257.5t255 105.5q151 0 254 -105.5t103 -257.5q0 -150 -104 -256t-253 -106q-152 0 -255 104.5t-103 257.5zM83 354q0 -138 93.5 -233t231.5 -95q135 0 229 96t94 232q0 138 -93 233.5t-230 95.5t-231 -95.5t-94 -233.5zM156 557l131 35h10v-471h-65 v404l-72 -8zM339 337q0 133 44 199.5t119 66.5q66 0 109 -65.5t43 -171.5q0 -129 -46.5 -192.5t-116.5 -63.5q-66 0 -109 61t-43 166zM419 371q0 -199 78 -199q77 0 77 160q0 90 -19 149.5t-61 59.5q-75 0 -75 -170z" />
<glyph unicode="&#x278a;" horiz-adv-x="815" d="M56 29v642l30 29h643l29 -29v-643l-29 -28h-643zM280 555l4 -40l105 10v-404h65v471h-10z" />
<glyph unicode="&#x278b;" horiz-adv-x="815" d="M56 29v642l30 29h643l29 -29v-643l-29 -28h-643zM275 121h272l6 54l-201 -5q181 167 181 295q0 64 -35.5 95t-96.5 31q-30 0 -57.5 -5.5t-40.5 -11.5l-13 -6v-54q49 23 101 23q77 0 77 -75q0 -124 -193 -308v-33z" />
<glyph unicode="&#x278c;" horiz-adv-x="815" d="M56 29v642l30 29h643l29 -29v-643l-29 -28h-643zM272 132q54 -20 118 -20q78 0 121 39t43 98q0 49 -32.5 81.5t-86.5 40.5q49 12 74 42.5t25 70.5q0 51 -35 79t-98 28q-28 0 -55.5 -5.5t-40.5 -11.5l-13 -6v-54q46 23 103 23q36 0 55.5 -16.5t19.5 -44.5q0 -80 -117 -86 l-6 -49q73 -1 107 -27t34 -65q0 -38 -26 -60t-72 -22q-25 0 -51 4.5t-39 8.5l-14 5z" />
<glyph unicode="&#x278d;" horiz-adv-x="815" d="M56 29v642l30 29h643l29 -29v-643l-29 -28h-643zM219 279l18 -30h193v-128h64q-3 30 -3 60v68h69l5 50l-74 -1v291l-53 11zM288 294l112 168l33 59h1q-4 -32 -4 -61v-163z" />
<glyph unicode="&#x278e;" horiz-adv-x="815" d="M56 29v642l30 29h643l29 -29v-643l-29 -28h-643zM267 134q56 -20 122 -20q78 0 120 41t42 104q0 138 -201 164l6 113l180 -5l3 60h-230l-12 -221q187 -17 187 -111q0 -42 -24.5 -66t-73.5 -24q-40 0 -105 18z" />
<glyph unicode="&#x278f;" horiz-adv-x="815" d="M56 29v642l30 29h643l29 -29v-643l-29 -28h-643zM247 324q0 -102 44 -160q39 -52 107 -52q74 0 113 45t39 112q0 66 -36.5 102t-104.5 36q-51 0 -91 -26q24 145 201 169l-6 51q-266 -31 -266 -277zM314 325q35 29 81 29q90 0 90 -93q0 -99 -78 -99q-93 0 -93 163z" />
<glyph unicode="&#x2790;" horiz-adv-x="815" d="M56 29v642l30 29h643l29 -29v-643l-29 -28h-643zM272 530l222 7q-121 -249 -182 -415l69 -20q89 283 179 477v12h-282z" />
<glyph unicode="&#x2791;" horiz-adv-x="815" d="M56 29v642l30 29h643l29 -29v-643l-29 -28h-643zM257 238q0 -59 41.5 -91.5t109.5 -32.5q60 0 104 37t44 95q0 46 -27 75t-74 55q35 17 61 46t27 69q1 49 -36.5 78.5t-95.5 29.5q-61 0 -101 -32t-40 -86q0 -66 83 -114q-39 -17 -67.5 -50.5t-28.5 -78.5zM321 242 q0 61 68 105q27 -15 39.5 -22.5t31 -22t26 -29.5t7.5 -33q0 -35 -24.5 -55t-62.5 -20q-41 0 -63 21.5t-22 55.5zM334 488q0 27 20.5 43t53.5 16q35 0 53.5 -17t17.5 -45q-1 -47 -60 -90q-42 23 -63.5 43t-21.5 50z" />
<glyph unicode="&#x2792;" horiz-adv-x="815" d="M56 29v642l30 29h643l29 -29v-643l-29 -28h-643zM265 446q0 -66 40.5 -102.5t113.5 -36.5q32 0 76 11q-18 -81 -71.5 -115t-133.5 -43l11 -48q267 24 267 288q0 199 -153 199q-73 0 -111.5 -43t-38.5 -110zM330 453q0 46 20.5 72t60.5 26q91 0 91 -160q0 -15 -1 -23 q-33 -11 -70 -11q-49 0 -75 26.5t-26 69.5z" />
<glyph unicode="&#x2793;" horiz-adv-x="815" d="M56 29v642l30 29h643l29 -29v-643l-29 -28h-643zM156 557l4 -40l72 8v-404h65v471h-10zM339 337q0 -105 43 -166t109 -61q70 0 116.5 63.5t46.5 192.5q0 106 -43 171.5t-109 65.5q-75 0 -119 -66.5t-44 -199.5zM419 371q0 170 75 170q42 0 61 -59.5t19 -149.5 q0 -160 -77 -160q-78 0 -78 199z" />
<glyph unicode="&#x2794;" horiz-adv-x="767" d="M61 206v74h545l-4 3q-43 39 -85 88.5t-55 76.5h90q50 -76 123 -142l50 -46v-29l-50 -46q-72 -67 -123 -142h-90q12 26 54.5 74.5t86.5 88.5h-542z" />
<glyph unicode="&#x2799;" horiz-adv-x="757" d="M55 206v74h434v202h37q49 -90 143 -176l50 -46v-29l-50 -46q-94 -86 -143 -176h-37v197h-434z" />
<glyph unicode="&#x279b;" horiz-adv-x="752" d="M51 211v69l475 1q-75 20 -140 70t-87 97l70 46q26 -47 137.5 -125t208.5 -109v-29q-97 -31 -208.5 -109t-137.5 -125l-70 46q22 47 87 97t140 70z" />
<glyph unicode="&#x27b3;" horiz-adv-x="1152" d="M60 433l65 34q46 -79 134 -161l50 -46v-29l-50 -46q-84 -77 -133 -159l-65 35q48 86 115 147l42 37l-42 38q-66 60 -116 150zM262 43q15 33 50 81.5t74 83.5l42 37l-42 38q-39 35 -74 83.5t-50 81.5l64 34q49 -90 143 -176l29 -26h289v153h10q21 -7 56 -21t120 -61.5 t142 -100.5v-9q-57 -52 -136.5 -97t-130.5 -64l-51 -19h-10v145h-295l-23 -21q-94 -86 -143 -176z" />
<glyph unicode="&#x27b4;" horiz-adv-x="950" d="M40 487q93 28 185 22l56 -3l-3 56q-4 87 24 189l70 -22q-23 -93 -19 -209l3 -68l-20 -20l-68 3q-115 4 -207 -19zM169 332q35 13 93.5 22.5t111.5 6.5l56 -4l-3 57q-3 52 6.5 110.5t22.5 93.5l69 -21q-29 -102 -23 -225l2 -39l204 -205l108 109l7 -8q10 -20 25 -54.5 t41.5 -128t29.5 -171.5l-6 -6q-77 3 -165.5 27.5t-137.5 47.5l-50 22l-7 7l103 103l-209 209l-31 1q-125 6 -225 -23z" />
<glyph unicode="&#x27b5;" horiz-adv-x="1152" d="M37 241v9q57 53 136.5 98.5t130.5 65.5l51 19h10v-153h289l29 26q94 86 143 176l64 -34q-15 -33 -50 -81.5t-74 -83.5l-42 -38l42 -37q39 -35 74 -83.5t50 -81.5l-64 -34q-49 90 -143 176l-23 21h-295v-145h-10q-8 3 -21.5 7.5t-53 21.5t-76.5 36.5t-84 50.5t-83 64z M843 231v29l50 46q88 82 134 161l65 -34q-50 -90 -116 -150l-42 -38l42 -37q67 -61 115 -147l-65 -35q-49 82 -133 159z" />
<glyph unicode="&#x27b6;" horiz-adv-x="951" d="M34 133l21 71q92 -23 207 -19l68 3l20 -20l-3 -68q-4 -116 19 -209l-70 -22q-28 102 -24 189l3 56l-56 -3q-92 -6 -185 22zM163 288l22 69q100 -29 225 -23l31 1l209 209l-103 103l7 7q20 10 54.5 25t128 42t170.5 30l6 -6q-3 -78 -27 -166.5t-46 -138.5l-23 -49l-7 -8 l-108 109l-204 -205l-2 -39q-6 -123 23 -225l-69 -21q-13 35 -22.5 93.5t-6.5 110.5l3 57l-56 -4q-53 -3 -111.5 6.5t-93.5 22.5z" />
<glyph unicode="&#x27bb;" horiz-adv-x="841" d="M66 138v216q11 -2 75 -18t111.5 -26t120.5 -20t133 -10h168l-4 3q-39 35 -74 83.5t-50 81.5l64 34q49 -90 143 -176l50 -46v-29l-50 -46q-94 -86 -143 -176l-64 34q15 33 49.5 80.5t72.5 82.5h-163q-112 0 -233.5 -21.5t-205.5 -46.5z" />
<glyph unicode="&#x27bc;" horiz-adv-x="868" d="M56 139q6 2 16 7.5t23.5 16.5t23 29.5t9.5 40.5v24q0 31 -16.5 54.5t-29.5 31t-21 9.5h40h47.5t44.5 0.5t35 0.5h13q57 0 105.5 -20.5t64.5 -52.5h290l-4 3q-39 35 -74 83.5t-50 81.5l64 34q49 -90 143 -176l50 -46v-29l-50 -46q-94 -86 -143 -176l-64 34 q15 33 49.5 80.5t72.5 82.5h-284q-15 -29 -61.5 -48t-101.5 -19h-192z" />
<glyph unicode="&#x27bd;" horiz-adv-x="873" d="M61 139l72 84v44l-72 85l301 1l54 -73h290l-4 3q-39 35 -74 83.5t-50 81.5l64 34q49 -90 143 -176l50 -46v-29l-50 -46q-94 -86 -143 -176l-64 34q15 33 49.5 80.5t72.5 82.5h-284l-54 -67h-301z" />
<glyph unicode="&#x27be;" horiz-adv-x="758" d="M55 190v105h477q-63 69 -99 145l94 48q51 -92 139 -174l53 -48v-43l-53 -48q-87 -80 -139 -173l-94 48q13 28 40.5 69t54.5 71h-473zM74 208h499q-36 -32 -68 -76t-47 -74l60 -31q47 82 135 162l47 42v27l-47 43q-90 81 -135 162l-60 -31q14 -31 47 -76t70 -77l4 -2h-505 v-69z" />
<glyph unicode="&#xe000;" d="M0 0v500h500v-500h-500z" />
<glyph unicode="&#xf6c3;" horiz-adv-x="170" d="M17 -288q37 22 63.5 56.5t30.5 70.5q-34 -8 -54.5 10t-20.5 46q0 27 18 43.5t46 16.5t46.5 -18.5t18.5 -53.5q0 -59 -36.5 -112t-93.5 -83z" />
<glyph unicode="&#xfffd;" horiz-adv-x="1022" d="M30 267l481 482l481 -482l-481 -480zM381 442q46 38 115 38q41 0 64 -16.5t23 -44.5q0 -30 -23 -57.5t-50 -46t-50 -48t-23 -63.5q0 -31 22 -51.5t52 -20.5q35 0 71 30l-33 42q-11 -9 -21 -9q-7 0 -12 6.5t-5 13.5q0 14 15.5 30.5t37.5 33t44.5 36t38 48t15.5 60.5 q0 49 -37.5 84t-117.5 35q-38 0 -69.5 -9.5t-43.5 -18.5l-13 -10v-62zM450 15q0 -22 14 -36t37 -14q25 0 40 14t15 38q0 22 -13.5 34.5t-36.5 12.5q-25 0 -40.5 -13t-15.5 -36z" />
<glyph horiz-adv-x="754" d="M47 0v31l80 13v513l-80 13v31h253v-31l-80 -13v-231h314v231l-80 13v31h253v-31l-80 -13v-513l80 -13v-31h-253v31l80 13v232h-314v-232l80 -13v-31h-253z" />
<glyph horiz-adv-x="347" d="M47 0v31l80 13v513l-80 13v31h253v-31l-80 -13v-513l80 -13v-31h-253z" />
<glyph horiz-adv-x="337" d="M35 -194l42 58q27 37 35 72t8 94v527l-80 13v31h258v-31l-80 -13v-475q0 -72 -17 -118q-12 -31 -33.5 -63.5t-37 -50t-50.5 -55.5q-8 -9 -12 -13z" />
<glyph horiz-adv-x="561" d="M47 0v31l80 13v513l-80 13v31h263v-31l-90 -13v-507l248 4l27 116h37l-4 -170h-481z" />
<glyph horiz-adv-x="690" d="M54 295q0 60 17.5 114.5t52.5 100.5t94.5 73t136.5 27q128 0 205 -86t77 -223q0 -60 -17.5 -114.5t-52.5 -100.5t-95 -73t-137 -27q-128 0 -204.5 86t-76.5 223zM155 323q0 -118 53 -203.5t150 -85.5q87 0 132 72t45 167q0 76 -21 139.5t-68.5 106.5t-114.5 43 q-86 0 -131 -72.5t-45 -166.5z" />
<glyph horiz-adv-x="585" d="M47 0v31l80 13v513l-80 13v31h472l-7 -174h-37l-19 118l-236 6v-231l224 6v-61l-224 5v-220l248 4l27 116h37l-4 -170h-481z" />
<glyph horiz-adv-x="552" d="M47 0v31l80 13v513l-80 13v31h472l-7 -174h-37l-19 118l-236 6v-241l224 6v-61l-224 5v-216l100 -13v-31h-273z" />
<glyph horiz-adv-x="622" d="M33 601h561l-11 -184h-37l-17 127l-171 9v-509l80 -13v-31h-253v31l80 13v509l-167 -9l-27 -127h-37z" />
<glyph horiz-adv-x="699" d="M47 0v31l80 13v513l-80 13v31h252q164 0 255.5 -73t91.5 -211q0 -143 -93.5 -230t-245.5 -87h-260zM225 50h62q121 0 190 69t69 178q0 115 -67 184.5t-192 69.5h-62v-501z" />
<glyph horiz-adv-x="618" d="M53 284q0 49 10.5 94.5t35.5 88t61.5 73.5t92.5 50t125 19q49 0 92 -10t62 -20l19 -10l-1 -160h-39l-27 129q-42 20 -99 20q-107 0 -171 -73t-64 -173q0 -121 62.5 -197t168.5 -76q66 0 113 17l27 127h38l-6 -157q-8 -4 -23 -11t-64.5 -18t-102.5 -11q-63 0 -117.5 18.5 t-98 54t-69 93.5t-25.5 132z" />
<glyph horiz-adv-x="722" d="M43 0v31l80 13v476l-44 53v28h102l364 -459v415l-80 13v31h218v-31l-80 -13v-557l-42 -16l-380 472v-412l80 -13v-31h-218z" />
<glyph horiz-adv-x="718" d="M25 570v31h258v-31l-80 -13v-284q0 -232 166 -232q83 0 125.5 57t42.5 163v296l-80 13v31h235v-31l-80 -13v-274q0 -293 -252 -293q-120 0 -187.5 73.5t-67.5 202.5v291z" />
<glyph horiz-adv-x="690" d="M54 295q0 60 17.5 114.5t52.5 100.5t94.5 73t136.5 27q128 0 205 -86t77 -223q0 -88 -37 -163.5t-111 -115.5q31 -21 51 -45l102 -119q16 -19 26.5 -25t30.5 -8v-31h-52q-45 0 -63 9t-46 44l-121 148q-37 -9 -82 -9q-128 0 -204.5 86t-76.5 223zM155 323 q0 -118 53 -203.5t150 -85.5q87 0 132 72t45 167q0 76 -21 139.5t-68.5 106.5t-114.5 43q-86 0 -131 -72.5t-45 -166.5z" />
<glyph horiz-adv-x="580" d="M47 0v31l80 13v513l-80 13v31h265q105 0 168 -49t63 -140q0 -88 -59 -142.5t-172 -54.5h-92v-171l80 -13v-31h-253zM220 265h80q68 0 106.5 40.5t38.5 101.5q0 62 -39 103t-107 41h-79v-286z" />
<glyph horiz-adv-x="553" d="M43 0v15l339 536l-262 -4l-24 -116h-37l4 170h439v-15l-339 -536l278 4l22 111h37l-4 -165h-453z" />
<glyph horiz-adv-x="670" d="M-1 570v31h250v-31l-73 -22l135 -351q11 -28 21 -57.5t14 -44.5l4 -15h4q18 53 40 115l128 354l-81 21v31h230v-31l-75 -21l-220 -549l-78 -6l-224 554z" />
<glyph horiz-adv-x="647" d="M-2 0v31l75 13l208 557l77 6l223 -566l65 -10v-31h-238v31l76 9l-51 133h-256l-14 -41l-26 -89l77 -12v-31h-216zM195 223h219l-70 186l-42 121h-4q-15 -57 -37 -119z" />
<glyph horiz-adv-x="678" d="M52 284q0 49 11.5 94.5t38 88t65 73.5t97 50t130.5 19q49 0 92 -10t62 -20l19 -10l-1 -160h-39l-27 129q-42 20 -99 20q-116 0 -184 -74.5t-68 -180.5q0 -120 74 -192.5t186 -72.5q36 0 74 5v182l-100 14v31h268v-31l-80 -14v-207q-63 -32 -183 -32q-91 0 -165.5 31 t-122.5 100t-48 167z" />
<glyph horiz-adv-x="629" d="M47 0v31l80 13v513l-80 13v31h275q107 0 169 -44.5t62 -134.5q0 -136 -130 -174l116 -182q18 -27 27.5 -34t34.5 -10v-22q-31 -11 -73 -11q-33 0 -51 14t-39 52l-101 180h-117v-191l80 -13v-31h-253zM220 285h90q69 0 107 36t38 96t-38.5 97t-107.5 37h-89v-266z" />
<glyph horiz-adv-x="533" d="M58 183h38l27 -126q54 -19 120 -19q61 0 103 28t42 77q0 41 -33.5 68t-80.5 43t-94.5 35t-81 57t-33.5 94q0 72 58 120.5t169 48.5q49 0 91.5 -10t60.5 -20l18 -10l-1 -160h-39l-27 129q-45 21 -110 21q-61 0 -96 -27t-35 -66q0 -44 33.5 -73t80.5 -45.5t94.5 -34.5 t81 -54.5t33.5 -91.5q0 -81 -63.5 -131t-170.5 -50q-48 0 -93 10t-66 20l-20 10z" />
<glyph horiz-adv-x="904" d="M46 0v31l78 19l6 506l-79 14v31h169l199 -372l32 -67h3q13 34 31 68l193 371h172v-31l-79 -13l14 -513l80 -13v-31h-254v31l80 13l-12 377l3 63l-5 1q-9 -28 -25 -58l-209 -393h-14l-213 388l-29 60l-5 -2l3 -67l-3 -363l82 -19v-31h-218z" />
<glyph horiz-adv-x="610" d="M47 0v31l80 13v513l-80 13v31h274q102 0 159.5 -39t57.5 -115q0 -49 -30.5 -84.5t-83.5 -51.5v-4q61 -12 97.5 -48t36.5 -90q0 -81 -61 -125t-161 -44h-289zM220 50h123q51 0 84 32.5t33 86.5q0 53 -33.5 82.5t-89.5 29.5h-117v-231zM220 331h160q2 1 6.5 3.5t14.5 11.5 t18 20.5t14.5 31t6.5 42.5q0 53 -35 82t-102 29h-83v-220z" />
<glyph horiz-adv-x="660" d="M47 0v31l80 13v513l-80 13v31h249v-31l-76 -13v-234h88l158 231l-59 16v31h224v-31l-79 -16l-185 -229l213 -254q20 -23 30.5 -29t41.5 -11v-31h-80q-41 0 -55 8t-42 43l-182 222h-73v-229l80 -13v-31h-253z" />
<glyph horiz-adv-x="939" d="M1 570v31h245v-31l-70 -24l104 -366l25 -100h3q8 55 21 100l115 421l65 4l129 -425l24 -100h3q11 55 23 98l101 368l-77 24v31h226v-31l-76 -23l-174 -547l-85 -6l-124 402l-16 74h-3q-6 -42 -14 -74l-108 -396l-88 -6l-169 552z" />
<glyph horiz-adv-x="666" d="M16 570v31h263v-31l-82 -22l149 -196l143 196l-82 22v31h228v-31l-63 -23l-195 -236l213 -258l69 -22v-31h-263v31l83 22l-163 203l-151 -201l83 -24v-31h-228v31l65 25l198 240l-197 250z" />
<glyph horiz-adv-x="618" d="M-2 570v31h253v-31l-79 -19l112 -202l41 -79h4q16 38 39 79l102 197l-81 24v31h228v-31l-71 -24l-191 -322v-180l80 -13v-31h-253v31l80 13v181l-192 325z" />
<glyph horiz-adv-x="647" d="M-2 0v31l75 13l208 557l77 6l223 -566l65 -10v-31h-238v31l76 9l-51 133h-256l-14 -41l-26 -89l77 -12v-31h-216zM195 223h219l-70 186l-42 121h-4q-15 -57 -37 -119z" />
<glyph horiz-adv-x="610" d="M47 0v31l80 13v513l-80 13v31h274q102 0 159.5 -39t57.5 -115q0 -49 -30.5 -84.5t-83.5 -51.5v-4q61 -12 97.5 -48t36.5 -90q0 -81 -61 -125t-161 -44h-289zM220 50h123q51 0 84 32.5t33 86.5q0 53 -33.5 82.5t-89.5 29.5h-117v-231zM220 331h160q2 1 6.5 3.5t14.5 11.5 t18 20.5t14.5 31t6.5 42.5q0 53 -35 82t-102 29h-83v-220z" />
<glyph horiz-adv-x="585" d="M47 0v31l80 13v513l-80 13v31h472l-7 -174h-37l-19 118l-236 6v-231l224 6v-61l-224 5v-220l248 4l27 116h37l-4 -170h-481z" />
<glyph horiz-adv-x="585" d="M47 0v31l80 13v513l-80 13v31h472l-7 -174h-37l-19 118l-236 6v-231l224 6v-61l-224 5v-220l248 4l27 116h37l-4 -170h-481zM155 730q0 24 16 40t41 16q26 0 40.5 -15t14.5 -39q0 -25 -16 -42t-42 -17q-23 0 -38.5 17t-15.5 40zM354 730q0 24 16 40t41 16q26 0 40.5 -15 t14.5 -39q0 -25 -16 -42t-42 -17q-23 0 -38.5 17t-15.5 40z" />
<glyph horiz-adv-x="660" d="M47 0v31l80 13v513l-80 13v31h249v-31l-76 -13v-234h88l158 231l-59 16v31h224v-31l-79 -16l-185 -229l213 -254q20 -23 30.5 -29t41.5 -11v-31h-80q-41 0 -55 8t-42 43l-182 222h-73v-229l80 -13v-31h-253z" />
<glyph horiz-adv-x="904" d="M46 0v31l78 19l6 506l-79 14v31h169l199 -372l32 -67h3q13 34 31 68l193 371h172v-31l-79 -13l14 -513l80 -13v-31h-254v31l80 13l-12 377l3 63l-5 1q-9 -28 -25 -58l-209 -393h-14l-213 388l-29 60l-5 -2l3 -67l-3 -363l82 -19v-31h-218z" />
<glyph horiz-adv-x="754" d="M47 0v31l80 13v513l-80 13v31h253v-31l-80 -13v-231h314v231l-80 13v31h253v-31l-80 -13v-513l80 -13v-31h-253v31l80 13v232h-314v-232l80 -13v-31h-253z" />
<glyph horiz-adv-x="690" d="M54 295q0 60 17.5 114.5t52.5 100.5t94.5 73t136.5 27q128 0 205 -86t77 -223q0 -60 -17.5 -114.5t-52.5 -100.5t-95 -73t-137 -27q-128 0 -204.5 86t-76.5 223zM155 323q0 -118 53 -203.5t150 -85.5q87 0 132 72t45 167q0 76 -21 139.5t-68.5 106.5t-114.5 43 q-86 0 -131 -72.5t-45 -166.5z" />
<glyph horiz-adv-x="744" d="M47 0v31l80 13v513l-80 13v31h650v-31l-80 -13v-513l80 -13v-31h-253v31l80 13v507h-304v-507l80 -13v-31h-253z" />
<glyph horiz-adv-x="580" d="M47 0v31l80 13v513l-80 13v31h265q105 0 168 -49t63 -140q0 -88 -59 -142.5t-172 -54.5h-92v-171l80 -13v-31h-253zM220 265h80q68 0 106.5 40.5t38.5 101.5q0 62 -39 103t-107 41h-79v-286z" />
<glyph horiz-adv-x="618" d="M53 284q0 49 10.5 94.5t35.5 88t61.5 73.5t92.5 50t125 19q49 0 92 -10t62 -20l19 -10l-1 -160h-39l-27 129q-42 20 -99 20q-107 0 -171 -73t-64 -173q0 -121 62.5 -197t168.5 -76q66 0 113 17l27 127h38l-6 -157q-8 -4 -23 -11t-64.5 -18t-102.5 -11q-63 0 -117.5 18.5 t-98 54t-69 93.5t-25.5 132z" />
<glyph horiz-adv-x="622" d="M33 601h561l-11 -184h-37l-17 127l-171 9v-509l80 -13v-31h-253v31l80 13v509l-167 -9l-27 -127h-37z" />
<glyph horiz-adv-x="666" d="M16 570v31h263v-31l-82 -22l149 -196l143 196l-82 22v31h228v-31l-63 -23l-195 -236l213 -258l69 -22v-31h-263v31l83 22l-163 203l-151 -201l83 -24v-31h-228v31l65 25l198 240l-197 250z" />
<glyph horiz-adv-x="546" d="M47 0v31l80 13v513l-80 13v31h472l-7 -174h-37l-19 118l-236 6v-507l100 -13v-31h-273z" />
<glyph horiz-adv-x="744" d="M45 0v21l80 23v513l-80 23v21h253v-21l-80 -23v-507h304v507l-80 23v21h253v-21l-80 -23v-507h94l-6 -224h-41l-27 174h-590z" />
<glyph horiz-adv-x="993" d="M47 0v31l80 13v513l-80 13v31h253v-31l-80 -13v-507h230v507l-70 13v31h233v-31l-70 -13v-507h230v507l-80 13v31h253v-31l-80 -13v-513l80 -13v-31h-899z" />
<glyph horiz-adv-x="996" d="M47 0v31l80 13v513l-80 13v31h253v-31l-80 -13v-507h230v507l-70 13v31h233v-31l-70 -13v-507h230v507l-80 13v31h253v-31l-80 -13v-507h94l-6 -224h-41l-27 174h-839z" />
<glyph horiz-adv-x="605" d="M47 0v31l80 13v513l-80 13v31h472l-7 -174h-37l-19 118l-236 6v-195h124q99 0 155 -45t56 -124q0 -93 -63 -140t-170 -47h-275zM220 50h107q57 0 92.5 35t35.5 94q0 58 -35 92.5t-95 34.5h-105v-256z" />
<glyph horiz-adv-x="680" d="M12 0v82q88 -16 126 89q59 165 69 386l-80 13v31h506v-31l-80 -13v-513l80 -13v-31h-258v31l80 13v503h-190q-11 -149 -28 -252.5t-50 -191.5q-29 -77 -77 -100t-98 -3z" />
<glyph horiz-adv-x="675" d="M0 -174l4 224h59q128 131 128 507l-80 13v31h514v-31l-80 -13v-507h94l-6 -224h-41l-27 174h-487l-37 -174h-41zM137 50h315v501h-198q-6 -190 -32.5 -312.5t-84.5 -188.5z" />
<glyph horiz-adv-x="973" d="M8 0v31q32 5 42.5 11t29.5 29l212 254l-184 229l-79 16v31h224v-31l-59 -16l158 -231h88v234l-75 13v31h243v-31l-75 -13v-234h88l158 231l-59 16v31h224v-31l-79 -16l-185 -229l213 -254q20 -23 30.5 -29t41.5 -11v-31h-80q-36 0 -52.5 9t-43.5 42l-182 222h-74v-229 l80 -13v-31h-253v31l80 13v229h-76l-182 -222q-27 -33 -43 -42t-51 -9h-80z" />
<glyph horiz-adv-x="760" d="M47 0v31l80 13v513l-80 13v31h253v-31l-80 -13v-377l-5 -90h4q17 37 44 79l277 432h173v-31l-80 -13v-513l80 -13v-31h-253v31l80 13v393l4 75h-3q-14 -30 -39 -70l-282 -442h-173z" />
<glyph horiz-adv-x="760" d="M47 0v31l80 13v513l-80 13v31h253v-31l-80 -13v-377l-5 -90h4q17 37 44 79l277 432h173v-31l-80 -13v-513l80 -13v-31h-253v31l80 13v393l4 75h-3q-14 -30 -39 -70l-282 -442h-173zM210 744l54 61q8 -7 34.5 -36.5t47.5 -42.5t48 -13t48 13t47.5 42.5t34.5 36.5l54 -61 q-28 -27 -77 -48.5t-107 -21.5q-112 0 -184 70z" />
<glyph horiz-adv-x="523" d="M53 183h38l27 -127q40 -17 98 -17q74 0 113.5 37.5t39.5 93.5q0 114 -146 114h-51v50h53q66 0 100.5 30t34.5 83q0 48 -34 79.5t-89 31.5q-57 0 -99 -20l-27 -129h-39l-1 160q7 4 20.5 11t58.5 18t94 11q104 0 160 -42t56 -109q0 -52 -40.5 -93t-101.5 -49v-5 q73 -8 112 -45t39 -96q0 -77 -64.5 -130.5t-171.5 -53.5q-53 0 -96.5 10t-60.5 20l-17 10z" />
<glyph horiz-adv-x="594" d="M1 580v21h234v-21l-74 -31l114 -263q12 -26 21.5 -52.5t13.5 -39.5l4 -13h6q17 51 36 99l105 269l-83 31v21h220v-21l-65 -31l-173 -400q-35 -80 -73 -119.5t-100 -39.5q-16 0 -31 3t-22 6l-7 3v65q22 -6 61 -6q55 0 86 39l-207 449z" />
<glyph horiz-adv-x="592" d="M47 0v31l80 13v513l-80 13v31h263v-31l-90 -13v-201h124q99 0 155 -45t56 -124q0 -93 -63 -140t-170 -47h-275zM220 50h107q57 0 92.5 35t35.5 94q0 58 -35 92.5t-95 34.5h-105v-256z" />
<glyph horiz-adv-x="906" d="M47 0v31l80 13v513l-80 13v31h263v-31l-90 -13v-201h124q99 0 155 -45t56 -124q0 -93 -63 -140t-170 -47h-275zM220 50h107q57 0 92.5 35t35.5 94q0 58 -35 92.5t-95 34.5h-105v-256zM606 0v31l80 13v513l-80 13v31h253v-31l-80 -13v-513l80 -13v-31h-253z" />
<glyph horiz-adv-x="712" d="M34 417l2 184h384v-21l-80 -23v-201h124q99 0 155 -45t56 -124q0 -93 -63 -140t-170 -47h-275v21l80 23v507l-154 -6l-22 -128h-37zM340 50h107q57 0 92.5 35t35.5 94q0 58 -35 92.5t-95 34.5h-105v-256z" />
<glyph horiz-adv-x="969" d="M47 0v31l80 13v513l-80 13v31h248v-31l-75 -13v-231h123q5 56 24 105.5t53 90.5t90 64.5t128 23.5q127 0 202 -86t75 -223q0 -60 -17 -114.5t-51 -100.5t-93 -73t-136 -27q-122 0 -196 80t-80 210h-122v-232l75 -13v-31h-248zM443 323q0 -76 20 -139.5t66 -106.5t112 -43 q45 0 79.5 21.5t54 57t29 76t9.5 84.5q0 120 -50.5 204.5t-148.5 84.5q-58 0 -98.5 -37.5t-56.5 -89.5t-16 -112z" />
<glyph horiz-adv-x="687" d="M10 570v31h253v-31l-80 -13v-129q0 -72 33.5 -111t113.5 -41q32 -1 66 3t52 8l19 4v266l-80 13v31h253v-31l-80 -13v-513l80 -13v-31h-263v31l90 13v198q-79 -22 -157 -22q-220 0 -220 191v146z" />
<glyph horiz-adv-x="605" d="M58 33l2 160h28l35 -136q39 -15 90 -15q102 0 166 56t73 169l-270 -7v73l271 -8q-5 104 -61 170.5t-139 66.5q-32 0 -62 -6t-44 -12l-14 -5l-40 -135h-29l-1 170l22 11t60.5 18t95.5 11q135 0 223.5 -79t88.5 -226q0 -61 -19 -117t-55 -103t-96.5 -75t-135.5 -28 q-58 0 -105 12t-66 24z" />
<glyph horiz-adv-x="628" d="M13 -1v20q26 7 39.5 17t30.5 33l132 173q-62 17 -98 61.5t-36 105.5q0 93 63 142t169 50h270l-1 -20l-80 -24v-514l81 -22v-21h-253v21l81 23l-1 188h-110l-113 -170q-30 -42 -52.5 -57t-62.5 -15q-15 0 -30 2t-22 4zM181 423q0 -64 36.5 -102.5t102.5 -38.5h90v269h-88 q-65 0 -103 -36t-38 -92z" />
<glyph horiz-adv-x="767" d="M34 312q0 105 82 162.5t221 57.5v54l-80 13v31h253v-31l-80 -13v-54q142 0 222.5 -54.5t80.5 -163.5q0 -105 -82 -162.5t-221 -57.5v-60l80 -13v-31h-253v31l80 13v60q-142 0 -222.5 54.5t-80.5 163.5zM127 312q0 -88 56 -130t154 -42v346q-95 0 -152.5 -44t-57.5 -130z M430 140q95 0 152.5 44t57.5 130q0 88 -56 130t-154 42v-346z" />
<glyph horiz-adv-x="534" d="M47 0v31l80 13v513l-80 13v31h398l38 139h33l-8 -204l-288 10v-502l100 -13v-31h-273z" />
<glyph horiz-adv-x="732" d="M33 601h561l-11 -184h-37l-17 127l-171 9v-209q56 32 147 32q182 0 182 -190q0 -152 -168 -232l-18 30q51 30 69.5 75t18.5 114q0 137 -127 137q-26 0 -52 -2t-39 -4l-13 -2v-258l80 -13v-31h-253v31l80 13v509l-167 -9l-27 -127h-37z" />
<glyph horiz-adv-x="546" d="M47 0v31l80 13v513l-80 13v31h472l-7 -174h-37l-19 118l-236 6v-507l100 -13v-31h-273zM260 695l149 177l62 -64l-183 -143z" />
<glyph horiz-adv-x="615" d="M53 284q0 49 10.5 94.5t35.5 88t61.5 73.5t92.5 50t125 19q49 0 92 -10t62 -20l19 -10l-1 -160h-39l-27 129q-42 20 -99 20q-104 0 -167.5 -69t-67.5 -166l302 10v-73l-300 10q11 -104 72 -167.5t157 -63.5q66 0 113 17l27 127h38l-6 -157q-8 -4 -23 -11t-64.5 -18 t-102.5 -11q-63 0 -117.5 18.5t-98 54t-69 93.5t-25.5 132z" />
<glyph horiz-adv-x="533" d="M58 183h38l27 -126q54 -19 120 -19q61 0 103 28t42 77q0 41 -33.5 68t-80.5 43t-94.5 35t-81 57t-33.5 94q0 72 58 120.5t169 48.5q49 0 91.5 -10t60.5 -20l18 -10l-1 -160h-39l-27 129q-45 21 -110 21q-61 0 -96 -27t-35 -66q0 -44 33.5 -73t80.5 -45.5t94.5 -34.5 t81 -54.5t33.5 -91.5q0 -81 -63.5 -131t-170.5 -50q-48 0 -93 10t-66 20l-20 10z" />
<glyph horiz-adv-x="347" d="M47 0v31l80 13v513l-80 13v31h253v-31l-80 -13v-513l80 -13v-31h-253z" />
<glyph horiz-adv-x="347" d="M17 762q0 24 16 40t41 16q26 0 40.5 -15t14.5 -39q0 -25 -16 -42t-42 -17q-23 0 -38.5 17t-15.5 40zM47 0v31l80 13v513l-80 13v31h253v-31l-80 -13v-513l80 -13v-31h-253zM216 762q0 24 16 40t41 16q26 0 40.5 -15t14.5 -39q0 -25 -16 -42t-42 -17q-23 0 -38.5 17 t-15.5 40z" />
<glyph horiz-adv-x="337" d="M35 -194l42 58q27 37 35 72t8 94v527l-80 13v31h258v-31l-80 -13v-475q0 -72 -17 -118q-12 -31 -33.5 -63.5t-37 -50t-50.5 -55.5q-8 -9 -12 -13z" />
<glyph horiz-adv-x="902" d="M14 0v82q43 -8 72.5 12.5t47.5 76.5q37 114 50 386l-80 13v31h506v-31l-80 -13v-201h124q99 0 155 -45t56 -124q0 -93 -63 -140t-170 -47h-275v31l80 13v503h-189q-12 -274 -55 -422q-14 -48 -36.5 -79.5t-46 -42.5t-49.5 -12.5t-47 9.5zM530 50h107q57 0 92.5 35 t35.5 94q0 58 -35 92.5t-95 34.5h-105v-256z" />
<glyph horiz-adv-x="977" d="M45 0v21l80 23v513l-80 23v21h253v-21l-80 -23v-231h294v231l-80 23v21h253v-21l-80 -23v-201h124q99 0 155 -45t56 -124q0 -93 -63 -140t-170 -47h-275v21l80 23v232h-294v-232l80 -23v-21h-253zM605 50h107q57 0 92.5 35t35.5 94q0 58 -35 92.5t-95 34.5h-105v-256z " />
<glyph horiz-adv-x="781" d="M33 601h561l-11 -184h-37l-17 127l-171 9v-236q7 5 20.5 12.5t55 20t81.5 12.5q84 0 131 -42.5t47 -117.5v-158l80 -13v-31h-253v31l80 13v133q0 119 -136 119q-26 0 -52.5 -4t-39.5 -8l-14 -3v-237l80 -13v-31h-253v31l80 13v509l-167 -9l-27 -127h-37z" />
<glyph horiz-adv-x="660" d="M47 0v31l80 13v513l-80 13v31h249v-31l-76 -13v-234h88l158 231l-59 16v31h224v-31l-79 -16l-185 -229l213 -254q20 -23 30.5 -29t41.5 -11v-31h-80q-41 0 -55 8t-42 43l-182 222h-73v-229l80 -13v-31h-253zM309 695l149 177l62 -64l-183 -143z" />
<glyph horiz-adv-x="594" d="M1 580v21h234v-21l-74 -31l114 -263q12 -26 21.5 -52.5t13.5 -39.5l4 -13h6q17 51 36 99l105 269l-83 31v21h220v-21l-65 -31l-173 -400q-35 -80 -73 -119.5t-100 -39.5q-16 0 -31 3t-22 6l-7 3v65q22 -6 61 -6q55 0 86 39l-207 449zM123 788l54 61q8 -7 34.5 -36.5 t47.5 -42.5t48 -13t48 13t47.5 42.5t34.5 36.5l54 -61q-28 -27 -77 -48.5t-107 -21.5q-112 0 -184 70z" />
<glyph horiz-adv-x="744" d="M47 0v31l80 13v513l-80 13v31h253v-31l-80 -13v-507h304v507l-80 13v31h253v-31l-80 -13v-513l80 -13v-31h-283l-20 -174h-43l-16 174h-288z" />
<glyph horiz-adv-x="1082" d="M42 0v31l80 13v476l-44 53v28h102l364 -459v415l-80 13v31h218v-31l-80 -13v-557l-42 -16l-380 472v-412l80 -13v-31h-218zM705 377q0 68 44.5 114.5t119.5 46.5t118.5 -45.5t43.5 -108.5q0 -69 -46.5 -115.5t-124.5 -46.5q-70 0 -112.5 46t-42.5 109zM725 111v64h286 v-64h-286zM795 390q0 -55 20 -88.5t55 -33.5q29 0 49.5 28t20.5 75q0 54 -20.5 87.5t-54.5 33.5q-30 0 -50 -28t-20 -74z" />
<glyph horiz-adv-x="624" d="M64 329q0 177 66 281t193 104q109 0 172.5 -103t63.5 -240q0 -177 -66 -281t-193 -104q-109 0 -172.5 103t-63.5 240zM166 380q0 -65 8 -121.5t24.5 -106t46.5 -78t71 -28.5q43 0 76 40.5t49 102t16 131.5q0 136 -39 235t-114 99q-65 0 -101.5 -81.5t-36.5 -192.5z" />
<glyph horiz-adv-x="463" d="M41 641l244 65h16v-652l146 -22v-32h-390v32l146 21v567l-158 -9z" />
<glyph horiz-adv-x="518" d="M47 0v30l85 99q120 139 164 223t44 159q0 62 -33 97t-99 35q-19 0 -38 -2.5t-28 -4.5l-10 -2l-31 -134h-29l-1 165q7 5 21.5 12.5t61 20t97.5 12.5q83 0 135 -46t52 -135q0 -47 -13.5 -89.5t-51.5 -97.5t-74 -98.5t-113 -129.5l-44 -49l246 14l80 10l-8 -89h-413z" />
<glyph horiz-adv-x="539" d="M68 38v149h35l24 -128q45 -14 89 -14q82 0 122.5 45t40.5 114q0 61 -44.5 102.5t-137.5 41.5h-26l5 44h25q71 0 111.5 38.5t40.5 97.5q0 55 -35 90t-104 35q-27 0 -76 -7l-25 -146h-33v166q8 5 23 12.5t62 19.5t94 12q87 0 138.5 -42.5t51.5 -118.5q0 -66 -39.5 -112 t-115.5 -63q85 -11 135 -57.5t50 -120.5q0 -88 -61 -147t-164 -59q-52 0 -98.5 12t-67.5 24z" />
<glyph horiz-adv-x="571" d="M29 169v25l225 506h94l-234 -472l232 3v167l-6 103l100 4v-273l100 2l-6 -65h-94v-179h-94v179h-317z" />
<glyph horiz-adv-x="516" d="M50 56l7 28q60 -30 144 -30q78 0 118.5 37t40.5 106q0 88 -74.5 131t-198.5 43l18 329h286l26 97h29l-8 -179l-271 11l-12 -189q152 -4 228.5 -69t76.5 -166q0 -93 -60 -154t-166 -61q-113 0 -184 66z" />
<glyph horiz-adv-x="555" d="M54 268q0 405 396 453l7 -36q-124 -17 -205.5 -102t-98.5 -237q60 75 163 75q88 0 139 -51.5t51 -145.5q0 -99 -59 -166.5t-159 -67.5q-106 0 -170 76.5t-64 201.5zM153 256q0 -93 35.5 -155.5t104.5 -62.5q58 0 88.5 47t30.5 120q0 72 -32 113t-96 41q-86 0 -131 -74 v-29z" />
<glyph horiz-adv-x="461" d="M43 521l3 179h402v-17q-146 -313 -240 -700l-94 24q128 381 258 632l-268 -12l-29 -106h-32z" />
<glyph horiz-adv-x="578" d="M63 187q0 60 37.5 109.5t101.5 69.5q-56 20 -86 62t-30 99q0 77 54.5 130t148.5 53t148.5 -52.5t54.5 -129.5q0 -54 -30.5 -98t-85.5 -64q68 -21 103.5 -68t35.5 -111q0 -87 -62.5 -142t-163.5 -55q-104 0 -165 54t-61 143zM160 192q0 -68 36.5 -109.5t92.5 -41.5 q57 0 93 41t36 109q0 65 -34.5 106.5t-94.5 41.5t-94.5 -41.5t-34.5 -105.5zM178 528q0 -66 29 -101t82 -35q50 0 80.5 35.5t30.5 100.5q0 58 -31.5 94.5t-79.5 36.5q-52 0 -81.5 -36t-29.5 -95z" />
<glyph horiz-adv-x="555" d="M49 476q0 99 59 166.5t159 67.5q106 0 170 -76.5t64 -201.5q0 -405 -396 -453l-7 36q121 17 202 98t100 227q-58 -72 -161 -72q-87 0 -138.5 56t-51.5 152zM143 495q0 -74 32.5 -119.5t95.5 -45.5q85 0 130 72q1 13 1 42q0 93 -35.5 155.5t-104.5 62.5q-58 0 -88.5 -47 t-30.5 -120z" />
<glyph horiz-adv-x="624" d="M64 329q0 177 66 281t193 104q109 0 172.5 -103t63.5 -240q0 -177 -66 -281t-193 -104q-109 0 -172.5 103t-63.5 240zM166 380q0 -65 8 -121.5t24.5 -106t46.5 -78t71 -28.5q43 0 76 40.5t49 102t16 131.5q0 136 -39 235t-114 99q-65 0 -101.5 -81.5t-36.5 -192.5z" />
<glyph horiz-adv-x="463" d="M41 641l244 65h16v-652l146 -22v-32h-390v32l146 21v567l-158 -9z" />
<glyph horiz-adv-x="526" d="M47 0v30l85 99q120 139 164 223t44 159q0 62 -33 97t-99 35q-19 0 -38 -2.5t-28 -4.5l-10 -2l-31 -134h-29l-1 165q7 5 21.5 12.5t61 20t97.5 12.5q83 0 135 -46t52 -135q0 -47 -13.5 -89.5t-51.5 -97.5t-74 -98.5t-113 -129.5l-44 -49l262 14l34 111h29l-7 -190h-413z " />
<glyph horiz-adv-x="529" d="M59 56l7 32q70 -33 140 -33q83 0 123 40.5t40 108.5q0 61 -44.5 102.5t-137.5 41.5h-26l5 44h25q71 0 111.5 38.5t40.5 97.5q0 55 -35 90t-104 35q-38 0 -75 -7l-25 -146h-34v166q8 5 23 12.5t62 19.5t94 12q87 0 138.5 -42.5t51.5 -118.5q0 -66 -39.5 -112t-115.5 -63 q85 -11 135 -57.5t50 -120.5q0 -88 -61 -147t-164 -59q-52 0 -98 16.5t-66 33.5z" />
<glyph horiz-adv-x="584" d="M29 171v25l225 504h94l-234 -472l232 3v167l-6 103l100 4v-273l100 2l-6 -63h-94v-128l100 -12v-31h-300v31l106 12v128h-317z" />
<glyph horiz-adv-x="516" d="M50 56l7 28q60 -30 144 -30q78 0 118.5 37t40.5 106q0 88 -74.5 131t-198.5 43l18 329h285l27 97h29l-8 -179l-271 11l-12 -189q152 -4 228.5 -69t76.5 -166q0 -93 -60 -154t-166 -61q-113 0 -184 66z" />
<glyph horiz-adv-x="551" d="M54 284q0 389 392 437l7 -36q-59 -8 -112 -35t-96.5 -70t-71 -107.5t-30.5 -142.5q47 91 169 91q88 0 139 -51.5t51 -145.5q0 -99 -59 -166.5t-159 -67.5q-108 0 -169 78t-61 216zM155 214q0 -74 36.5 -125t97.5 -51q58 0 88.5 47t30.5 120q0 72 -31 113t-91 41 t-95.5 -41t-35.5 -104z" />
<glyph horiz-adv-x="461" d="M43 521l3 179h402v-17q-146 -313 -240 -700l-94 24q128 381 258 632l-268 -12l-29 -106h-32z" />
<glyph horiz-adv-x="566" d="M62 174q0 124 154 188q-63 37 -97.5 77.5t-34.5 103.5q0 75 58.5 121t147.5 46q87 0 142 -43.5t54 -116.5q-2 -100 -136 -169q73 -41 113 -85t40 -116q0 -82 -64 -136.5t-154 -54.5q-101 0 -162 48.5t-61 136.5zM157 165q0 -52 32.5 -87.5t92.5 -35.5q56 0 93 32t37 90 q0 30 -12 55.5t-38.5 48t-47.5 36.5t-60 36q-97 -63 -97 -175zM176 562q0 -52 35 -87.5t101 -72.5q78 55 79 152q1 48 -27 78t-78 30q-53 0 -81.5 -28.5t-28.5 -71.5z" />
<glyph horiz-adv-x="551" d="M49 480q0 99 59 166.5t159 67.5q108 0 169 -78t61 -216q0 -389 -392 -437l-7 36q124 17 213.5 110t95.5 244q-47 -90 -168 -90q-88 0 -139 51.5t-51 145.5zM143 499q0 -72 31 -113t91 -41t95.5 41t35.5 104q0 74 -36.5 125t-97.5 51q-58 0 -88.5 -47t-30.5 -120z" />
<glyph horiz-adv-x="1291" d="M42 241v9q50 14 101.5 38t88.5 48t67 46.5t45 36.5l16 14h10v-153h445q109 102 166 208l64 -44q-14 -31 -74 -98.5t-112 -104.5q50 -35 111 -103t75 -99l-64 -44q-86 133 -170 211h-441v-145h-10q-6 6 -16 16.5t-43.5 38t-69 50t-87.5 45t-102 30.5zM978 227v29 q55 46 108.5 110t84.5 122l64 -44q-14 -31 -74 -98.5t-112 -104.5q50 -35 111 -103t75 -99l-64 -44q-95 149 -193 232z" />
<glyph horiz-adv-x="958" d="M37 227v29q55 46 108.5 110t84.5 122l64 -44q-11 -24 -52.5 -73.5t-86.5 -90.5h746v-74h-749q45 -40 88 -91.5t54 -75.5l-64 -44q-95 149 -193 232z" />
<glyph horiz-adv-x="168" d="M3 468q37 22 63.5 56.5t30.5 70.5q-34 -8 -54.5 10t-20.5 46q0 27 18 43.5t46 16.5t46.5 -18.5t18.5 -53.5q0 -59 -36.5 -112t-93.5 -83z" />
<glyph horiz-adv-x="502" d="M57 416q0 67 51 104t128 43l-16 138q38 14 78 0l-17 -138q37 -2 73.5 -11.5t55.5 -17.5l18 -9l-7 -139h-38l-15 104q-49 22 -107 22q-49 0 -80.5 -24t-31.5 -63q0 -37 31 -61t75 -39t88 -33t75 -54.5t31 -90.5q0 -72 -53 -113t-135 -47l18 -140q-37 -14 -78 0l15 140 q-48 2 -86 11t-52 18l-15 8l3 146h37l17 -117q48 -15 113 -15q56 0 90 25.5t34 69.5q0 38 -31 63.5t-75 41t-88 33.5t-75 54.5t-31 90.5z" />
<glyph horiz-adv-x="690" d="M59 171v64h94q-1 9 -1 27q0 24 3 49h-96v64h110q28 84 98.5 135.5t185.5 51.5q45 0 85 -9t58 -19l17 -9l-1 -148h-36l-24 118q-45 16 -92 16q-73 0 -125 -37t-76 -99h250l-20 -64h-245q-2 -22 -2 -33q0 -22 3 -43h234l-19 -64h-199q25 -59 75 -92.5t120 -33.5q39 0 78 7 t58 14l20 7l3 -50q-65 -37 -176 -37q-98 0 -173 47t-102 138h-105z" />
<glyph horiz-adv-x="567" d="M55 0v57q4 1 11.5 2.5t25 12.5t30.5 27.5t22 50t5 76.5h-85v50h78q-23 139 31 212t181 73q24 0 55.5 -5t50.5 -10l19 -5l-10 -160h-39l-13 109q-33 7 -70 7q-83 0 -105.5 -49t-1.5 -168v-4h161v-50h-155q1 -38 -7.5 -69t-20.5 -48.5t-28 -30t-24 -16t-14 -5.5l280 15 l19 88h42l-6 -160h-432z" />
<glyph horiz-adv-x="672" d="M46 519v31h239v-31l-77 -13l155 -217l101 148q24 37 32 67l-75 15v31h205v-31l-59 -15l-172 -250h112v-60h-115v-51h115v-60h-115v-39l70 -13v-31h-238v31l70 13v39h-118v60h118v51h-118v60h114l-186 252z" />
<glyph horiz-adv-x="631" d="M68 269q0 126 65.5 209t193.5 83q118 0 177 -76.5t59 -203.5q0 -126 -65.5 -208.5t-193.5 -82.5q-118 0 -177 76.5t-59 202.5zM170 289q0 -108 35.5 -176.5t114.5 -68.5q69 0 105 58t36 159q0 247 -153 247q-67 0 -102.5 -58.5t-35.5 -160.5z" />
<glyph horiz-adv-x="366" d="M54 0v31l80 13v462l-80 13v31h258v-31l-80 -13v-462l80 -13v-31h-258z" />
<glyph horiz-adv-x="525" d="M44 0v30q156 115 222.5 199.5t66.5 162.5q0 47 -30.5 77t-89.5 30q-31 0 -65.5 -9.5t-53.5 -19.5l-19 -10v36q7 7 20.5 18t60 29t98.5 18q81 0 130 -43.5t49 -118.5q0 -84 -66 -164.5t-211 -174.5l322 21l-8 -81h-426z" />
<glyph horiz-adv-x="484" d="M11 -197l4 31q126 -10 216.5 45.5t90.5 163.5q0 163 -205 167l2 34q86 4 130.5 42t44.5 101q0 49 -31 80.5t-87 31.5q-36 0 -71.5 -9.5t-52.5 -19.5l-18 -9v37q8 7 22.5 17.5t61 28t95.5 17.5q79 0 129 -41t50 -120q0 -58 -43.5 -103t-121.5 -62q88 -8 141.5 -59.5 t53.5 -128.5q0 -73 -38.5 -126.5t-100.5 -80.5t-132 -36t-140 -1z" />
<glyph horiz-adv-x="578" d="M16 29l340 538l76 -11v-491l114 1l-8 -66h-106v-109l5 -93h-96v202h-301zM107 57l234 5v285l4 94h-3q-19 -45 -50 -94z" />
<glyph horiz-adv-x="511" d="M33 -198l3 33q139 -7 226 44t87 164q0 164 -279 189l18 329h343l-5 -89l-280 18l-11 -185q161 -13 237.5 -79.5t76.5 -170.5q0 -98 -59 -159.5t-150 -82t-207 -11.5z" />
<glyph horiz-adv-x="553" d="M53 268q0 405 396 453l7 -36q-123 -17 -201 -98t-97 -234q59 68 157 68q88 0 139 -51.5t51 -145.5q0 -99 -60.5 -166.5t-167.5 -67.5q-97 0 -160.5 77t-63.5 201zM152 256q0 -93 35.5 -155.5t104.5 -62.5q58 0 88.5 47t30.5 120q0 150 -128 150q-86 0 -131 -74v-25z" />
<glyph horiz-adv-x="467" d="M33 466l6 84h402v-17q-140 -300 -241 -731l-94 24q49 166 119 347.5t139 314.5z" />
<glyph horiz-adv-x="565" d="M61 174q0 124 154 188q-63 37 -97.5 77.5t-34.5 103.5q0 75 58.5 121t147.5 46q87 0 142 -43.5t54 -116.5q-2 -100 -136 -169q73 -41 113 -85t40 -116q0 -82 -64 -136.5t-154 -54.5q-101 0 -162 48.5t-61 136.5zM156 165q0 -52 32.5 -87.5t92.5 -35.5q56 0 93 32t37 90 q0 30 -12 55.5t-38.5 48t-47.5 36.5t-60 36q-97 -63 -97 -175zM175 562q0 -52 35 -87.5t101 -72.5q78 55 79 152q1 48 -27 78t-78 30q-53 0 -81.5 -28.5t-28.5 -71.5z" />
<glyph horiz-adv-x="546" d="M41 328q0 103 62 168.5t166 65.5q97 0 160.5 -77t63.5 -201q0 -217 -107 -337.5t-289 -142.5l-7 36q115 16 193.5 101.5t101.5 233.5q-54 -54 -142 -54q-81 0 -141.5 56.5t-60.5 150.5zM135 346q0 -69 38 -114t95 -45q77 0 124 53q2 36 2 56q0 93 -35.5 155.5 t-104.5 62.5q-58 0 -88.5 -47t-30.5 -121z" />
<glyph horiz-adv-x="790" d="M54 420q0 69 42.5 115t116.5 46t115.5 -45.5t41.5 -108.5q0 -70 -44 -116t-122 -46q-70 0 -110 46t-40 109zM140 0q232 303 409 571h97q-251 -339 -408 -571h-98zM149 433q0 -122 65 -122q28 0 44 27.5t16 75.5q0 121 -65 121q-29 0 -44.5 -27t-15.5 -75zM422 145 q0 69 42.5 115t116.5 46t115.5 -45.5t41.5 -108.5q0 -70 -44 -116t-122 -46q-70 0 -110 46t-40 109zM517 158q0 -122 65 -122q28 0 44 27.5t16 75.5q0 121 -65 121q-29 0 -44.5 -27t-15.5 -75z" />
<glyph horiz-adv-x="1134" d="M56 420q0 69 42.5 115t116.5 46t115.5 -45.5t41.5 -108.5q0 -70 -44 -116t-122 -46q-70 0 -110 46t-40 109zM142 0q232 303 409 571h97q-251 -339 -408 -571h-98zM151 433q0 -122 65 -122q28 0 44 27.5t16 75.5q0 121 -65 121q-29 0 -44.5 -27t-15.5 -75zM424 145 q0 69 42.5 115t116.5 46t115.5 -45.5t41.5 -108.5q0 -70 -44 -116t-122 -46q-70 0 -110 46t-40 109zM519 158q0 -122 65 -122q28 0 44 27.5t16 75.5q0 121 -65 121q-29 0 -44.5 -27t-15.5 -75zM768 145q0 69 42.5 115t116.5 46t115.5 -45.5t41.5 -108.5q0 -70 -44 -116 t-122 -46q-70 0 -110 46t-40 109zM863 158q0 -122 65 -122q28 0 44 27.5t16 75.5q0 121 -65 121q-29 0 -44.5 -27t-15.5 -75z" />
<glyph horiz-adv-x="515" d="M52 253v64h170v174h70v-174h171v-64h-171v-173h-70v173h-170z" />
<glyph horiz-adv-x="537" d="M83 253v64h371v-64h-371z" />
<glyph horiz-adv-x="516" d="M68 136l142 150l-142 149l49 50l141 -149l141 149l49 -50l-143 -149l143 -150l-47 -48l-143 149l-143 -149z" />
<glyph horiz-adv-x="560" d="M69 253v64h421v-64h-421zM215 111q0 29 17.5 45.5t46.5 16.5q27 0 42 -16t15 -44q0 -30 -17 -47.5t-46 -17.5q-26 0 -42 17.5t-16 45.5zM215 465q0 29 17.5 45.5t46.5 16.5q27 0 42 -16t15 -44q0 -30 -17 -47.5t-46 -17.5q-26 0 -42 17.5t-16 45.5z" />
<glyph horiz-adv-x="577" d="M83 152v69h411v-69h-411zM83 342v69h411v-69h-411z" />
<glyph horiz-adv-x="476" d="M46 273v23l348 213v-87l-244 -137l244 -139v-86z" />
<glyph horiz-adv-x="477" d="M82 60v86l244 139l-244 137v87l348 -213v-23z" />
<glyph horiz-adv-x="698" d="M59 143v74h121l53 136h-145v74h173l52 135h82l-52 -135h119l52 135h82l-52 -135h92v-74h-120l-52 -136h143v-74h-172l-54 -143h-83l55 143h-119l-54 -143h-83l55 143h-93zM263 217h118l53 136h-119z" />
<glyph horiz-adv-x="530" d="M59 190h37l20 -136q54 -16 117 -16q66 0 108.5 28t42.5 80q0 31 -11 55.5t-36 44t-44.5 31t-56.5 29.5q-35 18 -51 26.5t-44.5 28t-41.5 37t-24 45t-11 59.5q0 68 49 113t132 55l-6 135q38 14 78 0l-8 -134q40 -2 76.5 -11.5t52.5 -17.5l17 -9l-7 -159h-38l-15 124 q-52 22 -117 22q-58 0 -90 -25.5t-32 -75.5q0 -25 10.5 -46.5t32 -39.5t41.5 -30t53 -29q90 -45 119 -70q63 -55 64 -135q0 -71 -47.5 -118t-131.5 -60l9 -144q-37 -14 -78 0l6 139q-50 0 -93.5 9.5t-62.5 18.5l-18 10z" />
<glyph horiz-adv-x="530" d="M1 231v65h74q-1 13 -1 42t1 43h-74v65h83q24 120 98 194t187 74q39 0 73.5 -10t49.5 -20l16 -10l-8 -170h-39l-16 137q-34 21 -81 21q-70 0 -118.5 -58t-63.5 -158h231l-21 -65h-216v-22q0 -33 3 -63h189l-21 -65h-158q19 -90 67 -141.5t121 -51.5q39 0 68 9l22 156h38 v-186q-41 -31 -137 -31q-108 0 -183.5 64t-100.5 181h-83z" />
<glyph horiz-adv-x="530" d="M29 0v57q6 1 15 4t31 16t37.5 30.5t25 51.5t2.5 75l-11 62h-91v50h82l-12 72q-24 135 42.5 216t197.5 81q24 0 55.5 -5t50.5 -10l19 -5l-10 -180h-39l-14 129q-33 7 -69 7q-89 0 -123 -53.5t-14 -163.5l16 -88h175v-50h-166l3 -17q9 -39 4.5 -70.5t-10 -54t-19.5 -39.5 t-24.5 -27.5t-25 -17.5t-20.5 -9.5t-11 -3.5l300 15l23 108h42l-10 -180h-452z" />
<glyph horiz-adv-x="530" d="M-23 669v31h229v-31l-67 -13l103 -193q10 -16 21 -38t17 -36l6 -14h4q16 43 44 94l57 118q7 15 13 31.5t8 25.5l2 8l-62 17v31h199v-31l-59 -15l-167 -320h123v-60h-125v-81h125v-60h-125v-89l80 -13v-31h-258v31l80 13v89h-128v60h128v81h-128v60h125l-187 322z" />
<glyph horiz-adv-x="530" d="M32 329q0 176 62 278.5t182 102.5q102 0 161.5 -101t59.5 -238q0 -176 -62 -278.5t-182 -102.5q-102 0 -161.5 101t-59.5 238zM134 380q0 -340 135 -340q58 0 92 77t34 203q0 154 -34 247t-104 93q-60 0 -91.5 -76t-31.5 -204z" />
<glyph horiz-adv-x="530" d="M74 618l238 88h20v-655l147 -3v-48h-391v48l146 3v567l-151 -31z" />
<glyph horiz-adv-x="530" d="M48 0v30l85 99q120 139 164 223t44 159q0 62 -33 97t-99 35q-40 0 -74 -8.5t-49 -17.5l-14 -9v37q7 7 21.5 18t61 29t97.5 18q83 0 135 -46t52 -135q0 -47 -13.5 -89.5t-51.5 -97.5t-74 -98.5t-113 -129.5l-44 -49l246 14l80 10l-8 -89h-413z" />
<glyph horiz-adv-x="530" d="M54 56l7 32q70 -33 140 -33q83 0 123 40.5t40 108.5q0 61 -44.5 102.5t-137.5 41.5h-26l5 44h25q71 0 111.5 38.5t40.5 97.5q0 53 -32.5 84t-95.5 31q-42 0 -77 -8.5t-49 -17.5l-14 -9v37q8 7 22 18t59.5 29t92.5 18q87 0 138.5 -42.5t51.5 -118.5q0 -66 -39.5 -112 t-115.5 -63q85 -11 135 -57.5t50 -120.5q0 -88 -61 -147t-164 -59q-52 0 -98.5 16.5t-66.5 33.5z" />
<glyph horiz-adv-x="530" d="M7 195l342 509h50v-489l104 1l-8 -67h-96v-86l5 -93h-97v179h-272zM89 209l218 5v246l3 96h-3q-12 -36 -39 -76z" />
<glyph horiz-adv-x="530" d="M56 56l7 28q60 -30 144 -30q78 0 118.5 37t40.5 106q0 88 -74.5 131t-198.5 43l18 329h337l-5 -89q-36 8 -85 10l-185 8l-12 -189q152 -4 228.5 -69t76.5 -166q0 -93 -60 -154t-166 -61q-113 0 -184 66z" />
<glyph horiz-adv-x="530" d="M44 268q0 405 396 453l7 -36q-124 -17 -205.5 -102t-98.5 -237q60 75 163 75q88 0 139 -51.5t51 -145.5q0 -99 -59 -166.5t-159 -67.5q-106 0 -170 76.5t-64 201.5zM143 256q0 -93 35.5 -155.5t104.5 -62.5q58 0 88.5 47t30.5 120q0 72 -32 113t-96 41q-86 0 -131 -74 v-29z" />
<glyph horiz-adv-x="530" d="M69 616l6 84h402v-17q-146 -313 -240 -700l-94 24q128 381 258 632l-234 -12z" />
<glyph horiz-adv-x="530" d="M44 174q0 124 154 188q-63 37 -97.5 77.5t-34.5 103.5q0 75 58.5 121t147.5 46q87 0 142 -43.5t54 -116.5q-2 -100 -136 -169q73 -41 113 -85t40 -116q0 -82 -64 -136.5t-154 -54.5q-101 0 -162 48.5t-61 136.5zM139 165q0 -52 32.5 -87.5t92.5 -35.5q56 0 93 32t37 90 q0 30 -12 55.5t-38.5 48t-47.5 36.5t-60 36q-97 -63 -97 -175zM158 562q0 -52 35 -87.5t101 -72.5q78 55 79 152q1 48 -27 78t-78 30q-53 0 -81.5 -28.5t-28.5 -71.5z" />
<glyph horiz-adv-x="530" d="M33 476q0 99 59 166.5t159 67.5q106 0 170 -76.5t64 -201.5q0 -405 -396 -453l-7 36q121 17 202 98t100 227q-58 -72 -161 -72q-87 0 -138.5 56t-51.5 152zM127 495q0 -74 32.5 -119.5t95.5 -45.5q85 0 130 72q1 13 1 42q0 93 -35.5 155.5t-104.5 62.5q-58 0 -88.5 -47 t-30.5 -120z" />
</font>
</defs>
</svg>
