<?xml version="1.0" standalone="no"?>
<!DOCTYPE svg PUBLIC "-//W3C//DTD SVG 1.1//EN" "http://www.w3.org/Graphics/SVG/1.1/DTD/svg11.dtd" >
<svg xmlns="http://www.w3.org/2000/svg" xmlns:xlink="http://www.w3.org/1999/xlink" version="1.1">
<metadata>
Created by FontForge 20161003 at Sun Nov 19 12:06:57 2017
 By www-data
Copyright (c) 2008 by Vasiliy Shishkin. All rights reserved.
</metadata>
<defs>
<font id="FregatBoldItalic" horiz-adv-x="716" >
  <font-face 
    font-family="FregatBoldItalic"
    font-weight="700"
    font-style="italic"
    font-stretch="normal"
    units-per-em="2048"
    panose-1="2 0 5 6 0 0 0 2 0 4"
    ascent="1638"
    descent="-410"
    x-height="1061"
    cap-height="1434"
    bbox="-173 -403 1964.22 1797.62"
    underline-thickness="102"
    underline-position="-306"
    unicode-range="U+000D-E000"
  />
<missing-glyph horiz-adv-x="748" 
d="M68 0v1365h544v-1365h-544zM136 68h408v1229h-408v-1229z" />
    <glyph glyph-name=".notdef" horiz-adv-x="748" 
d="M68 0v1365h544v-1365h-544zM136 68h408v1229h-408v-1229z" />
    <glyph glyph-name="glyph1" horiz-adv-x="2048" 
 />
    <glyph glyph-name="glyph1" horiz-adv-x="2048" 
 />
    <glyph glyph-name="uni000D" unicode="&#xd;" horiz-adv-x="2048" 
 />
    <glyph glyph-name="space" unicode=" " 
 />
    <glyph glyph-name="exclam" unicode="!" horiz-adv-x="536" 
d="M139 131q13 72 52 108.5t124 36.5q86 0 111 -36t12 -109q-12 -73 -51 -111t-125 -38q-87 0 -111.5 37.5t-11.5 111.5zM254 457l90 860q7 68 54.5 98.5t121.5 30.5q75 0 112 -30.5t21 -98.5l-213 -860q-17 -66 -106 -66q-42 0 -63 14.5t-17 51.5z" />
    <glyph glyph-name="quotedbl" unicode="&#x22;" horiz-adv-x="808" 
d="M264 963l123 372q41 123 188 117q60 -4 87.5 -32t24.5 -67t-30 -85l-190 -332q-50 -83 -133 -78q-50 3 -67 31t-3 74zM600 963l123 372q38 123 188 117q60 -4 87.5 -32t24.5 -67t-30 -85l-190 -332q-26 -43 -57.5 -62t-77.5 -16q-48 3 -65 31t-3 74z" />
    <glyph glyph-name="numbersign" unicode="#" horiz-adv-x="1243" 
d="M137 524q21 109 105 109h114l35 192h-117q-85 0 -65 109q20 108 104 108h115l55 306q15 94 135 94q51 0 81 -21.5t22 -72.5l-55 -306h184l55 306q15 94 135 94q51 0 81 -21.5t22 -72.5l-53 -306h114q46 0 60.5 -31t5.5 -77q-20 -109 -105 -109h-114l-35 -192h114
q84 0 68 -109q-20 -108 -104 -108h-115l-59 -334q-15 -92 -136 -92q-52 0 -82 20.5t-20 71.5l57 334h-182l-59 -334q-17 -92 -136 -92q-52 0 -82 20.5t-20 71.5l57 334h-114q-86 0 -66 108zM594 633h184l35 192h-184z" />
    <glyph glyph-name="dollar" unicode="$" horiz-adv-x="1136" 
d="M92 360q0 44 31 80t96 43q107 12 113 -82q2 -77 40 -129t105 -59l76 430q-75 25 -133.5 59.5t-106 85.5t-65.5 124.5t-2 162.5q29 161 154 256.5t296 122.5l9 39q15 96 131 96q51 0 79.5 -22t20.5 -74l-8 -45q133 -25 212.5 -116t86.5 -238q3 -46 -24 -71t-81 -28
q-25 -1 -43 0.5t-37.5 6.5t-31.5 18t-15 33q-20 133 -108 172l-66 -379q63 -19 115.5 -44.5t101 -63t76.5 -84.5t42.5 -109t-1.5 -135q-35 -186 -159 -291.5t-326 -130.5l-13 -66q-15 -94 -131 -94q-51 0 -79.5 21.5t-20.5 72.5l12 70q-156 25 -251 116t-95 252zM498 1057
q-15 -96 102 -146l57 322q-62 -21 -105 -66t-54 -110zM709 213q156 44 180 190q22 122 -115 177z" />
    <glyph glyph-name="percent" unicode="%" horiz-adv-x="1411" 
d="M238.5 28.5q-8.5 29.5 17.5 69.5l942 1268q29 41 62.5 59t87.5 17q51 -3 67.5 -34t-14.5 -81l-940 -1268q-58 -86 -172 -67q-42 7 -50.5 36.5zM276.5 1000q-7.5 58 6.5 124q25 142 109.5 230t228.5 88q145 0 198.5 -88.5t28.5 -229.5q-25 -143 -110 -231t-230 -88
q-74 0 -125 25t-75 68.5t-31.5 101.5zM474.5 1076.5q-1.5 -19.5 1 -45.5t18.5 -40t45 -14t50 14t32.5 40.5t17 45t10.5 47.5q3 18 3.5 22t2.5 22.5t1 25.5t-2 22.5t-6 22t-12 15.5t-19 12.5t-27 3.5q-29 0 -49.5 -14t-32.5 -41t-16.5 -44.5t-10.5 -46.5q-5 -28 -6.5 -47.5z
M811 305q25 143 110 231.5t230 88.5q74 0 125 -25.5t75 -68.5t31.5 -101.5t-6.5 -124.5q-25 -141 -109.5 -229t-228.5 -88t-198 87.5t-29 229.5zM1003 244.5q-2 -22.5 1.5 -33t10 -25t20.5 -20.5t34 -6q23 0 41.5 11t29 24t19.5 37t12 37t7 36q5 28 6.5 47.5t-1 46
t-18.5 40.5t-45 14q-24 0 -43 -11t-29.5 -24.5t-19 -37.5t-11.5 -37.5t-7 -37.5q-3 -22 -4 -30t-3 -30.5z" />
    <glyph glyph-name="ampersand" unicode="&#x26;" horiz-adv-x="1294" 
d="M141 436q42 248 379 434q-23 61 -31 113q-10 68 -5.5 134t34 125t72.5 103.5t110.5 70.5t147.5 26q72 0 130.5 -17.5t101 -54.5t56.5 -94t-3 -135q-48 -194 -316 -353q66 -137 164 -282q49 96 70 192q10 49 45.5 74t83.5 19q58 -9 82 -44.5t10 -91.5q-45 -182 -156 -338
q9 -12 66 -84.5t86 -111.5q23 -29 14.5 -54.5t-33 -44t-61.5 -30.5q-118 -32 -166 31q-26 31 -82 104q-177 -136 -389 -139q-209 -2 -326.5 119.5t-83.5 328.5zM414 436q-19 -100 32.5 -163t153.5 -62q116 0 219 86q-137 199 -219 375q-163 -103 -186 -236zM720 1141.5
q-5 -41.5 0.5 -83t20.5 -69.5q141 92 146 178q3 32 -12.5 52t-45.5 20q-47 1 -75.5 -27.5t-33.5 -70z" />
    <glyph glyph-name="quotesingle" unicode="'" horiz-adv-x="462" 
d="M254 963l123 372q41 123 188 117q61 -4 88.5 -32t24 -67t-30.5 -85l-190 -332q-47 -84 -133 -78q-50 3 -67 31t-3 74z" />
    <glyph glyph-name="parenleft" unicode="(" horiz-adv-x="550" 
d="M154 532q41 244 150.5 468t283.5 401q28 28 76 33.5t79 -9.5q79 -31 7 -122q-266 -340 -340 -766q-77 -428 69 -768q38 -90 -49 -123q-82 -30 -117 24q-118 183 -158.5 407.5t-0.5 454.5z" />
    <glyph glyph-name="parenright" unicode=")" horiz-adv-x="548" 
d="M-16 -231q265 339 342 768q74 426 -72 766q-38 92 49 122q82 30 119 -24q115 -185 157 -407.5t1 -454.5q-92 -520 -435 -869q-26 -28 -75 -33.5t-80 9.5q-77 33 -6 123z" />
    <glyph glyph-name="asterisk" unicode="*" horiz-adv-x="987" 
d="M260.5 1048q-11.5 49 22.5 103q30 50 72 67t85 -6l158 -79l10 188q3 54 43 89.5t97 35.5q59 0 86 -35t12 -90l-58 -191l187 82q57 24 95 3.5t46 -74.5q9 -55 -21 -99.5t-89 -54.5l-191 -37l103 -135q32 -43 17 -90.5t-69 -79.5q-46 -33 -95.5 -26.5t-68.5 57.5l-61 164
l-121 -166q-36 -49 -85.5 -57t-90.5 26q-41 35 -38.5 83t48.5 89l154 137l-178 35q-58 12 -69.5 61z" />
    <glyph glyph-name="plus" unicode="+" horiz-adv-x="1171" 
d="M199 717q20 112 100 112h317l56 318q7 42 42.5 61t84.5 19t77.5 -18.5t20.5 -61.5l-55 -318h317q42 0 55.5 -32.5t4.5 -79.5q-20 -113 -101 -113h-315l-58 -317q-13 -80 -127 -80q-48 0 -77 18.5t-21 61.5l55 317h-317q-79 0 -59 113z" />
    <glyph glyph-name="comma" unicode="," horiz-adv-x="595" 
d="M59 -193l121 373q41 124 189 115q61 -4 89 -31.5t25 -66.5t-30 -86l-193 -330q-47 -83 -133 -78q-50 1 -66.5 29t-1.5 75z" />
    <glyph glyph-name="hyphen" unicode="-" 
d="M168 543q20 112 100 112h416q75 0 59 -112q-20 -113 -100 -113h-416q-79 0 -59 113z" />
    <glyph glyph-name="period" unicode="." horiz-adv-x="548" 
d="M139 141q13 76 54.5 116t128.5 40q90 0 116 -38.5t13 -117.5q-15 -78 -55.5 -118.5t-129.5 -40.5q-91 0 -116 40t-11 119z" />
    <glyph glyph-name="slash" unicode="/" horiz-adv-x="1017" 
d="M-47.5 -319.5q-10.5 29.5 14.5 67.5l1049 1612q52 82 155 76q52 -2 72 -33.5t-8 -81.5l-1049 -1612q-58 -88 -180 -65q-43 7 -53.5 36.5z" />
    <glyph glyph-name="zero" unicode="0" horiz-adv-x="1314" 
d="M186.5 535.5q-3.5 88.5 14.5 175.5q19 108 55 209.5t95.5 197.5t135 167t179 114t221.5 43q86 0 158.5 -22t125.5 -62t93.5 -94.5t65 -119t36 -136.5t10 -147t-15.5 -150q-19 -109 -55 -210.5t-94.5 -197t-133.5 -166t-178.5 -113t-222.5 -42.5q-100 0 -182 29.5
t-137 81.5t-95 122t-56 151t-19.5 169.5zM466 588q-4 -61 4 -130.5t31 -121.5t72 -86.5t121 -34.5q71 0 132 34.5t102 86.5t73.5 121.5t50 130.5t27.5 123q8 42 12 85t4 93t-6 94.5t-22 86t-41 72t-65 48.5t-91 18q-71 0 -133 -35t-103 -87t-73.5 -122t-50.5 -130.5
t-29 -122.5t-15 -123z" />
    <glyph glyph-name="one" unicode="1" horiz-adv-x="827" 
d="M86 123q9 52 35.5 87.5t73.5 35.5h139l160 907q-42 -30 -72 -39l-98 -41q-34 -13 -63.5 3t-35.5 50q-9 41 6.5 77t55.5 59l282 153q53 27 103 27q55 0 87.5 -22t22.5 -74l-192 -1100h147q86 0 66 -123q-24 -123 -109 -123h-542q-86 0 -66 123z" />
    <glyph glyph-name="two" unicode="2" horiz-adv-x="1101" 
d="M70 156q6 39 25.5 74t33 50.5t39.5 41.5q21 20 44.5 41t42.5 37.5t46 38t43 34t47.5 35.5t44 32.5t48.5 34.5t45.5 31.5t50 34.5t47.5 33q78 52 133 97t104.5 107.5t57.5 120.5q15 103 -34.5 160.5t-156.5 54.5q-78 -2 -141 -46t-96 -126q-42 -99 -164 -88
q-106 10 -84 109q29 123 112 213.5t190.5 134t225.5 43.5q215 0 336 -116t86 -326q-10 -62 -36 -119t-55.5 -98t-81.5 -89t-90.5 -78t-105.5 -79q-38 -27 -125 -85t-150.5 -103.5t-115.5 -90.5q-5 -4 -7 -9.5t0.5 -10t10.5 -4.5h543q47 0 60.5 -35t3.5 -88
q-20 -123 -107 -123h-760q-79 0 -102 32.5t-8 123.5z" />
    <glyph glyph-name="three" unicode="3" horiz-adv-x="1077" 
d="M100 240q-17 53 6.5 96.5t81.5 66.5q83 31 129 -41q38 -57 66 -86t71 -47t105 -18q105 0 180.5 67.5t96.5 170.5q7 34 7.5 63t-6 52t-17.5 42t-27.5 33t-35 25t-42 18.5t-47 12.5t-51 7.5t-52 3.5t-53.5 1q-36 0 -60.5 21t-33.5 58q-18 78 53 140l207 184q66 58 94 78
h-414q-85 0 -65 123q24 123 108 123h703q47 0 59 -36t-2 -87q-12 -58 -76 -111l-311 -268q-6 -5 -7.5 -11t1.5 -10.5t10 -5.5q173 -21 268 -140t64 -310q-36 -221 -195.5 -349.5t-384.5 -128.5q-159 0 -274.5 66t-155.5 197z" />
    <glyph glyph-name="four" unicode="4" horiz-adv-x="1179" 
d="M84 412q4 33 15 55t38 55l666 824q48 59 102 83.5t123 24.5q30 0 55 -4t50 -14.5t37 -33.5t6 -56l-144 -820h82q44 0 57.5 -32.5t4.5 -81.5q-21 -117 -103 -117h-82l-39 -217q-15 -96 -151 -96t-121 96l39 217h-551q-98 0 -84 117zM414 526h346l98 555q-35 -65 -74 -114
l-256 -316q-74 -92 -114 -125z" />
    <glyph glyph-name="five" unicode="5" horiz-adv-x="1114" 
d="M133 240q-19 48 1 90.5t77 66.5q99 43 154 -53q40 -70 93.5 -102.5t139.5 -32.5q104 0 174 69.5t90 176.5q14 77 -1.5 131.5t-54.5 83t-97 43.5t-130 13t-153 -9q-44 -5 -78.5 0t-60 21t-35 48.5t-0.5 79.5l65 381q19 105 63 146t134 41h592q87 0 63 -123
q-20 -123 -106 -123h-447q-25 0 -33.5 -8t-13.5 -33l-24 -143q-10 -38 -2.5 -54.5t43.5 -13.5q109 6 199.5 -6.5t167 -46.5t122.5 -91t65.5 -141.5t-3.5 -197.5q-41 -222 -194 -349t-376 -127q-335 0 -434 263z" />
    <glyph glyph-name="six" unicode="6" horiz-adv-x="1169" 
d="M165 465.5q0 79.5 15 165.5q54 312 268 539t515 296q124 26 163 -69q21 -46 -3.5 -84.5t-80.5 -52.5q-104 -27 -196.5 -71.5t-180 -120t-135.5 -169.5q110 74 256 74q135 0 230.5 -69t132 -185t8.5 -252q-46 -224 -196 -355.5t-365 -131.5q-91 0 -164 25t-122.5 69.5
t-83 104.5t-47.5 133.5t-14 153zM436 471q-10 -68 2.5 -127t55 -101.5t112.5 -43.5q111 0 184.5 82t94.5 196q21 119 -21.5 188.5t-158.5 69.5q-109 0 -181.5 -79t-87.5 -185z" />
    <glyph glyph-name="seven" unicode="7" horiz-adv-x="970" 
d="M260 78l576 1073q10 22 5.5 29.5t-24.5 7.5h-475q-86 0 -66 123q9 52 35.5 87.5t73.5 35.5h721q85 0 65 -123q-7 -36 -30 -84l-598 -1149q-48 -96 -195 -96q-59 0 -87 22t-1 74z" />
    <glyph glyph-name="eight" unicode="8" horiz-adv-x="1187" 
d="M152 424q19 111 85 204t173 150q-53 53 -75 127.5t-9 153.5q32 194 167.5 295.5t344.5 101.5q124 0 221 -48t146.5 -144.5t25.5 -223.5q-28 -148 -178 -262q87 -56 120 -153.5t15 -210.5q-33 -200 -185.5 -322.5t-394.5 -122.5q-107 0 -197.5 30.5t-155 87t-93 144
t-10.5 193.5zM432 424q-15 -100 38.5 -165.5t156.5 -65.5q104 0 180.5 65.5t95.5 165.5q21 101 -32.5 172.5t-159.5 71.5t-183.5 -71t-95.5 -173zM586 1047q-11 -71 34 -118.5t130 -47.5q84 0 144.5 47.5t74.5 118.5q18 83 -28 128.5t-132 45.5t-148.5 -45.5t-74.5 -128.5z
" />
    <glyph glyph-name="nine" unicode="9" horiz-adv-x="1157" 
d="M256 954q40 221 189 362.5t370 141.5q91 0 163.5 -23.5t121.5 -66.5t81.5 -100.5t45.5 -129t11 -150.5t-19 -165q-62 -316 -274.5 -550.5t-508.5 -301.5q-39 -7 -69 -8t-52 17.5t-32 58.5q-30 118 75 147q178 52 300 133.5t200 225.5q-82 -60 -229 -60q-137 1 -231 63
t-130 168t-12 238zM522 961q-21 -119 21.5 -189t154.5 -70q100 0 176 77.5t97 187.5q20 113 -22 194.5t-146 81.5q-112 0 -186 -84t-95 -198z" />
    <glyph glyph-name="colon" unicode=":" horiz-adv-x="542" 
d="M139 141q15 77 55.5 116.5t127.5 39.5q90 0 116 -38.5t13 -117.5q-13 -78 -54 -118.5t-131 -40.5t-115 40t-12 119zM276 920q15 76 55.5 114.5t127.5 38.5q90 0 116 -38t13 -115q-15 -80 -55.5 -121t-129.5 -41q-90 0 -115 40.5t-12 121.5z" />
    <glyph glyph-name="semicolon" unicode=";" horiz-adv-x="575" 
d="M59 -193l123 373q41 124 189 115q61 -4 88.5 -31.5t24 -66.5t-30.5 -86l-191 -330q-50 -83 -133 -78q-50 1 -67 29t-3 75zM291 920q13 76 53.5 114.5t128.5 38.5q89 0 114.5 -37.5t12.5 -115.5q-13 -80 -53 -121t-129 -41q-91 0 -116 40.5t-11 121.5z" />
    <glyph glyph-name="less" unicode="&#x3c;" horiz-adv-x="1019" 
d="M137 709q18 97 131 147l764 338q65 29 96 9.5t21 -89.5q-8 -55 -27.5 -85.5t-62.5 -51.5l-594 -279l496 -282q35 -20 45 -42t0 -73q-29 -139 -144 -80l-645 338q-96 50 -80 150z" />
    <glyph glyph-name="equal" unicode="=" horiz-adv-x="1161" 
d="M168 524q20 113 98 113h862q76 0 60 -113q-20 -112 -101 -112h-860q-79 0 -59 112zM231 881q20 112 99 112h860q79 0 59 -112q-20 -113 -98 -113h-860q-80 0 -60 113z" />
    <glyph glyph-name="greater" unicode="&#x3e;" horiz-adv-x="1017" 
d="M117 283q8 55 27.5 85.5t62.5 51.5l594 278l-463 265q-60 34 -75 57.5t-3 75.5q11 60 47.5 83t95.5 -3l646 -338q96 -50 77 -148q-9 -54 -41 -89t-88 -60l-764 -338q-136 -59 -116 80z" />
    <glyph glyph-name="question" unicode="?" horiz-adv-x="995" 
d="M235.5 1170q1.5 37 28.5 69q174 200 449 203q193 3 307 -96q69 -62 94 -147.5t2 -184.5q-17 -72 -61.5 -136.5t-91.5 -106.5t-123 -99q-71 -52 -119.5 -101t-89.5 -114q-46 -68 -129 -58q-86 13 -64 88q6 21 15 42.5t17 38t24.5 38.5t24.5 34.5t30 35.5t29 31t33.5 32.5
t31.5 29t34.5 30.5t31.5 28q115 104 133 199q15 89 -35.5 141t-142.5 52q-140 0 -248 -111q-40 -40 -82 -40t-76 38q-24 27 -22.5 64zM330 131q13 72 52 108.5t124 36.5q87 0 112 -35.5t13 -109.5q-13 -74 -52 -111.5t-126 -37.5t-111 37.5t-12 111.5z" />
    <glyph glyph-name="at" unicode="@" horiz-adv-x="1474" 
d="M174 713q0 144 55 280t149 239t229.5 165.5t287.5 62.5q134 0 257.5 -51t215.5 -138.5t146 -213t51 -266.5q-2 -111 -42.5 -216t-119.5 -169q-93 -81 -225 -74q-104 3 -146 98q-38 -44 -92.5 -69t-114.5 -27q-131 -3 -215.5 85t-87.5 226q-1 67 13.5 131t47 121.5
t78.5 100.5t113 68.5t146 25.5h161q86 0 114.5 -47.5t18.5 -143.5l-30 -289q-5 -48 21.5 -64.5t76.5 25.5q70 68 74 205q2 129 -55 234.5t-164.5 167.5t-245.5 65q-137 -3 -252 -76t-180.5 -194.5t-65.5 -263.5q0 -143 69 -263.5t191.5 -191t270.5 -70.5q183 0 362 84
q40 18 73.5 0.5t51.5 -61.5q39 -104 -49 -143q-213 -95 -436 -95q-151 0 -288.5 56t-240 153t-163 236t-60.5 297zM748 670.5q0 -28.5 6.5 -57.5t28 -47.5t55.5 -18.5q36 1 63 20t42 51t23 63t11 67l12 118q1 9 -4 15t-14 6h-49q-67 0 -111 -45t-57 -115q-6 -28 -6 -56.5z
" />
    <glyph glyph-name="A" unicode="A" horiz-adv-x="1232" 
d="M47 98l639 1252q52 102 176 102q123 0 139 -102l199 -1264q2 -10 2 -20q0 -14 -4 -25q-6 -19 -17.5 -29.5t-31 -16.5t-37 -7.5t-41.5 -1.5q-40 0 -64.5 5t-45.5 26.5t-27 62.5l-37 248h-448l-125 -248q-20 -41 -49 -62.5t-55 -26.5t-66 -5q-26 0 -46 2t-39.5 9t-28.5 19
q-9 11 -9 31q0 22 16 51zM569 567h291l-45 297q-14 96 -14 197q-34 -102 -82 -197z" />
    <glyph glyph-name="B" unicode="B" horiz-adv-x="1226" 
d="M160 88q-5 18 -5 40q0 24 5 52l188 1071q10 56 32.5 94t56.5 56.5t67.5 25.5t77.5 7h317q94 0 171 -25t130 -73t75 -124q12 -43 12 -91q0 -38 -7 -79q-14 -89 -67 -160.5t-126 -113.5q91 -38 127 -126q22 -55 22 -122q0 -42 -9 -88q-36 -203 -181.5 -317.5t-349.5 -114.5
h-368q-43 0 -74 7t-57.5 25t-36.5 56zM449 281q-1 -7 -1 -12q0 -11 4 -15q6 -8 25 -8h266q84 0 135 49t66 137q5 27 5 50q0 134 -165 134h-276zM551 862h248q82 0 132 43.5t62 118.5q4 24 4 44q0 118 -141 118h-213q-36 0 -41 -35z" />
    <glyph glyph-name="C" unicode="C" horiz-adv-x="1216" 
d="M176 473q1 113 23 244q129 739 712 739q218 0 329 -128q99 -114 99 -285q0 -22 -2 -44q-4 -45 -47.5 -72.5t-99.5 -27.5q-63 0 -93.5 20.5t-31.5 73.5q-3 117 -49 170.5t-160 53.5q-53 0 -99.5 -16.5t-81 -43.5t-64 -67t-49.5 -82t-37.5 -94.5t-28 -98t-19.5 -98.5
t-15 -99q-5 -46 -6 -98v-15q0 -43 4 -79q6 -42 21.5 -82t40.5 -67t65 -43.5t93 -16.5q48 0 87 13t65 31.5t51 52.5t39.5 60.5t35.5 71.5q42 89 170 89q119 0 119 -74q0 -20 -8 -45q-151 -439 -580 -439q-125 0 -218 35t-149 100q-57 64 -87 156q-29 89 -29 198v7z" />
    <glyph glyph-name="D" unicode="D" horiz-adv-x="1251" 
d="M160 88q-5 18 -5 40q0 24 5 52l190 1073q10 55 32.5 92.5t56 56t67 25.5t76.5 7h245q118 0 211.5 -38t151.5 -104.5t94 -157.5q35 -90 38 -196q0 -15 1 -31q0 -92 -16 -190q-27 -150 -78 -274t-131.5 -226t-199.5 -159.5t-267 -57.5h-301q-44 0 -75 7t-58 25t-37 56z
M451 281q-1 -6 -1 -10q0 -25 27 -25h178q66 0 123 30t97 77.5t71.5 111.5t50.5 125.5t31 126.5q11 65 14 127q1 14 1 28q0 48 -8 98q-10 64 -33.5 111t-69.5 77t-111 30h-178q-18 0 -27 -8t-12 -29z" />
    <glyph glyph-name="E" unicode="E" horiz-adv-x="1038" 
d="M156 102q-3 13 -3 28q0 22 7 50l188 1071q10 56 32.5 94t56 56.5t67 25.5t76.5 7h565q67 0 67 -80q0 -19 -4 -43q-20 -125 -106 -125h-459q-19 0 -28.5 -7.5t-12.5 -27.5l-51 -289h416q68 0 68 -76q0 -21 -5 -47q-20 -123 -106 -123h-416l-59 -335q-3 -20 3 -27.5
t25 -7.5h457q69 0 69 -81q0 -19 -4 -42q-9 -53 -35 -88t-73 -35h-563q-34 0 -59.5 4t-52 15t-39.5 31t-21 52z" />
    <glyph glyph-name="F" unicode="F" horiz-adv-x="1021" 
d="M156 76l206 1177q10 55 32.5 92.5t56.5 56t68 25.5t77 7h551q69 0 69 -81q0 -19 -4 -42q-24 -123 -108 -123h-447q-18 0 -27.5 -8t-13.5 -29l-51 -297h383q46 0 60 -35q8 -20 8 -46q0 -19 -4 -42q-20 -123 -107 -123h-385l-92 -532q-15 -94 -154 -94q-58 0 -92 22
q-27 17 -28 53q0 9 2 19z" />
    <glyph glyph-name="G" unicode="G" horiz-adv-x="1269" 
d="M175 473.5q0 112.5 22 243.5q17 96 44 182.5t66.5 171.5t95 153.5t124 121t160 81.5t196.5 29q215 0 330.5 -97.5t117.5 -279.5q0 -57 -28 -90t-101 -33q-84 0 -115 18t-34 60q-8 92 -53.5 137.5t-145.5 45.5q-292 0 -379 -500q-20 -115 -20 -203q0 -297 225 -297
q67 0 121 20.5t86 49t56.5 70.5t34.5 72.5t19 68.5q10 38 0.5 52.5t-45.5 14.5h-157q-64 0 -64 74q0 18 4 41q20 117 101 117h290q106 0 140 -43q25 -32 25 -91q0 -20 -3 -42q-15 -109 -45 -202.5t-81 -176t-119.5 -140.5t-165 -91.5t-213.5 -33.5q-124 0 -217.5 35.5
t-151 100t-89 156.5t-31.5 204.5z" />
    <glyph glyph-name="H" unicode="H" horiz-adv-x="1294" 
d="M156 76l223 1270q17 94 153 94q59 0 93 -21q28 -17 28 -54q0 -9 -2 -19l-86 -490h461l86 490q15 94 152 94q62 0 96 -21q27 -16 26 -51q0 -10 -2 -22l-225 -1270q-15 -94 -151 -94q-59 0 -93 22q-28 17 -28 54q0 9 2 18l94 534h-461l-94 -534q-17 -94 -154 -94
q-58 0 -92 22q-27 17 -28 53q0 9 2 19z" />
    <glyph glyph-name="I" unicode="I" horiz-adv-x="559" 
d="M156 76l223 1270q15 96 151 96q59 0 94 -22q27 -17 27 -52q0 -10 -2 -22l-223 -1270q-15 -94 -152 -94q-60 0 -93 22q-27 17 -27 53q0 9 2 19z" />
    <glyph glyph-name="J" unicode="J" horiz-adv-x="872" 
d="M24 73q-1 10 -1 21q0 12 1 25q4 24 15 51q18 46 57 72q25 17 49 17q14 0 27 -5q77 -29 164 -29q91 3 133.5 54t58.5 137l164 930q15 96 152 96q59 0 94 -22q27 -17 27 -52q0 -10 -2 -22l-172 -977q-18 -102 -67 -179.5t-119 -123.5t-149 -68.5t-165 -22.5q-111 0 -211 35
q-25 8 -39 24.5t-17 38.5z" />
    <glyph glyph-name="K" unicode="K" horiz-adv-x="1181" 
d="M156 76l223 1270q17 94 153 94q59 0 93 -21q28 -17 28 -54q0 -9 -2 -19l-80 -455q150 0 250 135q32 42 107 158t104 151q51 61 91 83t118 22h10q75 0 97 -28q8 -10 7 -22q0 -27 -32 -67q-28 -34 -104.5 -152.5t-131.5 -189.5q-108 -141 -208 -184q123 -39 170 -226
q21 -78 43 -245.5t38 -216.5q7 -23 7 -41q0 -76 -121 -82h-16q-56 0 -90 18q-38 21 -52 78q-20 85 -36 224t-27 196q-18 96 -85 130q-52 26 -130 25q-24 0 -50 -2l-102 -579q-17 -94 -154 -94q-58 0 -92 22q-27 17 -28 53q0 9 2 19z" />
    <glyph glyph-name="L" unicode="L" horiz-adv-x="960" 
d="M156 102q-3 13 -3 28q0 22 7 50l207 1176q15 96 151 96q59 0 94 -22q27 -17 27 -52q0 -10 -2 -22l-188 -1075q-3 -20 3 -27.5t25 -7.5h404q68 0 68 -76q0 -21 -5 -47q-20 -123 -106 -123h-510q-34 0 -60 4t-52.5 15t-39 31t-20.5 52z" />
    <glyph glyph-name="M" unicode="M" horiz-adv-x="1462" 
d="M156 76l223 1270q16 98 137 98q77 0 107 -58q11 -22 68 -185t108 -315l51 -153q416 604 459 653q49 58 125 58q58 0 92 -24q28 -19 28 -56q0 -9 -2 -18l-223 -1270q-6 -35 -30 -57t-53 -29.5t-64 -7.5q-36 0 -62.5 7t-44 29t-10.5 58l147 829q-37 -71 -108 -174
l-213 -311q-34 -47 -96 -47q-67 0 -82 47l-101 311q-38 121 -47 174l-145 -829q-17 -94 -152 -94q-56 0 -88 22q-26 17 -26 53q0 9 2 19z" />
    <glyph glyph-name="N" unicode="N" horiz-adv-x="1331" 
d="M156 76l223 1270q10 52 55.5 74t104.5 22q50 0 77.5 -15t42.5 -53l285 -684q45 -111 62 -186l149 842q15 96 150 96q57 0 91 -22q27 -18 27 -55q0 -9 -2 -19l-225 -1270q-6 -35 -31.5 -57t-55.5 -29.5t-65 -7.5q-53 0 -84 14.5t-45 52.5l-282 684q-43 105 -62 191
l-149 -848q-18 -94 -150 -94q-35 0 -61.5 7.5t-44.5 29.5q-12 16 -12 38q0 9 2 19z" />
    <glyph glyph-name="O" unicode="O" horiz-adv-x="1314" 
d="M176 473q2 113 23 244q24 136 60 245t93.5 203t133 157t179.5 98.5t232 35.5t222.5 -35t150.5 -99q57 -64 87 -156q29 -87 29 -194v-11q-2 -113 -24 -244q-20 -113 -48 -207t-69 -178.5t-96 -148.5t-125 -111t-160.5 -71t-197.5 -24q-128 0 -223.5 35t-152.5 100
q-56 64 -86 156q-29 87 -29 194q1 6 1 11zM456 489q0 -60 14.5 -106t39.5 -85t71.5 -60t110.5 -21q304 0 391 500q11 62 16 115t5 113t-14 106t-39 85t-72 60t-111 21q-77 0 -139 -31.5t-102.5 -79t-71.5 -118t-48 -133t-30 -138.5q-11 -62 -16 -115q-5 -48 -5 -102v-11z
" />
    <glyph glyph-name="P" unicode="P" horiz-adv-x="1187" 
d="M156 76l209 1175q10 56 32.5 94t55.5 56.5t66.5 25.5t76.5 7h342q188 0 298 -126q84 -97 84 -234q0 -41 -7 -85q-35 -199 -170.5 -323.5t-321.5 -124.5h-311l-82 -465q-17 -94 -154 -94q-58 0 -92 22q-27 17 -28 53q0 9 2 19zM553 786h262q82 0 139.5 57.5t73.5 145.5
q4 26 4 48q0 56 -26 95q-37 54 -121 54h-228q-18 0 -27.5 -7.5t-13.5 -27.5z" />
    <glyph glyph-name="Q" unicode="Q" horiz-adv-x="1310" 
d="M176 473q-1 3 -1 5q0 111 22 239q24 135 60.5 244.5t94.5 203.5t134.5 157t181.5 98.5t233 35.5q122 0 214 -35t148.5 -99.5t87.5 -156t31 -204.5t-22 -244q-83 -470 -344 -641l112 -182q16 -26 16 -47t-16 -38q-33 -33 -112 -42q-23 -3 -43 -3q-37 0 -63 11
q-39 17 -62 67l-68 146q-75 -11 -133 -11q-117 0 -206.5 35t-145.5 100t-87.5 156.5t-31.5 204.5zM456 581q-2 -28 -2 -58q0 -36 4 -73q6 -69 28 -116.5t70.5 -80t121.5 -34.5l-14 29q-8 19 -8 34q0 18 12 32q21 24 71 32q21 4 40 4q67 0 102 -53l6 -10q134 110 194 430
q11 62 16 115t5 113t-14 106t-39 85t-72 60t-111 21q-77 0 -139 -31.5t-102.5 -79t-71.5 -118t-48 -133t-30 -138.5q-13 -74 -19 -136z" />
    <glyph glyph-name="R" unicode="R" horiz-adv-x="1230" 
d="M156 76l209 1177q10 55 32.5 92.5t55.5 56t66.5 25.5t76.5 7h360q188 0 290 -118q77 -89 77 -221q0 -43 -8 -91q-25 -137 -113 -234.5t-203 -138.5q85 -70 123 -213q7 -26 18.5 -75.5t19 -79.5t21 -71t29.5 -75q12 -26 12 -48q0 -32 -26 -53q-44 -36 -127 -36
q-59 0 -87 14t-42 39q-22 36 -38 95t-33 141.5t-29 125.5q-23 86 -66 133t-125 47h-133l-88 -499q-18 -94 -154 -94q-58 0 -92 22q-27 17 -28 53q0 9 2 19zM557 809h262q83 0 140 55t71 140q4 25 4 47q0 55 -26 89q-38 48 -123 48h-228q-18 0 -27.5 -8t-13.5 -29z" />
    <glyph glyph-name="S" unicode="S" horiz-adv-x="1132" 
d="M94 348q-1 50 29.5 83t81.5 44q22 5 41 5q30 0 55 -12q40 -20 47 -73q15 -89 78 -137.5t154 -48.5q101 0 172.5 49.5t89.5 151.5q3 18 3 35q1 22 -5 41q-10 34 -29 54.5t-53 39t-58 26.5t-61 19q-75 21 -129 41t-116.5 56.5t-98.5 80.5q-36 43 -54 111q-10 37 -10 79
q0 35 7 72q17 95 68 171t122.5 123.5t156 72.5t173.5 26q90 0 166 -18t142 -56t107.5 -107t49.5 -163q1 -6 1 -11q0 -39 -31 -69q-35 -34 -95 -41q-18 -2 -33 -2q-92 0 -109 66q-21 87 -68.5 126.5t-146.5 39.5q-83 0 -148 -41t-79 -127q-3 -14 -3 -26q0 -22 8 -42
q12 -31 32 -50.5t54 -36.5t57.5 -25t56.5 -17q98 -27 165 -55t136 -79q70 -50 96 -130q16 -47 15 -104q0 -39 -7 -82q-38 -210 -194 -323.5t-387 -113.5q-88 0 -165.5 22.5t-140.5 67t-101 118.5t-42 169z" />
    <glyph glyph-name="T" unicode="T" horiz-adv-x="1036" 
d="M283 1311q9 53 35 88t73 35h793q67 0 67 -80q0 -19 -4 -43q-20 -125 -108 -125h-260l-195 -1110q-15 -90 -145 -94q-63 0 -99 22q-29 18 -29 54q0 8 1 18l196 1110h-260q-47 0 -61 36q-8 21 -8 47q0 20 4 42z" />
    <glyph glyph-name="U" unicode="U" horiz-adv-x="1282" 
d="M206 269q-9 47 -9 104q0 65 12 141l147 832q15 96 154 96q59 0 93 -22q28 -18 28 -55q0 -9 -2 -19l-152 -854q-6 -35 -6 -67q1 -77 37 -129q52 -74 168.5 -73.5t194 75t98.5 194.5l151 854q15 96 152 96q122 0 122 -78q0 -9 -1 -18l-148 -832q-49 -276 -205 -407.5
t-393 -131.5q-116 0 -205.5 30.5t-152.5 96t-83 167.5z" />
    <glyph glyph-name="V" unicode="V" horiz-adv-x="1148" 
d="M279 1346q-1 7 -1 13q0 41 30 61q34 22 85 22q29 0 50 -3t45 -12t38.5 -29.5t18.5 -51.5l84 -791q10 -82 10 -180q31 84 74 180l362 791q16 34 37.5 55t50.5 29t48 10t51 2q50 0 82 -23q19 -14 19 -36q0 -16 -9 -37l-590 -1262q-27 -58 -72.5 -80t-111.5 -22
q-67 0 -105 21.5t-45 80.5z" />
    <glyph glyph-name="W" unicode="W" horiz-adv-x="1716" 
d="M279 1339v8q0 45 33 69q36 26 85 26q28 0 49 -3t45.5 -12t38.5 -29.5t15 -51.5l37 -771q1 -17 3 -54.5t3.5 -73t1.5 -64.5q42 115 72 190l303 773q39 96 141 96q105 0 108 -96l29 -773q4 -164 4 -190q15 41 44 110t34 82l313 771q13 33 34.5 53.5t49.5 29t48.5 11
t50.5 2.5q51 0 87 -26q23 -16 23 -43q0 -15 -8 -34l-532 -1255q-43 -102 -193 -102q-142 0 -149 102l-39 602q-4 74 -4 158q-6 -20 -17.5 -50t-25 -63.5t-17.5 -44.5l-252 -602q-24 -58 -68 -80t-108 -22q-69 0 -111.5 20.5t-46.5 77.5z" />
    <glyph glyph-name="X" unicode="X" horiz-adv-x="1114" 
d="M51 84l481 661l-231 586q-8 19 -8 35q-1 26 23 44q36 28 98 30q14 1 27 1q63 -1 93 -17q35 -20 56 -78l129 -375l262 375q39 57 90 78q41 17 103 17q15 0 30 -1q56 -2 90 -30q16 -13 15 -32q0 -20 -19 -47l-454 -604l251 -643q8 -28 0.5 -47t-30.5 -31t-47 -17.5
t-49 -6.5h-20q-61 0 -95 16q-40 19 -60 74l-141 409l-285 -409q-37 -52 -94 -72q-52 -18 -122 -18h-15q-24 1 -44.5 6t-36.5 17q-16 11 -16 29q0 19 19 50z" />
    <glyph glyph-name="Y" unicode="Y" horiz-adv-x="1093" 
d="M264 1331q-7 19 -7 36q0 27 21 45q33 30 84 30q85 0 116.5 -18.5t53.5 -77.5l160 -437l312 437q40 56 89.5 76t135.5 20q30 0 51.5 -10.5t27.5 -33.5q1 -4 1 -9q0 -21 -23 -52l-487 -657l-107 -604q-15 -94 -151 -94q-122 0 -122 76q0 9 1 18l106 604z" />
    <glyph glyph-name="Z" unicode="Z" horiz-adv-x="1015" 
d="M51 104q0 66 47 129l619 818q55 72 114 137h-503q-70 0 -70 81q0 19 4 42q9 52 35.5 87.5t73.5 35.5h739q79 0 79 -84q0 -17 -3 -37q-12 -65 -53 -121l-611 -809q-77 -100 -114 -137h501q47 0 61 -35q8 -20 7 -46q0 -19 -4 -42q-20 -123 -107 -123h-741q-43 0 -58.5 27
t-15.5 77z" />
    <glyph glyph-name="bracketleft" unicode="[" horiz-adv-x="555" 
d="M86 -195l258 1465q14 78 63.5 121t127.5 43h194q39 0 52 -26.5t5 -68.5q-7 -44 -30 -72t-64 -28h-98q-18 0 -27 -6.5t-12 -24.5l-236 -1341q-3 -17 3.5 -23t25.5 -6h96q41 0 54.5 -29t5.5 -73q-15 -94 -92 -94h-193q-78 0 -112.5 42.5t-20.5 120.5z" />
    <glyph glyph-name="backslash" unicode="\" horiz-adv-x="993" 
d="M262 1323q-14 50 7.5 82t72.5 33q53 3 77.5 -15t37.5 -61l479 -1612q13 -40 -2.5 -68.5t-59.5 -35.5q-58 -10 -88.5 5t-42.5 60z" />
    <glyph glyph-name="bracketright" unicode="]" horiz-adv-x="555" 
d="M-47 -264q7 44 30 73t64 29h98q34 0 39 29l236 1341q3 18 -3.5 24.5t-25.5 6.5h-96q-78 0 -59 100q7 42 30 68.5t62 26.5h192q78 0 112.5 -43t20.5 -121l-258 -1465q-14 -78 -63 -120.5t-127 -42.5h-193q-77 0 -59 94z" />
    <glyph glyph-name="asciicircum" unicode="^" horiz-adv-x="1030" 
d="M217 814.5q-4 38.5 31 84.5l323 449q44 63 88 91.5t111 28.5q66 0 99 -28t57 -92l166 -449q18 -46 0 -84.5t-66 -48.5q-57 -12 -86.5 1.5t-48.5 57.5l-162 369l-293 -369q-65 -82 -170 -59q-45 10 -49 48.5z" />
    <glyph glyph-name="underscore" unicode="_" horiz-adv-x="1118" 
d="M-27 -217q7 48 32 81.5t67 33.5h932q79 0 59 -115q-21 -113 -98 -113h-932q-43 0 -56 32.5t-4 80.5z" />
    <glyph glyph-name="grave" unicode="`" horiz-adv-x="575" 
d="M337.5 1486q39.5 64 101.5 85.5t106 -19.5l209 -272q23 -31 11.5 -68.5t-43.5 -60t-70.5 -29.5t-69.5 23l-244 237q-40 40 -0.5 104z" />
    <glyph glyph-name="a" unicode="a" horiz-adv-x="1089" 
d="M127 475q20 120 70 218t120.5 165.5t161 114t190 67.5t208.5 21h94q99 0 139 -54q30 -40 30 -98q0 -20 -3 -43l-109 -616q-9 -55 -9 -105q0 -38 5 -73q1 -7 1 -13q-1 -35 -29 -57q-34 -26 -85 -31q-11 -1 -21 -1q-97 0 -134 93q-52 -41 -132.5 -66.5t-150.5 -25.5
q-211 0 -299 131q-60 90 -60 232q0 65 13 141zM407 320q4 -64 37 -100t97 -36q46 0 85.5 18.5t66 47t47.5 68t33.5 77t19.5 78.5l51 289q6 23 6 38q0 12 -4 18q-8 16 -58 16q-87 0 -157 -33.5t-113.5 -89t-69 -116.5t-34.5 -126q-7 -63 -7 -114q-1 -19 0 -35z" />
    <glyph glyph-name="b" unicode="b" horiz-adv-x="1134" 
d="M137 80l223 1263q18 99 154 99q60 0 96 -23q28 -18 27 -54q0 -10 -2 -22l-60 -335q37 31 114 54t140 23q111 0 189 -41t116 -114.5t48 -175.5q3 -31 4 -65q0 -76 -17 -161q-96 -555 -532 -555q-71 0 -139 26t-105 67q-32 -89 -151 -89q-56 0 -86 24q-22 18 -22 53
q0 12 3 26zM475 376q5 -50 19 -92.5t49 -70t84 -27.5q193 0 254 342q16 85 16 149q0 195 -149 195q-53 0 -98.5 -29t-75 -76t-48.5 -98t-28 -104l-17 -92q-8 -32 -8 -66q0 -15 2 -31z" />
    <glyph glyph-name="c" unicode="c" horiz-adv-x="1040" 
d="M159 307q-5 35 -5 74q0 70 16 149q97 549 565 549q159 -1 265 -85q100 -79 100 -203v-17q-3 -60 -35.5 -86t-103.5 -26q-53 0 -80 16.5t-31 56.5q-9 69 -43.5 102t-108.5 33q-52 0 -94.5 -21.5t-69.5 -53.5t-48 -80.5t-32 -90t-20 -94.5q-8 -42 -11 -78.5t-3 -77t9.5 -72
t26 -58t48 -40.5t74.5 -14q122 0 202 132q25 41 60 57t88 18h9q55 0 81 -24q16 -15 15 -38q0 -18 -9 -40q-61 -149 -175.5 -232t-285.5 -83q-127 0 -215.5 40.5t-132 113t-56.5 173.5z" />
    <glyph glyph-name="d" unicode="d" horiz-adv-x="1159" 
d="M158 307q-4 34 -4 70q0 73 16 155q18 102 46 184.5t72 153.5t101.5 118.5t137 74.5t175.5 27q135 0 232 -78l61 331q15 99 154 99q59 0 95 -23q28 -18 28 -54q0 -10 -2 -22l-226 -1259q-18 -102 -143 -102q-119 0 -119 88q-121 -93 -247 -93q-117 0 -199.5 40.5t-124 114
t-53.5 175.5zM459 532q-16 -86 -16 -150q0 -192 145 -192q64 0 120.5 47.5t88.5 111t43 128.5l16 92q7 37 7 77q1 36 -7 77q-8 43 -24 76.5t-48 55.5t-75 22q-48 0 -87.5 -22t-65 -54.5t-46 -81t-31.5 -91.5t-20 -96z" />
    <glyph glyph-name="e" unicode="e" horiz-adv-x="1060" 
d="M155 390v17q0 63 13 130q15 89 44.5 168.5t78 150t111.5 121.5t149.5 80.5t187.5 29.5q207 0 303 -120q69 -87 70 -216q0 -49 -10 -104q-18 -98 -69 -137t-148 -39h-455q-6 -43 -5 -79q0 -197 171 -197q61 0 101.5 26.5t82.5 83.5q35 47 120 47q18 0 38 -2q40 -5 58 -24
t16.5 -39.5t-11.5 -44.5q-54 -132 -171 -201.5t-269 -69.5q-83 0 -151 21t-114 59t-79 90.5t-46.5 114.5t-15.5 134zM475 662h336q16 0 29 11.5t14 35.5q2 15 2 28q0 57 -32 93q-38 44 -111 44q-86 0 -148.5 -57t-89.5 -155z" />
    <glyph glyph-name="f" unicode="f" horiz-adv-x="731" 
d="M-88 -215q10 56 42 77q25 16 63 16q10 0 20 -1q11 -1 22 -1q60 0 97 25q42 29 55 103l147 836h-67q-53 0 -70 32q-11 20 -11 47q0 15 3 31q9 48 37 79.5t80 31.5h67l6 37q16 89 45.5 152.5t80 112t128.5 72t185 23.5q57 0 90 -8q39 -10 50 -40q5 -14 5 -33q0 -21 -6 -48
q-10 -55 -39 -81q-28 -25 -63 -25h-5q-5 1 -12 1t-15.5 -0.5t-12.5 -0.5q-39 0 -67.5 -8t-54.5 -36t-34 -77l-6 -41h90q52 0 70 -31q11 -21 11 -49q0 -15 -3 -31q-20 -110 -119 -110h-88l-144 -813q-38 -209 -162 -310q-96 -78 -238 -78q-43 0 -89 7q-92 12 -92 101
q0 17 4 38z" />
    <glyph glyph-name="g" unicode="g" horiz-adv-x="1130" 
d="M125 -207q17 56 53 81q23 17 48 17q14 0 30 -6q113 -41 220 -41q25 0 50 2q85 8 153.5 64.5t82.5 152.5q-46 -35 -112 -54t-132 -19q-120 0 -200.5 38t-119 108t-47.5 170q-2 27 -2 56q0 77 17 166q96 555 547 555q69 0 130.5 -24.5t98.5 -67.5q30 90 150 90q57 0 86 -25
q23 -18 23 -53q0 -12 -3 -26l-156 -879q-39 -227 -180 -355.5t-358 -143.5q-38 -2 -74 -2q-141 0 -252 34q-64 22 -64 93q0 30 11 69zM440 434q-1 -18 -1 -36q0 -25 3 -50q4 -45 19 -75.5t47.5 -50t81.5 -19.5q53 0 98.5 28t75 73t48 93t26.5 97l16 90q7 28 7 60q0 16 -2 32
q-5 51 -18.5 94.5t-48 72.5t-83.5 29q-48 0 -88 -21.5t-66.5 -54.5t-47.5 -81t-32.5 -91t-21.5 -96q-9 -52 -13 -94z" />
    <glyph glyph-name="h" unicode="h" horiz-adv-x="1112" 
d="M135 80l223 1263q18 99 154 99q59 0 94 -24q28 -19 28 -57q0 -9 -1 -18l-66 -368q143 119 307 119q92 0 156 -31.5t93 -85t38 -124.5q3 -25 3 -50q0 -48 -11 -101l-111 -622q-18 -98 -155 -98q-59 0 -94 22q-27 17 -27 54q0 10 2 22l102 590q6 35 7 61.5t-5 55.5
t-28.5 45t-61.5 16q-55 0 -101 -19.5t-77 -50.5t-55.5 -73.5t-38 -84.5t-21.5 -88l-79 -452q-18 -98 -156 -98q-59 0 -94 22q-27 17 -27 54q0 10 2 22z" />
    <glyph glyph-name="i" unicode="i" horiz-adv-x="550" 
d="M156 80l159 905q18 98 156 98q59 0 94 -22q27 -17 27 -54q0 -10 -2 -22l-158 -905q-18 -98 -156 -98q-62 0 -96 22q-27 17 -26 53q0 11 2 23zM360 1309q11 66 50.5 99.5t124.5 33.5q83 0 109 -33q18 -23 18 -63q0 -17 -3 -37q-12 -70 -49.5 -107t-124.5 -37
q-89 0 -113 37q-16 25 -16 65q0 19 4 42z" />
    <glyph glyph-name="j" unicode="j" horiz-adv-x="505" 
d="M-168 -215q26 111 150 111q94 0 118 127l170 962q18 98 154 98q61 0 96 -22q27 -17 27 -54q0 -10 -2 -22l-180 -1018q-30 -175 -153 -259q-96 -65 -224 -65q-37 0 -76 5q-53 7 -73 45q-12 23 -12 52q0 19 5 40zM315 1309q11 66 50 99.5t122 33.5q84 0 111 -34
q19 -23 19 -64q0 -16 -3 -35q-12 -70 -50 -107t-126 -37q-87 0 -111 37q-16 25 -16 64q0 20 4 43z" />
    <glyph glyph-name="k" unicode="k" horiz-adv-x="1052" 
d="M135 80l223 1263q18 99 154 99q61 0 96 -22q27 -18 27 -55q0 -10 -2 -22l-115 -649q46 9 83 28.5t68 51t53 60t55.5 75t58.5 76.5q44 53 97.5 74.5t127.5 21.5q42 0 70.5 -14.5t33.5 -42.5q1 -3 1 -7q0 -25 -31 -59q-28 -32 -102.5 -129t-132 -153.5t-118.5 -79.5
q50 -14 85.5 -46t52.5 -71t28.5 -91.5t15.5 -99t12 -102t19 -92.5q5 -17 5 -32q0 -71 -115 -80q-11 -1 -21 -1q-54 1 -92 27q-44 32 -53 98q-5 33 -9.5 79.5t-7.5 72.5t-9.5 60.5t-15.5 53t-25.5 39.5t-39.5 31q-22 8 -56 14q-29 5 -65 5h-14l-67 -381q-18 -98 -154 -98
q-61 0 -96 22q-27 17 -27 54q0 10 2 22z" />
    <glyph glyph-name="l" unicode="l" horiz-adv-x="522" 
d="M135 80l223 1263q18 99 154 99q61 0 96 -22q27 -18 27 -55q0 -10 -2 -22l-223 -1263q-18 -98 -156 -98q-59 0 -94 22q-27 17 -27 54q0 10 2 22z" />
    <glyph glyph-name="m" unicode="m" horiz-adv-x="1716" 
d="M135 80l160 905q8 50 47 74t92 24q60 0 88 -22t27 -80l-2 -25q128 131 330 138q103 0 158.5 -43t88.5 -129q92 93 186 132.5t173 39.5q75 0 128.5 -22.5t82 -60t41.5 -91.5q12 -48 12 -97v-12q-2 -56 -14 -121l-109 -610q-18 -98 -154 -98q-62 0 -96 22q-27 17 -26 53
q0 11 2 23l104 590q6 35 7 61.5t-5 55.5t-28.5 45t-61.5 16q-59 0 -107 -24.5t-78.5 -67t-49.5 -89t-29 -100.5l-86 -487q-18 -98 -154 -98q-64 2 -96 24q-26 18 -27 55q0 9 2 19l103 575q7 25 5 58.5t-8.5 63.5t-29.5 50.5t-59 20.5q-56 0 -101.5 -24t-76 -66t-49.5 -90.5
t-29 -104.5l-84 -483q-18 -98 -156 -98q-61 0 -96 22q-27 17 -27 54q0 10 2 22z" />
    <glyph glyph-name="n" unicode="n" horiz-adv-x="1132" 
d="M135 80l160 905q16 94 139 98h9q53 -1 79 -21t25 -70v-11v-25q133 138 330 138q76 0 132 -20.5t88 -57.5q31 -36 49 -86q16 -47 17 -102q0 -5 -1 -9q-2 -60 -11 -127l-109 -612q-18 -98 -155 -98q-59 0 -94 22q-27 17 -27 54q0 10 2 22l104 590q4 34 4 67v13
q-1 40 -28 69t-78 29q-62 0 -111.5 -23.5t-81.5 -65t-51.5 -90t-29.5 -106.5l-86 -483q-18 -98 -154 -98q-61 0 -96 22q-27 17 -27 54q0 10 2 22z" />
    <glyph glyph-name="o" unicode="o" horiz-adv-x="1052" 
d="M140 307q-5 36 -5 75q0 69 15 148q22 127 62 223.5t105 171.5t161.5 114.5t223.5 39.5t214 -40t130 -113q42 -74 54 -174q4 -33 3 -67q0 -73 -16 -155q-18 -101 -45 -182t-70.5 -151.5t-101.5 -117t-139.5 -73t-183.5 -26.5q-127 0 -216 40.5t-133 113t-58 173.5z
M400 375q0 -41 9 -72.5t26 -58t49 -40.5t75 -14q204 0 264 340q6 37 10 67q4 31 5 67v14q0 28 -3 50q-4 28 -14.5 55.5t-28.5 46t-47 29.5t-67 11q-52 0 -94.5 -21.5t-69.5 -53.5t-48 -80.5t-32 -90t-20 -94.5q-8 -42 -12 -78q-3 -32 -2 -67v-10z" />
    <glyph glyph-name="p" unicode="p" horiz-adv-x="1136" 
d="M74 -287l223 1266q18 98 143 102h10q109 0 109 -88q46 41 117.5 66.5t142.5 25.5q113 0 192.5 -41t120 -114.5t52.5 -175.5q3 -34 3 -69q0 -74 -16 -157q-22 -126 -64 -225t-106 -174t-156.5 -115.5t-207.5 -40.5q-69 0 -132.5 19.5t-96.5 58.5l-60 -338
q-15 -98 -153 -98q-61 0 -96 22q-27 17 -27 54q0 10 2 22zM478 390q4 -54 17.5 -99.5t50 -75t89.5 -29.5q60 0 105 30.5t72.5 85.5t43 106.5t27.5 119.5q10 52 15 96q2 26 2 53q0 19 -1 38q-3 48 -17 81t-46 54.5t-80 21.5q-95 0 -165 -89.5t-89 -198.5l-17 -90
q-8 -36 -8 -75q0 -14 1 -29z" />
    <glyph glyph-name="q" unicode="q" horiz-adv-x="1112" 
d="M147 532q22 128 61.5 226t102 173.5t155.5 115.5t214 40q72 0 143 -25.5t101 -66.5q33 90 151 90q56 0 85 -25q23 -18 23 -53q0 -12 -3 -26l-222 -1264q-18 -98 -155 -98q-38 0 -65.5 7.5t-45 30.5t-10.5 60l61 338q-94 -78 -231 -78q-146 0 -239 70.5t-124 194.5
q-16 65 -16 140q0 70 14 150zM421 346q3 -49 16.5 -81t45.5 -53.5t80 -21.5q53 0 99.5 29t77 76.5t51 98.5t30.5 104l15 90q6 36 6 71q0 31 -5 61q-10 64 -49 110.5t-104 46.5q-48 0 -87.5 -22t-64.5 -54.5t-45 -81.5t-31 -91.5t-20 -95.5q-9 -54 -14 -96q-2 -24 -2 -52
q0 -18 1 -38z" />
    <glyph glyph-name="r" unicode="r" horiz-adv-x="745" 
d="M135 80l160 905q8 51 44 74.5t87 23.5q104 0 115 -75l4 -29q43 51 104 79.5t121 33.5q16 1 30 1q55 1 78 -21q20 -20 20 -57q0 -15 -3 -32q-14 -77 -36.5 -110t-86.5 -37q-122 -7 -186.5 -70.5t-85.5 -179.5l-90 -506q-18 -98 -154 -98q-61 0 -96 22q-27 17 -27 54
q0 10 2 22z" />
    <glyph glyph-name="s" unicode="s" horiz-adv-x="964" 
d="M119 223q-4 20 -4 38q0 37 18 67q27 44 96 45q65 0 95 -15t41 -49q36 -113 174 -116q59 0 113.5 30t54.5 82q0 57 -43 82.5t-162 52.5q-69 14 -123.5 37.5t-100.5 62.5q-48 38 -66 98q-10 33 -10 72q0 31 7 66q21 103 89 176t157.5 105.5t191.5 32.5q143 0 244.5 -56
t120.5 -174q2 -14 2 -25q0 -33 -18 -53q-26 -26 -87 -37q-25 -4 -47 -4q-78 0 -108 56q-41 80 -129 80q-66 0 -112 -23.5t-46 -69.5q0 -21 8.5 -38t26 -28.5t33.5 -19.5t41.5 -14.5t38 -9t34.5 -6.5q65 -11 114.5 -26t96 -41.5t74.5 -60.5q27 -36 39 -88q7 -29 7 -61
q0 -27 -5 -57q-27 -175 -149 -268t-306 -93q-152 0 -262 60.5t-139 189.5z" />
    <glyph glyph-name="t" unicode="t" horiz-adv-x="761" 
d="M199 950q7 48 34.5 79.5t81.5 31.5h66l33 184q18 98 153 98q61 0 96 -22q27 -17 27 -54q0 -10 -2 -22l-33 -184h115q82 0 82 -82q0 -14 -2 -29q-20 -110 -119 -110h-115l-84 -473q-4 -21 -4 -39q0 -46 24 -68q25 -25 86 -24q19 0 40 2q11 1 20 1q48 1 68 -25
q14 -19 13 -51q0 -20 -5 -44q-18 -78 -75.5 -107.5t-153.5 -29.5q-99 1 -164.5 27.5t-96 74.5t-38.5 116q-2 21 -2 42q0 50 12 108l86 490h-66q-80 0 -80 76q0 15 3 34z" />
    <glyph glyph-name="u" unicode="u" horiz-adv-x="1116" 
d="M158 220q-3 27 -4 56q0 54 12 113l106 596q15 98 154 98q122 0 122 -79q0 -9 -1 -19l-105 -590q-7 -37 -7 -67q0 -113 97 -113q118 0 184 76.5t89 197.5l86 496q18 98 156 98q59 0 93 -22q27 -17 27 -53q0 -11 -2 -23l-157 -901q-18 -102 -144 -102q-56 0 -80.5 22
t-27.5 76l-2 22q-142 -133 -293 -133q-97 0 -164 31.5t-98 86.5t-41 133z" />
    <glyph glyph-name="v" unicode="v" horiz-adv-x="1005" 
d="M217 985q-1 8 -1 16q0 41 32 59q38 22 96 23q61 0 106 -22.5t52 -75.5l49 -457q3 -28 4 -99.5t4 -102.5q10 23 36.5 95t43.5 107l209 457q25 53 78 75.5t114 22.5q27 0 50 -4.5t43.5 -15.5t24.5 -30q1 -4 0 -9q0 -16 -9 -39l-451 -905q-49 -98 -192 -98
q-59 0 -104.5 22.5t-53.5 75.5z" />
    <glyph glyph-name="w" unicode="w" horiz-adv-x="1470" 
d="M217 983q-1 7 -1 13q0 85 124 85q31 0 54 -3.5t46 -12.5t36.5 -29t15.5 -49l34 -450q4 -53 4 -175q34 98 64 168l203 463q37 82 129 82t98 -82l41 -463q10 -105 10 -168q49 150 60 175l192 450q24 56 72 75t114 19q61 -1 93 -23q19 -13 18 -35q0 -17 -10 -40l-389 -874
q-29 -66 -74 -94.5t-131 -28.5q-72 0 -106 37.5t-40 107.5l-22 270q-6 52 -6 195q-14 -68 -72 -195l-119 -270q-64 -145 -202 -145q-84 0 -116 28t-38 95z" />
    <glyph glyph-name="x" unicode="x" horiz-adv-x="942" 
d="M36 36q-3 8 -3 17q0 33 37 78l350 432l-168 375q-13 29 -13 51q1 25 17 41q30 32 96 37q17 1 32 1q100 0 122 -62l90 -250l182 258q29 40 71 50q26 6 58 5q20 0 43 -2q31 -2 54.5 -10.5t38.5 -22.5q12 -11 12 -30q0 -6 -1 -10q-4 -24 -30 -56l-313 -395l192 -412
q18 -32 18 -59q-1 -20 -11 -36q-24 -38 -105 -42h-37.5h-32.5q-31 1 -55 17t-37 50l-108 291l-209 -291q-36 -47 -84 -59q-36 -9 -87 -9q-17 0 -36 1q-71 4 -83 42z" />
    <glyph glyph-name="y" unicode="y" horiz-adv-x="978" 
d="M37 -225q11 63 42 92q25 23 69 23q10 0 22 -1q7 -1 15 -1q38 0 75 22q45 26 68 70l47 88l-170 856q-4 23 -4 42q0 38 17 60q26 34 95 45q30 4 54 4q91 0 100 -61l98 -586l297 586q32 61 123 61q23 0 51 -4q46 -7 68.5 -21.5t25.5 -43.5q1 -4 1 -8q0 -27 -23 -68
l-563 -1067q-71 -135 -187 -186q-79 -35 -172 -35q-43 0 -90 8q-63 10 -63 84q0 18 4 41z" />
    <glyph glyph-name="z" unicode="z" horiz-adv-x="817" 
d="M35 111q11 69 49 116l422 504q72 81 110 109h-335q-81 0 -81 76q0 15 3 34q20 111 116 111h547q54 1 72 -31q12 -21 11 -49q0 -14 -3 -31q-6 -38 -18 -63t-39 -56l-416 -493q-62 -73 -121 -117h377q81 0 82 -76q0 -15 -4 -34q-7 -48 -35 -79.5t-82 -31.5h-573
q-85 0 -85 78q0 15 3 33z" />
    <glyph glyph-name="braceleft" unicode="{" horiz-adv-x="600" 
d="M168 537q15 84 74 102q64 20 82 129l63 352q28 164 125 242t270 72q65 -2 49 -99t-83 -100q-67 -1 -98.5 -31t-43.5 -98l-59 -344q-29 -152 -139 -225q44 -31 57.5 -93t1.5 -131l-61 -344q-11 -70 9 -100t87 -31q65 -2 49 -100q-20 -96 -86 -96q-168 -3 -238.5 86
t-42.5 247l60 332q18 109 -39 127q-53 18 -37 103z" />
    <glyph glyph-name="braceright" unicode="}" horiz-adv-x="600" 
d="M-37 -260q21 98 84 98q67 1 98 31t43 100l62 344q11 67 46 127.5t91 98.5q-44 30 -57.5 91.5t-1.5 131.5l61 344q12 69 -8 99.5t-86 31.5q-66 0 -49 98q16 99 84 99q168 3 238.5 -86.5t41.5 -247.5l-57 -332q-18 -110 37 -129q52 -15 37 -102q-12 -85 -74 -101
q-64 -20 -82 -129l-61 -352q-29 -165 -126.5 -242.5t-269.5 -70.5q-67 2 -51 98z" />
    <glyph glyph-name="asciitilde" unicode="~" horiz-adv-x="1198" 
d="M185.5 653q1.5 33 29.5 62q130 136 283 155q130 19 286 -51q82 -40 164 -43q82 0 160 58q78 59 135 -7q43 -48 -22 -120q-123 -135 -271 -154q-132 -17 -284 51q-91 43 -164 43q-89 0 -160 -55q-82 -62 -135 0q-23 28 -21.5 61z" />
    <glyph glyph-name="uni00A0" unicode="&#xa0;" 
 />
    <glyph glyph-name="copyright" unicode="&#xa9;" horiz-adv-x="1630" 
d="M197 700q26 149 101 287t183.5 244t254.5 169.5t304 63.5q147 0 277 -57t219 -154t129 -233.5t14 -286.5q-27 -150 -103.5 -287t-187 -240t-257 -164.5t-304.5 -61.5q-147 0 -275.5 55.5t-215.5 150t-126 229.5t-13 285zM401 721q-30 -161 20.5 -288t161 -195t257.5 -68
q145 0 281.5 72t232 199.5t121.5 279.5q21 123 -3 227t-84 175t-151 111t-201 40q-108 0 -214.5 -43.5t-191.5 -117t-146.5 -176t-82.5 -216.5zM571 725q16 88 52.5 166.5t91.5 142.5t135.5 102t175.5 38q109 0 177 -56.5t83 -161.5q9 -57 -6 -80t-61 -34q-59 -11 -83 3.5
t-34 67.5q-7 37 -38.5 57.5t-72.5 18.5q-47 0 -85.5 -23.5t-64 -63.5t-41.5 -83.5t-24 -91.5q-9 -42 -7 -88t11.5 -84t40.5 -62.5t80 -25.5q42 0 79 25t62 69t53.5 57.5t73.5 10.5q34 -3 52 -17t19 -34.5t-4 -39.5t-15 -40q-47 -97 -142.5 -155t-210.5 -58q-113 1 -188.5 60
t-103 158.5t-5.5 221.5z" />
    <glyph glyph-name="guillemotleft" unicode="&#xab;" horiz-adv-x="774" 
d="M176 559q6 26 35 68l168 231q49 64 139 39q30 -10 37.5 -40t-10.5 -62l-115 -211q-12 -20 -14 -35q-2 -8 2 -33l41 -203q6 -31 -9.5 -55.5t-50.5 -34.5q-81 -21 -112 47l-99 224q-17 34 -12 65zM475 559q4 30 35 68l168 231q47 64 137 39q31 -10 38 -40t-11 -62
l-115 -211q-9 -15 -12 -35q-3 -14 0 -33l41 -203q6 -31 -9.5 -55.5t-50.5 -34.5q-81 -21 -112 47l-99 224q-15 36 -10 65z" />
    <glyph glyph-name="uni00AD" unicode="&#xad;" 
d="M168 543q20 112 100 112h416q75 0 59 -112q-20 -113 -100 -113h-416q-79 0 -59 113z" />
    <glyph glyph-name="registered" unicode="&#xae;" horiz-adv-x="1632" 
d="M197 700q28 153 103.5 292t184 243.5t253.5 166.5t302 62q118 0 226.5 -36t192.5 -103.5t142 -156.5t79.5 -202t0.5 -233q-28 -153 -104 -290.5t-186.5 -240t-256.5 -162.5t-305 -60q-148 0 -277 55.5t-216 150t-126 229.5t-13 285zM401 721q-43 -243 85.5 -397
t355.5 -154q146 0 283 73.5t231.5 200.5t120.5 277q21 123 -3 227t-84.5 175t-151.5 111t-202 40q-109 0 -216 -44t-191.5 -118t-145.5 -176t-82 -215zM584 381l110 625q12 69 62.5 107t122.5 38h170q125 0 193.5 -72t45.5 -196q-12 -70 -59.5 -124t-110.5 -73
q50 -42 64 -131q11 -91 35 -145q18 -38 -16 -61.5t-79 -29.5q-47 -6 -75.5 2.5t-45.5 47.5q-17 42 -24 129q-3 64 -20.5 94.5t-65.5 30.5h-64l-43 -242q-11 -72 -110 -76q-45 0 -71 17t-19 59zM860 801h109q96 0 110 84q9 41 -12 61.5t-66 20.5h-90q-23 0 -26 -25z" />
    <glyph glyph-name="guillemotright" unicode="&#xbb;" horiz-adv-x="761" 
d="M115 240.5q-8 29.5 10 60.5l117 213q10 24 12 35q3 15 -2 33l-39 200q-6 33 9 57.5t50 34.5q81 21 111 -47l98 -223q18 -35 13 -67q-4 -28 -35 -66l-168 -231q-47 -65 -137 -39q-31 10 -39 39.5zM413.5 240.5q-7.5 29.5 10.5 60.5l115 213q12 20 14 35q2 8 -2 33l-41 200
q-6 33 9 57.5t50 34.5q82 21 113 -47l98 -223q15 -38 11 -67q-4 -28 -35 -66l-166 -231q-49 -64 -139 -39q-30 10 -37.5 39.5z" />
    <glyph glyph-name="afii10023" unicode="&#x401;" horiz-adv-x="1038" 
d="M156.5 102q-7.5 32 3.5 78l188 1071q10 56 32.5 94t56 56.5t67 25.5t76.5 7h565q83 0 63 -123q-20 -125 -106 -125h-459q-19 0 -28.5 -7.5t-12.5 -27.5l-51 -289h416q87 0 63 -123q-20 -123 -106 -123h-416l-59 -335q-3 -20 3 -27.5t25 -7.5h457q85 0 65 -123
q-9 -53 -35 -88t-73 -35h-563q-34 0 -59.5 4t-52 15t-39.5 31t-20.5 52zM567 1651q8 56 38 83t97 27q65 0 86 -27.5t11 -82.5q-10 -59 -39.5 -88t-97.5 -29q-66 0 -85.5 29.5t-9.5 87.5zM903 1651q10 57 39.5 83.5t97.5 26.5q65 0 86 -27.5t11 -82.5q-10 -58 -39.5 -87.5
t-98.5 -29.5q-67 0 -86.5 29.5t-9.5 87.5z" />
    <glyph glyph-name="afii10053" unicode="&#x404;" horiz-adv-x="1234" 
d="M175.5 473q1.5 113 23.5 244q24 138 58 245t89.5 202.5t129.5 157.5t181 98t242 36q126 0 218 -34.5t145 -97t76 -143.5t18 -180q-1 -47 -40.5 -76.5t-101.5 -29.5q-68 0 -101 19.5t-34 72.5q-6 119 -51.5 174.5t-161.5 55.5q-61 0 -111.5 -19.5t-86.5 -51t-65.5 -78.5
t-48 -94t-34.5 -106h375q86 0 66 -123q-24 -122 -109 -122h-379q-8 -65 -9 -118.5t10 -108t35 -92t70 -61.5t111 -26q109 3 175 57.5t106 155.5q21 56 65.5 80.5t116.5 24.5q77 0 106 -28t11 -91q-59 -204 -208.5 -321.5t-395.5 -117.5q-129 0 -224.5 35t-152 100t-86 156.5
t-28 204.5z" />
    <glyph glyph-name="afii10056" unicode="&#x407;" horiz-adv-x="540" 
d="M156 76l225 1270q15 94 151 94q60 0 94.5 -21t24.5 -73l-223 -1270q-17 -94 -154 -94q-59 0 -92.5 21.5t-25.5 72.5zM285 1651q10 56 39 83t96 27t87.5 -27.5t10.5 -82.5q-10 -59 -39 -88t-98 -29q-67 0 -86.5 29.5t-9.5 87.5zM621 1651q10 56 40 83t97 27
q65 0 85.5 -27.5t10.5 -82.5q-10 -59 -39 -88t-98 -29q-67 0 -85.5 29t-10.5 88z" />
    <glyph glyph-name="afii10062" unicode="&#x40e;" horiz-adv-x="1228" 
d="M158 948q20 113 118 113h66l6 31q21 119 66.5 196t137.5 121.5t234 44.5q79 0 110 -25.5t17 -103.5q-11 -59 -35 -84t-71 -22h-29q-61 0 -102 -26t-53 -97l-7 -35h279l4 31q24 180 126.5 271t313.5 91q42 0 88 -8q39 -10 50 -38.5t2 -82.5q-11 -59 -35.5 -84t-73.5 -22
h-41q-132 0 -153 -123l-7 -35h119q53 0 70 -32t8 -81q-20 -110 -119 -110h-117l-135 -758q-18 -98 -153 -98q-61 0 -96 22t-25 76l135 758h-278l-134 -758q-18 -98 -155 -98q-59 0 -94 22t-25 76l133 758h-65q-96 0 -80 110z" />
    <glyph glyph-name="afii10017" unicode="&#x410;" horiz-adv-x="1232" 
d="M31.5 49q0.5 21 15.5 49l639 1252q52 102 176 102q123 0 139 -102l199 -1264q4 -26 -2 -45t-17.5 -29.5t-31 -16.5t-37 -7.5t-41.5 -1.5q-40 0 -64.5 5t-45.5 26.5t-27 62.5l-37 248h-448l-125 -248q-20 -41 -49 -62.5t-55 -26.5t-66 -5q-26 0 -46 2t-39.5 9t-28.5 19
t-8.5 33zM569 567h291l-45 297q-14 96 -14 197q-34 -102 -82 -197z" />
    <glyph glyph-name="afii10018" unicode="&#x411;" horiz-adv-x="1146" 
d="M156.5 102q-7.5 32 3.5 78l188 1071q10 56 32.5 94t56 56.5t67 25.5t76.5 7h591q84 0 64 -123q-20 -125 -109 -125h-483q-19 0 -28.5 -7.5t-12.5 -27.5l-51 -289h276q189 0 285 -117.5t62 -312.5q-35 -195 -174 -313.5t-326 -118.5h-346q-34 0 -59.5 4t-52 15t-39.5 31
t-20.5 52zM449 281q-3 -20 3 -27.5t25 -7.5h213q84 0 134 48.5t65 137.5q15 86 -18 135t-115 49h-248z" />
    <glyph glyph-name="afii10019" unicode="&#x412;" horiz-adv-x="1196" 
d="M159.5 87.5q-9.5 37.5 0.5 92.5l188 1071q10 56 32.5 94t56.5 56.5t67.5 25.5t77.5 7h317q94 0 171 -25t130 -73t75 -123.5t5 -170.5q-14 -89 -67 -160.5t-126 -113.5q91 -38 126.5 -126.5t13.5 -209.5q-36 -203 -181.5 -317.5t-349.5 -114.5h-368q-43 0 -74 7t-58 25
t-36.5 55.5zM449 281q-3 -20 3 -27.5t25 -7.5h266q84 0 135 49t66 137q33 184 -160 184h-276zM551 862h248q82 0 132 43.5t62 118.5q28 162 -137 162h-213q-36 0 -41 -35z" />
    <glyph glyph-name="afii10020" unicode="&#x413;" horiz-adv-x="907" 
d="M156 76l209 1175q8 45 25 78.5t38 53.5t50 31.5t56.5 15.5t61.5 4h479q84 0 64 -123q-20 -125 -109 -125h-373q-18 0 -27.5 -7t-13.5 -28l-188 -1075q-17 -94 -154 -94q-59 0 -92.5 21.5t-25.5 72.5z" />
    <glyph glyph-name="afii10021" unicode="&#x414;" horiz-adv-x="1312" 
d="M-27 -213l50 279q18 117 129 170q26 12 45.5 26t33.5 33.5t22 31.5t16 38.5t10.5 35.5t9.5 41l182 809q13 56 37 94t58 56.5t68 25.5t77 7h479q43 0 74 -7t58 -25.5t36.5 -56.5t-0.5 -94l-178 -1005q34 -1 57.5 -8t46 -26.5t26.5 -54.5t-3 -91l-50 -279q-15 -94 -145 -94
q-58 0 -88 20.5t-20 73.5l30 178q3 20 -3 27.5t-25 7.5h-707q-18 0 -27.5 -7.5t-13.5 -27.5l-31 -178q-15 -94 -143 -94q-58 0 -89.5 20.5t-21.5 73.5zM479 246h430l160 905q3 20 -4 27.5t-25 7.5h-278q-18 0 -27.5 -7.5t-13.5 -27.5l-162 -713q-23 -109 -80 -192z" />
    <glyph glyph-name="afii10022" unicode="&#x415;" horiz-adv-x="1038" 
d="M156.5 102q-7.5 32 3.5 78l188 1071q10 56 32.5 94t56 56.5t67 25.5t76.5 7h565q83 0 63 -123q-20 -125 -106 -125h-459q-19 0 -28.5 -7.5t-12.5 -27.5l-51 -289h416q87 0 63 -123q-20 -123 -106 -123h-416l-59 -335q-3 -20 3 -27.5t25 -7.5h457q85 0 65 -123
q-9 -53 -35 -88t-73 -35h-563q-34 0 -59.5 4t-52 15t-39.5 31t-20.5 52z" />
    <glyph glyph-name="afii10024" unicode="&#x416;" horiz-adv-x="1607" 
d="M53 47.5q2 22.5 19 54.5q38 71 100.5 226.5t110.5 236.5q49 83 105 139.5t132 88.5q-53 41 -92 111.5t-57 135.5t-41.5 146t-44.5 125q-27 62 7.5 96.5t115.5 32.5q52 0 82 -11.5t45 -32.5t32 -65q13 -34 26 -97.5t26 -114t34 -103t60 -84.5t94 -37l78 451q17 94 151 94
q58 0 91.5 -21t25.5 -73l-80 -451q64 10 123 64t94.5 115t82 142t75.5 119q47 60 92 82.5t123 22.5q83 2 108.5 -32t-22.5 -97q-38 -46 -94 -134t-99 -155.5t-109 -135.5t-134 -98q123 -57 166 -227q19 -81 27.5 -234t21.5 -225q10 -63 -23 -88.5t-108 -27.5
q-53 -1 -79.5 9.5t-36.5 29.5t-19 63q-8 37 -16 196t-23 226q-34 134 -193 143l-102 -577q-15 -94 -150 -94q-131 0 -116 94l102 577q-78 -1 -130.5 -36.5t-94.5 -106.5q-40 -68 -105 -227.5t-84 -194.5q-35 -60 -73.5 -81.5t-114.5 -20.5q-37 1 -60.5 7t-37 19t-11.5 35.5z
" />
    <glyph glyph-name="afii10025" unicode="&#x417;" horiz-adv-x="1114" 
d="M117 379q11 86 114 102q61 9 99 -10.5t41 -64.5q7 -99 59 -144t152 -47q100 0 172.5 55.5t87.5 141.5q12 66 0 109.5t-48 65t-80.5 29.5t-111.5 7q-45 0 -63 35t-9 90q20 117 115 120q247 12 277 193q12 78 -33.5 120t-134.5 42q-102 0 -159.5 -40t-92.5 -126
q-20 -43 -63.5 -61.5t-96.5 -12.5q-55 7 -80.5 39.5t-13.5 77.5q53 173 193.5 267.5t353.5 94.5q71 0 134.5 -14t118 -44.5t92 -75.5t55 -111.5t7.5 -147.5q-12 -99 -77 -179t-169 -128q101 -42 143 -137.5t21 -214.5q-38 -216 -186 -325.5t-389 -109.5q-121 0 -222 46
t-160.5 140t-45.5 218z" />
    <glyph glyph-name="afii10026" unicode="&#x418;" horiz-adv-x="1310" 
d="M156 76l225 1270q15 94 147 94q36 0 62.5 -7t44 -29t10.5 -58l-151 -863q35 61 108 162l537 717q33 43 66.5 60.5t86.5 17.5q60 0 86 -21q31 -24 23 -73l-23 -129l-200 -1141q-18 -94 -146 -94q-35 0 -62.5 7.5t-45.5 29.5t-11 57l150 848q-46 -81 -109 -160l-532 -713
q-53 -69 -143 -69q-57 0 -94 22t-29 72z" />
    <glyph glyph-name="afii10027" unicode="&#x419;" horiz-adv-x="1310" 
d="M156 76l223 1270q17 94 149 94q36 0 62.5 -7t44 -29t10.5 -58l-151 -863q46 81 108 162l537 717q33 43 66 60.5t85 17.5q57 0 88 -21t23 -73l-225 -1270q-15 -94 -144 -94q-58 0 -93.5 21.5t-25.5 72.5l150 848q-36 -64 -109 -160l-532 -713q-30 -38 -63.5 -53.5
t-79.5 -15.5q-57 0 -94 22t-29 72zM653 1665q-22 77 43 115q29 18 57.5 17t43.5 -21q34 -43 70 -60.5t91 -17.5q57 0 100.5 17.5t90.5 60.5q23 20 52 21.5t52 -15.5q50 -40 0 -117q-38 -60 -127 -107t-200 -47q-110 0 -183 47.5t-90 106.5z" />
    <glyph glyph-name="afii10028" unicode="&#x41a;" horiz-adv-x="1181" 
d="M156 76l223 1270q17 94 153 94q59 0 93 -21t26 -73l-80 -455q150 0 250 135q32 42 107 158t104 151q51 61 91 83t118 22q83 2 106.5 -27.5t-24.5 -89.5q-28 -34 -104.5 -152.5t-131.5 -189.5q-108 -141 -208 -184q123 -39 170 -226q21 -78 43 -245.5t38 -216.5
q37 -116 -114 -123q-67 -3 -105.5 18t-52.5 78q-20 85 -36 224t-27 196q-18 96 -85 129.5t-180 23.5l-102 -579q-17 -94 -154 -94q-59 0 -92.5 21.5t-25.5 72.5z" />
    <glyph glyph-name="afii10029" unicode="&#x41b;" horiz-adv-x="1204" 
d="M12 98q10 104 86 115q30 4 47 9t37 23.5t27 51.5l215 954q13 56 37 94t58 56.5t68 25.5t77 7h458q43 0 74 -7t58 -25.5t36.5 -56.5t-0.5 -94l-207 -1175q-17 -94 -153 -94q-59 0 -93 21.5t-26 72.5l190 1075q3 20 -3.5 27.5t-24.5 7.5h-266q-19 0 -29 -7.5t-14 -27.5
l-205 -881q-30 -127 -112 -206t-228 -78q-64 0 -89.5 26.5t-17.5 85.5z" />
    <glyph glyph-name="afii10030" unicode="&#x41c;" horiz-adv-x="1462" 
d="M156 76l223 1270q16 98 137 98q77 0 107 -58q11 -22 68 -185t108 -315l51 -153q416 604 459 653q49 58 125 58q57 0 91.5 -23.5t26.5 -74.5l-223 -1270q-6 -35 -30 -57t-53 -29.5t-64 -7.5q-36 0 -62.5 7t-44 29t-10.5 58l147 829q-37 -71 -108 -174l-213 -311
q-34 -47 -96 -47q-67 0 -82 47l-101 311q-38 121 -47 174l-145 -829q-17 -94 -152 -94q-55 0 -87.5 21.5t-24.5 72.5z" />
    <glyph glyph-name="afii10031" unicode="&#x41d;" horiz-adv-x="1294" 
d="M156 76l223 1270q17 94 153 94q59 0 93 -21t26 -73l-86 -490h461l86 490q15 94 152 94q61 0 95.5 -21t24.5 -73l-225 -1270q-15 -94 -151 -94q-59 0 -93 21.5t-26 72.5l94 534h-461l-94 -534q-17 -94 -154 -94q-59 0 -92.5 21.5t-25.5 72.5z" />
    <glyph glyph-name="afii10032" unicode="&#x41e;" horiz-adv-x="1314" 
d="M175.5 473q1.5 113 23.5 244q24 136 60 245t93.5 203t133 157t179.5 98.5t232 35.5t222.5 -35t151 -99.5t86.5 -156t28.5 -204.5t-23.5 -244q-20 -113 -48 -207t-69 -178.5t-96 -148.5t-125 -111t-160.5 -71t-197.5 -24q-128 0 -223.5 35t-152 100t-86.5 156.5
t-28.5 204.5zM456.5 489q0.5 -60 14.5 -106t39 -85t71.5 -60t110.5 -21q304 0 391 500q11 62 16 115t5 113t-14 106t-39 85t-72 60t-111 21q-77 0 -139 -31.5t-102.5 -79t-71.5 -118t-48 -133t-30 -138.5q-11 -62 -16 -115t-4.5 -113z" />
    <glyph glyph-name="afii10033" unicode="&#x41f;" horiz-adv-x="1267" 
d="M156 76l206 1175q10 56 33 94t56.5 56.5t67.5 25.5t77 7h588q44 0 75 -7t58.5 -25.5t37 -56.5t-0.5 -94l-207 -1175q-18 -94 -154 -94q-60 0 -94.5 21t-24.5 73l191 1075q3 21 -4 28t-25 7h-379q-18 0 -27.5 -7t-13.5 -28l-188 -1075q-17 -94 -154 -94q-59 0 -92.5 21.5
t-25.5 72.5z" />
    <glyph glyph-name="afii10034" unicode="&#x420;" horiz-adv-x="1187" 
d="M156 76l209 1175q10 56 32.5 94t55.5 56.5t66.5 25.5t76.5 7h342q189 0 298.5 -126.5t76.5 -318.5q-35 -199 -170.5 -323.5t-321.5 -124.5h-311l-82 -465q-17 -94 -154 -94q-59 0 -92.5 21.5t-25.5 72.5zM553 786h262q82 0 139.5 57.5t73.5 145.5q15 89 -22 143t-121 54
h-228q-18 0 -27.5 -7.5t-13.5 -27.5z" />
    <glyph glyph-name="afii10035" unicode="&#x421;" horiz-adv-x="1216" 
d="M176 473q1 113 23 244q129 739 712 739q218 0 329 -128.5t97 -328.5q-4 -45 -47.5 -72.5t-99.5 -27.5q-63 0 -93.5 20.5t-31.5 73.5q-3 117 -49 170.5t-160 53.5q-53 0 -99.5 -16.5t-81 -43.5t-64 -67t-49.5 -82t-37.5 -94.5t-28 -98t-19.5 -98.5t-14.5 -98.5t-6.5 -98
t4.5 -94.5t21 -82t40.5 -67t65 -43.5t93 -16.5q48 0 87 13t65 31.5t51 52.5t39.5 60.5t35.5 71.5q42 89 170 89q151 0 111 -119q-151 -439 -580 -439q-125 0 -218 35t-149.5 100t-86.5 156.5t-29 204.5z" />
    <glyph glyph-name="afii10036" unicode="&#x422;" horiz-adv-x="1036" 
d="M283 1311q9 53 35 88t73 35h793q83 0 63 -123q-20 -125 -108 -125h-260l-195 -1110q-15 -90 -145 -94q-64 0 -99.5 21.5t-27.5 72.5l196 1110h-260q-47 0 -61 35.5t-4 89.5z" />
    <glyph glyph-name="afii10037" unicode="&#x423;" horiz-adv-x="1015" 
d="M178 115q13 91 98 104q34 5 51.5 18t43.5 60l114 205l-258 827q-16 52 21 81.5t96 29.5q58 0 87 -10.5t40.5 -28.5t24.5 -60l159 -534l303 539q31 56 66.5 75t116.5 19q25 0 46.5 -4t41 -14.5t21.5 -29t-11 -46.5l-633 -1129q-54 -98 -132.5 -164.5t-172.5 -66.5
q-32 0 -54.5 5t-41 18t-25.5 39.5t-2 66.5z" />
    <glyph glyph-name="afii10038" unicode="&#x424;" horiz-adv-x="1454" 
d="M154 735q20 115 71.5 213t132 175.5t198.5 123t261 49.5l8 50q15 94 152 94q61 0 95 -21t26 -73l-11 -50q107 -9 193.5 -46t141.5 -94t90 -131t41 -157.5t-7 -173.5q-42 -237 -209 -386.5t-452 -166.5l-13 -65q-15 -94 -151 -94q-59 0 -93 21.5t-26 72.5l10 65
q-127 12 -225 65t-154.5 133.5t-77 182t-1.5 213.5zM417 546.5q14 -81.5 74 -138.5t156 -70l133 754q-140 -7 -234 -108.5t-126 -256.5q-17 -99 -3 -180.5zM920 338q144 13 235 109t123 249q17 71 9.5 138.5t-32.5 121t-77.5 90t-124.5 46.5z" />
    <glyph glyph-name="afii10039" unicode="&#x425;" horiz-adv-x="1114" 
d="M32 36q1 19 19 48l481 661l-231 586q-21 52 15.5 79.5t97.5 29.5q85 4 120 -15.5t56 -78.5l129 -375l262 375q39 57 90 78t133 16q56 -2 89.5 -30t-3.5 -79l-454 -604l251 -643q8 -28 0.5 -47t-30.5 -31t-47 -17.5t-49 -6.5q-75 -3 -115 16t-60 74l-141 409l-285 -409
q-37 -53 -94 -72.5t-137 -17.5q-24 1 -44.5 6t-37 17t-15.5 31z" />
    <glyph glyph-name="afii10040" unicode="&#x426;" horiz-adv-x="1329" 
d="M159.5 87.5q-9.5 37.5 0.5 92.5l209 1176q15 96 151 96q59 0 94 -22t25 -74l-188 -1075q-4 -20 2 -27.5t24 -7.5h436l195 1100q15 94 152 94q60 0 94 -21t24 -73l-192 -1100q78 -3 113 -41t18 -139l-49 -279q-17 -94 -146 -94q-58 0 -88 20.5t-22 73.5l32 178
q6 35 -26 35h-688q-44 0 -75 7t-58.5 25t-37 55.5z" />
    <glyph glyph-name="afii10041" unicode="&#x427;" horiz-adv-x="1146" 
d="M225 885l82 461q15 94 152 94q60 0 94.5 -21t24.5 -73l-84 -476q-8 -47 2.5 -80.5t35.5 -50t53.5 -23.5t63.5 -7q127 0 234 49l104 588q15 94 152 94q60 0 94 -21t24 -73l-223 -1270q-15 -94 -151 -94t-121 94l76 428q-127 -31 -242 -31q-95 0 -169 23t-127.5 70.5
t-73.5 128.5t-1 190z" />
    <glyph glyph-name="afii10042" unicode="&#x428;" horiz-adv-x="1851" 
d="M159.5 87.5q-9.5 37.5 0.5 92.5l207 1176q18 96 153 96q59 0 93 -22t26 -74l-190 -1075q-3 -20 3.5 -27.5t24.5 -7.5h357l194 1100q15 94 152 94q60 0 94 -21t24 -73l-194 -1100h356q19 0 28.5 7.5t12.5 27.5l191 1075q15 96 151 96q59 0 94 -22t25 -74l-207 -1176
q-10 -55 -32.5 -92.5t-56 -55.5t-67 -25t-77.5 -7h-1192q-44 0 -75 7t-58.5 25t-37 55.5z" />
    <glyph glyph-name="afii10043" unicode="&#x429;" horiz-adv-x="1933" 
d="M159.5 87.5q-9.5 37.5 0.5 92.5l209 1176q15 96 151 96q59 0 94 -22t25 -74l-188 -1075q-4 -20 2.5 -27.5t25.5 -7.5h355l194 1100q15 94 152 94q135 0 120 -94l-194 -1100h389l195 1100q17 94 153 94q59 0 93 -21t26 -73l-195 -1100q80 -3 115 -41t16 -139l-49 -279
q-15 -94 -145 -94q-58 0 -88.5 20.5t-20.5 73.5l31 178q3 20 -4 27.5t-25 7.5h-1267q-44 0 -75 7t-58.5 25t-37 55.5z" />
    <glyph glyph-name="afii10044" unicode="&#x42a;" horiz-adv-x="1333" 
d="M242 1305q23 129 116 129h275q56 0 90.5 -14t47.5 -39t15.5 -58.5t-6.5 -71.5l-63 -360h264q190 0 299 -127t76 -322q-35 -196 -173 -319t-323 -123h-371q-44 1 -75 8t-58.5 25t-37 55t0.5 92l170 963q3 18 -3 26.5t-25 8.5h-148q-93 0 -71 127zM610 281q-4 -20 3 -27.5
t26 -7.5h225q84 0 141 54.5t72 141.5q16 88 -21.5 145.5t-119.5 57.5h-262z" />
    <glyph glyph-name="afii10045" unicode="&#x42b;" horiz-adv-x="1660" 
d="M159.5 87.5q-9.5 37.5 0.5 92.5l207 1176q18 96 153 96q59 0 93 -22t26 -74l-82 -465h236q124 0 218 -56.5t137.5 -160t20.5 -232.5q-35 -196 -169.5 -319t-317.5 -123h-354q-43 0 -74 7t-58 25t-36.5 55.5zM449 281q-3 -20 3.5 -27.5t24.5 -7.5h195q84 0 141 54.5
t72 141.5q16 88 -22 145.5t-120 57.5h-229zM1255 76l224 1270q17 94 153 94q59 0 93 -21t26 -73l-223 -1270q-17 -94 -154 -94q-59 0 -93 21.5t-26 72.5z" />
    <glyph glyph-name="afii10046" unicode="&#x42c;" horiz-adv-x="1179" 
d="M159.5 87.5q-9.5 37.5 0.5 92.5l207 1176q18 96 153 96q59 0 94 -22t25 -74l-82 -465h270q190 0 299 -127t76 -322q-35 -196 -172.5 -319t-322.5 -123h-377q-44 0 -75 7t-58.5 25t-37 55.5zM449 281q-3 -20 3.5 -27.5t24.5 -7.5h228q84 0 141 54.5t72 141.5
q16 88 -22 145.5t-120 57.5h-262z" />
    <glyph glyph-name="afii10047" unicode="&#x42d;" horiz-adv-x="1261" 
d="M135 410q-1 62 38.5 94.5t113.5 30.5q72 0 106 -24.5t35 -80.5q3 -101 52 -157.5t157 -55.5q66 2 121 26t92 61.5t67 92t47.5 107.5t32.5 119h-379q-87 0 -63 122q20 123 107 123h374q3 55 3 105.5t-14 95t-38.5 77.5t-68.5 52t-105 19q-116 0 -180.5 -55.5
t-112.5 -174.5q-20 -52 -58.5 -70.5t-107.5 -21.5q-62 -2 -99.5 31t-25.5 82q60 215 217.5 331.5t409.5 116.5q583 0 451 -739q-17 -99 -37.5 -179t-50.5 -158t-67.5 -137.5t-89.5 -111t-115 -84.5t-145 -51.5t-179 -18.5q-127 0 -221 31t-151.5 89.5t-85.5 136.5t-30 176z
" />
    <glyph glyph-name="afii10048" unicode="&#x42e;" horiz-adv-x="1830" 
d="M156 76l223 1270q17 94 153 94q59 0 93 -21t26 -73l-84 -478h183q37 137 90 241t131 184t188 121.5t250 41.5q128 0 223 -35t152 -99.5t88 -156t30 -204.5t-22 -244q-24 -137 -59.5 -245t-91 -203t-129 -157.5t-177 -98.5t-231.5 -36q-148 0 -253 46.5t-162 133t-76 203
t-1 263.5h-176l-96 -547q-17 -94 -154 -94q-59 0 -92.5 21.5t-25.5 72.5zM995 717q-92 -500 213 -500q304 0 391 500q11 63 16 115.5t5 113t-13.5 106t-39 84.5t-72 60t-111.5 21q-64 0 -118 -21t-93 -60t-68.5 -85t-50.5 -106t-34.5 -112.5t-24.5 -115.5z" />
    <glyph glyph-name="afii10049" unicode="&#x42f;" horiz-adv-x="1220" 
d="M32.5 40.5q-11.5 30.5 26.5 76.5q36 43 67 89.5t72.5 118t55.5 93.5q89 148 203 221q-97 37 -153.5 139.5t-31.5 239.5q35 194 166 305t318 111h383q34 0 59.5 -4t52 -15.5t39.5 -32t20.5 -53t-3.5 -78.5l-207 -1175q-15 -94 -152 -94q-61 0 -95 21t-26 73l88 499h-94
q-94 0 -148 -41t-114 -139q-27 -44 -72.5 -125.5t-82.5 -141t-72 -95.5q-46 -53 -178 -53q-42 0 -76 15t-45.5 45.5zM553 1004q-19 -100 35.5 -147.5t156.5 -47.5h213l60 342q3 20 -3.5 27.5t-25.5 7.5h-227q-86 0 -140.5 -48t-68.5 -134z" />
    <glyph glyph-name="afii10065" unicode="&#x430;" horiz-adv-x="1089" 
d="M127 475q20 120 70 218t120.5 165.5t161 114t190 67.5t208.5 21h94q99 0 139.5 -54t26.5 -141l-109 -616q-16 -96 -4 -178q6 -44 -27.5 -70t-85.5 -31q-114 -11 -155 92q-52 -41 -132.5 -66.5t-150.5 -25.5q-211 0 -298.5 131t-47.5 373zM407.5 320.5
q3.5 -63.5 36.5 -100t97 -36.5q46 0 85.5 18.5t66 47t47.5 68t33.5 77t19.5 78.5l51 289q11 41 2.5 56.5t-58.5 15.5q-87 0 -157 -33.5t-113.5 -89t-69 -116.5t-34.5 -126q-10 -85 -6.5 -148.5z" />
    <glyph glyph-name="afii10066" unicode="&#x431;" horiz-adv-x="1103" 
d="M164 545q19 139 60 262.5t109 239.5t173.5 210t241.5 154q58 26 309 129q52 24 95 11.5t56 -64.5q33 -119 -78 -176q-39 -21 -87.5 -38.5t-111 -36.5t-97.5 -32q-100 -36 -171.5 -83t-117.5 -124q37 32 115 51t131 19q216 0 306.5 -147t47.5 -390q-22 -123 -65.5 -220.5
t-112 -173t-169.5 -116t-229 -40.5q-160 0 -260.5 73.5t-134.5 198.5t-10 293zM428 440.5q-2 -43.5 5.5 -89.5t25.5 -80t54 -56t87 -22q205 2 268 337q56 318 -161 318q-54 0 -97 -20t-71 -50t-49 -74.5t-32.5 -84.5t-19.5 -89q-8 -46 -10 -89.5z" />
    <glyph glyph-name="afii10067" unicode="&#x432;" horiz-adv-x="1019" 
d="M135 363q-2 83 12 174q20 115 66 212t116.5 172t171.5 118.5t222 45.5q56 1 110.5 -10t102 -36.5t80.5 -61.5t46.5 -88t0.5 -113q-12 -65 -58 -120t-116 -87q70 -28 106 -92t27 -149q-20 -164 -149 -259.5t-322 -93.5q-102 0 -181.5 29.5t-127.5 81.5t-76.5 123
t-30.5 154zM408 345q5 -47 21 -83.5t53 -59t89 -22.5q68 -2 119 41t60 115q5 39 -9.5 65t-44 37.5t-57 16t-61.5 4.5q-76 -3 -164 -19q-11 -48 -6 -95zM463 655q80 4 131 11q81 9 135.5 38t71.5 95q9 40 -19 57.5t-67 17.5q-90 0 -153 -61.5t-99 -157.5z" />
    <glyph glyph-name="afii10068" unicode="&#x433;" horiz-adv-x="897" 
d="M94 330q6 63 29 112t56 81.5t82.5 57t97.5 39t112 27.5q3 1 39 7.5t50 10t46 13.5t48 20.5t32 28t21 39.5q12 57 -29.5 82.5t-102.5 25.5q-13 0 -26 -2t-23 -4t-21.5 -7.5t-18.5 -8.5t-18 -11.5t-15 -11.5t-15 -13.5t-13.5 -12.5t-13.5 -14t-12 -13q-49 -54 -139 -35
q-62 14 -75 56.5t20 97.5q53 99 154 145.5t229 46.5q63 0 122.5 -15t110 -46t86.5 -73t52 -100.5t6 -125.5q-10 -68 -44 -117.5t-90.5 -81t-113 -50t-135.5 -34.5q-124 -27 -174.5 -55.5t-51.5 -85.5q0 -53 43.5 -83t98.5 -30q137 0 202 117q44 79 150 64q68 -12 86.5 -54.5
t-10.5 -97.5q-42 -88 -114 -145t-153 -80t-178 -23q-109 0 -198.5 39t-144 122.5t-44.5 197.5z" />
    <glyph glyph-name="afii10069" unicode="&#x434;" horiz-adv-x="1128" 
d="M135 359q-3 84 12 180q43 242 184.5 387t358.5 145q61 0 133.5 -21.5t114.5 -74.5q2 118 -52.5 188t-166.5 82q-100 12 -215 -22q-61 -18 -91 4t-28 80q0 49 21 78.5t69 48.5q142 50 311 32q129 -12 210 -65t126 -152q107 -244 11 -696q-22 -104 -52.5 -187t-77.5 -157
t-108 -123t-146.5 -77.5t-189.5 -28.5q-103 0 -182.5 27.5t-129.5 78t-79.5 120t-32.5 153.5zM424 539q-65 -344 145 -346q51 0 95 22.5t74.5 58t55 83t38.5 92t22 90.5q8 49 11 88t-2.5 82.5t-23 73t-53.5 48.5t-90 19q-218 0 -272 -311z" />
    <glyph glyph-name="afii10070" unicode="&#x435;" horiz-adv-x="1060" 
d="M155 390.5q-2 71.5 13 146.5q15 89 44.5 168.5t78 150t111.5 121.5t149.5 80.5t187.5 29.5q208 0 303.5 -120t59.5 -320q-18 -98 -69 -137t-148 -39h-455q-37 -276 166 -276q61 0 101.5 26.5t82.5 83.5t158 45q40 -5 58 -24t16.5 -39.5t-11.5 -44.5q-54 -132 -171 -201.5
t-269 -69.5q-83 0 -151 21t-114 59t-79 90.5t-46.5 115t-15.5 134zM475 662h336q16 0 29 11.5t14 35.5q9 78 -29.5 121.5t-111.5 43.5q-86 0 -148.5 -57t-89.5 -155z" />
    <glyph glyph-name="afii10072" unicode="&#x436;" horiz-adv-x="1462" 
d="M74 92q27 42 59.5 111.5t59.5 127t63 116.5t86 101t111 60q-44 34 -76 83.5t-46.5 90.5t-32.5 96.5t-32 84.5q-50 108 94 112q57 3 91.5 -8.5t58.5 -44.5q20 -28 35.5 -71.5t26.5 -82.5t27 -77t46.5 -65.5t75.5 -37.5l53 295q15 98 148 98q57 0 89.5 -22t22.5 -76
l-51 -295q57 12 103.5 53t73.5 86t65.5 103t72.5 90q67 61 181 55q44 -1 68 -12t27.5 -35.5t-30.5 -64.5q-25 -32 -71 -99.5t-79 -113.5t-84.5 -94.5t-103.5 -69.5q53 -16 88 -55.5t52 -95.5t25.5 -110.5t18 -123t21.5 -109.5q13 -52 -8 -80t-90 -35q-149 -14 -166 115
q-4 31 -8 71t-6.5 65.5t-7 57t-10 51t-15 41.5t-22.5 34.5t-32 23.5t-45 15.5t-59 3.5l-68 -377q-18 -98 -147 -98q-57 0 -90 22t-23 76l66 377q-42 1 -75 -6t-59 -26t-44 -38t-37.5 -56t-32.5 -66t-35.5 -81.5t-40.5 -89.5q-32 -65 -89.5 -93t-125.5 -22q-130 14 -67 115z
" />
    <glyph glyph-name="afii10073" unicode="&#x437;" horiz-adv-x="919" 
d="M94 225q-7 101 96 135q101 29 129 -55q19 -58 53.5 -89t98.5 -32q68 -2 119 35t63 105q12 65 -32.5 95t-112.5 30q-57 0 -75.5 25t-10.5 77q6 36 19 59t32.5 33t36.5 13t43 3q65 0 107 30t49 85q8 53 -24.5 77.5t-88.5 22.5q-61 -1 -94.5 -23t-67.5 -81q-16 -26 -61 -38
t-86 -7q-110 11 -76 100q35 93 105.5 154.5t150 86t170.5 24.5q72 0 135 -19t112 -55t72 -95.5t11 -134.5q-10 -65 -49.5 -123t-100.5 -98q60 -40 82 -106t8 -142q-19 -110 -87.5 -190.5t-161.5 -118t-197 -37.5q-66 0 -126.5 14.5t-113.5 43.5t-87 79.5t-40 116.5z" />
    <glyph glyph-name="afii10074" unicode="&#x438;" horiz-adv-x="1116" 
d="M166 389l104 594q18 98 156 98q59 0 94 -22t27 -76l-105 -590q-6 -35 -7 -62t5 -56.5t29.5 -45.5t62.5 -16q117 0 183.5 77t89.5 199l86 494q18 98 156 98q59 0 93.5 -22t24.5 -76l-157 -901q-10 -54 -50 -78t-94 -24q-55 0 -80 22.5t-28 75.5l-2 22q-142 -133 -293 -133
q-368 0 -295 422z" />
    <glyph glyph-name="afii10075" unicode="&#x439;" horiz-adv-x="1116" 
d="M166 389l104 594q18 98 156 98q59 0 94 -22t27 -76l-105 -590q-6 -35 -7 -62t5 -56.5t29.5 -45.5t62.5 -16q117 0 183.5 77t89.5 199l86 494q18 98 156 98q59 0 93.5 -22t24.5 -76l-157 -901q-10 -54 -50 -78t-94 -24q-55 0 -80 22.5t-28 75.5l-2 22q-142 -133 -293 -133
q-368 0 -295 422zM455 1315q-6 25 3.5 52t35.5 46q31 22 65 21t49 -23q54 -72 148 -72q90 0 172 76q24 24 62 22.5t65 -28.5q20 -19 24.5 -47t-10.5 -51q-50 -73 -144 -115.5t-192 -42.5q-102 0 -179.5 48t-98.5 114z" />
    <glyph glyph-name="afii10076" unicode="&#x43a;" horiz-adv-x="1054" 
d="M135 78l160 905q18 98 156 98q59 0 93.5 -22t24.5 -76l-51 -299q46 9 82.5 29t66 52t51.5 63t54 77t59 78q88 107 230 98q44 -3 72 -17.5t33.5 -41.5t-29.5 -66q-33 -36 -106 -134.5t-134.5 -161.5t-120.5 -85q54 -20 90.5 -59.5t55.5 -94t29 -105.5t21 -118.5t23 -107.5
q14 -51 -11 -79.5t-97 -35.5q-153 -14 -170 115q-3 21 -8 62t-8 60.5t-9 53.5t-11.5 50t-15 40.5t-20.5 36t-27.5 26.5t-36.5 21t-46 10t-58 3l-65 -375q-18 -98 -156 -98q-136 0 -121 98z" />
    <glyph glyph-name="afii10077" unicode="&#x43b;" horiz-adv-x="1079" 
d="M12 88q7 54 34 85t60 36q69 11 97 119l129 532q23 93 76 147t153 54h393q184 0 148 -201l-137 -782q-18 -98 -156 -98q-59 0 -94 22t-25 76l127 721q7 41 -31 41h-153q-36 0 -47 -41l-123 -502q-77 -320 -354 -320q-57 0 -80 25.5t-17 85.5z" />
    <glyph glyph-name="afii10078" unicode="&#x43c;" horiz-adv-x="1269" 
d="M135 78l158 897q18 102 153 106q48 0 73 -15t38 -54l162 -461l325 461q48 69 160 69q57 -2 90 -27t25 -79l-158 -897q-18 -98 -153 -98q-61 0 -95 22t-24 76l86 491q-22 -49 -62 -104l-129 -182q-45 -62 -110 -62q-70 0 -90 62l-64 178q-16 46 -26 108l-88 -491
q-15 -98 -152 -98q-61 0 -95 22t-24 76z" />
    <glyph glyph-name="afii10079" unicode="&#x43d;" horiz-adv-x="1128" 
d="M135 78l160 905q18 98 156 98q59 0 93.5 -22t24.5 -76l-55 -315h334l55 315q18 98 154 98q61 0 96 -22t25 -76l-160 -905q-18 -98 -156 -98q-59 0 -94 22t-25 76l66 368h-334l-65 -368q-15 -98 -154 -98q-136 0 -121 98z" />
    <glyph glyph-name="afii10080" unicode="&#x43e;" horiz-adv-x="1052" 
d="M139.5 307q-13.5 101 10.5 223q22 127 62 223.5t105 171.5t161.5 114.5t223.5 39.5t214 -40t129.5 -113t54 -173.5t-12.5 -222.5q-18 -101 -45 -182t-70.5 -151.5t-101.5 -117t-139.5 -73t-183.5 -26.5q-127 0 -216 40.5t-133.5 113t-58 173.5zM399.5 375
q0.5 -41 9.5 -72.5t26 -58t49 -40.5t75 -14q204 0 264 340q6 37 10 67t5 66.5t-3 64.5t-14.5 55.5t-28.5 46t-47 29.5t-67 11q-52 0 -94.5 -21.5t-69.5 -53.5t-48 -80.5t-32 -90t-20 -94.5q-8 -42 -11.5 -78t-3 -77z" />
    <glyph glyph-name="afii10081" unicode="&#x43f;" horiz-adv-x="1132" 
d="M135 78l160 905q16 94 137 98q61 2 89.5 -20.5t25.5 -79.5v-25q136 138 327 138q76 0 132.5 -20.5t88.5 -57t50 -87t17 -110.5t-11 -127l-109 -614q-18 -98 -155 -98q-59 0 -94 22t-25 76l102 590q5 41 4.5 81t-27 69.5t-77.5 29.5q-62 0 -111.5 -24t-81.5 -65.5t-52 -90
t-31 -105.5l-84 -485q-18 -98 -156 -98q-55 0 -91 23t-28 75z" />
    <glyph glyph-name="afii10082" unicode="&#x440;" horiz-adv-x="1136" 
d="M74 -287l223 1266q18 98 143 102q119 4 119 -88q46 41 117.5 66.5t142.5 25.5q113 0 192.5 -41t120 -114.5t52 -176t-12.5 -225.5q-22 -126 -64 -225t-106 -174t-156.5 -115.5t-207.5 -40.5q-69 0 -132.5 19.5t-96.5 58.5l-60 -338q-15 -98 -153 -98q-61 0 -96 22t-25 76
zM478 390.5q4 -54.5 17.5 -100t50 -75t89.5 -29.5q60 0 105 30.5t72.5 85.5t43 106.5t27.5 119.5q10 52 14.5 95.5t1.5 91.5t-17 81t-46 54.5t-80 21.5q-95 0 -165 -89.5t-89 -198.5l-17 -90q-11 -49 -7 -103.5z" />
    <glyph glyph-name="afii10083" unicode="&#x441;" horiz-adv-x="1040" 
d="M159 307q-13 101 11 223q97 549 565 549q159 0 265.5 -84.5t99.5 -220.5q-3 -60 -35.5 -86t-103.5 -26q-53 0 -80 16.5t-31 56.5q-9 69 -43.5 102t-108.5 33q-52 0 -94.5 -21.5t-69.5 -53.5t-48 -80.5t-32 -90t-20 -94.5q-8 -42 -11 -78.5t-3 -77t9.5 -72t26 -58
t48 -40.5t74.5 -14q122 0 202 132q25 41 60 57t88 18q62 2 89.5 -24t6.5 -78q-61 -149 -175.5 -232t-285.5 -83q-127 0 -215.5 40.5t-132 113t-56.5 173.5z" />
    <glyph glyph-name="afii10084" unicode="&#x442;" horiz-adv-x="1714" 
d="M135 78l160 905q16 94 137 98q61 2 89.5 -20.5t25.5 -79.5v-25q136 138 327 138q104 0 159 -43.5t89 -130.5q92 95 186 134.5t173 39.5q75 0 128.5 -23t82 -60.5t41.5 -91t11.5 -109t-13.5 -120.5l-107 -612q-18 -98 -156 -98q-135 0 -120 98l104 590q5 28 7 49t0 47.5
t-11 43.5t-30 28.5t-52 11.5q-60 0 -108 -24.5t-78.5 -66.5t-49.5 -89t-28 -101l-86 -489q-18 -98 -156 -98q-59 0 -94 22t-25 76l101 575q34 195 -92 195q-56 0 -101.5 -24.5t-75 -67t-48.5 -91t-29 -104.5l-86 -483q-18 -98 -156 -98q-59 0 -94 22t-25 76z" />
    <glyph glyph-name="afii10085" unicode="&#x443;" horiz-adv-x="978" 
d="M37 -225q11 63 42 92t91 22q46 -5 90.5 21t67.5 70l47 88l-170 856q-13 69 13 102.5t95 44.5q142 21 154 -57l98 -586l297 586q40 77 174 57q46 -7 68.5 -21.5t26 -44t-22.5 -75.5l-563 -1067q-71 -135 -187 -186t-262 -27q-79 13 -59 125z" />
    <glyph glyph-name="afii10086" unicode="&#x444;" horiz-adv-x="1398" 
d="M133 526q43 245 196 382t414 157l50 281q15 96 149 96q58 0 91.5 -22t23.5 -74l-49 -281q247 -15 354 -157t65 -382q-43 -243 -192.5 -380t-415.5 -152l-45 -256q-18 -96 -149 -96q-132 0 -117 96l45 256q-108 13 -193.5 54t-143.5 106.5t-80.5 161t-2.5 210.5zM420 528
q-27 -154 17.5 -236.5t152.5 -94.5l115 653q-117 -21 -187.5 -96.5t-97.5 -225.5zM854 197q120 26 190 102.5t97 228.5q55 307 -170 322z" />
    <glyph glyph-name="afii10087" unicode="&#x445;" horiz-adv-x="942" 
d="M35.5 36q-12.5 38 34.5 95l350 432l-168 375q-27 61 3.5 92.5t96.5 36.5q129 11 154 -61l90 -250l182 258q29 40 71 49.5t101 3.5q31 -2 54.5 -10.5t38.5 -23t11 -39t-30 -56.5l-313 -395l192 -412q31 -57 7.5 -95t-105.5 -42q-39 -1 -70 0t-55 17t-37 50l-108 291
l-209 -291q-36 -48 -84.5 -59.5t-122.5 -7.5q-71 4 -83.5 42z" />
    <glyph glyph-name="afii10088" unicode="&#x446;" horiz-adv-x="1124" 
d="M159 98q-6 44 1 101l137 784q18 98 156 98q59 0 93.5 -22t26.5 -76l-127 -721q-10 -41 29 -41h266l133 762q18 98 156 98q59 0 94 -22t27 -76l-135 -762q86 -7 116.5 -49.5t16.5 -122.5l-35 -194q-15 -99 -133 -99q-58 0 -85 22t-17 77l18 104q7 41 -29 41h-561
q-67 0 -104.5 27t-43.5 71z" />
    <glyph glyph-name="afii10089" unicode="&#x447;" horiz-adv-x="1042" 
d="M195 709l49 274q18 98 153 98q61 0 96 -22t25 -76l-51 -293q-13 -77 16 -112t103 -35q85 0 162 49l69 391q18 98 156 98q59 0 94 -22t25 -76l-160 -905q-15 -98 -154 -98q-61 0 -96 22t-25 76l54 295q-127 -39 -211 -37q-185 1 -260.5 97t-44.5 276z" />
    <glyph glyph-name="afii10090" unicode="&#x448;" horiz-adv-x="1619" 
d="M162 199l137 784q18 98 156 98q59 0 93.5 -22t24.5 -76l-127 -721q-7 -41 31 -41h236l135 762q15 98 153 98q61 0 96 -22t25 -76l-135 -762h238q36 0 43 41l127 721q18 98 155 98q59 0 94 -22t25 -76l-137 -784q-36 -199 -219 -199h-1004q-183 0 -147 199z" />
    <glyph glyph-name="afii10091" unicode="&#x449;" horiz-adv-x="1685" 
d="M162 199l137 784q18 98 156 98q59 0 93.5 -22t26.5 -76l-126 -721q-10 -41 28 -41h236l135 762q18 98 153 98q61 0 96 -22t25 -76l-135 -762h275l133 762q18 98 155 98q59 0 94 -22t25 -76l-133 -762q85 -7 116 -50t17 -122l-35 -194q-15 -99 -133 -99q-58 0 -85 22
t-17 77l18 104q7 41 -28 41h-1080q-183 0 -147 199z" />
    <glyph glyph-name="afii10092" unicode="&#x44a;" horiz-adv-x="1116" 
d="M188 950q20 111 119 111h205q104 0 142 -43.5t22 -128.5l-33 -191h203q61 0 111.5 -12.5t84.5 -33.5t59 -49.5t38.5 -60t20.5 -66.5t6.5 -66t-5.5 -62q-8 -45 -24 -88t-48 -91.5t-74.5 -84.5t-108.5 -60t-146 -24h-332q-183 0 -147 199l104 600q7 41 -29 41h-88
q-96 0 -80 110zM563 252q-7 -41 27 -41h149q48 0 91.5 35t56.5 102q11 68 -20 103.5t-79 35.5h-182z" />
    <glyph glyph-name="afii10093" unicode="&#x44b;" horiz-adv-x="1456" 
d="M162 199l137 784q18 98 156 98q59 0 93.5 -22t24.5 -76l-49 -285h189q71 0 127.5 -16.5t90 -44t57 -63.5t30 -75t9 -78t-6.5 -73q-9 -45 -24 -87.5t-47.5 -92t-76 -85t-113 -59.5t-155.5 -24h-295q-183 0 -147 199zM444 252q-7 -41 27 -41h129q47 0 90.5 35.5t54.5 101.5
q11 68 -19.5 103.5t-78.5 35.5h-160zM1071 78l160 905q18 98 155 98q59 0 94 -22t25 -76l-159 -905q-15 -98 -154 -98q-136 0 -121 98z" />
    <glyph glyph-name="afii10094" unicode="&#x44c;" horiz-adv-x="1042" 
d="M159 98q-6 44 1 101l139 784q15 98 154 98q61 0 95.5 -22t24.5 -76l-51 -285h215q61 0 111 -12.5t83.5 -33t58.5 -49.5t38 -60.5t19 -66.5t5.5 -66t-5.5 -62q-8 -44 -24.5 -87.5t-48.5 -92t-75 -84.5t-109.5 -60t-146.5 -24h-336q-67 0 -104.5 27t-43.5 71zM444 252
q-7 -41 27 -41h154q48 0 91 35t56 102q11 68 -19.5 103.5t-78.5 35.5h-189z" />
    <glyph glyph-name="afii10095" unicode="&#x44d;" horiz-adv-x="1026" 
d="M125 236q-8 53 22 89t91 42q105 10 129 -56q15 -37 33 -61.5t51.5 -42t80.5 -17.5q94 0 156 70.5t88 175.5h-239q-52 0 -69.5 31.5t-8.5 79.5q20 110 116 110h238q7 91 -32.5 152t-129.5 61q-69 0 -114 -27t-82 -85q-50 -77 -150 -66q-52 7 -76 31t-22.5 55.5t22.5 69.5
q58 106 175 169t280 64q123 0 208 -40.5t127 -113.5t54 -174t-12 -223q-16 -94 -44.5 -173.5t-74 -150t-105.5 -120t-143.5 -78t-183.5 -28.5q-169 0 -269.5 69t-115.5 187z" />
    <glyph glyph-name="afii10096" unicode="&#x44e;" horiz-adv-x="1587" 
d="M156 78l159 905q18 98 154 98q61 0 96 -22t25 -76l-55 -313h182q40 130 102.5 218t167.5 140.5t248 52.5q127 0 214.5 -40.5t130 -113.5t54.5 -174t-12 -223q-22 -127 -61.5 -223.5t-103.5 -172t-161 -115t-223 -39.5q-228 0 -326 124t-75 342h-176l-66 -368
q-18 -98 -154 -98q-61 0 -95.5 22t-24.5 76zM934 374.5q0 -40.5 9.5 -72t26 -58t48 -40.5t74.5 -14q52 0 94 21.5t69 53.5t48 80t32.5 90.5t20.5 94.5q8 43 11.5 78.5t3.5 76.5t-9 72.5t-26 58t-48.5 40.5t-75.5 14q-52 0 -94.5 -21.5t-69.5 -53.5t-48 -80.5t-32 -90
t-20 -94.5q-8 -42 -11 -78.5t-3 -77z" />
    <glyph glyph-name="afii10097" unicode="&#x44f;" horiz-adv-x="1048" 
d="M67 30q-33 41 13 95q35 36 72 89t62.5 93.5t70 85t100.5 74.5q-60 16 -100.5 63t-53.5 102t-4 107q8 43 25 84.5t50 86t77 77t111 53.5t147 21h309q181 0 148 -201l-140 -782q-15 -98 -153 -98q-136 0 -121 98l57 317h-47q-35 0 -69.5 -17t-61 -41.5t-55 -61.5
t-47.5 -67.5t-43 -69.5t-37 -58q-39 -57 -88 -78t-121 -16q-68 3 -101 44zM498 729q-11 -66 20 -93.5t82 -27.5h174l35 201q7 41 -27 41h-141q-50 0 -90.5 -27t-52.5 -94z" />
    <glyph glyph-name="afii10071" unicode="&#x451;" horiz-adv-x="1060" 
d="M155 390.5q-2 71.5 13 146.5q15 89 44.5 168.5t78 150t111.5 121.5t149.5 80.5t187.5 29.5q208 0 303.5 -120t59.5 -320q-18 -98 -69 -137t-148 -39h-455q-37 -276 166 -276q61 0 101.5 26.5t82.5 83.5t158 45q40 -5 58 -24t16.5 -39.5t-11.5 -44.5q-54 -132 -171 -201.5
t-269 -69.5q-83 0 -151 21t-114 59t-79 90.5t-46.5 115t-15.5 134zM475 662h336q16 0 29 11.5t14 35.5q9 78 -29.5 121.5t-111.5 43.5q-86 0 -148.5 -57t-89.5 -155zM481 1313q11 63 46.5 96t105.5 33q69 0 92 -33.5t12 -95.5q-11 -64 -45 -97.5t-104 -33.5q-71 0 -94 33.5
t-13 97.5zM827 1313q23 129 150 129q70 0 93 -33t13 -96q-11 -64 -45.5 -97.5t-105.5 -33.5t-93.5 34t-11.5 97z" />
    <glyph glyph-name="afii10101" unicode="&#x454;" horiz-adv-x="1019" 
d="M144.5 348q-1.5 84 13.5 182q22 127 62.5 224t105 172.5t162 115t223.5 39.5q163 0 252 -62t110 -171q6 -31 6 -53.5t-8 -45.5t-32.5 -37.5t-65.5 -19.5q-105 -11 -129 66q-16 58 -51 85t-105 27q-94 0 -152.5 -59.5t-82.5 -153.5h235q98 0 78 -110q-7 -48 -35 -79.5
t-82 -31.5h-239q-7 -47 -1 -91t21.5 -78.5t50.5 -55.5t86 -21q66 0 110.5 32.5t86.5 88.5q53 67 160 56q60 -6 80.5 -42.5t-5.5 -88.5q-60 -121 -172 -188.5t-278 -67.5q-102 0 -179 26t-124 74t-73.5 116t-28 152z" />
    <glyph glyph-name="afii10104" unicode="&#x457;" horiz-adv-x="585" 
d="M176 78l160 905q18 98 156 98q59 0 93.5 -22t24.5 -76l-157 -905q-18 -98 -156 -98q-136 0 -121 98zM250 1319q20 123 141 123q66 0 88.5 -32t12.5 -91q-11 -60 -44 -91.5t-100 -31.5t-88 31.5t-10 91.5zM575 1319q20 123 144 123q64 0 86 -31.5t12 -91.5t-42.5 -91.5
t-100.5 -31.5q-66 0 -87.5 31.5t-11.5 91.5z" />
    <glyph glyph-name="afii10110" unicode="&#x45e;" horiz-adv-x="1320" 
d="M199 948q20 113 116 113h66l33 184q18 98 155 98q59 0 93 -22t26 -76l-31 -184h297l33 184q15 98 154 98q61 0 96 -22t25 -76l-33 -184h102q53 0 70 -32t8 -81q-20 -110 -119 -110h-100l-84 -471q-13 -75 15.5 -107.5t119.5 -21.5q60 7 83.5 -14.5t18.5 -76.5
q-5 -46 -26 -82.5t-57 -50.5q-71 -32 -142 -32q-99 1 -164.5 27.5t-96 75t-38 116t9.5 149.5l86 488h-297l-83 -471q-12 -73 22 -108.5t119 -25.5q59 7 79.5 -18.5t12.5 -79.5q-15 -102 -74 -125q-79 -28 -149 -28q-98 1 -163.5 27.5t-96 75t-38.5 116t9 149.5l86 488h-66
q-97 0 -77 110z" />
    <glyph glyph-name="uni2000" unicode="&#x2000;" horiz-adv-x="898" 
 />
    <glyph glyph-name="uni2001" unicode="&#x2001;" horiz-adv-x="1797" 
 />
    <glyph glyph-name="uni2002" unicode="&#x2002;" horiz-adv-x="898" 
 />
    <glyph glyph-name="uni2003" unicode="&#x2003;" horiz-adv-x="1797" 
 />
    <glyph glyph-name="uni2004" unicode="&#x2004;" horiz-adv-x="599" 
 />
    <glyph glyph-name="uni2005" unicode="&#x2005;" horiz-adv-x="449" 
 />
    <glyph glyph-name="uni2006" unicode="&#x2006;" horiz-adv-x="299" 
 />
    <glyph glyph-name="uni2007" unicode="&#x2007;" horiz-adv-x="299" 
 />
    <glyph glyph-name="uni2008" unicode="&#x2008;" horiz-adv-x="224" 
 />
    <glyph glyph-name="uni2009" unicode="&#x2009;" horiz-adv-x="359" 
 />
    <glyph glyph-name="uni200A" unicode="&#x200a;" horiz-adv-x="99" 
 />
    <glyph glyph-name="uni2010" unicode="&#x2010;" 
d="M168 543q20 112 100 112h416q75 0 59 -112q-20 -113 -100 -113h-416q-79 0 -59 113z" />
    <glyph glyph-name="uni2011" unicode="&#x2011;" 
d="M168 543q20 112 100 112h416q75 0 59 -112q-20 -113 -100 -113h-416q-79 0 -59 113z" />
    <glyph glyph-name="figuredash" unicode="&#x2012;" 
d="M168 543q20 112 100 112h416q75 0 59 -112q-20 -113 -100 -113h-416q-79 0 -59 113z" />
    <glyph glyph-name="endash" unicode="&#x2013;" horiz-adv-x="1171" 
d="M199 676q20 112 100 112h860q42 0 55.5 -32.5t4.5 -79.5q-20 -115 -101 -115h-860q-42 0 -55 33t-4 82z" />
    <glyph glyph-name="emdash" unicode="&#x2014;" horiz-adv-x="1452" 
d="M168 537q20 106 92 106h1143q71 0 55 -106q-20 -107 -92 -107h-1143q-75 0 -55 107z" />
    <glyph glyph-name="quoteleft" unicode="&#x2018;" horiz-adv-x="473" 
d="M215.5 957q3.5 39 30.5 85l190 332q47 84 133 78q50 -3 67 -30.5t3 -73.5l-123 -373q-41 -123 -188 -117q-61 4 -88.5 32t-24 67z" />
    <glyph glyph-name="quoteright" unicode="&#x2019;" horiz-adv-x="473" 
d="M254 963l123 372q41 123 188 117q61 -4 88.5 -32t24 -67t-30.5 -85l-190 -332q-47 -84 -133 -78q-50 3 -67 31t-3 74z" />
    <glyph glyph-name="quotedblleft" unicode="&#x201c;" horiz-adv-x="808" 
d="M216 1047.5q3 39.5 30 85.5l192 331q47 83 133 78q50 -3 66.5 -30.5t1.5 -73.5l-121 -373q-42 -126 -188 -117q-61 4 -89 32t-25 67.5zM552 1047.5q3 39.5 30 85.5l190 331q26 43 57.5 62t77.5 16q50 -3 66.5 -30.5t1.5 -73.5l-121 -373q-42 -126 -188 -117q-61 4 -89 32
t-25 67.5z" />
    <glyph glyph-name="quotedblright" unicode="&#x201d;" horiz-adv-x="798" 
d="M254 963l123 372q41 123 188 117q60 -4 87.5 -32t24.5 -67t-30 -85l-190 -332q-50 -83 -133 -78q-50 3 -67 31t-3 74zM590 963l123 372q38 123 188 117q60 -4 87.5 -32t24.5 -67t-30 -85l-190 -332q-50 -83 -136 -78q-48 3 -64.5 31t-2.5 74z" />
    <glyph glyph-name="bullet" unicode="&#x2022;" horiz-adv-x="788" 
d="M201 739q23 133 134 227.5t243 94.5q134 0 211.5 -94.5t54.5 -227.5q-25 -134 -135.5 -227.5t-243.5 -93.5q-134 0 -211.5 94t-52.5 227z" />
    <glyph glyph-name="ellipsis" unicode="&#x2026;" horiz-adv-x="1300" 
d="M135.5 60q-3.5 35 3.5 83q15 77 54.5 116.5t123.5 39.5q87 0 111.5 -38.5t11.5 -117.5q-13 -78 -52.5 -118.5t-125.5 -40.5q-61 0 -92 20.5t-34.5 55.5zM516.5 60q-3.5 35 3.5 83q15 77 54.5 116.5t123.5 39.5q87 0 111.5 -38.5t11.5 -117.5q-13 -78 -52.5 -118.5
t-125.5 -40.5q-61 0 -92 20.5t-34.5 55.5zM897.5 60q-3.5 35 3.5 83q15 77 54.5 116.5t123.5 39.5q87 0 111.5 -38.5t11.5 -117.5q-13 -78 -52.5 -118.5t-125.5 -40.5q-61 0 -92 20.5t-34.5 55.5z" />
    <glyph glyph-name="uni202F" unicode="&#x202f;" horiz-adv-x="359" 
 />
    <glyph glyph-name="uni205F" unicode="&#x205f;" horiz-adv-x="449" 
 />
    <glyph glyph-name="Euro" unicode="&#x20ac;" horiz-adv-x="1402" 
d="M129 584q15 44 44 74t69 30h155l4 21q1 8 4 23.5t3 17.5h-109q-74 0 -33 104q39 104 113 104h84q80 239 226.5 364.5t395.5 125.5q128 0 216.5 -30.5t138.5 -91t69.5 -142t14.5 -191.5q-1 -48 -38.5 -74t-94.5 -28q-69 0 -100 15t-31 67q3 116 -42.5 175.5t-158.5 59.5
q-211 0 -311 -250h301q71 0 32 -104q-41 -104 -112 -104h-281q-4 -15 -8 -41l-4 -21h235q27 0 38 -16t8.5 -38t-13.5 -50q-41 -105 -113 -105h-172q7 -265 224 -270q100 -1 162 57.5t102 155.5q44 107 184 104q150 -4 109 -129q-28 -87 -75 -160t-116 -135t-168 -97.5
t-217 -35.5q-260 0 -378.5 134t-110.5 376h-213q-74 0 -33 105z" />
    <glyph glyph-name="uniE000" unicode="&#xe000;" horiz-adv-x="1064" 
d="M0 0v1065h1065v-1065h-1065z" />
    </font>
</defs>
</svg>
