<?xml version="1.0" standalone="no"?>
<!DOCTYPE svg PUBLIC "-//W3C//DTD SVG 1.1//EN" "http://www.w3.org/Graphics/SVG/1.1/DTD/svg11.dtd" >
<svg xmlns="http://www.w3.org/2000/svg" xmlns:xlink="http://www.w3.org/1999/xlink" version="1.1">
<metadata>
Created by FontForge 20161003 at Sun Nov 19 12:07:03 2017
 By www-data
Copyright (c) 2008 by Vasiliy Shishkin. All rights reserved.
</metadata>
<defs>
<font id="FregatItalic" horiz-adv-x="1040" >
  <font-face 
    font-family="FregatItalic"
    font-weight="400"
    font-style="italic"
    font-stretch="normal"
    units-per-em="2048"
    panose-1="2 0 5 6 4 0 0 2 0 4"
    ascent="1638"
    descent="-410"
    x-height="1061"
    cap-height="1434"
    bbox="-174 -383 1881.47 1785.68"
    underline-thickness="102"
    underline-position="-306"
    unicode-range="U+000D-E000"
  />
<missing-glyph horiz-adv-x="748" 
d="M68 0v1365h544v-1365h-544zM136 68h408v1229h-408v-1229z" />
    <glyph glyph-name=".notdef" horiz-adv-x="748" 
d="M68 0v1365h544v-1365h-544zM136 68h408v1229h-408v-1229z" />
    <glyph glyph-name="glyph1" horiz-adv-x="2048" 
 />
    <glyph glyph-name="glyph1" horiz-adv-x="2048" 
 />
    <glyph glyph-name="uni000D" unicode="&#xd;" horiz-adv-x="2048" 
 />
    <glyph glyph-name="space" unicode=" " horiz-adv-x="716" 
 />
    <glyph glyph-name="exclam" unicode="!" horiz-adv-x="466" 
d="M139 113q10 57 39.5 85.5t93.5 28.5q65 0 84 -28.5t9 -85.5q-10 -60 -40 -91.5t-96 -31.5t-83 30.5t-7 92.5zM252 395l100 940q6 55 41.5 83t93.5 28t84 -28.5t13 -82.5l-232 -940q-12 -43 -57 -43q-49 0 -43 43z" />
    <glyph glyph-name="quotedbl" unicode="&#x22;" horiz-adv-x="636" 
d="M260 1018l121 358q27 82 127 74q51 -3 65.5 -35t-12.5 -78l-186 -333q-16 -28 -32.5 -38.5t-45.5 -7.5q-25 2 -35.5 18t-1.5 42zM532 1018l121 358q27 82 127 74q51 -3 66 -35t-12 -78l-187 -333q-16 -28 -32.5 -38.5t-45.5 -7.5q-25 2 -35.5 18t-1.5 42z" />
    <glyph glyph-name="numbersign" unicode="#" horiz-adv-x="1216" 
d="M135 514q12 68 72 68h174l53 301h-174q-58 0 -47 67q12 68 72 68h172l63 360q13 60 80 60t57 -60l-63 -360h295l63 360q10 60 80 60q29 0 45.5 -14t9.5 -46l-63 -360h174q59 0 47 -68q-8 -67 -71 -67h-173l-53 -301h172q61 0 49 -68t-71 -68h-174l-70 -393
q-10 -61 -78 -61q-29 0 -46 14.5t-11 46.5l69 393h-296l-70 -393q-10 -61 -78 -61q-29 0 -46 14.5t-11 46.5l69 393h-172q-61 0 -49 68zM516 582h297l53 301h-297z" />
    <glyph glyph-name="dollar" unicode="$" horiz-adv-x="1124" 
d="M96 393q4 31 29.5 49.5t60.5 18.5q75 0 68 -72q-12 -105 55 -174t185 -88l98 559q-33 9 -57.5 16.5t-55.5 18.5t-53.5 22t-48.5 25.5t-43.5 31t-35 37t-27.5 44.5t-16.5 52.5t-6 62.5t7.5 73q21 118 94 205.5t169.5 132t207.5 53.5l12 70q13 61 82 61q68 0 58 -61
l-13 -72q165 -14 258 -97.5t93 -244.5q0 -41 -19.5 -61.5t-64.5 -20.5q-74 4 -76 66q-6 91 -65.5 142.5t-151.5 66.5l-86 -496q94 -25 156 -51t124.5 -72t85.5 -118t6 -169q-24 -133 -103.5 -229.5t-186.5 -144.5t-232 -56l-14 -84q-10 -61 -80 -61q-69 0 -59 61l16 88
q-180 20 -285.5 124t-85.5 292zM434 1079q-8 -46 4 -84.5t41.5 -65.5t63.5 -45.5t78 -33.5l81 463q-99 -13 -174.5 -73.5t-93.5 -160.5zM631 123q117 14 204.5 83.5t108.5 182.5q8 46 -1 84.5t-29 65t-52.5 48.5t-64.5 36t-72 26z" />
    <glyph glyph-name="percent" unicode="%" horiz-adv-x="1374" 
d="M237.5 16.5q-3.5 13.5 14.5 36.5l981 1325q45 60 104 60q19 0 30.5 -5t15 -18.5t-14.5 -36.5l-981 -1325q-45 -61 -102 -61q-20 0 -32 5.5t-15.5 19zM279 1163q25 135 99.5 211t205.5 76t179.5 -76.5t24.5 -210.5q-23 -132 -99.5 -209t-205.5 -77q-128 0 -177.5 77
t-26.5 209zM401 1163q-31 -188 99 -188q52 0 89 31t53 69.5t24 87.5q32 189 -99 189q-40 0 -70.5 -17t-49.5 -46.5t-29.5 -60t-16.5 -65.5zM829 266q24 134 100.5 210.5t207.5 76.5t179 -76t25 -211q-24 -132 -101.5 -209t-205.5 -77t-178 77t-27 209zM948 180
q0 -42 26.5 -72t78.5 -30q133 0 164 188q6 44 6 86t-26.5 72.5t-78.5 30.5q-132 0 -164 -189q-6 -44 -6 -86z" />
    <glyph glyph-name="ampersand" unicode="&#x26;" horiz-adv-x="1267" 
d="M140 255q-15 72 1 165q10 60 39 116t67.5 100.5t92 87.5t104 75t111.5 65q-67 178 -49 301q19 118 122 209t226 92q139 0 212 -78t46 -217q-39 -185 -364 -360q82 -189 237 -408q88 137 121 293q6 27 30.5 42.5t57.5 15.5q35 1 51 -16.5t10 -49.5q-50 -223 -186 -401
q27 -36 180 -234q19 -25 -8 -45t-65 -24q-80 -4 -107 30q-32 39 -113 148q-184 -166 -403 -174q-75 -2 -142 12t-124.5 47t-94.5 84.5t-52 123.5zM334 420q-23 -130 44.5 -206.5t194.5 -76.5q166 3 306 133q-186 272 -273 467q-111 -62 -182 -137.5t-90 -179.5zM666 1163
q-13 -96 32 -225q212 119 234 244q11 60 -17 100.5t-86 40.5q-67 -1 -111 -48.5t-52 -111.5z" />
    <glyph glyph-name="quotesingle" unicode="'" horiz-adv-x="354" 
d="M250 1018l123 358q26 81 127 74q50 -3 64.5 -35t-13.5 -78l-186 -333q-14 -27 -31 -38t-47 -8q-24 2 -34 18t-3 42z" />
    <glyph glyph-name="parenleft" unicode="(" horiz-adv-x="487" 
d="M160 539q93 525 450 888q17 17 40.5 22.5t41.5 -1.5q17 -5 24.5 -16t5 -25t-14.5 -29q-291 -372 -373 -839q-84 -467 78 -842q9 -23 -1 -43t-38 -27q-54 -14 -78 21q-228 364 -135 891z" />
    <glyph glyph-name="parenright" unicode=")" horiz-adv-x="487" 
d="M-49.5 -332q2.5 14 14.5 29q294 376 375 842q81 461 -78 839q-9 23 1 43t38 27q21 7 43.5 1.5t32.5 -22.5q228 -364 135 -888q-42 -246 -153 -474t-296 -417q-37 -34 -83 -21q-17 5 -24.5 16t-5 25z" />
    <glyph glyph-name="asterisk" unicode="*" horiz-adv-x="976" 
d="M261.5 1070.5q-11.5 28.5 8.5 68.5q20 39 52 51.5t67 -4.5l244 -125l14 291q2 41 27.5 65.5t68.5 24.5q24 0 41 -10q39 -19 23 -80l-23 -74l-65 -217l287 123q40 19 68 6t34 -53q4 -40 -17.5 -68t-62.5 -37l-299 -55l164 -213q23 -31 14 -62.5t-47 -56.5
q-30 -23 -64 -17.5t-48 42.5l-97 258l-188 -256q-26 -37 -59 -44.5t-62 17.5t-26.5 57.5t36.5 61.5l238 215l-279 55q-38 8 -49.5 36.5z" />
    <glyph glyph-name="plus" unicode="+" horiz-adv-x="1146" 
d="M197 719q16 72 77 72h363l65 362q10 66 82 66q32 0 50.5 -15.5t11.5 -50.5l-64 -362h363q63 0 51 -72q-12 -74 -76 -74h-364l-64 -362q-10 -64 -84 -64q-72 0 -59 64l63 362h-364q-63 0 -51 74z" />
    <glyph glyph-name="comma" unicode="," horiz-adv-x="487" 
d="M55 -201l123 361q27 78 127 71q49 -3 64 -34.5t-11 -77.5l-188 -334q-14 -27 -31 -37.5t-47 -7.5q-24 2 -34 17.5t-3 41.5z" />
    <glyph glyph-name="hyphen" unicode="-" horiz-adv-x="653" 
d="M166 547q12 71 78 71h387q63 0 51 -71q-12 -72 -76 -72h-389q-63 0 -51 72z" />
    <glyph glyph-name="period" unicode="." horiz-adv-x="473" 
d="M139 119q10 60 41.5 90.5t98.5 30.5q68 0 87.5 -30.5t8.5 -90.5q-10 -63 -41.5 -96t-100.5 -33q-68 0 -87 32.5t-7 96.5z" />
    <glyph glyph-name="slash" unicode="/" horiz-adv-x="966" 
d="M-37 -299l1090 1677q36 60 100 60q19 0 31.5 -5t16 -18.5t-12.5 -36.5l-1090 -1677q-39 -61 -104 -61q-70 0 -31 61z" />
    <glyph glyph-name="zero" unicode="0" horiz-adv-x="1282" 
d="M190.5 417.5q-16.5 136.5 14.5 299.5q39 220 131.5 385.5t236 260.5t320.5 95q134 0 231.5 -54.5t148.5 -152.5t65.5 -234.5t-17.5 -299.5q-38 -218 -133.5 -385t-239.5 -261t-315 -94q-128 0 -224 54.5t-149 152t-69.5 234zM373.5 479.5q2.5 -60.5 12.5 -113.5t32 -100
t53.5 -80.5t79 -53t106.5 -19.5q82 0 154 37.5t123.5 97t93 140.5t67 162.5t40.5 166.5q15 87 19 167.5t-8.5 162t-42.5 141.5t-89.5 97.5t-143.5 37.5t-157.5 -37.5t-124.5 -97.5t-92 -141.5t-65.5 -162t-39.5 -167.5q-10 -60 -15 -118.5t-2.5 -119z" />
    <glyph glyph-name="one" unicode="1" horiz-adv-x="823" 
d="M84 78q12 80 84 80h197l192 1089q-56 -40 -113 -63l-116 -51q-34 -15 -56 -17.5t-31 8t-12 20.5t-4 27q-3 57 64 91l323 161q36 19 70 19q37 -2 57 -20.5t13 -57.5l-213 -1206h204q72 0 56 -80q-5 -33 -25.5 -55.5t-58.5 -22.5h-576q-67 0 -55 78z" />
    <glyph glyph-name="two" unicode="2" horiz-adv-x="1075" 
d="M63 102q14 75 89 154q67 67 177.5 146t211.5 146t198 139t163 151t81 157q14 56 5.5 112.5t-33 101.5t-80.5 73.5t-136 28.5q-71 0 -131 -22t-98.5 -57t-63 -71t-34.5 -71q-23 -78 -97 -78q-83 0 -65 78q27 111 105.5 196.5t184.5 129.5t220 44q220 0 331.5 -110
t75.5 -314q-18 -100 -72 -190.5t-125 -157t-165 -135t-179 -120t-181 -117t-158 -121.5q-9 -8 -12 -17.5t2.5 -16.5t19.5 -7h668q74 0 59 -76q-5 -33 -25 -55.5t-57 -22.5h-803q-46 0 -64.5 29t-11.5 73z" />
    <glyph glyph-name="three" unicode="3" horiz-adv-x="1069" 
d="M96 240q-9 34 2 63t49 43q33 15 65.5 5t41.5 -42q12 -33 21.5 -55t31 -50.5t48 -45.5t70.5 -29t101 -12q126 0 223.5 79.5t131.5 209.5q26 89 16 153.5t-40.5 107t-87.5 66t-123 30.5t-148 1q-62 -3 -70.5 42.5t49.5 96.5l314 279q56 48 129 94h-551q-68 0 -56 78
q12 80 84 80h707q67 0 55 -80q-6 -38 -41 -66l-463 -389q-8 -7 -9.5 -13.5t2.5 -10t9 -3.5q106 4 193 -25.5t143 -88.5t75 -146t-9 -198q-22 -90 -66 -166t-111.5 -137t-165 -96t-214.5 -35q-335 0 -406 260z" />
    <glyph glyph-name="four" unicode="4" horiz-adv-x="1132" 
d="M84 410q6 37 29 63l729 883q79 94 172 94q61 0 88.5 -18t17.5 -72l-153 -879h114q61 0 49 -73q-13 -74 -75 -74h-115l-49 -279q-13 -75 -100 -75q-37 0 -59 17t-15 58l49 279h-627q-34 0 -47 23t-8 53zM291 481h502l135 770q-72 -101 -115 -155l-391 -469
q-88 -109 -131 -146z" />
    <glyph glyph-name="five" unicode="5" horiz-adv-x="1103" 
d="M127 238q-20 76 51 106q32 14 65.5 5.5t43.5 -40.5t21 -56t32.5 -51.5t49.5 -45t72.5 -29.5t100.5 -12q146 0 241 88.5t116 236.5q13 89 -4 152.5t-59.5 99.5t-98.5 53.5t-131 20.5q-90 4 -166 -6q-113 -10 -159.5 28t-25.5 152l60 340q8 46 28 78.5t45.5 48t47.5 21.5
t45 6h602q71 0 59 -78q-5 -34 -27 -57t-61 -23h-518q-28 0 -40 -11t-17 -36l-47 -275q-7 -41 9 -54.5t56 -8.5q88 7 164 4q65 -3 122 -14.5t110 -34.5t91.5 -58.5t66.5 -85t34.5 -114.5t-4.5 -148q-15 -93 -58.5 -175.5t-112.5 -147t-168.5 -102.5t-217.5 -38
q-159 0 -271 64t-147 197z" />
    <glyph glyph-name="six" unicode="6" horiz-adv-x="1124" 
d="M164.5 400.5q-1.5 71.5 7 141t25.5 142.5q30 127 98.5 250.5t165.5 228.5t229 183.5t279 111.5q46 10 72.5 -1t41.5 -46q17 -40 -6 -64t-59 -30q-122 -21 -234.5 -82t-195.5 -143t-140 -177.5t-79 -189.5l4 -2q48 75 146 137.5t210 69.5q144 11 242 -50.5t133.5 -172.5
t7.5 -250q-43 -218 -190.5 -349t-358.5 -131q-86 0 -153.5 22t-112 60.5t-74.5 92.5t-43.5 115.5t-15 133zM342.5 357q0.5 -49 16.5 -93.5t42 -78.5t71 -54t103 -20q141 0 237.5 98.5t123.5 249.5q29 164 -37 249t-209 85q-69 0 -132 -33.5t-105.5 -85t-70 -109.5
t-34.5 -110q-6 -49 -5.5 -98z" />
    <glyph glyph-name="seven" unicode="7" horiz-adv-x="933" 
d="M249 14.5q-7 18.5 11 48.5l662 1184q17 33 -15 33h-573q-69 0 -58 74q16 80 84 80h715q74 0 60 -68q-6 -30 -21 -57l-657 -1254q-42 -75 -135 -75q-29 0 -47.5 8t-25.5 26.5z" />
    <glyph glyph-name="eight" unicode="8" horiz-adv-x="1132" 
d="M154 412q24 130 108 223.5t209 140.5q-79 46 -115 124.5t-18 180.5q30 171 155.5 273t329.5 102t293.5 -102t59.5 -273q-18 -102 -82 -181t-160 -124q109 -47 161 -140.5t29 -223.5q-37 -202 -183.5 -325.5t-381.5 -123.5q-234 0 -337 124t-68 325zM330.5 309
q-0.5 -43 16 -84t43.5 -73t75.5 -51t112.5 -19q79 0 144 29t106.5 76t66.5 99.5t35 108.5q5 43 3.5 86.5t-20 84.5t-46.5 72.5t-74.5 51t-104.5 19.5q-72 0 -135.5 -29t-107 -76t-71.5 -101t-38 -108q-5 -43 -5.5 -86zM504 1079q-15 -86 43 -156.5t170 -70.5q111 0 194.5 71
t98.5 156q4 33 4.5 66.5t-13 65t-36 55.5t-65.5 38.5t-101 14.5q-71 0 -127 -21.5t-89.5 -58t-52.5 -76.5t-26 -84z" />
    <glyph glyph-name="nine" unicode="9" horiz-adv-x="1124" 
d="M248 822q-4 74 10 157q43 217 199 348t379 131q109 -1 186.5 -44t117 -111.5t55 -161.5t8.5 -189.5t-32 -199.5q-30 -127 -101 -252t-171 -231.5t-234.5 -186.5t-281.5 -113q-47 -10 -73 0.5t-40 44.5q-17 40 5.5 65t58.5 32q127 27 242.5 90t199.5 145.5t142 177
t81 187.5l-4 2q-46 -75 -144 -138t-210 -71q-88 -6 -160 15t-120 64t-78.5 104t-34.5 135zM434 977q-27 -154 29 -239t182 -93q87 -6 168.5 42t134 125t70.5 163q8 49 9.5 98t-13 94.5t-39.5 80.5t-69.5 56t-102.5 21q-142 0 -242.5 -99t-126.5 -249z" />
    <glyph glyph-name="colon" unicode=":" horiz-adv-x="475" 
d="M139 119q10 60 41.5 90.5t98.5 30.5q68 0 87.5 -30.5t8.5 -90.5q-10 -63 -41.5 -96t-100.5 -33q-68 0 -87 32.5t-7 96.5zM285 948q11 62 42 92.5t97 30.5q69 0 88.5 -30t9.5 -93q-12 -62 -42.5 -94.5t-98.5 -32.5q-70 0 -88 31.5t-8 95.5z" />
    <glyph glyph-name="semicolon" unicode=";" horiz-adv-x="485" 
d="M55 -201l121 361q27 78 129 71q49 -3 63.5 -34.5t-12.5 -77.5l-186 -334q-16 -28 -32 -38t-46 -7q-24 2 -35 17.5t-2 41.5zM274 948q10 61 41.5 92t98.5 31q69 0 88.5 -30t9.5 -93q-12 -62 -42.5 -94.5t-98.5 -32.5q-70 0 -88.5 31.5t-8.5 95.5z" />
    <glyph glyph-name="less" unicode="&#x3c;" horiz-adv-x="1001" 
d="M137 711q7 41 30.5 65t72.5 47l813 359q48 24 66 16t11 -57q-6 -44 -20 -62.5t-57 -38.5l-697 -317q-10 -4 -11.5 -13.5t7.5 -13.5l584 -317q37 -20 44.5 -38t-1.5 -62q-10 -49 -31.5 -57t-60.5 16l-686 358q-42 22 -56.5 47t-7.5 68z" />
    <glyph glyph-name="equal" unicode="=" horiz-adv-x="1136" 
d="M168 563q12 74 76 74h870q63 0 51 -74q-12 -71 -75 -71h-873q-34 0 -45 20.5t-4 50.5zM227 907q12 74 78 74h871q63 0 51 -74q-5 -30 -23.5 -50.5t-52.5 -20.5h-872q-64 0 -52 71z" />
    <glyph glyph-name="greater" unicode="&#x3e;" horiz-adv-x="1001" 
d="M117 279q6 44 20.5 61.5t57.5 38.5l696 317q10 4 11.5 13.5t-7.5 13.5l-584 317q-37 20 -44.5 38.5t1.5 62.5q10 49 31.5 57t60.5 -16l687 -359q42 -22 56 -46t7 -66q-7 -43 -30 -67.5t-72 -47.5l-813 -358q-48 -24 -66.5 -16t-11.5 57z" />
    <glyph glyph-name="question" unicode="?" horiz-adv-x="970" 
d="M238.5 1199q-2.5 18 2.5 32t13 24q82 96 186.5 149.5t253.5 57.5q90 2 169.5 -23.5t137.5 -74.5t84.5 -127t10.5 -172q-10 -61 -34.5 -112.5t-64.5 -95t-74.5 -72.5t-86.5 -66l-51 -36t-49 -36t-41 -33.5t-40 -39t-31.5 -42.5t-28.5 -54.5t-20 -65.5q-6 -20 -25 -31.5
t-40 -11.5q-24 -2 -43 10t-16 37q8 55 25 102t36 79.5t52.5 69t59 58.5t71.5 61.5t75 65.5q106 99 125 207q12 67 -3 118.5t-50.5 81t-80.5 44t-97 14.5q-175 0 -312 -141q-23 -24 -48.5 -26.5t-49.5 19.5q-13 12 -15.5 30zM348 113q10 57 39.5 85.5t93.5 28.5
q65 0 83.5 -28t8.5 -86q-10 -60 -39.5 -91.5t-93.5 -31.5q-66 0 -84 30.5t-8 92.5z" />
    <glyph glyph-name="at" unicode="@" horiz-adv-x="1468" 
d="M174 717q0 205 95.5 376t261.5 270t366 99q127 0 247.5 -48t212.5 -131t148 -203.5t56 -256.5q0 -206 -103 -364q-44 -69 -113 -113.5t-151 -44.5q-118 0 -162 127q-94 -131 -229 -131q-87 0 -149 35.5t-92 95.5t-38.5 140.5t11.5 170.5q32 159 149 257t268 98h113
q74 0 105.5 -32.5t21.5 -117.5l-41 -340q0 -5 -2 -21.5t-2.5 -24.5t-1.5 -24.5t0.5 -25t3.5 -22t7.5 -21t12.5 -15t18.5 -11t26.5 -3.5q87 0 156 113q66 114 66 260q0 141 -70 261t-195.5 191.5t-277.5 71.5q-162 0 -297 -84t-211 -226t-76 -308q0 -134 48 -249t131.5 -194
t197 -123.5t242.5 -44.5q191 0 409 95q61 28 78 -41q8 -27 -2.5 -51.5t-36.5 -36.5q-233 -99 -448 -99q-155 0 -293.5 55t-240 151.5t-161 237t-59.5 302.5zM676 618q-1 -47 9 -89t39.5 -67.5t76.5 -25.5q99 0 166 94q29 42 42.5 93.5t20.5 124.5l21 176q3 23 -2.5 28.5
t-26.5 5.5h-96q-53 0 -95.5 -21.5t-70.5 -58t-45.5 -77t-26.5 -86.5q-11 -50 -12 -97z" />
    <glyph glyph-name="A" unicode="A" horiz-adv-x="1167" 
d="M43 57l666 1307q39 76 125 76q85 0 96 -76l205 -1307q2 -10 2 -18q0 -27 -17 -40q-22 -17 -59 -17q-50 0 -74.5 15.5t-30.5 57.5l-53 363h-502l-178 -363q-22 -42 -52 -57.5t-79 -15.5q-61 0 -61 36q0 16 12 39zM469 551h416l-64 436q-12 88 -20 264q-61 -154 -115 -264z
" />
    <glyph glyph-name="B" unicode="B" horiz-adv-x="1185" 
d="M156 116q-1 8 -1 15q0 28 7 57l186 1057q16 87 60.5 138t140.5 51h383q81 0 148.5 -22.5t115.5 -65t68 -110.5q12 -39 12 -84q0 -33 -6 -69q-22 -121 -98.5 -205t-196.5 -118q124 -34 180 -130q39 -67 39 -154q0 -39 -8 -81q-34 -192 -173.5 -293.5t-334.5 -101.5h-381
q-51 0 -83 15t-44 41t-14 60zM334 209q-2 -11 -2 -20q0 -42 47 -42h317q118 0 206.5 67.5t109.5 188.5q7 38 7 71q0 89 -50 139q-68 69 -205 69h-348zM440 819h303q305 0 351 248q4 25 4 47q0 76 -49 118q-64 54 -179 54h-290q-56 0 -68 -61z" />
    <glyph glyph-name="C" unicode="C" horiz-adv-x="1216" 
d="M176 473q1 113 23 244q29 168 85.5 300.5t143.5 232t212 153t280 53.5q206 0 320 -120q100 -105 99 -283q0 -26 -2 -54q-5 -75 -88 -75q-37 0 -58 15t-20 46v8q-1 63 -15 117q-16 58 -47.5 106.5t-86.5 76.5t-127 28q-86 0 -157 -25t-122.5 -72t-90.5 -103t-66 -128.5
t-44 -136.5t-30 -139q-12 -64 -18 -119q-7 -54 -7 -118q0 -3 1 -7q0 -60 8 -108q9 -51 31.5 -100t58 -81.5t92.5 -52.5t131 -20t138 27t111.5 75.5t83 105.5t62.5 127q20 64 99 64q45 0 57.5 -23t3.5 -53q-57 -205 -210.5 -331t-369.5 -126q-125 0 -218 35t-149 100
q-56 64 -86 156q-29 88 -28 198v7z" />
    <glyph glyph-name="D" unicode="D" horiz-adv-x="1241" 
d="M156 116q-1 8 -1 15q0 28 7 57l186 1057q16 87 60.5 138t140.5 51h280q97 0 176.5 -25t135 -71t95 -110t56 -142t18.5 -168q0 -10 1 -20q0 -80 -17 -165q-19 -106 -57 -208t-100.5 -198t-140.5 -168t-184.5 -115.5t-225.5 -43.5h-289q-51 0 -83 15t-44 41t-14 60z
M340 211q-2 -12 -2 -21q0 -16 6 -24q10 -14 41 -14h201q93 0 172.5 32t137.5 86t103.5 129.5t74 158t44.5 175.5q14 91 14 171q0 78 -22 146q-22 70 -62 121t-107.5 80t-156.5 29h-200q-31 0 -45.5 -13.5t-20.5 -45.5z" />
    <glyph glyph-name="E" unicode="E" horiz-adv-x="1050" 
d="M156 116q-1 8 -1 15q0 28 7 57l186 1057q16 87 60.5 138t140.5 51h616q39 0 51 -23q8 -15 8 -34q0 -11 -3 -23q-12 -76 -82 -76h-555q-31 0 -45.5 -12.5t-20.5 -44.5l-72 -400h484q37 0 48.5 -22t4.5 -54q-12 -75 -80 -75h-483l-80 -459q-6 -31 4.5 -44t42.5 -13h553
q59 0 59 -55q0 -10 -2 -21q-16 -78 -84 -78h-616q-51 0 -83 15t-44 41t-14 60z" />
    <glyph glyph-name="F" unicode="F" horiz-adv-x="1048" 
d="M156 57l211 1188q14 87 59 138t141 51h617q58 0 58 -53q0 -12 -3 -27q-11 -74 -82 -74h-555q-30 0 -44.5 -13t-20.5 -46l-72 -400h483q55 0 55 -54q0 -10 -2 -22q-12 -75 -79 -75h-484l-106 -613q-13 -75 -103 -75q-75 0 -75 57q0 8 2 18z" />
    <glyph glyph-name="G" unicode="G" horiz-adv-x="1275" 
d="M175 528q1 91 18 189q86 502 405 667q135 72 315 72q200 0 304 -94.5t118 -257.5q1 -7 1 -14q0 -36 -19 -58q-22 -25 -62 -28h-14q-33 0 -51 12q-22 16 -29 63q-16 111 -82.5 177.5t-187.5 66.5q-407 0 -514 -606q-11 -64 -15 -127q-1 -28 -1 -57q0 -37 3 -77
q4 -71 25 -130t56 -108t96 -77t141 -28q74 0 139 28.5t110.5 73.5t81 105t56.5 120t31 121q4 24 -4 32.5t-25 8.5h-272q-37 0 -49 20.5t-5 51.5q11 69 78 69h312q75 0 108 -17.5t39 -59.5q1 -11 1 -24q0 -36 -11 -87q-16 -91 -49 -173.5t-86 -157t-121.5 -129t-162 -86.5
t-200.5 -32q-101 0 -182 28t-136 78.5t-92 119t-53 151.5q-15 78 -15 163v11z" />
    <glyph glyph-name="H" unicode="H" horiz-adv-x="1224" 
d="M156 57l229 1307q12 76 100 76q75 0 75 -59q0 -8 -1 -17l-92 -524h582l92 524q12 76 100 76q75 0 75 -59q0 -8 -1 -17l-230 -1307q-13 -75 -100 -75q-37 0 -59 17t-15 58l111 629h-582l-110 -629q-13 -75 -103 -75q-73 0 -73 56q0 9 2 19z" />
    <glyph glyph-name="I" unicode="I" horiz-adv-x="471" 
d="M156 57l231 1307q13 78 100 78q37 0 59 -18q17 -14 16 -41q0 -9 -1 -19l-231 -1307q-13 -75 -101 -75q-75 0 -75 57q0 8 2 18z" />
    <glyph glyph-name="J" unicode="J" horiz-adv-x="788" 
d="M26 46q-4 11 -4 24q0 15 5 34q9 35 34 52.5t58 7.5q80 -25 129 -25q62 0 108.5 15t77 39.5t52.5 66.5t34 86t23 107l162 911q13 78 100 78q37 0 59 -18q17 -14 17 -41q0 -9 -2 -19l-160 -907q-17 -99 -54 -181t-94 -148t-141.5 -103t-187.5 -37q-85 0 -176 26
q-32 10 -40 32z" />
    <glyph glyph-name="K" unicode="K" horiz-adv-x="1075" 
d="M156 57l231 1307q12 76 100 76q75 0 75 -59q0 -8 -1 -17l-92 -518q57 1 107 16t84.5 35t72.5 57t60.5 65t58.5 77q18 24 90.5 130t120.5 158q51 56 115 56q12 0 24 -2q27 -4 38 -18q7 -8 7 -21q-1 -7 -3 -16q-6 -23 -32 -54q-45 -53 -213 -289q-54 -79 -134 -145.5
t-165 -99.5q85 -19 146 -78.5t91 -131.5t44 -161q31 -218 48 -283q11 -37 24 -73q5 -13 5 -25q0 -43 -67 -59q-15 -3 -27 -3q-43 0 -63 35q-13 22 -23.5 48.5t-19 68.5t-12 61.5t-11 78t-8.5 67.5q-15 94 -38 158.5t-65 117t-111 76.5q-61 21 -146 21h-21l-116 -656
q-13 -75 -101 -75q-75 0 -75 57q0 8 2 18z" />
    <glyph glyph-name="L" unicode="L" horiz-adv-x="919" 
d="M156 116q-1 8 -1 15q0 28 7 57l207 1176q13 78 100 78q37 0 59 -18q17 -14 17 -41q0 -9 -2 -19l-203 -1151q-6 -32 4 -45.5t41 -13.5h465q59 0 59 -58q0 -10 -2 -22q-15 -74 -84 -74h-526q-51 0 -83 15t-44 41t-14 60z" />
    <glyph glyph-name="M" unicode="M" horiz-adv-x="1411" 
d="M158 57l229 1305q7 39 33.5 58.5t64.5 19.5q44 0 64.5 -17.5t34.5 -60.5l233 -680l473 680q29 43 57 60.5t72 17.5q39 0 64 -20q20 -16 20 -42q0 -7 -2 -16l-231 -1305q-13 -75 -90 -75q-72 0 -72 56q0 9 2 19l195 1096q-73 -118 -78 -125l-330 -471q-52 -76 -111 -76
q-30 0 -48 19t-31 57l-164 471q-19 58 -33 125l-193 -1096q-15 -75 -96 -75q-37 0 -54 17q-12 12 -12 34q0 11 3 24z" />
    <glyph glyph-name="N" unicode="N" horiz-adv-x="1302" 
d="M156 45l233 1321q7 38 38.5 57t72.5 19q75 0 100 -62l453 -1138q4 126 30 276l152 862q5 33 30.5 47.5t57.5 14.5q31 0 53 -14q17 -12 18 -36q0 -6 -1 -12l-234 -1323q-14 -75 -112 -75q-77 0 -101 63l-446 1126q-5 -93 -27 -219l-160 -907q-10 -63 -88 -63q-32 0 -53 15
q-17 12 -17 36q0 6 1 12z" />
    <glyph glyph-name="O" unicode="O" horiz-adv-x="1327" 
d="M178 418q-4 40 -4 83q0 102 23 216q29 166 87 299.5t146 233t211 153t274 53.5q121 0 213 -35t149 -99.5t88.5 -156t31.5 -204.5t-21 -244q-30 -166 -89 -300t-147.5 -233t-212 -153t-272.5 -54t-253.5 54.5t-157 152.5t-66.5 234zM383 717q-23 -129 -24 -230
q0 -376 321 -376q72 0 134 19.5t109 53t87 81.5t68 100t50.5 114.5t36.5 118.5t25 119q22 125 22 224q0 380 -319 380q-405 0 -510 -604z" />
    <glyph glyph-name="P" unicode="P" horiz-adv-x="1132" 
d="M156 57l211 1188q7 41 19.5 72t34.5 59t59 43t87 15h326q193 0 295 -116q77 -88 77 -221q0 -43 -8 -91q-34 -187 -172.5 -305.5t-324.5 -118.5h-336l-94 -525q-13 -75 -101 -75q-75 0 -75 57q0 8 2 18zM449 731h321q121 0 205 76t106 199q6 33 6 63q0 79 -39 135
q-54 78 -169 78h-277q-30 0 -44.5 -13t-20.5 -44z" />
    <glyph glyph-name="Q" unicode="Q" horiz-adv-x="1325" 
d="M175 473v10q0 109 20 234q30 166 88.5 299.5t146.5 233t211 153t274 53.5q121 0 212.5 -35t148.5 -99.5t88.5 -156t31.5 -204.5t-22 -244q-39 -225 -135 -392.5t-244 -256.5l121 -203q16 -27 -3.5 -46t-55.5 -26q-15 -2 -28 -2q-27 0 -47 10q-28 15 -50 56l-80 149
q-103 -29 -199 -29q-119 0 -209.5 35t-147.5 100t-88.5 156.5t-32.5 204.5zM381 717q-22 -125 -22 -224q0 -380 319 -380q67 0 110 14l-69 129q-14 29 0 48t45 24q33 6 55 -1.5t31.5 -18.5t21.5 -34l52 -88q197 140 264 531q13 74 18 139q4 46 4 93v45q-3 71 -23 128
t-55 103.5t-96.5 72t-144.5 25.5q-72 0 -134 -19.5t-109 -53t-87 -81.5t-68 -100t-50.5 -114.5t-36.5 -118.5t-25 -119z" />
    <glyph glyph-name="R" unicode="R" horiz-adv-x="1177" 
d="M158 57l209 1188q14 87 59 138t141 51h326q197 0 299 -108q77 -81 77 -211q0 -43 -9 -91q-28 -156 -131 -247t-261 -122q62 -32 97.5 -88t60.5 -139q11 -38 31.5 -114t38.5 -134.5t41 -111.5q8 -18 8 -32q0 -38 -55 -52q-14 -2 -27 -2q-21 0 -43 6q-34 10 -45 28
q-28 45 -45 100.5t-32.5 132.5t-25.5 113q-38 140 -105 198t-192 58h-145l-98 -561q-15 -75 -103 -75q-73 0 -73 54q0 10 2 21zM455 764h260q140 0 242.5 63.5t125.5 196.5q6 33 6 62q0 76 -39 126q-54 70 -171 70h-275q-32 0 -46.5 -12.5t-20.5 -44.5z" />
    <glyph glyph-name="S" unicode="S" horiz-adv-x="1138" 
d="M96 383q4 38 30 58t62 20q44 0 65.5 -20.5t16.5 -51.5q-3 -22 -3 -43q-1 -101 73 -160q88 -71 242 -71q132 0 239 73t131 201q4 20 4 39q0 29 -9 55q-14 42 -41.5 68.5t-71.5 48t-81.5 33.5t-85.5 25q-3 1 -5 1q-167 45 -232 76q-160 75 -178 217q-3 21 -3 43q0 35 7 74
q17 97 71 174t129 123.5t161.5 71t175.5 24.5q98 0 176 -19.5t137.5 -59.5t92 -108t32.5 -159q0 -82 -90 -82q-32 0 -56.5 15.5t-23.5 50.5v10q-1 60 -23 102q-24 46 -70 68.5t-95.5 31.5t-110.5 9q-111 0 -205 -64.5t-115 -179.5q-3 -17 -3 -32q-1 -28 9 -53
q14 -38 42.5 -62t70.5 -43.5t79.5 -31t80.5 -22.5q7 -1 10 -2q177 -46 252 -83q168 -85 175 -252q0 -8 1 -16q0 -36 -8 -77q-18 -107 -76.5 -191.5t-140.5 -136t-177 -78t-194 -26.5q-106 0 -195.5 26.5t-155.5 76.5q-64 50 -96 130q-23 58 -23 126q0 26 3 53z" />
    <glyph glyph-name="T" unicode="T" horiz-adv-x="1013" 
d="M279 1354q16 80 83 80h807q39 0 51 -23q8 -15 8 -34q0 -11 -3 -23q-12 -76 -82 -76h-318l-213 -1219q-15 -77 -100 -77q-76 0 -76 58q0 9 2 19l213 1219h-315q-59 0 -59 55q0 10 2 21z" />
    <glyph glyph-name="U" unicode="U" horiz-adv-x="1230" 
d="M207 442l162 922q13 78 100 78q37 0 59 -18q17 -14 17 -41q0 -9 -2 -19l-168 -948q-3 -19 -4 -36.5t0 -49t8 -57.5t25.5 -55.5t47 -49.5t76 -33.5t109.5 -13.5q85 0 151.5 25.5t102.5 59.5t62 80t34 74t12 56l168 948q13 78 101 78q36 0 58 -18q16 -14 17 -41
q0 -9 -2 -19l-161 -922q-21 -122 -76 -214.5t-133 -147t-168.5 -81t-192.5 -26.5t-183 26.5t-139 80.5q-58 56 -80 148q-11 47 -11 102q0 52 10 112z" />
    <glyph glyph-name="V" unicode="V" horiz-adv-x="1157" 
d="M279 1364q-2 10 -2 18q1 28 19 42q24 18 64 18q49 0 68 -16t27 -62l131 -877q27 -192 30 -245q24 59 119 245l441 877q24 47 46.5 62.5t71.5 15.5q43 0 66 -18q12 -10 12 -26q0 -14 -10 -34l-676 -1307q-40 -75 -108 -75q-37 0 -57.5 13.5t-28.5 61.5z" />
    <glyph glyph-name="W" unicode="W" horiz-adv-x="1622" 
d="M279 1364q-1 6 -1 12q0 33 20 48q22 18 62 18q50 0 69 -16t22 -62l51 -877q1 -16 5 -83q4 -60 4 -78l-1 -86q39 117 94 247l361 877q18 43 40.5 60.5t63.5 17.5t56 -18t18 -60l53 -877q8 -176 8 -235v-12q23 76 92 247l363 877q19 47 39.5 62.5t68.5 15.5q39 0 59 -20
q10 -10 10 -26q0 -15 -9 -36l-553 -1303q-19 -44 -44 -59.5t-65 -15.5q-41 0 -60 17.5t-22 57.5l-65 887q-2 21 -2 56q0 22 1 52q2 74 7 113q-7 -36 -32 -108.5t-42 -110.5l-377 -889q-20 -45 -43.5 -60t-68.5 -15q-82 0 -88 75z" />
    <glyph glyph-name="X" unicode="X" horiz-adv-x="1064" 
d="M31 18q0 14 14 35l535 705l-246 606q-8 20 -8 35q0 41 63 41q64 0 92 -15.5t45 -60.5l168 -463l336 459q33 45 72 62.5t104 17.5q52 0 52 -27q0 -18 -23 -49l-471 -616l278 -691q12 -27 -1.5 -45t-36.5 -24t-50 -6q-18 0 -25.5 0.5t-21 4t-21 11t-16.5 22.5t-18 37
l-207 539l-395 -539q-20 -28 -36 -44t-33.5 -22.5t-28 -7.5t-33.5 -1q-20 0 -37 3q-18 3 -34 11q-18 8 -17 22z" />
    <glyph glyph-name="Y" unicode="Y" horiz-adv-x="1017" 
d="M262 1358q-6 19 -6 33q0 51 68 51q42 0 61.5 -13t32.5 -53l170 -528q18 -54 26 -100q13 28 62 104l352 524q44 66 127 66q56 0 56 -32q0 -20 -21 -52l-504 -748l-98 -553q-13 -75 -101 -75q-75 0 -75 57q0 8 2 18l98 553z" />
    <glyph glyph-name="Z" unicode="Z" horiz-adv-x="1024" 
d="M55 78q5 31 29 61l752 973q73 97 147 168h-645q-60 0 -60 57q0 9 1 19q12 78 83 78h777q58 0 58 -52q0 -12 -3 -26q-5 -32 -29 -62l-747 -966q-61 -80 -152 -174h652q60 0 60 -57q0 -9 -1 -19q-5 -33 -25.5 -55.5t-58.5 -22.5h-782q-39 0 -51 22q-8 14 -8 34q0 10 3 22z
" />
    <glyph glyph-name="bracketleft" unicode="[" horiz-adv-x="507" 
d="M86 -231l270 1538q12 68 48 97.5t100 29.5h205q41 0 32 -54q-9 -57 -53 -57h-158q-8 0 -14.5 -2t-10 -4.5t-6 -7.5t-3 -7.5l-1.5 -7.5l-1 -6l-265 -1501v-2q-8 -33 25 -33h158q40 0 32 -55t-51 -55h-207q-62 0 -87 29t-13 98z" />
    <glyph glyph-name="backslash" unicode="\" horiz-adv-x="954" 
d="M262 1378q-18 60 45 60q72 0 90 -60l500 -1677q17 -61 -45 -61q-73 0 -90 61z" />
    <glyph glyph-name="bracketright" unicode="]" horiz-adv-x="509" 
d="M-47 -303q8 55 51 55h158q16 0 25.5 8t10.5 12.5t3 14.5l264 1501q5 8 1 21.5t-26 13.5h-157q-45 0 -33 57q9 54 51 54h205q63 0 88.5 -29t13.5 -98l-272 -1538q-12 -68 -48 -97.5t-98 -29.5h-204q-44 0 -33 55z" />
    <glyph glyph-name="asciicircum" unicode="^" horiz-adv-x="989" 
d="M240 864l344 477q44 60 74.5 81.5t89.5 21.5q42 0 66.5 -12t35.5 -30.5t27 -60.5l176 -477q5 -19 7 -36.5t-12.5 -30t-46.5 -13.5q-41 -1 -54 8.5t-27 41.5l-187 436q-11 25 -31 0l-340 -436q-24 -32 -41 -41.5t-59 -8.5q-78 2 -22 80z" />
    <glyph glyph-name="underscore" unicode="_" horiz-adv-x="1095" 
d="M-29 -215q12 72 78 72h942q63 0 51 -72t-75 -72h-944q-64 0 -52 72z" />
    <glyph glyph-name="grave" unicode="`" horiz-adv-x="509" 
d="M321 1469.5q7 26.5 35 52.5q29 25 60.5 31t52.5 -17l225 -293q28 -37 -20 -78q-21 -17 -42 -16.5t-34 14.5l-264 258q-20 22 -13 48.5z" />
    <glyph glyph-name="a" unicode="a" horiz-adv-x="1011" 
d="M94 286q0 3 -1 6q0 66 11 140q46 281 247 455t485 174h92q46 0 75 -12t42 -27.5t16 -45.5q2 -16 2 -30q1 -12 -1 -20q-2 -20 -9 -56l-105 -583q-16 -101 -16 -238q0 -39 -14 -56t-50 -18q-34 -2 -56.5 14.5t-25.5 47.5q-4 26 -5 50t-0.5 36.5t2 37t1.5 34.5
q-44 -93 -153 -158.5t-215 -65.5q-81 0 -142.5 23.5t-99 65t-59 99.5t-21.5 127zM260 350q0 -9 -1 -17q-1 -37 7 -73q8 -44 29 -76t60 -51.5t94 -19.5q77 0 147.5 47.5t119 121t81 153t45.5 153.5l51 291q2 11 2 20q0 14 -5 21q-8 12 -40 12q-139 0 -258.5 -55t-205.5 -166
t-114 -262q-10 -53 -12 -99z" />
    <glyph glyph-name="b" unicode="b" horiz-adv-x="1064" 
d="M135 49l234 1323q13 70 92 70q69 0 69 -52q0 -8 -2 -18l-79 -457q154 172 348 172q90 0 154.5 -29.5t100.5 -79.5q36 -52 52 -124q13 -61 12 -126v-25q-3 -79 -20 -173q-15 -86 -41 -163t-69 -150.5t-97 -126.5t-130.5 -85t-166.5 -32q-100 0 -180 63t-103 144l-22 -131
q-13 -69 -88 -69q-32 0 -51 16q-14 13 -14 37q0 7 1 16zM366 386q0 -5 -1 -10q-1 -49 13 -93q14 -49 39.5 -86.5t71 -59.5t105.5 -22q256 0 326 415q17 95 17 168q0 248 -196 248q-73 0 -135.5 -31t-105 -83t-70 -115t-39.5 -133l-16 -86q-7 -58 -9 -112z" />
    <glyph glyph-name="c" unicode="c" horiz-adv-x="978" 
d="M172 530q97 551 551 551q75 0 133 -21t92 -53t55 -74.5t29 -80.5q7 -33 6 -65v-9q-2 -42 -18 -62.5t-55 -23.5q-7 -1 -13 -1q-66 0 -69 59q-11 202 -183 202q-281 0 -360 -422q-11 -62 -14 -117q-1 -14 -1 -28q0 -42 7 -85q9 -58 32 -99.5t70.5 -68t116.5 -26.5
q172 0 254 205q12 31 39 45q22 12 51 12q6 0 12 -1q37 -3 47 -23.5t-4 -60.5q-12 -37 -32.5 -74.5t-57 -80t-81.5 -74.5t-110.5 -53t-140.5 -21q-373 0 -373 373q0 80 17 177z" />
    <glyph glyph-name="d" unicode="d" horiz-adv-x="1085" 
d="M172 530q99 557 496 557q105 -3 177.5 -52.5t108.5 -123.5l80 461q13 70 94 70q34 0 54 -16q15 -12 16 -36q0 -8 -2 -18l-233 -1323q-13 -69 -89 -69q-63 0 -63 50q0 9 2 19l21 123q-55 -85 -148 -142t-192 -57q-90 0 -157 29.5t-105.5 80t-57.5 122.5q-19 70 -19 148
q0 81 17 177zM330 341q0 -50 11.5 -88t32.5 -70.5t60 -50t92 -17.5q74 0 137.5 34.5t107 93t72 127t42.5 144.5l14 86q9 43 9 83q0 23 -3 47q-8 62 -31.5 110t-75 76.5t-124.5 29.5q-64 0 -116.5 -26.5t-86 -66t-60 -98t-40.5 -110.5t-25 -115q-9 -52 -13 -96q-4 -39 -4 -82
q1 -5 1 -11z" />
    <glyph glyph-name="e" unicode="e" 
d="M155 384q-1 12 -1 24q0 57 12 116q19 113 63.5 212t113.5 179.5t170 127.5t222 47q195 0 289 -120q67 -86 67 -209q0 -49 -10 -104q-5 -32 -14 -54t-28.5 -43.5t-57 -32.5t-92.5 -11h-545q-12 -67 -12 -126q0 -54 12 -106q12 -54 39.5 -93t75.5 -62t114 -23
q89 0 165 48.5t118 136.5q14 26 41.5 40.5t56.5 10.5q34 -5 46.5 -25t-1.5 -57q-38 -91 -111.5 -157.5t-162.5 -99t-184 -32.5q-79 0 -143.5 21t-108 58.5t-75 89.5t-44 114t-15.5 130zM371 639h510q22 0 34.5 10.5t16.5 38.5q4 30 4 58q0 88 -42 144q-55 73 -175 73
q-85 0 -161 -49t-123.5 -122t-63.5 -153z" />
    <glyph glyph-name="f" unicode="f" horiz-adv-x="649" 
d="M-86 -334q-6 11 -6 23q0 14 8 28q23 60 78 60h4h11q158 0 186 176l172 979h-127q-47 0 -47 44q0 10 2 21q8 64 67 64h127l14 76q55 315 349 315q21 0 43 -2q47 -4 47 -46q0 -15 -6 -34q-17 -59 -76 -59q-46 0 -81.5 -13t-55 -30t-33.5 -44t-18.5 -45t-8.5 -42l-12 -76
h203q48 0 48 -49q0 -7 -1 -15q-12 -65 -70 -65h-205l-172 -981q-55 -314 -356 -314q-17 0 -35 1q-38 3 -49 28z" />
    <glyph glyph-name="g" unicode="g" horiz-adv-x="1054" 
d="M119 -254q15 53 63 53q16 0 35 -6q100 -34 197 -34q36 0 71 5q136 18 215.5 108.5t104.5 231.5l8 50q-45 -66 -136 -112t-185 -46q-90 0 -157.5 27t-106 75.5t-59.5 115.5q-19 61 -19 133v13q2 80 16 170q20 117 60 214t102 176t153.5 123t204.5 44q187 0 270 -174l19 99
q13 71 86 71q65 0 65 -52q0 -9 -2 -19l-159 -910q-35 -192 -158 -321.5t-311 -155.5q-61 -8 -117 -8q-118 0 -213 35q-52 18 -52 64q0 14 5 30zM324 347q0 -47 12 -83t33.5 -65.5t61 -45.5t93.5 -16q76 0 138.5 30t103.5 81t67.5 111t38.5 128l17 99q7 51 9 102v13
q0 44 -12 85q-14 46 -38 81.5t-69 57t-105 21.5q-260 0 -334 -416q-9 -51 -13 -94q-4 -37 -4 -79q0 -5 1 -10z" />
    <glyph glyph-name="h" unicode="h" horiz-adv-x="1019" 
d="M137 59l232 1313q13 70 92 70q69 0 69 -52q0 -8 -2 -18l-86 -487q81 102 175 154.5t190 52.5q59 0 104.5 -13t75 -35t48 -56t27 -71t8.5 -85.5t-4.5 -93.5t-14.5 -101l-103 -578q-13 -71 -92 -71q-35 0 -55 16.5t-13 54.5l111 623q11 48 11 92v10q-2 48 -14.5 85t-47 59
t-90.5 22q-92 0 -174 -60t-131.5 -146t-65.5 -177l-90 -508v-2q-12 -77 -94 -77q-68 0 -68 57q0 10 2 22z" />
    <glyph glyph-name="i" unicode="i" horiz-adv-x="450" 
d="M156 51l170 961q13 71 92 71q34 0 54 -16.5t13 -54.5l-170 -961q-13 -71 -92 -71q-69 0 -69 53q0 8 2 18zM369 1343q8 48 33 73.5t79 25.5t70 -25q11 -17 11 -44q0 -14 -3 -30q-8 -52 -33.5 -80t-81.5 -28t-70 28q-9 17 -9 42q0 17 4 38z" />
    <glyph glyph-name="j" unicode="j" horiz-adv-x="448" 
d="M-164 -262q23 47 65 47q8 0 17 -2q38 -10 57 -10q44 2 76 23t50.5 59t27.5 69t18 78l179 1010q13 71 92 71q34 0 54 -16.5t13 -54.5l-178 -1010q-10 -53 -21 -93.5t-29.5 -84.5t-45.5 -75.5t-63.5 -58t-87.5 -39.5t-115 -13q-47 0 -82 14q-37 16 -37 48q0 17 10 38z
M367 1343q8 48 33 73.5t79 25.5t70 -25q11 -17 11 -44q0 -14 -3 -30q-9 -52 -33.5 -80t-81.5 -28q-56 0 -70 28q-9 17 -9 42q0 17 4 38z" />
    <glyph glyph-name="k" unicode="k" horiz-adv-x="913" 
d="M135 51l234 1321q13 70 92 70q34 0 54 -16t13 -54l-129 -731q73 3 132.5 30t96 61.5t81.5 92.5q20 26 72.5 101t88.5 116q12 16 40.5 28.5t64.5 12.5q40 0 49 -23q2 -5 2 -12q0 -21 -22 -51q-30 -38 -86 -113t-80 -106q-99 -133 -224 -180q51 -11 89 -38t61 -67.5
t36 -81.5t21 -94q9 -58 19 -102t23.5 -91t21.5 -79q6 -28 -8 -46.5t-43 -18.5q-72 0 -84 18q-18 26 -32.5 74.5t-20 78t-15.5 95.5q-8 48 -18 82.5t-25.5 67.5t-37 54.5t-53 38t-74 24t-97.5 7.5l-82 -469q-13 -71 -92 -71q-35 0 -55 16q-15 12 -15 37q0 8 2 18z" />
    <glyph glyph-name="l" unicode="l" horiz-adv-x="417" 
d="M135 49l234 1323q13 70 92 70q69 0 69 -52q0 -8 -2 -18l-233 -1323q-13 -69 -92 -69q-35 0 -55 16q-15 12 -15 35q0 8 2 18z" />
    <glyph glyph-name="m" unicode="m" horiz-adv-x="1617" 
d="M135 51l168 948q13 72 88 72q62 0 62 -52q0 -9 -2 -20l-25 -141q86 122 174 173.5t191 51.5q131 0 202 -104q40 -54 43 -119q69 96 163 159.5t204 63.5q64 0 111 -18t73 -49.5t41 -67.5t18 -80q1 -22 0 -42v-36q-2 -34 -10 -71l-116 -668q-13 -71 -93 -71q-69 0 -69 53
q0 9 2 18l115 656q6 36 8.5 64.5t-2.5 62t-19 56t-44 37.5t-75 15q-100 0 -206 -97t-129 -222l-101 -572q-13 -71 -92 -71q-69 0 -69 53q0 9 2 18l110 629q10 56 10 100q0 162 -137 162q-118 0 -217 -103t-123 -239l-96 -549q-13 -71 -92 -71q-35 0 -55 16q-15 12 -15 37
q0 8 2 18z" />
    <glyph glyph-name="n" unicode="n" horiz-adv-x="1042" 
d="M135 51l168 948q13 72 88 72q62 0 62 -52q0 -9 -2 -20l-25 -141q158 225 387 225q64 0 112.5 -18t76 -49.5t44.5 -67.5q18 -37 22 -80q3 -32 3 -61q-1 -9 -1 -18q-2 -36 -7 -70l-117 -668q-13 -71 -92 -71q-35 0 -55 16.5t-13 54.5l115 656q6 34 7 64t-6 62.5t-23.5 55.5
t-48 38t-76.5 15q-92 0 -173.5 -59.5t-130.5 -145t-65 -176.5l-90 -510q-13 -71 -92 -71q-35 0 -55 16q-15 12 -15 37q0 8 2 18z" />
    <glyph glyph-name="o" unicode="o" horiz-adv-x="1026" 
d="M152 530q97 551 550 551q374 0 374 -374q0 -80 -17 -177q-97 -550 -551 -550q-373 0 -373 373q0 80 17 177zM306 410q-1 -17 0 -35q0 -40 5 -82q8 -60 31 -102.5t70 -69.5t116 -27q58 0 107 18.5t85 51.5t65 74.5t49 92.5t33 98.5t22 100.5q9 52 13 100q3 32 3 66
q0 18 -1 34q-2 52 -16 92.5t-38.5 74t-67 52t-100.5 18.5q-69 0 -125.5 -27.5t-94.5 -70t-67.5 -102t-45.5 -116.5t-27 -121q-12 -64 -16 -120z" />
    <glyph glyph-name="p" unicode="p" horiz-adv-x="1064" 
d="M74 -311l233 1321q12 71 88 71q64 0 64 -53q0 -8 -2 -18l-21 -113q161 190 361 190q319 0 319 -362q0 -87 -18 -195q-21 -116 -60.5 -213.5t-100 -176t-149 -123t-196.5 -44.5q-97 0 -172.5 56.5t-100.5 142.5l-86 -483q-13 -72 -92 -72q-69 0 -69 53q0 9 2 19zM368 356
q8 -65 31 -119t74.5 -88t122.5 -34q64 0 115.5 26.5t85 66t60 98t40.5 110t25 114.5q17 94 17 167q0 249 -198 249q-70 0 -132 -32.5t-105 -85t-72 -115t-41 -127.5l-18 -101q-9 -39 -9 -79q0 -25 4 -50z" />
    <glyph glyph-name="q" unicode="q" 
d="M134 358q3 82 16 172q17 94 42.5 173t66.5 151.5t94.5 123t128.5 80t165 29.5q108 0 183.5 -55.5t109.5 -138.5l21 119q10 71 86 71q65 0 65 -52q0 -9 -2 -19l-233 -1323q-13 -70 -93 -70q-69 0 -69 52q0 8 2 18l82 469q-60 -77 -147 -130t-179 -53q-90 0 -157 29
t-105 80.5t-59 121.5q-18 62 -18 134v18zM308 368v-8q0 -38 5 -70q5 -35 18.5 -68t35.5 -55.5t57.5 -36t81.5 -13.5q70 0 133.5 37t107 96t73 125.5t40.5 132.5l19 102q8 37 8 73q0 25 -3 49q-10 61 -34.5 108.5t-76.5 76.5t-122 29q-64 0 -115.5 -26t-85 -66t-59.5 -98.5
t-40 -110t-25 -115.5q-8 -44 -12.5 -81.5t-5.5 -80.5z" />
    <glyph glyph-name="r" unicode="r" horiz-adv-x="690" 
d="M135 51l170 961q13 71 88 71q66 0 66 -52q0 -9 -2 -19l-25 -142q58 94 151.5 158t194.5 64q37 0 54 -22q11 -14 11 -36q0 -12 -3 -26q-7 -39 -28 -55t-62 -19q-65 -4 -121 -29.5t-96 -64t-71.5 -90t-51 -105t-29.5 -110.5l-84 -484q-13 -71 -94 -71q-35 0 -55 16
q-15 12 -15 37q0 8 2 18z" />
    <glyph glyph-name="s" unicode="s" horiz-adv-x="940" 
d="M115 270q3 75 75 86q7 1 14 1q68 0 68 -66q0 -100 57.5 -145.5t188.5 -45.5q84 0 162.5 52.5t91.5 132.5q3 15 3 29q-1 26 -9 46q-12 32 -29.5 50t-58.5 33.5t-61 20.5t-66 14q-1 0 -2 0.5t-2 0.5q-148 30 -202 53q-139 58 -139 189q0 27 5 57q13 77 57 138.5t106 99
t131.5 57t139.5 19.5q161 0 246.5 -57t97.5 -181v-10q0 -36 -19 -53q-22 -19 -71 -19q-74 0 -74 49q0 70 -51 106t-143 36q-52 0 -102 -15.5t-93.5 -54.5t-54.5 -96q-3 -15 -3 -28q0 -19 6 -36q10 -28 29 -44t49 -28t57 -18t59 -12q16 -3 24 -4q69 -13 112 -24t98.5 -36
t83.5 -57q29 -32 44 -86q8 -29 9 -63q0 -29 -7 -62q-15 -86 -61.5 -151t-113 -102t-139 -55t-149.5 -18q-181 1 -275 79q-89 75 -89 204v14z" />
    <glyph glyph-name="t" unicode="t" horiz-adv-x="712" 
d="M197 997q8 64 67 64h137l37 207q13 69 92 69q70 0 70 -51q0 -8 -2 -18l-35 -207h193q48 0 48 -49q0 -7 -1 -15q-12 -65 -70 -65h-194l-107 -613q-6 -35 -6 -64q0 -134 123 -138q42 0 78 8q35 7 51 -2t10 -43q-5 -35 -18 -54.5t-43 -29.5q-46 -16 -97 -16
q-76 0 -129.5 17.5t-83.5 46.5q-29 29 -43 74q-13 43 -14 89q0 48 12 112l107 613h-137q-47 0 -47 44q0 10 2 21z" />
    <glyph glyph-name="u" unicode="u" 
d="M168 377l113 635q13 71 92 71q34 0 54 -16.5t13 -54.5l-110 -623q-7 -40 -10 -70.5t-2 -63.5t10 -56t25.5 -42.5t46 -29.5t69.5 -10q69 0 134.5 37t113 95t80.5 127t45 136l88 500q13 71 94 71q34 -1 54 -17q14 -12 14 -35q0 -9 -2 -19l-166 -951q-13 -69 -93 -69
q-34 0 -49 15t-8 54l25 144q-159 -225 -379 -225q-170 0 -228 104q-36 65 -37 164q0 58 13 129z" />
    <glyph glyph-name="v" unicode="v" horiz-adv-x="948" 
d="M219 1004q-2 12 -2 21q-1 25 13 39q18 18 61 19q43 0 60.5 -17t23.5 -58l117 -678q14 -91 14 -146q15 42 67 148l347 680q20 40 44 55.5t68 15.5t62 -21q8 -10 8 -25q0 -16 -10 -36l-504 -954q-38 -67 -111 -67q-76 0 -88 67z" />
    <glyph glyph-name="w" unicode="w" horiz-adv-x="1372" 
d="M217 1004q-1 9 -1 17q0 29 16 43q22 18 65 19q41 0 55 -16.5t19 -54.5l86 -680q4 -27 4 -115q17 56 43 119l295 682q6 16 12 25.5t20.5 18.5t34.5 9q35 0 49.5 -16t18.5 -43l78 -676q4 -62 5 -98q0 -12 -1 -21q22 71 43 123l299 672q18 41 38.5 56t63.5 15q42 -1 58 -21
q7 -10 7 -24q0 -16 -9 -37l-441 -960q-31 -61 -106 -61q-32 0 -44.5 13.5t-17.5 47.5l-73 577q-9 83 -9 148q-31 -95 -55 -148l-266 -577q-27 -61 -96 -61q-34 0 -47.5 13.5t-18.5 47.5z" />
    <glyph glyph-name="x" unicode="x" horiz-adv-x="907" 
d="M37 -1q-5 6 -5 15q0 18 21 47l420 512l-192 431q-18 37 1.5 57t63.5 20q22 0 32 -1t23 -6t21.5 -16.5t15.5 -31.5l131 -342l260 342q28 36 53 45.5t68 9.5q27 0 44 -6q18 -5 24 -21q1 -3 1 -7q0 -14 -18 -35l-362 -453l242 -510q17 -36 -8.5 -52.5t-69.5 -16.5
q-29 0 -40.5 2t-23 13.5t-22.5 37.5l-176 413l-324 -413q-30 -36 -51 -44.5t-62 -8.5q-52 0 -67 19z" />
    <glyph glyph-name="y" unicode="y" horiz-adv-x="907" 
d="M37 -260q6 21 17.5 33t29 13.5t26.5 1t27 -4.5q19 -4 35 -4q37 0 60 20q34 29 69 95l90 169l-180 947q-2 10 -2 18q0 53 72 53q81 0 94 -71l106 -594q19 -102 21 -174q48 120 82 186l295 582q36 71 106 71q44 0 65 -17q11 -9 11 -23q0 -13 -10 -31l-584 -1112
q-15 -28 -26 -48t-27.5 -47t-31.5 -45.5t-35.5 -40.5t-40.5 -35.5t-45.5 -26.5t-52.5 -18t-60 -5t-68 8q-25 6 -40 32q-8 14 -8 33q0 16 5 35z" />
    <glyph glyph-name="z" unicode="z" horiz-adv-x="825" 
d="M31 63q3 34 24 58l586 696q64 75 113 115h-478q-47 0 -47 44q0 9 2 21q8 64 68 64h614q13 0 22 -4t13.5 -9t6.5 -15t2.5 -16.5t0.5 -19.5q0 -23 -22 -49l-594 -706q-40 -47 -111 -115h531q47 0 47 -44q0 -9 -2 -20q-11 -63 -68 -63h-663q-45 0 -45 63z" />
    <glyph glyph-name="braceleft" unicode="{" horiz-adv-x="569" 
d="M165.5 509.5q-4.5 26.5 10 53.5t39.5 35q102 32 129 182l66 373q27 151 117 217.5t245 63.5q25 -1 30.5 -29t-10 -55.5t-40.5 -28.5q-94 -1 -140.5 -44.5t-64.5 -139.5l-64 -365q-15 -85 -53.5 -143.5t-116.5 -91.5q66 -32 83.5 -91t2.5 -145l-63 -364q-18 -96 13.5 -140
t125.5 -45q25 -1 31 -28.5t-9 -55t-40 -28.5q-157 -3 -224 64t-40 218l65 373q6 40 6.5 74.5t-17 63.5t-54.5 42q-23 8 -27.5 34.5z" />
    <glyph glyph-name="braceright" unicode="}" horiz-adv-x="569" 
d="M-38.5 -331.5q-5.5 27.5 10 55t40.5 28.5q93 1 140 45t65 140l64 364q15 86 53.5 145t116.5 91q-66 33 -83.5 91t-2.5 144l63 365q18 95 -13.5 139t-125.5 45q-25 1 -31 29t9 55.5t40 28.5q157 3 224 -63.5t40 -217.5l-65 -373q-6 -41 -6.5 -76t17 -64t54.5 -42
q23 -8 27.5 -34.5t-10 -53.5t-39.5 -35q-102 -32 -129 -180l-66 -373q-27 -151 -117 -218t-245 -64q-25 1 -30.5 28.5z" />
    <glyph glyph-name="asciitilde" unicode="~" horiz-adv-x="1185" 
d="M186.5 646q1.5 21 18.5 38q86 90 180 126.5t180.5 27.5t186.5 -54q51 -23 96 -35t96 -14t103.5 16t101.5 56q58 44 86 8q12 -11 10.5 -32.5t-18.5 -39.5q-86 -89 -179.5 -125.5t-181 -27t-186.5 54.5q-69 31 -127.5 43t-131 -2t-138.5 -63q-57 -46 -86 -11
q-12 13 -10.5 34z" />
    <glyph glyph-name="uni00A0" unicode="&#xa0;" horiz-adv-x="716" 
 />
    <glyph glyph-name="copyright" unicode="&#xa9;" horiz-adv-x="1585" 
d="M197 721q25 144 103 279t190 237t258 163.5t299 61.5q146 0 268.5 -58.5t201 -157.5t111.5 -236.5t6 -288.5q-27 -150 -108 -287t-195 -236t-257.5 -157.5t-289.5 -58.5q-141 0 -263 59t-202 158t-114 236t-8 286zM297 721q-28 -164 26.5 -309.5t182 -235.5t297.5 -90
q126 0 249.5 50.5t221.5 135.5t168 202.5t92 246.5q22 130 -6 248t-96 203t-173.5 135.5t-230.5 50.5q-127 0 -250.5 -50.5t-221.5 -136t-167.5 -203.5t-91.5 -247zM575 549q-8 78 11 172q34 199 139.5 311.5t290.5 112.5q59 0 105.5 -16.5t73 -41t43.5 -57t23 -61.5t5 -58
q0 -31 -13 -46.5t-45 -18.5q-62 -3 -65 45q-5 73 -37.5 115.5t-108.5 42.5q-66 0 -119.5 -30t-86.5 -80.5t-53.5 -104t-30.5 -113.5q-9 -47 -10.5 -90t7 -87t28.5 -76t58.5 -52.5t92.5 -20.5q132 0 200 158q21 49 80 43q31 -3 39 -19t-4 -47q-12 -37 -36 -73.5t-62.5 -74.5
t-99.5 -61.5t-134 -23.5q-94 0 -158 31t-94.5 87t-38.5 134z" />
    <glyph glyph-name="guillemotleft" unicode="&#xab;" horiz-adv-x="669" 
d="M180 526q-14 35 10 68l203 268q9 13 27.5 19t36.5 2q37 -6 18 -45l-141 -260q-10 -16 -6 -35l49 -260q3 -21 -5.5 -31.5t-29.5 -15.5q-20 -3 -35 3.5t-20 18.5zM446 526q-13 32 13 68l203 268q23 30 63 21q38 -6 16 -45l-139 -260q-11 -19 -8 -35l49 -260q8 -38 -33 -47
q-20 -3 -35 3.5t-20 18.5z" />
    <glyph glyph-name="uni00AD" unicode="&#xad;" horiz-adv-x="653" 
d="M166 547q12 71 78 71h387q63 0 51 -71q-12 -72 -76 -72h-389q-63 0 -51 72z" />
    <glyph glyph-name="registered" unicode="&#xae;" horiz-adv-x="1587" 
d="M197 721q27 151 108 288.5t195 236.5t257.5 157.5t289.5 58.5q117 0 220.5 -37.5t179 -105t127.5 -160.5t66.5 -203.5t-4.5 -234.5q-36 -201 -162.5 -371t-309.5 -269t-378 -99q-146 0 -269 58.5t-202 157.5t-112 236t-6 287zM299 721q-31 -172 26 -318.5t184.5 -231.5
t295.5 -85q167 0 324.5 85t266 231.5t138.5 318.5q22 130 -6 248t-95.5 203t-173 135.5t-231.5 50.5q-125 0 -248.5 -50.5t-221 -135.5t-167.5 -203t-92 -248zM592 354l119 672q8 47 42.5 79t90.5 32h184q111 0 174 -66t43 -176q-13 -79 -67.5 -137.5t-126.5 -77.5
q61 -40 79 -152q20 -106 46 -161q22 -53 -54 -56q-55 -4 -73 47q-9 25 -15 48.5t-14 57.5t-14 58q-15 66 -44.5 97.5t-91.5 31.5h-108l-53 -297q-7 -43 -70 -43q-23 0 -37 9.5t-10 33.5zM780 758h156q72 0 122 36t62 103q10 66 -20.5 99.5t-98.5 33.5h-141q-33 0 -39 -33z
" />
    <glyph glyph-name="guillemotright" unicode="&#xbb;" horiz-adv-x="659" 
d="M115.5 251q-4.5 10 5.5 32l141 260q9 22 6 35l-49 260q-8 39 33 45q42 9 57 -21l107 -268q13 -32 -13 -68l-202 -268q-21 -28 -62 -22q-19 5 -23.5 15zM389 283l139 260q10 17 7 35l-50 260q-5 39 35 45q20 4 35 -2t20 -19l109 -268q11 -36 -12 -68l-203 -268
q-21 -28 -63 -22q-38 9 -17 47z" />
    <glyph glyph-name="afii10023" unicode="&#x401;" horiz-adv-x="1048" 
d="M155.5 115.5q-2.5 34.5 6.5 72.5l186 1057q14 87 59 138t142 51h616q68 0 56 -80q-12 -76 -82 -76h-555q-31 0 -45.5 -12.5t-20.5 -44.5l-72 -400h484q65 0 53 -76q-12 -75 -80 -75h-483l-80 -459q-5 -31 5.5 -44t39.5 -13h555q71 0 55 -76q-5 -33 -25.5 -55.5
t-58.5 -22.5h-614q-51 0 -83 15t-44 40.5t-14.5 60zM584 1663q8 51 34.5 77.5t83.5 26.5q59 0 75.5 -25t8.5 -79q-10 -54 -36 -81.5t-84 -27.5q-60 0 -76 28t-6 81zM909 1663q10 51 37 77.5t84 26.5q59 0 75.5 -25t8.5 -79q-10 -53 -36.5 -81t-84.5 -28q-60 0 -76.5 27.5
t-7.5 81.5z" />
    <glyph glyph-name="afii10053" unicode="&#x404;" horiz-adv-x="1216" 
d="M176 473q1 113 23 244q29 168 85.5 300.5t143.5 232t211 153t279 53.5q120 0 206.5 -35.5t134 -99.5t66.5 -144.5t12 -177.5q-2 -30 -22.5 -52t-65.5 -23q-38 -2 -58.5 13.5t-19.5 47.5q3 95 -22 168t-90 120.5t-164 47.5q-89 0 -163.5 -29t-125.5 -74.5t-91.5 -113
t-65 -133.5t-43.5 -146h505q68 0 56 -80q-12 -77 -84 -77h-506q-10 -60 -14 -113t-2 -111t13 -105t34.5 -90.5t59 -73t90 -47t124.5 -17.5q145 0 245.5 94.5t147.5 240.5q21 67 101 64q45 -3 57.5 -24.5t3.5 -51.5q-22 -77 -55.5 -143.5t-84.5 -125t-114 -100t-146.5 -65
t-179.5 -23.5q-125 0 -218 35t-149 100t-85.5 156.5t-28.5 204.5z" />
    <glyph glyph-name="afii10056" unicode="&#x407;" horiz-adv-x="497" 
d="M176 57l230 1307q12 76 100 76q89 0 74 -76l-230 -1307q-13 -75 -100 -75q-37 0 -59 17t-15 58zM281 1663q10 52 36 78t84 26t75 -25.5t7 -78.5q-8 -53 -35 -81t-86 -28q-58 0 -74 27.5t-7 81.5zM608 1663q8 51 35.5 77.5t85.5 26.5t75 -25.5t7 -78.5q-8 -53 -35 -81
t-86 -28q-60 0 -76 28t-6 81z" />
    <glyph glyph-name="afii10062" unicode="&#x40e;" horiz-adv-x="1177" 
d="M-87.5 -334q-10.5 25 3.5 51q24 62 80 60q45 -2 80 10.5t55 30t34.5 45.5t19.5 46.5t10 43.5l172 979h-127q-55 0 -47 65q12 64 69 64h127l14 76q59 337 392 313q35 -3 43.5 -26.5t-2.5 -53.5q-8 -27 -28 -43.5t-48 -15.5q-167 11 -197 -174l-14 -76h371l12 76
q62 337 393 313q35 -3 43 -26t-4 -54q-6 -27 -26 -43.5t-48 -15.5q-168 11 -198 -174l-13 -76h205q57 0 45 -64q-12 -65 -67 -65h-205l-174 -981q-58 -332 -391 -313q-38 3 -49.5 28t1.5 51q24 63 82 60q45 -2 80 10.5t55 30.5t34 45t19 46.5t9 43.5l174 979h-371l-172 -981
q-14 -75 -41 -131.5t-72.5 -100.5t-116 -65t-163.5 -16q-38 3 -48.5 28z" />
    <glyph glyph-name="afii10017" unicode="&#x410;" horiz-adv-x="1167" 
d="M43 57l666 1307q39 76 125 76q85 0 96 -76l205 -1307q7 -41 -15 -58t-59 -17q-50 0 -74.5 15.5t-30.5 57.5l-53 363h-502l-178 -363q-22 -42 -52 -57.5t-79 -15.5q-88 0 -49 75zM469 551h416l-64 436q-12 88 -20 264q-61 -154 -115 -264z" />
    <glyph glyph-name="afii10018" unicode="&#x411;" horiz-adv-x="1101" 
d="M156 115.5q-3 34.5 6 72.5l186 1057q16 87 61 138t142 51h586q67 0 55 -82q-15 -74 -84 -74h-530q-30 0 -45 -13t-21 -44l-68 -379h344q188 0 285.5 -112t65.5 -298q-35 -196 -179 -314t-337 -118h-326q-50 0 -82 15t-44 40.5t-15 60zM334 211q-6 -31 5 -44t42 -13h281
q115 0 196.5 79t104.5 199q22 120 -37 186t-183 66h-325z" />
    <glyph glyph-name="afii10019" unicode="&#x412;" horiz-adv-x="1185" 
d="M155.5 115.5q-2.5 34.5 6.5 72.5l186 1057q16 87 60.5 138t140.5 51h383q81 0 148.5 -22.5t115.5 -65t68.5 -110.5t5.5 -153q-22 -121 -98.5 -205t-196.5 -118q124 -34 180 -130.5t31 -234.5q-34 -192 -173.5 -293.5t-334.5 -101.5h-381q-51 0 -83 15t-44 40.5t-14.5 60z
M334 209q-12 -62 45 -62h317q118 0 206.5 67.5t109.5 188.5q25 141 -43 210t-205 69h-348zM440 819h303q305 0 351 248q19 110 -45 164.5t-179 54.5h-290q-56 0 -68 -61z" />
    <glyph glyph-name="afii10020" unicode="&#x413;" horiz-adv-x="888" 
d="M156 68l206 1177q16 87 61 138t142 51h502q67 0 55 -80q-11 -76 -84 -76h-438q-31 0 -46.5 -13.5t-21.5 -45.5l-202 -1151q-13 -76 -101 -76q-37 0 -58.5 17.5t-14.5 58.5z" />
    <glyph glyph-name="afii10021" unicode="&#x414;" horiz-adv-x="1239" 
d="M-29 -233l45 249q18 102 97 129q82 28 117 77t57 147l200 876q10 41 23.5 72t37 59t61.5 43t89 15h449q67 0 102 -27t37.5 -69t-4.5 -93l-192 -1091q78 0 110 -31.5t19 -106.5l-43 -249q-15 -76 -93 -76t-65 76l35 196q3 14 -9.5 25.5t-23.5 11.5h-811q-39 0 -45 -37
l-35 -196q-13 -76 -92 -76t-66 76zM360 154h555l189 1067q6 32 -4 44.5t-41 12.5h-334q-31 0 -47 -12.5t-23 -44.5l-190 -840q-28 -128 -105 -227z" />
    <glyph glyph-name="afii10022" unicode="&#x415;" horiz-adv-x="1050" 
d="M155.5 115.5q-2.5 34.5 6.5 72.5l186 1057q16 87 60.5 138t140.5 51h616q38 0 50.5 -23t5.5 -57q-12 -76 -82 -76h-555q-31 0 -45.5 -12.5t-20.5 -44.5l-72 -400h484q37 0 48.5 -22t4.5 -54q-12 -75 -80 -75h-483l-80 -459q-6 -31 4.5 -44t42.5 -13h553q69 0 57 -76
q-16 -78 -84 -78h-616q-51 0 -83 15t-44 40.5t-14.5 60z" />
    <glyph glyph-name="afii10024" unicode="&#x416;" horiz-adv-x="1544" 
d="M70 68q18 24 34 51t27 47.5t28 58t25.5 56.5t30 72t31.5 77q136 320 364 367q-35 17 -62.5 44t-47.5 65t-32.5 68t-27.5 77q-10 28 -39 128t-53 150q-25 51 -14.5 78t59.5 33q25 2 44 -2t30.5 -14.5t16.5 -18t12 -19.5q24 -42 43.5 -91t29.5 -82t29 -101
q67 -242 244 -260l90 512q12 76 98 76q82 0 70 -76l-90 -512q101 10 179.5 80t149.5 182q12 18 36.5 58t37.5 59.5t33.5 50.5t41 57t44.5 52q17 21 52 37t81 12q97 -12 14 -111q-32 -38 -62.5 -83t-66 -102.5t-59.5 -92.5q-66 -94 -128 -158t-140 -96q211 -47 235 -367
q1 -22 4 -76.5t4.5 -72t5 -56.5t7.5 -59t10.5 -47t15.5 -51q23 -65 -55 -84q-63 -13 -92 32q-20 33 -32.5 84.5t-16 81.5t-7 107.5t-4.5 89.5q-11 169 -82 252t-231 82l-115 -656q-15 -75 -98 -75t-70 75l115 656q-81 1 -145 -20.5t-113 -66.5t-85.5 -103.5t-72.5 -143.5
q-10 -23 -36.5 -91t-42 -104t-45.5 -85.5t-62 -82.5q-18 -20 -52 -29.5t-67 -2.5q-71 19 -26 84z" />
    <glyph glyph-name="afii10025" unicode="&#x417;" horiz-adv-x="1095" 
d="M117 375q2 28 23 51t63 23q38 0 51.5 -14t13.5 -40q-4 -138 73.5 -208t221.5 -70q130 0 229 73.5t123 208.5q10 41 7 74.5t-8 60.5t-20.5 47.5t-31.5 35.5t-41 25.5t-49 17t-54.5 10t-58.5 4.5t-61 0q-28 -1 -38.5 19t-4.5 55q5 34 24.5 55t47.5 20q324 -12 370 246
q11 60 -4 108t-49 77.5t-80 45t-100 15.5q-132 0 -219 -62t-119 -188q-5 -21 -32 -36.5t-64 -14.5q-26 1 -41.5 9.5t-19 21t-3 22t3.5 18.5q48 191 184 284t332 93q67 0 129.5 -14t117 -44.5t92 -74t53.5 -107.5t2 -141q-43 -245 -322 -323q291 -53 242 -348
q-19 -108 -76.5 -194t-138 -138.5t-173 -79.5t-190.5 -27q-193 0 -309 112.5t-96 291.5z" />
    <glyph glyph-name="afii10026" unicode="&#x418;" horiz-adv-x="1318" 
d="M156 57l231 1307q12 76 100 76q86 0 74 -76l-190 -1073q59 90 121 168l745 944q32 37 86 37q41 0 67 -17.5t19 -58.5l-231 -1307q-13 -75 -101 -75q-41 3 -60.5 20t-12.5 55l190 1076q-47 -80 -104 -152l-766 -965q-25 -34 -95 -34q-86 0 -73 75z" />
    <glyph glyph-name="afii10027" unicode="&#x419;" horiz-adv-x="1318" 
d="M156 57l231 1307q12 76 100 76q86 0 74 -76l-190 -1073q59 90 121 168l747 944q27 37 86 37q39 0 65 -17.5t19 -58.5l-229 -1307q-15 -75 -103 -75q-86 0 -73 75l190 1076q-37 -66 -104 -152l-766 -965q-25 -34 -95 -34q-86 0 -73 75zM678 1700q-8 26 2 47.5t35 30.5
q58 22 82 -19q33 -50 71 -70t99 -20t105 19.5t95 70.5q40 40 90 19q22 -9 24.5 -30.5t-15.5 -47.5q-37 -61 -125 -110.5t-197 -49.5t-179 49.5t-87 110.5z" />
    <glyph glyph-name="afii10028" unicode="&#x41a;" horiz-adv-x="1075" 
d="M156 57l231 1307q12 76 100 76q86 0 74 -76l-92 -518q57 1 107 16t84.5 35t72.5 57t60.5 65t58.5 77q18 24 90.5 130t120.5 158q60 66 139 54q27 -5 38 -18.5t4.5 -36.5t-32.5 -54q-45 -53 -213 -289q-54 -79 -134 -145.5t-165 -99.5q85 -19 146 -78.5t91 -131.5t44 -161
q31 -218 48 -283q11 -37 24 -73q23 -63 -62 -84q-65 -13 -90 32q-13 22 -23.5 48.5t-19 68.5t-12 61.5t-11 78t-8.5 67.5q-15 94 -38 158.5t-65 117t-111 76.5t-167 21l-116 -656q-13 -75 -101 -75q-86 0 -73 75z" />
    <glyph glyph-name="afii10029" unicode="&#x41b;" horiz-adv-x="1175" 
d="M12 38q0 15 2 24t6 24q21 70 89 64q84 -5 106 90l229 1005q10 41 23.5 72t37 59t61.5 43t89 15h469q51 0 83.5 -15.5t44.5 -41.5t14.5 -60.5t-6.5 -71.5l-209 -1188q-13 -75 -101 -75q-86 0 -73 75l204 1164q6 32 -4 44.5t-41 12.5h-354q-31 0 -47 -12.5t-23 -44.5
l-211 -924q-13 -57 -28 -100.5t-41 -87.5t-60 -71t-85.5 -41.5t-116.5 -8.5q-21 2 -34.5 9.5t-18.5 16.5t-5 24z" />
    <glyph glyph-name="afii10030" unicode="&#x41c;" horiz-adv-x="1411" 
d="M158 57l229 1305q7 39 33.5 58.5t64.5 19.5q44 0 64.5 -17.5t34.5 -60.5l233 -680l473 680q29 43 57 60.5t72 17.5q39 0 64 -20t18 -58l-231 -1305q-13 -75 -90 -75q-83 0 -70 75l195 1096q-73 -118 -78 -125l-330 -471q-52 -76 -111 -76q-30 0 -48 19t-31 57l-164 471
q-19 58 -33 125l-193 -1096q-15 -75 -96 -75q-37 0 -54 17t-9 58z" />
    <glyph glyph-name="afii10031" unicode="&#x41d;" horiz-adv-x="1224" 
d="M156 57l229 1307q12 76 100 76q86 0 74 -76l-92 -524h582l92 524q12 76 100 76q86 0 74 -76l-230 -1307q-13 -75 -100 -75q-37 0 -59 17t-15 58l111 629h-582l-110 -629q-13 -75 -103 -75q-84 0 -71 75z" />
    <glyph glyph-name="afii10032" unicode="&#x41e;" horiz-adv-x="1327" 
d="M178.5 417.5q-13.5 136.5 18.5 299.5q29 166 87 299.5t146 233t211 153t274 53.5q121 0 213 -35t149 -99.5t88.5 -156t31.5 -204.5t-21 -244q-30 -166 -89 -300t-147.5 -233t-212 -153t-272.5 -54t-253.5 54.5t-157 152t-66 234zM383 717q-110 -606 297 -606
q72 0 134 19.5t109 53t87 81.5t68 100t50.5 114.5t36.5 118.5t25 119q105 604 -297 604q-405 0 -510 -604z" />
    <glyph glyph-name="afii10033" unicode="&#x41f;" horiz-adv-x="1247" 
d="M156 57l211 1188q7 41 19.5 72t34.5 59t59 43t87 15h627q67 0 102.5 -27t38.5 -69t-4 -93l-211 -1188q-13 -75 -100 -75q-37 0 -59 17t-15 58l205 1164q6 32 -4 44.5t-41 12.5h-504q-31 0 -45 -12.5t-20 -44.5l-207 -1164q-13 -75 -101 -75q-86 0 -73 75z" />
    <glyph glyph-name="afii10034" unicode="&#x420;" horiz-adv-x="1132" 
d="M156 57l211 1188q7 41 19.5 72t34.5 59t59 43t87 15h326q193 0 295 -116.5t69 -311.5q-34 -187 -172.5 -305.5t-324.5 -118.5h-336l-94 -525q-13 -75 -101 -75q-86 0 -73 75zM449 731h321q121 0 205 76t106 199q21 119 -33 197.5t-169 78.5h-277q-30 0 -44.5 -13
t-20.5 -44z" />
    <glyph glyph-name="afii10035" unicode="&#x421;" horiz-adv-x="1216" 
d="M176 473q1 113 23 244q29 168 85.5 300.5t143.5 232t212 153t280 53.5q205 0 319.5 -120.5t97.5 -336.5q-5 -75 -88 -75q-37 0 -58 15t-20 46q1 66 -14.5 124.5t-47.5 107t-87 76.5t-127 28q-86 0 -157 -25t-122.5 -72t-90.5 -103t-66 -128.5t-44 -136.5t-30 -139
q-12 -64 -18 -119t-6.5 -118.5t8.5 -114.5t31.5 -100t58 -81.5t92.5 -52.5t131 -20t138 27t111.5 75.5t83 105.5t62.5 127q20 64 99 64q45 0 57.5 -23t3.5 -53q-57 -205 -210.5 -331t-369.5 -126q-125 0 -218 35t-149 100t-85.5 156.5t-28.5 204.5z" />
    <glyph glyph-name="afii10036" unicode="&#x422;" horiz-adv-x="1013" 
d="M279 1354q16 80 83 80h807q38 0 50.5 -23t5.5 -57q-12 -76 -82 -76h-318l-213 -1219q-15 -77 -100 -77q-89 0 -74 77l213 1219h-315q-69 0 -57 76z" />
    <glyph glyph-name="afii10037" unicode="&#x423;" horiz-adv-x="1042" 
d="M156 35q-5 15 2 37q7 38 23.5 55.5t56.5 13.5q40 -3 72.5 3.5t52 16t39 31.5t27 33.5t22.5 38.5l88 154l-273 946q-11 41 16.5 58.5t71.5 17.5q45 0 61.5 -14.5t30.5 -61.5l179 -619q19 -67 30 -139q12 29 70 137l354 621q28 49 49.5 62.5t81.5 13.5q26 0 42.5 -6
t23.5 -23t-12 -47l-629 -1085q-102 -176 -188 -238.5t-230 -50.5q-10 1 -16.5 2.5t-18.5 6t-16.5 13t-9.5 23.5z" />
    <glyph glyph-name="afii10038" unicode="&#x424;" horiz-adv-x="1421" 
d="M156 733q46 258 230.5 417t461.5 155l10 59q15 76 100 76q89 0 74 -76l-10 -59q173 -2 295.5 -80t173 -212t22.5 -300q-45 -252 -235 -413.5t-463 -170.5l-12 -72q-13 -75 -101 -75q-86 0 -73 75l12 72q-184 11 -304.5 92.5t-165.5 213t-15 298.5zM336 723
q-37 -206 53 -331.5t275 -133.5l161 918q-187 0 -319.5 -122.5t-169.5 -330.5zM838 258q196 1 325.5 127.5t167.5 337.5q35 209 -55 331t-277 122z" />
    <glyph glyph-name="afii10039" unicode="&#x425;" horiz-adv-x="1064" 
d="M31.5 17q-0.5 14 13.5 36l535 705l-246 606q-31 76 55 76q64 0 92 -15.5t45 -60.5l168 -463l336 459q33 45 72 62.5t104 17.5q87 0 29 -76l-471 -616l278 -691q12 -27 -1.5 -45t-36.5 -24t-50 -6q-18 0 -25.5 0.5t-21 4t-21 11t-16.5 22.5t-18 37l-207 539l-395 -539
q-20 -28 -36 -44t-33.5 -22.5t-28 -7.5t-33.5 -1q-20 0 -37 3t-33.5 10.5t-17 21.5z" />
    <glyph glyph-name="afii10040" unicode="&#x426;" horiz-adv-x="1294" 
d="M155.5 115.5q-2.5 34.5 6.5 72.5l207 1176q12 76 100 76q86 0 74 -76l-203 -1153q-6 -31 4 -44t41 -13h569l215 1210q12 76 101 76q85 0 73 -76l-215 -1210h31q76 0 102.5 -33.5t14.5 -104.5l-43 -249q-13 -76 -90 -76q-79 0 -66 76l35 196q3 19 -9.5 28t-25.5 9h-780
q-51 0 -83 15t-44 40.5t-14.5 60z" />
    <glyph glyph-name="afii10041" unicode="&#x427;" horiz-adv-x="1134" 
d="M222 718.5q-15 62.5 1 145.5l88 500q12 76 101 76q85 0 73 -76l-88 -500q-19 -101 33.5 -163t163.5 -62q90 0 176 38.5t148.5 110t78.5 158.5l74 418q12 76 100 76q86 0 74 -76l-231 -1307q-13 -75 -101 -75q-86 0 -73 75l106 607q-68 -71 -171.5 -119.5t-219.5 -48.5
q-56 0 -107 11.5t-100 37.5t-80 68.5t-46 105z" />
    <glyph glyph-name="afii10042" unicode="&#x428;" horiz-adv-x="1769" 
d="M155.5 115.5q-2.5 34.5 6.5 72.5l207 1176q12 76 100 76q86 0 74 -76l-203 -1153q-6 -31 4 -44t41 -13h438l213 1210q12 76 103 76q34 0 55.5 -20.5t15.5 -55.5l-213 -1210h439q31 0 45.5 13t19.5 44l205 1153q12 76 100 76q86 0 74 -76l-209 -1176q-14 -88 -58.5 -138
t-142.5 -50h-1173q-51 0 -83 15t-44 40.5t-14.5 60z" />
    <glyph glyph-name="afii10043" unicode="&#x429;" horiz-adv-x="1849" 
d="M160 188l209 1176q12 76 100 76q86 0 74 -76l-205 -1153q-5 -31 5.5 -44t41.5 -13h438l213 1210q12 76 101 76q85 0 73 -76l-213 -1210h494l213 1210q12 76 100 76q37 0 59 -18.5t15 -57.5l-213 -1210h45q77 0 104 -33.5t15 -104.5l-45 -249q-13 -76 -90 -76
q-79 0 -66 76l35 196q-1 7 0.5 12t-1 9t-2.5 7t-4 4.5t-5 2.5t-5.5 1.5t-5.5 0.5h-6h-4h-1333q-90 0 -121 51.5t-16 136.5z" />
    <glyph glyph-name="afii10044" unicode="&#x42a;" horiz-adv-x="1312" 
d="M238 1354q16 80 84 80h286q77 0 103 -35t14 -107l-76 -434h336q188 0 285 -115.5t63 -302.5q-33 -196 -178.5 -318t-337.5 -122h-325q-96 0 -123.5 50t-12.5 138l187 1047q6 43 -33 43h-215q-69 0 -57 76zM535 211q-6 -31 5 -44t42 -13h274q115 0 197.5 83t103.5 203
q22 122 -35 192t-180 70h-319z" />
    <glyph glyph-name="afii10045" unicode="&#x42b;" horiz-adv-x="1568" 
d="M156 115.5q-3 34.5 6 72.5l209 1186q12 76 100 76q89 0 74 -76l-90 -516h323q187 0 284.5 -115.5t63.5 -302.5q-35 -196 -179.5 -318t-336.5 -122h-313q-50 0 -82 15t-44 40.5t-15 60zM340 211q-6 -31 5 -44t42 -13h262q115 0 197.5 83t103.5 203q22 122 -35 192t-180 70
h-307zM1253 57l232 1307q12 76 100 76q86 0 74 -76l-232 -1307q-13 -75 -100 -75q-37 0 -59 17t-15 58z" />
    <glyph glyph-name="afii10046" unicode="&#x42c;" horiz-adv-x="1116" 
d="M155.5 115.5q-2.5 34.5 6.5 72.5l209 1186q12 76 100 76q86 0 74 -76l-92 -516h338q187 0 283.5 -115.5t64.5 -302.5q-35 -197 -180 -318.5t-338 -121.5h-324q-51 0 -83 15t-44 40.5t-14.5 60zM340 211q-6 -31 4 -44t41 -13h277q115 0 197.5 83t103.5 203
q22 122 -36.5 192t-181.5 70h-319z" />
    <glyph glyph-name="afii10047" unicode="&#x42d;" horiz-adv-x="1226" 
d="M135 434q2 30 23 51.5t67 24.5q36 2 56.5 -14.5t19.5 -49.5q-2 -69 13 -128t48 -106t90 -74t132 -27q96 0 174.5 34t129.5 86t90.5 129.5t61.5 149t39 158.5h-508q-67 0 -55 77q16 80 84 80h504q8 66 8.5 122t-6.5 114.5t-28.5 103.5t-56 81t-91 55.5t-131.5 19.5
q-147 0 -251.5 -95t-150.5 -241q-21 -64 -100 -61q-45 1 -57.5 23t-3.5 52q29 97 77.5 177t119 144t170 100t218.5 36q125 0 217.5 -35t147.5 -99.5t84 -156t27.5 -204.5t-23.5 -244q-29 -168 -84.5 -300t-141 -232.5t-209 -154t-278.5 -53.5q-119 0 -206.5 36t-136.5 99.5
t-69.5 144t-13.5 177.5z" />
    <glyph glyph-name="afii10048" unicode="&#x42e;" horiz-adv-x="1808" 
d="M158 57l229 1307q12 76 100 76q86 0 74 -76l-92 -524h268q74 290 242 453t434 163q121 0 211.5 -35t144.5 -99.5t82.5 -156t27 -204.5t-23.5 -244q-29 -167 -85 -300t-141.5 -233t-206 -153.5t-269.5 -53.5q-116 0 -204 33t-142.5 94.5t-85.5 148.5t-32.5 195t16.5 234
h-265l-108 -625q-15 -75 -101 -75q-88 0 -73 75zM871.5 441q0.5 -73 18.5 -129t51 -103t93.5 -72.5t143.5 -25.5q72 0 133 20t106.5 52.5t83.5 81.5t63.5 99.5t46.5 114.5t34 118.5t24 119.5q12 64 18.5 119t8 118.5t-6.5 114t-29 99.5t-54.5 81t-88 52t-126.5 20
t-133.5 -20t-107 -52.5t-83.5 -81t-64 -99t-47.5 -114t-34.5 -118.5t-24 -119q-14 -76 -20 -139.5t-5.5 -136.5z" />
    <glyph glyph-name="afii10049" unicode="&#x42f;" horiz-adv-x="1155" 
d="M53 68q42 54 78 107.5t90 141t70 111.5q54 82 109.5 138t127.5 87q-146 31 -217 123t-43 248q23 129 96.5 222.5t180 140.5t235.5 47h324q67 0 102 -27t37.5 -69t-4.5 -93l-209 -1188q-13 -75 -100 -75q-37 0 -59 17t-15 58l98 561h-135q-122 0 -205 -58t-172 -202
q-16 -26 -65.5 -110t-87 -136t-84.5 -98q-21 -19 -60.5 -28t-72.5 -2q-72 16 -19 84zM444 1024q-13 -69 4 -120.5t58 -81t95 -44t120 -14.5h260l82 461q5 31 -5.5 44t-41.5 13h-277q-116 0 -195.5 -70.5t-99.5 -187.5z" />
    <glyph glyph-name="afii10065" unicode="&#x430;" horiz-adv-x="1011" 
d="M93.5 286q-0.5 69 10.5 146q46 281 247 455t485 174h92q46 0 75 -12t42 -27.5t16 -45.5t0.5 -49.5t-8.5 -56.5l-105 -583q-16 -101 -16 -238q0 -39 -14 -56t-50 -18q-34 -2 -56.5 14.5t-25.5 47.5q-4 26 -5 50t-0.5 36.5t2 37t1.5 34.5q-44 -93 -153 -158.5t-215 -65.5
q-81 0 -142.5 23.5t-99 65t-59 99.5t-22 127zM260 350q-2 -46 6.5 -90.5t29 -76t59.5 -51t94 -19.5q77 0 147.5 47.5t119 121t81 153t45.5 153.5l51 291q5 29 -3 41t-40 12q-139 0 -258.5 -55t-205.5 -166t-114 -262q-10 -53 -12 -99z" />
    <glyph glyph-name="afii10066" unicode="&#x431;" horiz-adv-x="1046" 
d="M155.5 408q1.5 66 12.5 139q14 89 33.5 168.5t51 169.5t77 167.5t106 150.5t144 133.5t184.5 101.5q31 13 97.5 34.5t117 43.5t90.5 51q34 25 64 15t41 -46q11 -35 -4.5 -63t-61.5 -56q-22 -13 -69 -31t-124.5 -45.5t-113.5 -40.5q-278 -103 -406 -385l4 -2
q69 76 157 121t181 45q98 0 168.5 -26.5t111 -73t59 -116.5t17.5 -151t-18 -182q-97 -550 -551 -550q-85 0 -151 22.5t-107.5 63t-67.5 93t-35 118t-7.5 131.5zM322 413q-3 -55 6 -113t32 -99.5t70.5 -68t116.5 -26.5q68 0 124.5 26.5t94 68t67 99.5t45.5 113t27 117
t14 116.5t-6 112.5t-32 99t-70.5 67.5t-116.5 26.5q-68 0 -124.5 -26.5t-94 -67.5t-67 -99t-45.5 -112.5t-27 -116.5t-14 -117z" />
    <glyph glyph-name="afii10067" unicode="&#x432;" horiz-adv-x="942" 
d="M152 530q97 549 550 549q71 0 126 -16.5t86.5 -44t52 -63t23 -74t-0.5 -76.5q-9 -69 -85.5 -146.5t-137.5 -85.5q76 -10 133 -76.5t43 -172.5q-12 -96 -81 -176.5t-163.5 -124t-189.5 -43.5q-453 0 -356 550zM295.5 341q4.5 -69 25 -121.5t72.5 -84t131 -31.5
q93 0 167 62.5t83 157.5q7 86 -44.5 129t-158.5 51q-53 3 -133 -3t-131 -16q-16 -75 -11.5 -144zM334 616q99 3 221 19q51 7 90 17.5t78 29.5t65.5 52t38.5 79q17 64 -22.5 101.5t-124.5 37.5q-73 0 -133 -28t-101 -77.5t-68 -106t-44 -124.5z" />
    <glyph glyph-name="afii10068" unicode="&#x433;" horiz-adv-x="933" 
d="M98 297q7 40 21 75t31 62t42 50t48 39.5t56.5 31t59.5 23.5t65 18.5t65 14.5t67 12q2 0 31 5.5t36 6.5t34.5 7.5t37.5 10.5t34 12.5t34.5 16.5t28 20.5t26 25.5t17 31t12.5 38q11 56 -21 95.5t-79 55t-99 15.5q-92 0 -156 -36.5t-88 -107.5q-18 -49 -92 -49q-49 0 -64 18
t5 64q55 124 160 181t266 57q70 0 133 -19.5t111.5 -56.5t70.5 -99t8 -139q-6 -36 -19 -67t-28 -54.5t-38.5 -44t-43.5 -35t-52 -27.5t-54 -21t-59.5 -16.5t-58.5 -13t-60 -11.5q-6 -1 -9.5 -1.5t-8.5 -1.5t-9 -2q-33 -6 -50.5 -9.5t-51 -12t-53.5 -17.5t-47 -24.5
t-43 -33.5t-30 -44t-20 -57q-14 -81 43 -132t142 -51q127 0 200 48t113 147q30 66 108 59q32 -3 46 -25t2 -59q-47 -140 -168 -219.5t-301 -79.5q-61 0 -115.5 11t-103.5 35.5t-82.5 61.5t-47.5 93t-2 125z" />
    <glyph glyph-name="afii10069" unicode="&#x434;" horiz-adv-x="1036" 
d="M135 364q1 82 15 173q15 85 45 165.5t79.5 154.5t111 127t146 81t179.5 18q81 -7 143.5 -58.5t89.5 -127.5q9 71 0 143q-17 120 -84.5 198.5t-189.5 84.5q-112 4 -193 -31q-16 -7 -31.5 -11t-33 -4t-29 10.5t-14.5 31.5q-12 80 57 106q126 44 240 41q104 -3 182 -39
t124 -91.5t73.5 -134.5t35.5 -158.5t3 -173t-16 -168.5t-28 -154q-9 -44 -23.5 -90.5t-39 -103.5t-55 -108t-75 -100.5t-95.5 -85t-119 -57.5t-144 -22q-90 0 -159 29t-109 80.5t-63.5 122t-22.5 152.5zM311 422.5q-4 -53.5 3 -111t27.5 -98t63.5 -66.5t107 -26
q66 0 127.5 39t105 101t74 132.5t45.5 141.5q10 50 13 100.5t-5 105.5t-29 97t-64 71.5t-105 32.5q-76 4 -139 -33t-104 -100t-66.5 -131t-38.5 -141q-11 -61 -15 -114.5z" />
    <glyph glyph-name="afii10070" unicode="&#x435;" 
d="M155 383.5q-3 68.5 11 140.5q19 113 63.5 212t113.5 179.5t170 127.5t222 47q195 0 289 -119.5t57 -313.5q-5 -32 -14 -54t-28.5 -43.5t-57 -32.5t-92.5 -11h-545q-11 -64 -11.5 -121.5t12 -111t39.5 -92.5t75 -62t114 -23q89 0 165 48.5t118 136.5q14 26 41.5 40.5
t56.5 10.5q34 -5 46.5 -25t-1.5 -57q-38 -91 -111.5 -157.5t-162.5 -99t-184 -32.5q-79 0 -143.5 21t-108 58.5t-75 89.5t-44 113.5t-15.5 130zM371 639h510q22 0 34.5 10.5t16.5 38.5q17 129 -38 202t-175 73q-85 0 -161 -49t-123.5 -122t-63.5 -153z" />
    <glyph glyph-name="afii10072" unicode="&#x436;" horiz-adv-x="1345" 
d="M61 45q72 121 142 272q108 240 297 279q-46 20 -78.5 54.5t-48.5 67t-33 83.5q-4 14 -23.5 87t-35.5 109q-28 78 57 88q60 4 80 -36q15 -27 24.5 -62.5t18 -78.5t14.5 -64q25 -82 82 -137t148 -68l65 371q12 71 92 71q76 0 64 -71l-66 -371q176 23 297 215q13 21 37 61.5
t45 73.5t45 60q36 41 102 36q85 -10 27 -88q-26 -34 -67.5 -103t-57.5 -93q-49 -75 -103.5 -125t-133.5 -80q52 -11 89.5 -38t59.5 -66.5t33.5 -81t17.5 -93.5q19 -171 43 -272q14 -52 -51 -65q-64 -13 -84 20q-11 16 -18.5 37.5t-12 52t-7 50t-5.5 59t-4 51.5
q-6 60 -14 98.5t-26 75.5t-46 57t-74.5 30.5t-111.5 8.5l-82 -471q-13 -69 -90 -69q-79 0 -66 69l82 471q-64 2 -112.5 -9t-81 -29.5t-62 -58t-48 -74.5t-46.5 -99q-67 -148 -103 -200q-21 -30 -41 -50q-13 -15 -41.5 -20.5t-56.5 0.5q-59 13 -31 65z" />
    <glyph glyph-name="afii10073" unicode="&#x437;" horiz-adv-x="894" 
d="M94 283q1 36 27.5 53.5t62.5 17.5q35 2 52 -12.5t14 -48.5q-7 -99 48.5 -150t150.5 -51q105 0 175 57t87 156q10 55 -7.5 94.5t-54.5 59.5t-81 27.5t-95 5.5q-65 -3 -53 65q6 35 27 48t57 13q45 0 86 9t79.5 28t65 55.5t35.5 86.5q13 78 -31.5 124t-128.5 46
q-210 0 -264 -189q-7 -24 -27.5 -36.5t-44.5 -12.5q-34 -2 -56 15.5t-13 46.5q36 149 149.5 224t278.5 75q71 0 130.5 -16.5t104.5 -50t65 -89t7 -127.5q-29 -163 -233 -246q208 -62 170 -260q-27 -155 -150 -242.5t-291 -87.5t-259.5 79t-82.5 233z" />
    <glyph glyph-name="afii10074" unicode="&#x438;" 
d="M168 375l111 635q12 71 92 71q79 0 67 -71l-108 -623q-9 -48 -12 -84t2 -73t20.5 -61t48 -39t80.5 -15q69 0 134.5 37t113 95.5t80.5 128t45 136.5l88 498q12 71 92 71t68 -71l-168 -949q-10 -71 -93 -71q-32 0 -47 15.5t-8 55.5l25 142q-160 -223 -379 -223
q-172 0 -229 103t-23 292z" />
    <glyph glyph-name="afii10075" unicode="&#x439;" 
d="M168 375l111 635q12 71 92 71q79 0 67 -71l-108 -623q-9 -48 -12 -84t2 -73t20.5 -61t48 -39t80.5 -15q69 0 134.5 37t113 95.5t80.5 128t45 136.5l88 498q12 71 92 71t68 -71l-168 -949q-10 -71 -93 -71q-32 0 -47 15.5t-8 55.5l25 142q-160 -223 -379 -223
q-172 0 -229 103t-23 292zM487 1366q-15 54 29 72q20 10 42.5 5t35.5 -24q29 -44 62.5 -62t86.5 -18q50 0 89 17t92 63q18 19 43 24t39 -5q40 -18 4 -72q-41 -66 -121 -103.5t-166 -37.5q-95 0 -157.5 44t-78.5 97z" />
    <glyph glyph-name="afii10076" unicode="&#x43a;" horiz-adv-x="917" 
d="M135 49l170 961q12 71 92 71t68 -71l-66 -373q56 4 100.5 18t81.5 42t61.5 55t59.5 71q13 17 68 96t92 121q15 17 46 30t67 9q41 -3 51 -23t-18 -61q-30 -38 -86 -113t-80 -106q-102 -132 -228 -180q51 -11 89 -38t61 -67t36 -81t21 -93q9 -60 18.5 -102.5t23 -91.5
t20.5 -78q11 -53 -52 -65q-29 -6 -53 -0.5t-33 20.5q-11 16 -19 36.5t-15.5 51t-11 47t-10.5 58t-9 51.5q-13 76 -29 122t-48.5 85.5t-87.5 54.5t-138 10l-82 -467q-13 -69 -92 -69q-81 0 -68 69z" />
    <glyph glyph-name="afii10077" unicode="&#x43b;" horiz-adv-x="980" 
d="M18 61q6 21 18.5 32.5t25 14.5t40.5 5q15 1 27.5 7.5t21.5 14t18 21.5t14 23.5t11 28t8.5 25.5t7 26t5.5 22l141 589q1 6 6.5 27.5t7.5 28.5t7.5 25.5t10 26t13 22t17.5 21t22.5 16t28.5 13.5t35 7.5t43 3.5h327q29 0 52 -4t37.5 -13.5t24.5 -18t14 -26t6.5 -28.5t0 -33
t-4 -33t-5.5 -35l-145 -821q-13 -69 -92 -69q-81 0 -68 69l146 830q5 29 -3 41t-40 12h-224q-31 0 -42.5 -12t-18.5 -41l-145 -600q-13 -55 -24 -90t-34 -80.5t-52 -71.5t-76.5 -42.5t-108.5 -12.5q-77 4 -54 79z" />
    <glyph glyph-name="afii10078" unicode="&#x43c;" horiz-adv-x="1208" 
d="M135 49l168 946q10 72 100 72q36 0 54.5 -17.5t31.5 -54.5l197 -522l379 522q27 37 52.5 54.5t62.5 17.5q38 0 61 -17.5t16 -54.5l-165 -946q-13 -69 -84 -69q-77 0 -64 69l137 772q-19 -47 -73 -125l-252 -344q-25 -34 -46 -50.5t-48 -16.5q-54 0 -78 67l-131 344
q-1 3 -8.5 24t-11.5 32.5t-8 31.5t-5 37l-137 -772q-13 -69 -88 -69q-73 0 -60 69z" />
    <glyph glyph-name="afii10079" unicode="&#x43d;" horiz-adv-x="1028" 
d="M135 49l170 961q10 71 92 71q78 0 68 -71l-70 -389h453l70 389q10 71 92 71q77 0 67 -71l-170 -961q-13 -69 -92 -69q-80 0 -67 69l77 443h-452l-78 -443q-13 -69 -92 -69q-81 0 -68 69z" />
    <glyph glyph-name="afii10080" unicode="&#x43e;" horiz-adv-x="1026" 
d="M152 530q97 551 550 551q454 0 357 -551q-97 -550 -551 -550q-453 0 -356 550zM306.5 409.5q-3.5 -56.5 4.5 -116.5t31 -102.5t70 -69.5t116 -27q58 0 107 18.5t85 51.5t65 74.5t49 92.5t33 98.5t22 100.5t13 100.5t2 99t-16 92.5t-38.5 74.5t-67 52t-100.5 18.5
q-69 0 -125.5 -27.5t-94.5 -70t-67.5 -102t-45.5 -116.5t-27 -121q-12 -64 -15.5 -120.5z" />
    <glyph glyph-name="afii10081" unicode="&#x43f;" horiz-adv-x="1042" 
d="M135 49l168 950q13 70 88 70t62 -70l-25 -143q158 225 387 225q76 0 129.5 -26.5t79.5 -65t37.5 -91t11 -95t-7.5 -86.5l-119 -668q-13 -69 -92 -69q-34 0 -54.5 15.5t-13.5 53.5l117 658q9 37 5.5 78.5t-15 75.5t-47 56.5t-90.5 22.5q-92 0 -174 -59t-131.5 -144
t-65.5 -176l-90 -512q-10 -69 -92 -69q-74 0 -68 69z" />
    <glyph glyph-name="afii10082" unicode="&#x440;" horiz-adv-x="1064" 
d="M74 -311l233 1321q12 71 88 71q74 0 62 -71l-21 -113q161 190 361 190q396 0 301 -557q-21 -116 -60.5 -213.5t-100 -176t-149 -123t-196.5 -44.5q-97 0 -172.5 56.5t-100.5 142.5l-86 -483q-13 -72 -92 -72q-80 0 -67 72zM367.5 356.5q8.5 -65.5 31.5 -119.5t74.5 -88
t122.5 -34q64 0 115.5 26.5t85 66t60 98t40.5 110t25 114.5q75 416 -181 416q-70 0 -132 -32.5t-105 -85t-72 -115t-41 -127.5l-18 -101q-14 -63 -5.5 -128.5z" />
    <glyph glyph-name="afii10083" unicode="&#x441;" horiz-adv-x="978" 
d="M172 530q97 551 551 551q75 0 133 -21t92 -53t55 -74.5t28.5 -80t6.5 -74.5q-2 -42 -18 -62.5t-55 -23.5q-79 -6 -82 58q-11 202 -183 202q-281 0 -360 -422q-11 -62 -14 -117t6 -113t32 -99.5t70.5 -68t116.5 -26.5q172 0 254 205q12 30 39 44.5t63 11.5q37 -3 47 -23.5
t-4 -60.5q-12 -37 -32.5 -74.5t-57 -80t-81.5 -74.5t-110.5 -53t-140.5 -21q-453 0 -356 550z" />
    <glyph glyph-name="afii10084" unicode="&#x442;" horiz-adv-x="1619" 
d="M135 49l168 950q13 70 90 70q73 0 60 -70l-25 -143q86 123 173 174t192 51q75 0 131.5 -35.5t83.5 -85t30 -102.5q69 96 163 159.5t204 63.5q76 0 128 -26.5t76 -65t33 -91.5t6.5 -94.5t-10.5 -86.5l-116 -668q-13 -69 -95 -69q-78 0 -65 69l115 658q6 35 8.5 63t-2 61.5
t-18.5 56t-44 37.5t-75 15q-64 0 -136.5 -43t-129 -118t-70.5 -158l-101 -572q-13 -69 -94 -69q-78 0 -65 69l110 629q42 262 -127 262q-118 0 -217 -103t-123 -239l-96 -549q-13 -69 -94 -69q-34 0 -54.5 15.5t-13.5 53.5z" />
    <glyph glyph-name="afii10085" unicode="&#x443;" horiz-adv-x="907" 
d="M37 -260q6 21 17.5 33t29 13.5t26.5 1t27 -4.5q61 -13 95 16t69 95l90 169l-180 947q-13 71 70 71q81 0 94 -71l106 -594q19 -102 21 -174q48 120 82 186l295 582q36 71 106 71q44 0 65 -17t1 -54l-584 -1112q-15 -28 -26 -48t-27.5 -47t-31.5 -45.5t-35.5 -40.5
t-40.5 -35.5t-45.5 -26.5t-52.5 -18t-60 -5t-68 8q-25 6 -40 31.5t-3 68.5z" />
    <glyph glyph-name="afii10086" unicode="&#x444;" horiz-adv-x="1294" 
d="M135 530q44 248 199 384t414 159l53 297q6 38 30.5 55t57.5 17t51.5 -17t11.5 -55l-53 -297q512 -34 422 -543t-612 -542l-50 -277q-12 -71 -88 -71q-75 0 -63 71l49 277q-240 18 -353 153.5t-69 388.5zM296 405q-1 -60 16 -113t48.5 -93.5t86 -67.5t128.5 -35l152 860
q-168 -13 -278 -130t-142 -296q-10 -65 -11 -125zM727 96q163 11 274.5 120t147.5 314q24 138 -3.5 232t-95 140t-171.5 54z" />
    <glyph glyph-name="afii10087" unicode="&#x445;" horiz-adv-x="907" 
d="M37 -1q-15 19 16 62l420 512l-192 431q-18 37 1.5 57t63.5 20q22 0 32 -1t23 -6t21.5 -16.5t15.5 -31.5l131 -342l260 342q28 36 53 45.5t68 9.5q27 0 44.5 -6t23.5 -21.5t-17 -41.5l-362 -453l242 -510q17 -36 -8.5 -52.5t-69.5 -16.5q-29 0 -40.5 2t-23 13.5
t-22.5 37.5l-176 413l-324 -413q-30 -36 -51 -44.5t-62 -8.5q-52 0 -67 19z" />
    <glyph glyph-name="afii10088" unicode="&#x446;" horiz-adv-x="1052" 
d="M155.5 96q3.5 41 9.5 89q1 3 1 5l145 820q10 71 92 71q78 0 68 -71l-147 -830q-5 -27 3.5 -39t41.5 -12h397l156 881q12 71 92 71q79 0 67 -71l-155 -881h49q62 0 82 -28t10 -87l-33 -188q-13 -70 -86 -70q-68 0 -55 70l25 143q3 15 -3 22.5t-11 8t-15 0.5h-600
q-73 0 -105 27.5t-28.5 68.5z" />
    <glyph glyph-name="afii10089" unicode="&#x447;" horiz-adv-x="937" 
d="M193 668l59 342q12 71 92 71t68 -71l-52 -295q-22 -126 7.5 -178t130.5 -52q111 0 186 69t90 151l53 305q12 71 93 71q79 0 67 -71l-170 -961q-13 -69 -92 -69q-34 0 -54.5 15.5t-13.5 53.5l76 424q-53 -47 -129.5 -77.5t-142.5 -30.5q-323 0 -268 303z" />
    <glyph glyph-name="afii10090" unicode="&#x448;" horiz-adv-x="1511" 
d="M155 88q-2 12 0.5 33t4.5 33.5t6 35.5l143 820q12 71 92 71t68 -71l-145 -830q-5 -27 3 -39t40 -12h333l156 881q10 71 92 71q80 0 68 -71l-156 -881h332q33 0 45.5 12t17.5 39l146 830q12 71 92 71t68 -71l-144 -820q-5 -32 -8.5 -47.5t-12.5 -42.5t-21 -41t-31.5 -30
t-49 -22.5t-67.5 -6.5h-938q-29 0 -51.5 4t-37 13t-24.5 18t-14.5 25t-6.5 28z" />
    <glyph glyph-name="afii10091" unicode="&#x449;" horiz-adv-x="1583" 
d="M155.5 96q3.5 41 9.5 89q1 3 1 5l145 820q4 33 30 52t62 19q78 0 68 -71l-147 -830q-9 -51 45 -51h331l156 881q12 71 92 71t68 -71l-156 -881h387l156 881q10 71 92 71q78 0 68 -71l-156 -881h70q62 0 82 -28t10 -87l-33 -188q-13 -70 -86 -70q-67 0 -57 70l26 143
q2 12 0.5 19t-8 9t-9.5 2.5t-11 0.5h-1102q-73 0 -105 27.5t-28.5 68.5z" />
    <glyph glyph-name="afii10092" unicode="&#x44a;" horiz-adv-x="1056" 
d="M186 995q3 28 20 47t48 19h235q62 0 84 -28.5t13 -86.5l-54 -295h297q152 0 225 -88.5t48 -234.5q-26 -144 -137.5 -236t-253.5 -92h-295q-26 0 -47 4t-35.5 9t-24.5 16t-16.5 19t-8.5 24.5t-3 26t1 30.5t3.5 29.5t5.5 31.5l127 711q2 15 -4.5 22.5t-11 8t-13.5 0.5h-158
q-56 0 -45 63zM451 180q-5 -27 3 -39t40 -12h217q89 0 143 50t72 143q35 200 -146 200h-270z" />
    <glyph glyph-name="afii10093" unicode="&#x44b;" horiz-adv-x="1318" 
d="M155 88q-2 11 0 33t3.5 33.5t5.5 35.5l145 820q12 71 92 71t68 -71l-63 -359h266q152 0 224.5 -88.5t45.5 -234.5q-25 -143 -136 -235.5t-253 -92.5h-264q-29 0 -51.5 4t-37 13t-25 18t-14.5 25.5t-6 27.5zM324 180q-5 -27 3 -39t40 -12h184q90 0 145 50.5t70 142.5
q35 200 -145 200h-238zM1038 49l168 961q12 71 94 71q78 0 68 -71l-170 -961q-13 -69 -92 -69q-81 0 -68 69z" />
    <glyph glyph-name="afii10094" unicode="&#x44c;" horiz-adv-x="972" 
d="M155.5 96q3.5 41 9.5 89q1 3 1 5l143 820q12 71 92 71t68 -71l-63 -359h299q152 0 223.5 -88t46.5 -235q-26 -144 -137.5 -236t-253.5 -92h-295q-73 0 -105 27.5t-28.5 68.5zM324 180q-5 -27 3.5 -39t41.5 -12h215q89 0 143 50t72 143q35 200 -146 200h-270z" />
    <glyph glyph-name="afii10095" unicode="&#x44d;" horiz-adv-x="958" 
d="M125 283q0 41 17 61t57 23q79 6 82 -56q11 -205 188 -205q260 0 342 375h-348q-57 0 -45 66q12 63 67 63h349q3 52 3 101t-13.5 93t-36.5 77t-66.5 52t-102.5 19q-180 0 -260 -202q-27 -64 -102 -58q-39 3 -48.5 24t3.5 62q12 37 32.5 74.5t57 80t81.5 74.5t111 53
t142 21q453 0 356 -551q-97 -550 -551 -550q-75 0 -133.5 21t-92 53t-55 74.5t-28.5 80t-6 74.5z" />
    <glyph glyph-name="afii10096" unicode="&#x44e;" horiz-adv-x="1509" 
d="M156 49l170 961q12 71 92 71q79 0 67 -71l-65 -373h237q120 442 529 442q453 0 356 -549q-97 -550 -551 -550q-443 0 -360 528h-234l-80 -459q-13 -69 -94 -69q-33 0 -51.5 17t-15.5 52zM789.5 330.5q2.5 -51.5 16.5 -92t38.5 -74t67 -52t100.5 -18.5q68 0 124.5 27
t94 69.5t67 102.5t46 116.5t28.5 120.5q9 53 13 100.5t1.5 99t-16.5 92.5t-38.5 74.5t-67 52t-99.5 18.5q-69 0 -125.5 -27.5t-94.5 -69.5t-67.5 -102.5t-46 -116.5t-28.5 -121q-9 -53 -12.5 -100.5t-1 -99z" />
    <glyph glyph-name="afii10097" unicode="&#x44f;" horiz-adv-x="983" 
d="M55 10q-9 24 13 47q58 65 153 228q46 76 85 118.5t91 67.5q-95 20 -147 96.5t-35 173.5q27 154 138.5 237t269.5 83h278q92 0 116.5 -44.5t8.5 -137.5l-145 -830q-13 -69 -93 -69t-67 69l65 381h-137q-87 0 -162.5 -48.5t-128.5 -150.5q-78 -148 -147 -215
q-26 -26 -51 -34t-62 -2q-34 6 -43 30zM389 737q-16 -84 38 -131t142 -47h242l55 322q5 27 -3 39t-40 12h-207q-90 0 -150 -50t-77 -145z" />
    <glyph glyph-name="afii10071" unicode="&#x451;" 
d="M155 383.5q-3 68.5 11 140.5q19 113 63.5 212t113.5 179.5t170 127.5t222 47q195 0 289 -119.5t57 -313.5q-5 -32 -14 -54t-28.5 -43.5t-57 -32.5t-92.5 -11h-545q-11 -64 -11.5 -121.5t12 -111t39.5 -92.5t75 -62t114 -23q89 0 165 48.5t118 136.5q14 26 41.5 40.5
t56.5 10.5q34 -5 46.5 -25t-1.5 -57q-38 -91 -111.5 -157.5t-162.5 -99t-184 -32.5q-79 0 -143.5 21t-108 58.5t-75 89.5t-44 113.5t-15.5 130zM371 639h510q22 0 34.5 10.5t16.5 38.5q17 129 -38 202t-175 73q-85 0 -161 -49t-123.5 -122t-63.5 -153zM508 1341q8 49 34 75
t79 26q98 0 77 -101q-9 -52 -33 -80t-81 -28q-55 0 -70 27.5t-6 80.5zM846 1341q8 49 33.5 75t78.5 26t69.5 -26t8.5 -75q-9 -52 -33 -80t-81 -28q-56 0 -71 28t-5 80z" />
    <glyph glyph-name="afii10101" unicode="&#x454;" horiz-adv-x="968" 
d="M162 530q97 551 551 551q75 0 133.5 -21t92 -53t55 -74.5t28.5 -80t6 -74.5q0 -42 -17 -62.5t-57 -23.5q-36 -3 -58.5 12t-23.5 46q-11 202 -188 202q-74 0 -132 -28.5t-97 -80t-63.5 -107t-43.5 -126.5h348q57 0 45 -63q-12 -66 -67 -66h-350q-48 -375 211 -375
q177 0 262 205q24 62 100 56q38 -3 48 -23.5t-3 -60.5q-12 -37 -32.5 -74.5t-57 -80t-81.5 -74.5t-110.5 -53t-140.5 -21q-455 0 -358 550z" />
    <glyph glyph-name="afii10104" unicode="&#x457;" horiz-adv-x="487" 
d="M176 49l170 961q12 71 92 71t68 -71l-170 -961q-13 -69 -92 -69q-81 0 -68 69zM250 1341q8 47 32 72t76 25t68 -25t8 -72q-9 -50 -32.5 -77t-77.5 -27t-69 27t-5 77zM535 1341q8 47 32 72t76 25t68 -25t8 -72q-9 -50 -33 -77t-78 -27t-68 26.5t-5 77.5z" />
    <glyph glyph-name="afii10110" unicode="&#x45e;" horiz-adv-x="1253" 
d="M197 997q8 64 67 64h137l37 207q13 69 92 69q81 0 68 -69l-35 -207h381l35 207q13 69 92 69q81 0 68 -69l-35 -207h192q55 0 47 -64q-12 -65 -69 -65h-193l-106 -600q-36 -198 117 -203q29 -3 77 8q35 7 51.5 -2t10.5 -43q-5 -35 -18 -54.5t-44 -29.5q-46 -16 -96 -16
q-76 0 -129.5 17.5t-83.5 47t-43.5 74t-13 92.5t11.5 109l105 600h-381l-105 -600q-32 -198 117 -203q30 -3 78 8q35 7 51 -2t10 -43q-5 -35 -18 -54.5t-43 -29.5q-46 -16 -97 -16q-76 0 -129.5 17.5t-83.5 47t-43.5 74t-13 92.5t11.5 109l105 600h-137q-57 0 -45 65z" />
    <glyph glyph-name="uni2000" unicode="&#x2000;" horiz-adv-x="892" 
 />
    <glyph glyph-name="uni2001" unicode="&#x2001;" horiz-adv-x="1785" 
 />
    <glyph glyph-name="uni2002" unicode="&#x2002;" horiz-adv-x="892" 
 />
    <glyph glyph-name="uni2003" unicode="&#x2003;" horiz-adv-x="1785" 
 />
    <glyph glyph-name="uni2004" unicode="&#x2004;" horiz-adv-x="595" 
 />
    <glyph glyph-name="uni2005" unicode="&#x2005;" horiz-adv-x="446" 
 />
    <glyph glyph-name="uni2006" unicode="&#x2006;" horiz-adv-x="297" 
 />
    <glyph glyph-name="uni2007" unicode="&#x2007;" horiz-adv-x="297" 
 />
    <glyph glyph-name="uni2008" unicode="&#x2008;" horiz-adv-x="223" 
 />
    <glyph glyph-name="uni2009" unicode="&#x2009;" horiz-adv-x="357" 
 />
    <glyph glyph-name="uni200A" unicode="&#x200a;" horiz-adv-x="99" 
 />
    <glyph glyph-name="uni2010" unicode="&#x2010;" horiz-adv-x="653" 
d="M166 547q12 71 78 71h387q63 0 51 -71q-12 -72 -76 -72h-389q-63 0 -51 72z" />
    <glyph glyph-name="uni2011" unicode="&#x2011;" horiz-adv-x="653" 
d="M166 547q12 71 78 71h387q63 0 51 -71q-12 -72 -76 -72h-389q-63 0 -51 72z" />
    <glyph glyph-name="figuredash" unicode="&#x2012;" horiz-adv-x="653" 
d="M166 547q12 71 78 71h387q63 0 51 -71q-12 -72 -76 -72h-389q-63 0 -51 72z" />
    <glyph glyph-name="endash" unicode="&#x2013;" horiz-adv-x="1146" 
d="M197 719q12 72 75 72h873q63 0 51 -72q-12 -74 -78 -74h-870q-63 0 -51 74z" />
    <glyph glyph-name="emdash" unicode="&#x2014;" horiz-adv-x="1435" 
d="M166 539q11 63 70 63h1159q57 0 49 -63q-12 -62 -72 -62h-1159q-59 0 -47 62z" />
    <glyph glyph-name="quoteleft" unicode="&#x2018;" horiz-adv-x="364" 
d="M220 993q-15 32 13 78l187 334q14 27 31 37.5t47 7.5q24 -2 34 -17.5t3 -41.5l-123 -359q-26 -81 -127 -74q-50 3 -65 35z" />
    <glyph glyph-name="quoteright" unicode="&#x2019;" horiz-adv-x="364" 
d="M250 1018l123 358q26 81 127 74q50 -3 64.5 -35t-13.5 -78l-186 -333q-14 -27 -31 -38t-47 -8q-24 2 -34 18t-3 42z" />
    <glyph glyph-name="quotedblleft" unicode="&#x201c;" horiz-adv-x="636" 
d="M221.5 1074q-14.5 32 11.5 79l187 334q16 28 32 38t46 7q25 -2 35.5 -17.5t1.5 -41.5l-121 -361q-27 -79 -127 -74q-51 4 -65.5 36zM494 1074q-14 32 12 79l186 334q16 28 32 38t46 7q25 -2 35.5 -17.5t1.5 -41.5l-121 -361q-27 -79 -129 -74q-49 4 -63 36z" />
    <glyph glyph-name="quotedblright" unicode="&#x201d;" horiz-adv-x="626" 
d="M250 1018l121 358q27 82 127 74q51 -3 65.5 -35t-12.5 -78l-186 -333q-16 -28 -32.5 -38.5t-45.5 -7.5q-25 2 -35.5 18t-1.5 42zM522 1018l121 358q27 82 127 74q51 -3 65.5 -35t-12.5 -78l-186 -333q-16 -28 -32.5 -38.5t-45.5 -7.5q-25 2 -35.5 18t-1.5 42z" />
    <glyph glyph-name="bullet" unicode="&#x2022;" horiz-adv-x="731" 
d="M201 741q22 122 122.5 207.5t221.5 85.5q122 0 192.5 -86t48.5 -207t-122 -205.5t-222 -84.5t-192.5 84.5t-48.5 205.5z" />
    <glyph glyph-name="ellipsis" unicode="&#x2026;" horiz-adv-x="1294" 
d="M139 119q10 60 41.5 90.5t98.5 30.5q68 0 87.5 -30.5t8.5 -90.5q-10 -63 -41.5 -96t-100.5 -33q-68 0 -87 32.5t-7 96.5zM549 119q11 60 42.5 90.5t98.5 30.5q68 0 87.5 -30.5t8.5 -90.5q-10 -63 -41 -96t-100 -33q-68 0 -87 32.5t-9 96.5zM961 119q11 60 42.5 90.5
t98.5 30.5t86.5 -30t9.5 -91q-10 -63 -41 -96t-100 -33q-68 0 -87 32.5t-9 96.5z" />
    <glyph glyph-name="uni202F" unicode="&#x202f;" horiz-adv-x="357" 
 />
    <glyph glyph-name="uni205F" unicode="&#x205f;" horiz-adv-x="446" 
 />
    <glyph glyph-name="Euro" unicode="&#x20ac;" horiz-adv-x="1380" 
d="M119 592q24 63 80 63h153q10 70 23 127h-127q-54 0 -33 64q24 61 80 61h113q80 261 247 406t426 145q96 0 171.5 -24t124.5 -65.5t79 -100t40.5 -125.5t4.5 -144q-2 -29 -22.5 -50.5t-65.5 -22.5q-81 -3 -78 61q2 69 -12.5 128t-46 106.5t-87 74.5t-130.5 27
q-339 0 -467 -416h336q57 0 33 -61q-25 -64 -80 -64h-320q-10 -41 -22 -127h295q54 0 30 -63q-24 -62 -78 -62h-262q-3 -70 3 -127.5t27 -112.5t56.5 -93t95.5 -61t140 -23q145 0 246 94.5t147 241.5q21 64 100 61q45 -1 58 -23.5t4 -52.5q-22 -77 -55.5 -143.5t-84.5 -125
t-114 -100t-146.5 -65t-179.5 -23.5q-260 0 -376 145.5t-105 407.5h-188q-53 0 -33 62z" />
    <glyph glyph-name="uniE000" unicode="&#xe000;" horiz-adv-x="1085" 
d="M0 0v1085h1085v-1085h-1085z" />
    </font>
</defs>
</svg>
